%TF.GenerationSoftware,KiCad,Pcbnew,9.0.5*%
%TF.CreationDate,2025-11-02T14:43:09-08:00*%
%TF.ProjectId,MK-KS-MkV,4d4b2d4b-532d-44d6-9b56-2e6b69636164,1.0b*%
%TF.SameCoordinates,PX3a67068PY5e08f30*%
%TF.FileFunction,Legend,Bot*%
%TF.FilePolarity,Positive*%
%FSLAX46Y46*%
G04 Gerber Fmt 4.6, Leading zero omitted, Abs format (unit mm)*
G04 Created by KiCad (PCBNEW 9.0.5) date 2025-11-02 14:43:09*
%MOMM*%
%LPD*%
G01*
G04 APERTURE LIST*
%ADD10C,0.200000*%
%ADD11C,0.150000*%
%ADD12C,0.100000*%
%ADD13C,0.080000*%
%ADD14C,0.120000*%
G04 APERTURE END LIST*
D10*
X3668000Y-29909500D02*
X6731000Y-29909500D01*
X6731000Y-45782500D01*
X3668000Y-45782500D01*
X3668000Y-29909500D01*
D11*
X18298020Y-2386428D02*
X33598020Y-2386428D01*
X33598020Y-30686428D01*
X18298020Y-30686428D01*
X18298020Y-2386428D01*
D12*
X30401278Y-29043847D02*
X30448897Y-29020037D01*
X30448897Y-29020037D02*
X30520326Y-29020037D01*
X30520326Y-29020037D02*
X30591754Y-29043847D01*
X30591754Y-29043847D02*
X30639373Y-29091466D01*
X30639373Y-29091466D02*
X30663183Y-29139085D01*
X30663183Y-29139085D02*
X30686992Y-29234323D01*
X30686992Y-29234323D02*
X30686992Y-29305751D01*
X30686992Y-29305751D02*
X30663183Y-29400989D01*
X30663183Y-29400989D02*
X30639373Y-29448608D01*
X30639373Y-29448608D02*
X30591754Y-29496228D01*
X30591754Y-29496228D02*
X30520326Y-29520037D01*
X30520326Y-29520037D02*
X30472707Y-29520037D01*
X30472707Y-29520037D02*
X30401278Y-29496228D01*
X30401278Y-29496228D02*
X30377469Y-29472418D01*
X30377469Y-29472418D02*
X30377469Y-29305751D01*
X30377469Y-29305751D02*
X30472707Y-29305751D01*
X30163183Y-29520037D02*
X30163183Y-29020037D01*
X30163183Y-29020037D02*
X29877469Y-29520037D01*
X29877469Y-29520037D02*
X29877469Y-29020037D01*
X29639373Y-29520037D02*
X29639373Y-29020037D01*
X29639373Y-29020037D02*
X29520325Y-29020037D01*
X29520325Y-29020037D02*
X29448897Y-29043847D01*
X29448897Y-29043847D02*
X29401278Y-29091466D01*
X29401278Y-29091466D02*
X29377468Y-29139085D01*
X29377468Y-29139085D02*
X29353659Y-29234323D01*
X29353659Y-29234323D02*
X29353659Y-29305751D01*
X29353659Y-29305751D02*
X29377468Y-29400989D01*
X29377468Y-29400989D02*
X29401278Y-29448608D01*
X29401278Y-29448608D02*
X29448897Y-29496228D01*
X29448897Y-29496228D02*
X29520325Y-29520037D01*
X29520325Y-29520037D02*
X29639373Y-29520037D01*
X21425088Y-26764275D02*
X21310802Y-26802370D01*
X21310802Y-26802370D02*
X21272707Y-26840466D01*
X21272707Y-26840466D02*
X21234611Y-26916656D01*
X21234611Y-26916656D02*
X21234611Y-27030942D01*
X21234611Y-27030942D02*
X21272707Y-27107132D01*
X21272707Y-27107132D02*
X21310802Y-27145228D01*
X21310802Y-27145228D02*
X21386992Y-27183323D01*
X21386992Y-27183323D02*
X21691754Y-27183323D01*
X21691754Y-27183323D02*
X21691754Y-26383323D01*
X21691754Y-26383323D02*
X21425088Y-26383323D01*
X21425088Y-26383323D02*
X21348897Y-26421418D01*
X21348897Y-26421418D02*
X21310802Y-26459513D01*
X21310802Y-26459513D02*
X21272707Y-26535704D01*
X21272707Y-26535704D02*
X21272707Y-26611894D01*
X21272707Y-26611894D02*
X21310802Y-26688085D01*
X21310802Y-26688085D02*
X21348897Y-26726180D01*
X21348897Y-26726180D02*
X21425088Y-26764275D01*
X21425088Y-26764275D02*
X21691754Y-26764275D01*
X30377469Y-24620037D02*
X30544135Y-24381942D01*
X30663183Y-24620037D02*
X30663183Y-24120037D01*
X30663183Y-24120037D02*
X30472707Y-24120037D01*
X30472707Y-24120037D02*
X30425088Y-24143847D01*
X30425088Y-24143847D02*
X30401278Y-24167656D01*
X30401278Y-24167656D02*
X30377469Y-24215275D01*
X30377469Y-24215275D02*
X30377469Y-24286704D01*
X30377469Y-24286704D02*
X30401278Y-24334323D01*
X30401278Y-24334323D02*
X30425088Y-24358132D01*
X30425088Y-24358132D02*
X30472707Y-24381942D01*
X30472707Y-24381942D02*
X30663183Y-24381942D01*
X30210802Y-24120037D02*
X29877469Y-24620037D01*
X29877469Y-24120037D02*
X30210802Y-24620037D01*
X21272707Y-23871418D02*
X21348897Y-23833323D01*
X21348897Y-23833323D02*
X21463183Y-23833323D01*
X21463183Y-23833323D02*
X21577469Y-23871418D01*
X21577469Y-23871418D02*
X21653659Y-23947608D01*
X21653659Y-23947608D02*
X21691754Y-24023799D01*
X21691754Y-24023799D02*
X21729850Y-24176180D01*
X21729850Y-24176180D02*
X21729850Y-24290466D01*
X21729850Y-24290466D02*
X21691754Y-24442847D01*
X21691754Y-24442847D02*
X21653659Y-24519037D01*
X21653659Y-24519037D02*
X21577469Y-24595228D01*
X21577469Y-24595228D02*
X21463183Y-24633323D01*
X21463183Y-24633323D02*
X21386992Y-24633323D01*
X21386992Y-24633323D02*
X21272707Y-24595228D01*
X21272707Y-24595228D02*
X21234611Y-24557132D01*
X21234611Y-24557132D02*
X21234611Y-24290466D01*
X21234611Y-24290466D02*
X21386992Y-24290466D01*
X21767945Y-16183323D02*
X21577469Y-16983323D01*
X21577469Y-16983323D02*
X21425088Y-16411894D01*
X21425088Y-16411894D02*
X21272707Y-16983323D01*
X21272707Y-16983323D02*
X21082231Y-16183323D01*
X21539373Y-21702370D02*
X21539373Y-22083323D01*
X21806040Y-21283323D02*
X21539373Y-21702370D01*
X21539373Y-21702370D02*
X21272707Y-21283323D01*
X21234611Y-19533323D02*
X21501278Y-19152370D01*
X21691754Y-19533323D02*
X21691754Y-18733323D01*
X21691754Y-18733323D02*
X21386992Y-18733323D01*
X21386992Y-18733323D02*
X21310802Y-18771418D01*
X21310802Y-18771418D02*
X21272707Y-18809513D01*
X21272707Y-18809513D02*
X21234611Y-18885704D01*
X21234611Y-18885704D02*
X21234611Y-18999989D01*
X21234611Y-18999989D02*
X21272707Y-19076180D01*
X21272707Y-19076180D02*
X21310802Y-19114275D01*
X21310802Y-19114275D02*
X21386992Y-19152370D01*
X21386992Y-19152370D02*
X21691754Y-19152370D01*
X30734611Y-26570037D02*
X30448897Y-26570037D01*
X30591754Y-27070037D02*
X30591754Y-26570037D01*
X30329850Y-26570037D02*
X29996517Y-27070037D01*
X29996517Y-26570037D02*
X30329850Y-27070037D01*
X22463183Y-29620037D02*
X22463183Y-29120037D01*
X22463183Y-29120037D02*
X22344135Y-29120037D01*
X22344135Y-29120037D02*
X22272707Y-29143847D01*
X22272707Y-29143847D02*
X22225088Y-29191466D01*
X22225088Y-29191466D02*
X22201278Y-29239085D01*
X22201278Y-29239085D02*
X22177469Y-29334323D01*
X22177469Y-29334323D02*
X22177469Y-29405751D01*
X22177469Y-29405751D02*
X22201278Y-29500989D01*
X22201278Y-29500989D02*
X22225088Y-29548608D01*
X22225088Y-29548608D02*
X22272707Y-29596228D01*
X22272707Y-29596228D02*
X22344135Y-29620037D01*
X22344135Y-29620037D02*
X22463183Y-29620037D01*
X22034611Y-29120037D02*
X21748897Y-29120037D01*
X21891754Y-29620037D02*
X21891754Y-29120037D01*
X21296517Y-29620037D02*
X21463183Y-29381942D01*
X21582231Y-29620037D02*
X21582231Y-29120037D01*
X21582231Y-29120037D02*
X21391755Y-29120037D01*
X21391755Y-29120037D02*
X21344136Y-29143847D01*
X21344136Y-29143847D02*
X21320326Y-29167656D01*
X21320326Y-29167656D02*
X21296517Y-29215275D01*
X21296517Y-29215275D02*
X21296517Y-29286704D01*
X21296517Y-29286704D02*
X21320326Y-29334323D01*
X21320326Y-29334323D02*
X21344136Y-29358132D01*
X21344136Y-29358132D02*
X21391755Y-29381942D01*
X21391755Y-29381942D02*
X21582231Y-29381942D01*
X21082231Y-29429561D02*
X20701279Y-29429561D01*
D13*
X76374600Y-35436611D02*
X76374600Y-35865182D01*
X76374600Y-35865182D02*
X76403171Y-35950897D01*
X76403171Y-35950897D02*
X76460314Y-36008040D01*
X76460314Y-36008040D02*
X76546028Y-36036611D01*
X76546028Y-36036611D02*
X76603171Y-36036611D01*
X75774600Y-36036611D02*
X76117457Y-36036611D01*
X75946028Y-36036611D02*
X75946028Y-35436611D01*
X75946028Y-35436611D02*
X76003171Y-35522325D01*
X76003171Y-35522325D02*
X76060314Y-35579468D01*
X76060314Y-35579468D02*
X76117457Y-35608040D01*
D14*
%TO.C,J1*%
X74844600Y-39363200D02*
X74844600Y-54663200D01*
X77504600Y-36763200D02*
X76174600Y-36763200D01*
X77504600Y-38093200D02*
X77504600Y-36763200D01*
X77504600Y-39363200D02*
X74844600Y-39363200D01*
X77504600Y-39363200D02*
X77504600Y-54663200D01*
X77504600Y-54663200D02*
X74844600Y-54663200D01*
%TO.C,J5*%
X18971600Y-54575200D02*
X18971600Y-49375200D01*
X67291600Y-49375200D02*
X18971600Y-49375200D01*
X67291600Y-51975200D02*
X67291600Y-49375200D01*
X69891600Y-49375200D02*
X68561600Y-49375200D01*
X69891600Y-50705200D02*
X69891600Y-49375200D01*
X69891600Y-51975200D02*
X67291600Y-51975200D01*
X69891600Y-54575200D02*
X18971600Y-54575200D01*
X69891600Y-54575200D02*
X69891600Y-51975200D01*
%TD*%
M02*
