%TF.GenerationSoftware,KiCad,Pcbnew,7.0.2*%
%TF.CreationDate,2024-08-07T09:48:01-07:00*%
%TF.ProjectId,MK-KS-MkV,4d4b2d4b-532d-44d6-9b56-2e6b69636164,1.0*%
%TF.SameCoordinates,PX3a67068PY5e08f30*%
%TF.FileFunction,Soldermask,Bot*%
%TF.FilePolarity,Negative*%
%FSLAX46Y46*%
G04 Gerber Fmt 4.6, Leading zero omitted, Abs format (unit mm)*
G04 Created by KiCad (PCBNEW 7.0.2) date 2024-08-07 09:48:01*
%MOMM*%
%LPD*%
G01*
G04 APERTURE LIST*
%ADD10O,1.254000X2.054000*%
%ADD11O,1.254000X2.454000*%
%ADD12R,1.700000X1.700000*%
%ADD13O,1.700000X1.700000*%
%ADD14O,5.000000X2.500000*%
%ADD15O,4.500000X2.250000*%
%ADD16C,4.700000*%
%ADD17C,7.000000*%
%ADD18R,2.400000X2.400000*%
%ADD19C,2.400000*%
%ADD20O,3.404000X1.804000*%
%ADD21C,3.600000*%
%ADD22C,5.700000*%
%ADD23R,1.600000X1.600000*%
%ADD24C,1.600000*%
G04 APERTURE END LIST*
D10*
%TO.C,J4*%
X31567000Y-8432000D03*
X20327000Y-8432000D03*
D11*
X31567000Y-4432000D03*
X20327000Y-4432000D03*
%TD*%
D12*
%TO.C,OP1*%
X36075000Y-33100000D03*
D13*
X38615000Y-33100000D03*
X41155000Y-33100000D03*
%TD*%
D12*
%TO.C,TP7*%
X65046000Y-25223000D03*
%TD*%
%TO.C,TP9*%
X46300000Y-33200000D03*
%TD*%
D14*
%TO.C,J2*%
X37150000Y-15950000D03*
D15*
X37150000Y-9950000D03*
%TD*%
D16*
%TO.C,SHLD-1*%
X8894000Y-8346000D03*
D17*
X8894000Y-8346000D03*
%TD*%
D12*
%TO.C,JP1*%
X24900000Y-45175000D03*
D13*
X24900000Y-42635000D03*
%TD*%
D18*
%TO.C,ST1*%
X50000000Y-6400000D03*
D19*
X45000000Y-6400000D03*
%TD*%
D12*
%TO.C,JP6*%
X15357000Y-5769000D03*
D13*
X15357000Y-8309000D03*
%TD*%
D12*
%TO.C,TP8*%
X85200000Y-23500000D03*
%TD*%
D20*
%TO.C,J3*%
X57409000Y-3613000D03*
X59409000Y-6013000D03*
X59409000Y-11513000D03*
X57409000Y-15213000D03*
%TD*%
D12*
%TO.C,TP6*%
X78800000Y-5200000D03*
%TD*%
D16*
%TO.C,SHLD-4*%
X8894000Y-48986000D03*
D17*
X8894000Y-48986000D03*
%TD*%
D21*
%TO.C,M_KSI1*%
X0Y0D03*
D22*
X0Y0D03*
%TD*%
D12*
%TO.C,TP10*%
X85200000Y-17600000D03*
%TD*%
%TO.C,JP2*%
X20800000Y-45175000D03*
D13*
X20800000Y-42635000D03*
%TD*%
D12*
%TO.C,J7*%
X32148020Y-29411428D03*
D13*
X32148020Y-26871428D03*
X32148020Y-24331428D03*
%TD*%
D12*
%TO.C,J6*%
X48200000Y-45525000D03*
D13*
X45660000Y-45525000D03*
X43120000Y-45525000D03*
X40580000Y-45525000D03*
%TD*%
D12*
%TO.C,TP5*%
X74000000Y-5200000D03*
%TD*%
%TO.C,OP2*%
X38600000Y-36700000D03*
D13*
X36060000Y-36700000D03*
%TD*%
D12*
%TO.C,J8*%
X19548020Y-16636428D03*
D13*
X19548020Y-19176428D03*
X19548020Y-21716428D03*
X19548020Y-24256428D03*
X19548020Y-26796428D03*
X19548020Y-29336428D03*
%TD*%
D21*
%TO.C,M_KSI2*%
X93980000Y0D03*
D22*
X93980000Y0D03*
%TD*%
D12*
%TO.C,JP5*%
X57195000Y-21181000D03*
D13*
X59735000Y-21181000D03*
%TD*%
D12*
%TO.C,JP4*%
X55279000Y-12172000D03*
D13*
X55279000Y-9632000D03*
%TD*%
D16*
%TO.C,SHLD-3*%
X85094000Y-48986000D03*
D17*
X85094000Y-48986000D03*
%TD*%
D18*
%TO.C,ST2*%
X45068000Y-17766000D03*
D19*
X50068000Y-17766000D03*
%TD*%
D16*
%TO.C,SHLD-2*%
X85094000Y-8346000D03*
D17*
X85094000Y-8346000D03*
%TD*%
D12*
%TO.C,JP3*%
X28850000Y-45175000D03*
D13*
X28850000Y-42635000D03*
%TD*%
D23*
%TO.C,C4*%
X13602651Y-33100000D03*
D24*
X8602651Y-33100000D03*
%TD*%
D12*
%TO.C,J1*%
X76174600Y-38093200D03*
D13*
X76174600Y-40633200D03*
X76174600Y-43173200D03*
X76174600Y-45713200D03*
X76174600Y-48253200D03*
X76174600Y-50793200D03*
X76174600Y-53333200D03*
%TD*%
D12*
%TO.C,J5*%
X68561600Y-50705200D03*
D13*
X68561600Y-53245200D03*
X66021600Y-50705200D03*
X66021600Y-53245200D03*
X63481600Y-50705200D03*
X63481600Y-53245200D03*
X60941600Y-50705200D03*
X60941600Y-53245200D03*
X58401600Y-50705200D03*
X58401600Y-53245200D03*
X55861600Y-50705200D03*
X55861600Y-53245200D03*
X53321600Y-50705200D03*
X53321600Y-53245200D03*
X50781600Y-50705200D03*
X50781600Y-53245200D03*
X48241600Y-50705200D03*
X48241600Y-53245200D03*
X45701600Y-50705200D03*
X45701600Y-53245200D03*
X43161600Y-50705200D03*
X43161600Y-53245200D03*
X40621600Y-50705200D03*
X40621600Y-53245200D03*
X38081600Y-50705200D03*
X38081600Y-53245200D03*
X35541600Y-50705200D03*
X35541600Y-53245200D03*
X33001600Y-50705200D03*
X33001600Y-53245200D03*
X30461600Y-50705200D03*
X30461600Y-53245200D03*
X27921600Y-50705200D03*
X27921600Y-53245200D03*
X25381600Y-50705200D03*
X25381600Y-53245200D03*
X22841600Y-50705200D03*
X22841600Y-53245200D03*
X20301600Y-50705200D03*
X20301600Y-53245200D03*
%TD*%
M02*
