%TF.GenerationSoftware,KiCad,Pcbnew,7.0.2*%
%TF.CreationDate,2024-08-07T09:48:01-07:00*%
%TF.ProjectId,MK-KS-MkV,4d4b2d4b-532d-44d6-9b56-2e6b69636164,1.0*%
%TF.SameCoordinates,PX3a67068PY5e08f30*%
%TF.FileFunction,Soldermask,Top*%
%TF.FilePolarity,Negative*%
%FSLAX46Y46*%
G04 Gerber Fmt 4.6, Leading zero omitted, Abs format (unit mm)*
G04 Created by KiCad (PCBNEW 7.0.2) date 2024-08-07 09:48:01*
%MOMM*%
%LPD*%
G01*
G04 APERTURE LIST*
G04 Aperture macros list*
%AMRoundRect*
0 Rectangle with rounded corners*
0 $1 Rounding radius*
0 $2 $3 $4 $5 $6 $7 $8 $9 X,Y pos of 4 corners*
0 Add a 4 corners polygon primitive as box body*
4,1,4,$2,$3,$4,$5,$6,$7,$8,$9,$2,$3,0*
0 Add four circle primitives for the rounded corners*
1,1,$1+$1,$2,$3*
1,1,$1+$1,$4,$5*
1,1,$1+$1,$6,$7*
1,1,$1+$1,$8,$9*
0 Add four rect primitives between the rounded corners*
20,1,$1+$1,$2,$3,$4,$5,0*
20,1,$1+$1,$4,$5,$6,$7,0*
20,1,$1+$1,$6,$7,$8,$9,0*
20,1,$1+$1,$8,$9,$2,$3,0*%
G04 Aperture macros list end*
%ADD10C,0.010000*%
%ADD11O,1.254000X2.054000*%
%ADD12O,1.254000X2.454000*%
%ADD13R,1.700000X1.700000*%
%ADD14O,1.700000X1.700000*%
%ADD15RoundRect,0.250000X0.450000X-0.350000X0.450000X0.350000X-0.450000X0.350000X-0.450000X-0.350000X0*%
%ADD16RoundRect,0.225000X0.375000X-0.225000X0.375000X0.225000X-0.375000X0.225000X-0.375000X-0.225000X0*%
%ADD17RoundRect,0.225000X0.225000X0.375000X-0.225000X0.375000X-0.225000X-0.375000X0.225000X-0.375000X0*%
%ADD18O,5.000000X2.500000*%
%ADD19O,4.500000X2.250000*%
%ADD20C,4.700000*%
%ADD21C,7.000000*%
%ADD22RoundRect,0.237500X-0.237500X0.300000X-0.237500X-0.300000X0.237500X-0.300000X0.237500X0.300000X0*%
%ADD23R,2.400000X2.400000*%
%ADD24C,2.400000*%
%ADD25R,1.200000X1.999982*%
%ADD26RoundRect,0.237500X0.237500X-0.300000X0.237500X0.300000X-0.237500X0.300000X-0.237500X-0.300000X0*%
%ADD27RoundRect,0.250000X0.350000X0.450000X-0.350000X0.450000X-0.350000X-0.450000X0.350000X-0.450000X0*%
%ADD28RoundRect,0.225000X-0.225000X-0.375000X0.225000X-0.375000X0.225000X0.375000X-0.225000X0.375000X0*%
%ADD29RoundRect,0.250000X-0.450000X0.350000X-0.450000X-0.350000X0.450000X-0.350000X0.450000X0.350000X0*%
%ADD30RoundRect,0.150000X-0.825000X-0.150000X0.825000X-0.150000X0.825000X0.150000X-0.825000X0.150000X0*%
%ADD31RoundRect,0.250000X-0.350000X-0.450000X0.350000X-0.450000X0.350000X0.450000X-0.350000X0.450000X0*%
%ADD32O,3.404000X1.804000*%
%ADD33C,3.600000*%
%ADD34C,5.700000*%
%ADD35RoundRect,0.150000X0.150000X-0.587500X0.150000X0.587500X-0.150000X0.587500X-0.150000X-0.587500X0*%
%ADD36RoundRect,0.237500X0.300000X0.237500X-0.300000X0.237500X-0.300000X-0.237500X0.300000X-0.237500X0*%
%ADD37RoundRect,0.062500X0.350000X0.062500X-0.350000X0.062500X-0.350000X-0.062500X0.350000X-0.062500X0*%
%ADD38RoundRect,0.062500X0.062500X0.350000X-0.062500X0.350000X-0.062500X-0.350000X0.062500X-0.350000X0*%
%ADD39R,2.500000X2.500000*%
%ADD40RoundRect,0.237500X-0.300000X-0.237500X0.300000X-0.237500X0.300000X0.237500X-0.300000X0.237500X0*%
%ADD41R,0.900000X0.710000*%
%ADD42R,0.600000X0.800000*%
%ADD43RoundRect,0.250000X-0.450000X0.325000X-0.450000X-0.325000X0.450000X-0.325000X0.450000X0.325000X0*%
%ADD44R,1.600000X1.600000*%
%ADD45C,1.600000*%
%ADD46R,0.710000X0.900000*%
%ADD47R,0.800000X0.600000*%
G04 APERTURE END LIST*
%TO.C,J4*%
D10*
X29497000Y-10182000D02*
X28797000Y-10182000D01*
X28797000Y-8982000D01*
X29497000Y-8982000D01*
X29497000Y-10182000D01*
G36*
X29497000Y-10182000D02*
G01*
X28797000Y-10182000D01*
X28797000Y-8982000D01*
X29497000Y-8982000D01*
X29497000Y-10182000D01*
G37*
X28697000Y-10182000D02*
X27997000Y-10182000D01*
X27997000Y-8982000D01*
X28697000Y-8982000D01*
X28697000Y-10182000D01*
G36*
X28697000Y-10182000D02*
G01*
X27997000Y-10182000D01*
X27997000Y-8982000D01*
X28697000Y-8982000D01*
X28697000Y-10182000D01*
G37*
X27897000Y-10182000D02*
X27497000Y-10182000D01*
X27497000Y-8982000D01*
X27897000Y-8982000D01*
X27897000Y-10182000D01*
G36*
X27897000Y-10182000D02*
G01*
X27497000Y-10182000D01*
X27497000Y-8982000D01*
X27897000Y-8982000D01*
X27897000Y-10182000D01*
G37*
X27397000Y-10182000D02*
X26997000Y-10182000D01*
X26997000Y-8982000D01*
X27397000Y-8982000D01*
X27397000Y-10182000D01*
G36*
X27397000Y-10182000D02*
G01*
X26997000Y-10182000D01*
X26997000Y-8982000D01*
X27397000Y-8982000D01*
X27397000Y-10182000D01*
G37*
X26897000Y-10182000D02*
X26497000Y-10182000D01*
X26497000Y-8982000D01*
X26897000Y-8982000D01*
X26897000Y-10182000D01*
G36*
X26897000Y-10182000D02*
G01*
X26497000Y-10182000D01*
X26497000Y-8982000D01*
X26897000Y-8982000D01*
X26897000Y-10182000D01*
G37*
X26397000Y-10182000D02*
X25997000Y-10182000D01*
X25997000Y-8982000D01*
X26397000Y-8982000D01*
X26397000Y-10182000D01*
G36*
X26397000Y-10182000D02*
G01*
X25997000Y-10182000D01*
X25997000Y-8982000D01*
X26397000Y-8982000D01*
X26397000Y-10182000D01*
G37*
X25897000Y-10182000D02*
X25497000Y-10182000D01*
X25497000Y-8982000D01*
X25897000Y-8982000D01*
X25897000Y-10182000D01*
G36*
X25897000Y-10182000D02*
G01*
X25497000Y-10182000D01*
X25497000Y-8982000D01*
X25897000Y-8982000D01*
X25897000Y-10182000D01*
G37*
X25397000Y-10182000D02*
X24997000Y-10182000D01*
X24997000Y-8982000D01*
X25397000Y-8982000D01*
X25397000Y-10182000D01*
G36*
X25397000Y-10182000D02*
G01*
X24997000Y-10182000D01*
X24997000Y-8982000D01*
X25397000Y-8982000D01*
X25397000Y-10182000D01*
G37*
X24897000Y-10182000D02*
X24497000Y-10182000D01*
X24497000Y-8982000D01*
X24897000Y-8982000D01*
X24897000Y-10182000D01*
G36*
X24897000Y-10182000D02*
G01*
X24497000Y-10182000D01*
X24497000Y-8982000D01*
X24897000Y-8982000D01*
X24897000Y-10182000D01*
G37*
X24397000Y-10182000D02*
X23997000Y-10182000D01*
X23997000Y-8982000D01*
X24397000Y-8982000D01*
X24397000Y-10182000D01*
G36*
X24397000Y-10182000D02*
G01*
X23997000Y-10182000D01*
X23997000Y-8982000D01*
X24397000Y-8982000D01*
X24397000Y-10182000D01*
G37*
X23897000Y-10182000D02*
X23197000Y-10182000D01*
X23197000Y-8982000D01*
X23897000Y-8982000D01*
X23897000Y-10182000D01*
G36*
X23897000Y-10182000D02*
G01*
X23197000Y-10182000D01*
X23197000Y-8982000D01*
X23897000Y-8982000D01*
X23897000Y-10182000D01*
G37*
X23097000Y-10182000D02*
X22397000Y-10182000D01*
X22397000Y-8982000D01*
X23097000Y-8982000D01*
X23097000Y-10182000D01*
G36*
X23097000Y-10182000D02*
G01*
X22397000Y-10182000D01*
X22397000Y-8982000D01*
X23097000Y-8982000D01*
X23097000Y-10182000D01*
G37*
%TD*%
D11*
%TO.C,J4*%
X31567000Y-8432000D03*
X20327000Y-8432000D03*
D12*
X31567000Y-4432000D03*
X20327000Y-4432000D03*
%TD*%
D13*
%TO.C,OP1*%
X36075000Y-33100000D03*
D14*
X38615000Y-33100000D03*
X41155000Y-33100000D03*
%TD*%
D15*
%TO.C,R2*%
X19448020Y-13486428D03*
X19448020Y-11486428D03*
%TD*%
D16*
%TO.C,D4*%
X66700000Y-32150000D03*
X66700000Y-28850000D03*
%TD*%
D13*
%TO.C,TP7*%
X65046000Y-25223000D03*
%TD*%
%TO.C,TP9*%
X46300000Y-33200000D03*
%TD*%
D17*
%TO.C,D7*%
X68650000Y-13500000D03*
X65350000Y-13500000D03*
%TD*%
D18*
%TO.C,J2*%
X37150000Y-15950000D03*
D19*
X37150000Y-9950000D03*
%TD*%
D20*
%TO.C,SHLD-1*%
X8894000Y-8346000D03*
D21*
X8894000Y-8346000D03*
%TD*%
D13*
%TO.C,JP1*%
X24900000Y-45175000D03*
D14*
X24900000Y-42635000D03*
%TD*%
D22*
%TO.C,C8*%
X50800000Y-29637500D03*
X50800000Y-31362500D03*
%TD*%
D23*
%TO.C,ST1*%
X50000000Y-6400000D03*
D24*
X45000000Y-6400000D03*
%TD*%
D25*
%TO.C,BR1*%
X36480000Y-26512500D03*
X36480000Y-20412500D03*
X39020000Y-26512500D03*
X39020000Y-20412500D03*
%TD*%
D26*
%TO.C,C11*%
X54400000Y-31362500D03*
X54400000Y-29637500D03*
%TD*%
D27*
%TO.C,R14*%
X79200000Y-8500000D03*
X77200000Y-8500000D03*
%TD*%
D28*
%TO.C,D1*%
X63550000Y-41800000D03*
X66850000Y-41800000D03*
%TD*%
D26*
%TO.C,C5*%
X78900000Y-32162500D03*
X78900000Y-30437500D03*
%TD*%
D29*
%TO.C,R6*%
X25448020Y-12686428D03*
X25448020Y-14686428D03*
%TD*%
D13*
%TO.C,JP6*%
X15357000Y-5769000D03*
D14*
X15357000Y-8309000D03*
%TD*%
D13*
%TO.C,TP8*%
X85200000Y-23500000D03*
%TD*%
D27*
%TO.C,R11*%
X71800000Y-30900000D03*
X69800000Y-30900000D03*
%TD*%
D30*
%TO.C,U1*%
X68425000Y-19195000D03*
X68425000Y-20465000D03*
X68425000Y-21735000D03*
X68425000Y-23005000D03*
X73375000Y-23005000D03*
X73375000Y-21735000D03*
X73375000Y-20465000D03*
X73375000Y-19195000D03*
%TD*%
D28*
%TO.C,D9*%
X76050000Y-13500000D03*
X79350000Y-13500000D03*
%TD*%
D26*
%TO.C,C7*%
X52600000Y-31362500D03*
X52600000Y-29637500D03*
%TD*%
D17*
%TO.C,D6*%
X86850000Y-28700000D03*
X83550000Y-28700000D03*
%TD*%
D31*
%TO.C,R9*%
X69800000Y-26700000D03*
X71800000Y-26700000D03*
%TD*%
D32*
%TO.C,J3*%
X57409000Y-3613000D03*
X59409000Y-6013000D03*
X59409000Y-11513000D03*
X57409000Y-15213000D03*
%TD*%
D13*
%TO.C,TP6*%
X78800000Y-5200000D03*
%TD*%
D20*
%TO.C,SHLD-4*%
X8894000Y-48986000D03*
D21*
X8894000Y-48986000D03*
%TD*%
D33*
%TO.C,M_KSI1*%
X0Y0D03*
D34*
X0Y0D03*
%TD*%
D26*
%TO.C,C10*%
X76900000Y-32162500D03*
X76900000Y-30437500D03*
%TD*%
D28*
%TO.C,D10*%
X50150000Y-38950000D03*
X53450000Y-38950000D03*
%TD*%
D35*
%TO.C,Q2*%
X77850000Y-20437500D03*
X79750000Y-20437500D03*
X78800000Y-18562500D03*
%TD*%
D27*
%TO.C,R1*%
X67000000Y-10200000D03*
X65000000Y-10200000D03*
%TD*%
D13*
%TO.C,TP10*%
X85200000Y-17600000D03*
%TD*%
D36*
%TO.C,C3*%
X28610520Y-26686428D03*
X26885520Y-26686428D03*
%TD*%
D31*
%TO.C,R15*%
X77200000Y-10900000D03*
X79200000Y-10900000D03*
%TD*%
D13*
%TO.C,JP2*%
X20800000Y-45175000D03*
D14*
X20800000Y-42635000D03*
%TD*%
D13*
%TO.C,J7*%
X32148020Y-29411428D03*
D14*
X32148020Y-26871428D03*
X32148020Y-24331428D03*
%TD*%
D35*
%TO.C,Q1*%
X64950000Y-7937500D03*
X66850000Y-7937500D03*
X65900000Y-6062500D03*
%TD*%
D13*
%TO.C,J6*%
X48200000Y-45525000D03*
D14*
X45660000Y-45525000D03*
X43120000Y-45525000D03*
X40580000Y-45525000D03*
%TD*%
D15*
%TO.C,R3*%
X30748020Y-19386428D03*
X30748020Y-17386428D03*
%TD*%
D37*
%TO.C,U2*%
X28085520Y-21186428D03*
X28085520Y-20686428D03*
X28085520Y-20186428D03*
X28085520Y-19686428D03*
X28085520Y-19186428D03*
D38*
X27148020Y-18248928D03*
X26648020Y-18248928D03*
X26148020Y-18248928D03*
X25648020Y-18248928D03*
X25148020Y-18248928D03*
D37*
X24210520Y-19186428D03*
X24210520Y-19686428D03*
X24210520Y-20186428D03*
X24210520Y-20686428D03*
X24210520Y-21186428D03*
D38*
X25148020Y-22123928D03*
X25648020Y-22123928D03*
X26148020Y-22123928D03*
X26648020Y-22123928D03*
X27148020Y-22123928D03*
D39*
X26148020Y-20186428D03*
%TD*%
D26*
%TO.C,C1*%
X30148020Y-14648928D03*
X30148020Y-12923928D03*
%TD*%
%TO.C,C13*%
X58000000Y-31362500D03*
X58000000Y-29637500D03*
%TD*%
D17*
%TO.C,D8*%
X73977500Y-13500000D03*
X70677500Y-13500000D03*
%TD*%
D22*
%TO.C,C6*%
X73600000Y-8437500D03*
X73600000Y-10162500D03*
%TD*%
D13*
%TO.C,TP5*%
X74000000Y-5200000D03*
%TD*%
%TO.C,OP2*%
X38600000Y-36700000D03*
D14*
X36060000Y-36700000D03*
%TD*%
D13*
%TO.C,J8*%
X19548020Y-16636428D03*
D14*
X19548020Y-19176428D03*
X19548020Y-21716428D03*
X19548020Y-24256428D03*
X19548020Y-26796428D03*
X19548020Y-29336428D03*
%TD*%
D31*
%TO.C,R16*%
X50600000Y-36000000D03*
X52600000Y-36000000D03*
%TD*%
D33*
%TO.C,M_KSI2*%
X93980000Y0D03*
D34*
X93980000Y0D03*
%TD*%
D40*
%TO.C,C9*%
X36037500Y-40200000D03*
X37762500Y-40200000D03*
%TD*%
D13*
%TO.C,JP5*%
X57195000Y-21181000D03*
D14*
X59735000Y-21181000D03*
%TD*%
D13*
%TO.C,JP4*%
X55279000Y-12172000D03*
D14*
X55279000Y-9632000D03*
%TD*%
D26*
%TO.C,C14*%
X59800000Y-31362500D03*
X59800000Y-29637500D03*
%TD*%
%TO.C,C12*%
X56200000Y-31362500D03*
X56200000Y-29637500D03*
%TD*%
D27*
%TO.C,R8*%
X61500000Y-41800000D03*
X59500000Y-41800000D03*
%TD*%
D29*
%TO.C,R13*%
X76900000Y-26600000D03*
X76900000Y-28600000D03*
%TD*%
D41*
%TO.C,LED2*%
X33021109Y-19347500D03*
X33021109Y-22047500D03*
D42*
X32871109Y-20697500D03*
%TD*%
D16*
%TO.C,D3*%
X20800000Y-39950000D03*
X20800000Y-36650000D03*
%TD*%
D20*
%TO.C,SHLD-3*%
X85094000Y-48986000D03*
D21*
X85094000Y-48986000D03*
%TD*%
D15*
%TO.C,R4*%
X68900000Y-7900000D03*
X68900000Y-5900000D03*
%TD*%
D36*
%TO.C,C2*%
X25110520Y-26686428D03*
X23385520Y-26686428D03*
%TD*%
D15*
%TO.C,R12*%
X78900000Y-28600000D03*
X78900000Y-26600000D03*
%TD*%
D27*
%TO.C,R10*%
X71800000Y-28800000D03*
X69800000Y-28800000D03*
%TD*%
D43*
%TO.C,L1*%
X23548020Y-12661428D03*
X23548020Y-14711428D03*
%TD*%
D28*
%TO.C,D2*%
X63550000Y-38700000D03*
X66850000Y-38700000D03*
%TD*%
D27*
%TO.C,R7*%
X61500000Y-38700000D03*
X59500000Y-38700000D03*
%TD*%
D23*
%TO.C,ST2*%
X45068000Y-17766000D03*
D24*
X50068000Y-17766000D03*
%TD*%
D20*
%TO.C,SHLD-2*%
X85094000Y-8346000D03*
D21*
X85094000Y-8346000D03*
%TD*%
D28*
%TO.C,D5*%
X83550000Y-32050000D03*
X86850000Y-32050000D03*
%TD*%
D13*
%TO.C,JP3*%
X28850000Y-45175000D03*
D14*
X28850000Y-42635000D03*
%TD*%
D44*
%TO.C,C4*%
X13602651Y-33100000D03*
D45*
X8602651Y-33100000D03*
%TD*%
D29*
%TO.C,R5*%
X27348020Y-12686428D03*
X27348020Y-14686428D03*
%TD*%
D46*
%TO.C,LED1*%
X63876500Y-3525891D03*
X66576500Y-3525891D03*
D47*
X65226500Y-3675891D03*
%TD*%
D13*
%TO.C,J1*%
X76174600Y-38093200D03*
D14*
X76174600Y-40633200D03*
X76174600Y-43173200D03*
X76174600Y-45713200D03*
X76174600Y-48253200D03*
X76174600Y-50793200D03*
X76174600Y-53333200D03*
%TD*%
D13*
%TO.C,J5*%
X68561600Y-50705200D03*
D14*
X68561600Y-53245200D03*
X66021600Y-50705200D03*
X66021600Y-53245200D03*
X63481600Y-50705200D03*
X63481600Y-53245200D03*
X60941600Y-50705200D03*
X60941600Y-53245200D03*
X58401600Y-50705200D03*
X58401600Y-53245200D03*
X55861600Y-50705200D03*
X55861600Y-53245200D03*
X53321600Y-50705200D03*
X53321600Y-53245200D03*
X50781600Y-50705200D03*
X50781600Y-53245200D03*
X48241600Y-50705200D03*
X48241600Y-53245200D03*
X45701600Y-50705200D03*
X45701600Y-53245200D03*
X43161600Y-50705200D03*
X43161600Y-53245200D03*
X40621600Y-50705200D03*
X40621600Y-53245200D03*
X38081600Y-50705200D03*
X38081600Y-53245200D03*
X35541600Y-50705200D03*
X35541600Y-53245200D03*
X33001600Y-50705200D03*
X33001600Y-53245200D03*
X30461600Y-50705200D03*
X30461600Y-53245200D03*
X27921600Y-50705200D03*
X27921600Y-53245200D03*
X25381600Y-50705200D03*
X25381600Y-53245200D03*
X22841600Y-50705200D03*
X22841600Y-53245200D03*
X20301600Y-50705200D03*
X20301600Y-53245200D03*
%TD*%
M02*
