%TF.GenerationSoftware,KiCad,Pcbnew,7.0.2*%
%TF.CreationDate,2024-04-06T10:46:14-07:00*%
%TF.ProjectId,MK-JackAdapter,4d4b2d4a-6163-46b4-9164-61707465722e,1.0*%
%TF.SameCoordinates,Original*%
%TF.FileFunction,Legend,Top*%
%TF.FilePolarity,Positive*%
%FSLAX46Y46*%
G04 Gerber Fmt 4.6, Leading zero omitted, Abs format (unit mm)*
G04 Created by KiCad (PCBNEW 7.0.2) date 2024-04-06 10:46:14*
%MOMM*%
%LPD*%
G01*
G04 APERTURE LIST*
%ADD10C,0.150000*%
%ADD11C,0.120000*%
%ADD12C,0.127000*%
%ADD13C,0.340000*%
%ADD14C,0.200000*%
G04 APERTURE END LIST*
D10*
%TO.C,J3*%
X113943666Y-132743619D02*
X113943666Y-133457904D01*
X113943666Y-133457904D02*
X113896047Y-133600761D01*
X113896047Y-133600761D02*
X113800809Y-133696000D01*
X113800809Y-133696000D02*
X113657952Y-133743619D01*
X113657952Y-133743619D02*
X113562714Y-133743619D01*
X114324619Y-132743619D02*
X114943666Y-132743619D01*
X114943666Y-132743619D02*
X114610333Y-133124571D01*
X114610333Y-133124571D02*
X114753190Y-133124571D01*
X114753190Y-133124571D02*
X114848428Y-133172190D01*
X114848428Y-133172190D02*
X114896047Y-133219809D01*
X114896047Y-133219809D02*
X114943666Y-133315047D01*
X114943666Y-133315047D02*
X114943666Y-133553142D01*
X114943666Y-133553142D02*
X114896047Y-133648380D01*
X114896047Y-133648380D02*
X114848428Y-133696000D01*
X114848428Y-133696000D02*
X114753190Y-133743619D01*
X114753190Y-133743619D02*
X114467476Y-133743619D01*
X114467476Y-133743619D02*
X114372238Y-133696000D01*
X114372238Y-133696000D02*
X114324619Y-133648380D01*
D11*
X122077000Y-122461000D02*
X122077000Y-121721000D01*
X122077000Y-121721000D02*
X121577000Y-121721000D01*
X121837000Y-132281000D02*
X121837000Y-121961000D01*
X121837000Y-132281000D02*
X106717000Y-132281000D01*
X121837000Y-123621000D02*
X106717000Y-123621000D01*
X121837000Y-122521000D02*
X106717000Y-122521000D01*
X121837000Y-121961000D02*
X106717000Y-121961000D01*
X106717000Y-132281000D02*
X106717000Y-121961000D01*
X120709000Y-128029000D02*
G75*
G03*
X120709109Y-126813258I-1432000J608000D01*
G01*
X118669000Y-128853000D02*
G75*
G03*
X119884742Y-128853109I608000J1432000D01*
G01*
X119885000Y-125989001D02*
G75*
G03*
X119249989Y-125865508I-607998J-1431987D01*
G01*
X119277000Y-125866001D02*
G75*
G03*
X118669413Y-125989616I0J-1554999D01*
G01*
X117845000Y-126813000D02*
G75*
G03*
X117844891Y-128028742I1432003J-607999D01*
G01*
X115832000Y-127421000D02*
G75*
G03*
X115832000Y-127421000I-1555000J0D01*
G01*
X110832000Y-127421000D02*
G75*
G03*
X110832000Y-127421000I-1555000J0D01*
G01*
D12*
%TO.C,J2*%
X98315000Y-112712500D02*
X102315000Y-112712500D01*
X98315000Y-118712500D02*
X98315000Y-112712500D01*
X102315000Y-112412500D02*
X116315000Y-112412500D01*
X102315000Y-112712500D02*
X102315000Y-112412500D01*
X102315000Y-118712500D02*
X98315000Y-118712500D01*
X102315000Y-120612500D02*
X102315000Y-118712500D01*
X116315000Y-112412500D02*
X116315000Y-120612500D01*
X116315000Y-120612500D02*
X102315000Y-120612500D01*
D13*
X103685000Y-111812500D02*
G75*
G03*
X103685000Y-111812500I-170000J0D01*
G01*
D12*
%TO.C,J1*%
X136515000Y-108705000D02*
X136515000Y-98305000D01*
X136515000Y-108705000D02*
X127515000Y-108705000D01*
X136515000Y-98305000D02*
X127515000Y-98305000D01*
X127515000Y-110505000D02*
X102515000Y-110505000D01*
X127515000Y-108705000D02*
X127515000Y-110505000D01*
X127515000Y-96505000D02*
X127515000Y-98305000D01*
X102515000Y-110505000D02*
X102515000Y-96505000D01*
X102515000Y-96505000D02*
X127515000Y-96505000D01*
D14*
X120115000Y-111005000D02*
G75*
G03*
X120115000Y-111005000I-100000J0D01*
G01*
%TD*%
M02*
