%TF.GenerationSoftware,KiCad,Pcbnew,7.0.2*%
%TF.CreationDate,2024-01-05T18:48:20-08:00*%
%TF.ProjectId,MuKOB,4d754b4f-422e-46b6-9963-61645f706362,1.0*%
%TF.SameCoordinates,Original*%
%TF.FileFunction,Paste,Top*%
%TF.FilePolarity,Positive*%
%FSLAX46Y46*%
G04 Gerber Fmt 4.6, Leading zero omitted, Abs format (unit mm)*
G04 Created by KiCad (PCBNEW 7.0.2) date 2024-01-05 18:48:20*
%MOMM*%
%LPD*%
G01*
G04 APERTURE LIST*
G04 Aperture macros list*
%AMRoundRect*
0 Rectangle with rounded corners*
0 $1 Rounding radius*
0 $2 $3 $4 $5 $6 $7 $8 $9 X,Y pos of 4 corners*
0 Add a 4 corners polygon primitive as box body*
4,1,4,$2,$3,$4,$5,$6,$7,$8,$9,$2,$3,0*
0 Add four circle primitives for the rounded corners*
1,1,$1+$1,$2,$3*
1,1,$1+$1,$4,$5*
1,1,$1+$1,$6,$7*
1,1,$1+$1,$8,$9*
0 Add four rect primitives between the rounded corners*
20,1,$1+$1,$2,$3,$4,$5,0*
20,1,$1+$1,$4,$5,$6,$7,0*
20,1,$1+$1,$6,$7,$8,$9,0*
20,1,$1+$1,$8,$9,$2,$3,0*%
G04 Aperture macros list end*
%ADD10RoundRect,0.160000X0.160000X-0.197500X0.160000X0.197500X-0.160000X0.197500X-0.160000X-0.197500X0*%
%ADD11R,1.600000X1.000000*%
%ADD12RoundRect,0.225000X-0.250000X0.225000X-0.250000X-0.225000X0.250000X-0.225000X0.250000X0.225000X0*%
%ADD13RoundRect,0.090000X0.090000X-0.139000X0.090000X0.139000X-0.090000X0.139000X-0.090000X-0.139000X0*%
%ADD14RoundRect,0.160000X-0.197500X-0.160000X0.197500X-0.160000X0.197500X0.160000X-0.197500X0.160000X0*%
%ADD15R,0.400000X0.650000*%
%ADD16RoundRect,0.250000X0.650000X-0.412500X0.650000X0.412500X-0.650000X0.412500X-0.650000X-0.412500X0*%
%ADD17RoundRect,0.237500X-0.237500X0.300000X-0.237500X-0.300000X0.237500X-0.300000X0.237500X0.300000X0*%
%ADD18RoundRect,0.090000X0.139000X0.090000X-0.139000X0.090000X-0.139000X-0.090000X0.139000X-0.090000X0*%
%ADD19RoundRect,0.237500X0.237500X-0.300000X0.237500X0.300000X-0.237500X0.300000X-0.237500X-0.300000X0*%
%ADD20R,2.794000X2.209800*%
%ADD21R,2.794000X2.794000*%
%ADD22R,2.794000X2.590800*%
%ADD23RoundRect,0.090000X-0.139000X-0.090000X0.139000X-0.090000X0.139000X0.090000X-0.139000X0.090000X0*%
%ADD24RoundRect,0.160000X-0.160000X0.197500X-0.160000X-0.197500X0.160000X-0.197500X0.160000X0.197500X0*%
%ADD25RoundRect,0.150000X-0.875000X-0.150000X0.875000X-0.150000X0.875000X0.150000X-0.875000X0.150000X0*%
%ADD26RoundRect,0.150000X-0.150000X0.512500X-0.150000X-0.512500X0.150000X-0.512500X0.150000X0.512500X0*%
%ADD27RoundRect,0.160000X0.197500X0.160000X-0.197500X0.160000X-0.197500X-0.160000X0.197500X-0.160000X0*%
%ADD28RoundRect,0.237500X-0.300000X-0.237500X0.300000X-0.237500X0.300000X0.237500X-0.300000X0.237500X0*%
%ADD29R,0.620000X1.400000*%
%ADD30R,1.100000X2.400000*%
%ADD31R,0.400000X1.000000*%
%ADD32R,2.000000X1.300000*%
%ADD33RoundRect,0.007800X-0.412200X0.122200X-0.412200X-0.122200X0.412200X-0.122200X0.412200X0.122200X0*%
%ADD34RoundRect,0.007800X0.122200X0.412200X-0.122200X0.412200X-0.122200X-0.412200X0.122200X-0.412200X0*%
%ADD35R,2.700000X2.700000*%
%ADD36RoundRect,0.020500X-0.764500X-0.184500X0.764500X-0.184500X0.764500X0.184500X-0.764500X0.184500X0*%
%ADD37RoundRect,0.250001X0.499999X0.924999X-0.499999X0.924999X-0.499999X-0.924999X0.499999X-0.924999X0*%
%ADD38R,0.710000X0.900000*%
%ADD39R,0.800000X0.600000*%
%ADD40R,2.500000X1.500000*%
%ADD41R,2.150000X1.500000*%
G04 APERTURE END LIST*
D10*
%TO.C,R16*%
X62484000Y-75314100D03*
X62484000Y-74119100D03*
%TD*%
D11*
%TO.C,SW4*%
X54386000Y-147254400D03*
X59636000Y-147254400D03*
X54386000Y-150454400D03*
X59636000Y-150454400D03*
%TD*%
D12*
%TO.C,C7*%
X61530000Y-112589000D03*
X61530000Y-114139000D03*
%TD*%
D10*
%TO.C,R15*%
X62484000Y-72545500D03*
X62484000Y-71350500D03*
%TD*%
D13*
%TO.C,C14*%
X68407242Y-64438500D03*
X68407242Y-63573500D03*
%TD*%
D14*
%TO.C,R19*%
X61276900Y-140370800D03*
X62471900Y-140370800D03*
%TD*%
D13*
%TO.C,C15*%
X68407242Y-61900500D03*
X68407242Y-61035500D03*
%TD*%
%TO.C,C17*%
X53848000Y-72380500D03*
X53848000Y-71515500D03*
%TD*%
%TO.C,C12*%
X56388000Y-108890500D03*
X56388000Y-108025500D03*
%TD*%
D15*
%TO.C,U6*%
X58278000Y-79944000D03*
X58928000Y-79944000D03*
X59578000Y-79944000D03*
X59578000Y-78044000D03*
X58928000Y-78044000D03*
X58278000Y-78044000D03*
%TD*%
D10*
%TO.C,R7*%
X53330000Y-118961500D03*
X53330000Y-117766500D03*
%TD*%
D16*
%TO.C,C16*%
X57150000Y-75288500D03*
X57150000Y-72163500D03*
%TD*%
D14*
%TO.C,R21*%
X61480100Y-150520400D03*
X62675100Y-150520400D03*
%TD*%
D17*
%TO.C,C24*%
X51423000Y-147281800D03*
X51423000Y-149006800D03*
%TD*%
D18*
%TO.C,C11*%
X74346500Y-91440000D03*
X73481500Y-91440000D03*
%TD*%
D12*
%TO.C,C4*%
X150219400Y-154472700D03*
X150219400Y-156022700D03*
%TD*%
D19*
%TO.C,C5*%
X74537000Y-74633400D03*
X74537000Y-72908400D03*
%TD*%
D10*
%TO.C,R12*%
X55372000Y-72545500D03*
X55372000Y-71350500D03*
%TD*%
D20*
%TO.C,J14*%
X55372000Y-51308000D03*
D21*
X55372000Y-63500000D03*
D20*
X62773560Y-56007000D03*
X55372000Y-54102000D03*
D22*
X59822080Y-67487800D03*
D20*
X62773560Y-53187600D03*
%TD*%
D14*
%TO.C,R9*%
X65950500Y-61214000D03*
X67145500Y-61214000D03*
%TD*%
D23*
%TO.C,C10*%
X72465500Y-85852000D03*
X73330500Y-85852000D03*
%TD*%
D14*
%TO.C,R23*%
X61442700Y-160665400D03*
X62637700Y-160665400D03*
%TD*%
D24*
%TO.C,R25*%
X163525200Y-165366100D03*
X163525200Y-166561100D03*
%TD*%
D25*
%TO.C,U3*%
X152068000Y-80518000D03*
X152068000Y-81788000D03*
X152068000Y-83058000D03*
X152068000Y-84328000D03*
X152068000Y-85598000D03*
X152068000Y-86868000D03*
X152068000Y-88138000D03*
X152068000Y-89408000D03*
X152068000Y-90678000D03*
X161368000Y-90678000D03*
X161368000Y-89408000D03*
X161368000Y-88138000D03*
X161368000Y-86868000D03*
X161368000Y-85598000D03*
X161368000Y-84328000D03*
X161368000Y-83058000D03*
X161368000Y-81788000D03*
X161368000Y-80518000D03*
%TD*%
D26*
%TO.C,U4*%
X74356000Y-87508500D03*
X73406000Y-87508500D03*
X72456000Y-87508500D03*
X72456000Y-89783500D03*
X74356000Y-89783500D03*
%TD*%
D17*
%TO.C,C9*%
X59230000Y-116351500D03*
X59230000Y-118076500D03*
%TD*%
D27*
%TO.C,R4*%
X61557500Y-108204000D03*
X60362500Y-108204000D03*
%TD*%
D11*
%TO.C,SW7*%
X64546000Y-157414400D03*
X69796000Y-157414400D03*
X64546000Y-160614400D03*
X69796000Y-160614400D03*
%TD*%
D17*
%TO.C,C25*%
X61442600Y-147168700D03*
X61442600Y-148893700D03*
%TD*%
D28*
%TO.C,C2*%
X81293000Y-66793400D03*
X83018000Y-66793400D03*
%TD*%
D17*
%TO.C,C6*%
X77585000Y-72908400D03*
X77585000Y-74633400D03*
%TD*%
D11*
%TO.C,SW3*%
X64546000Y-137094400D03*
X69796000Y-137094400D03*
X64546000Y-140294400D03*
X69796000Y-140294400D03*
%TD*%
D24*
%TO.C,R24*%
X161036000Y-165366100D03*
X161036000Y-166561100D03*
%TD*%
D17*
%TO.C,C23*%
X61278200Y-137121800D03*
X61278200Y-138846800D03*
%TD*%
D10*
%TO.C,R6*%
X61230000Y-118461500D03*
X61230000Y-117266500D03*
%TD*%
D14*
%TO.C,R5*%
X53250500Y-108204000D03*
X54445500Y-108204000D03*
%TD*%
D10*
%TO.C,R14*%
X64008000Y-75339500D03*
X64008000Y-74144500D03*
%TD*%
D11*
%TO.C,SW9*%
X166031000Y-166548000D03*
X171281000Y-166548000D03*
X166031000Y-169748000D03*
X171281000Y-169748000D03*
%TD*%
D29*
%TO.C,J6*%
X134916000Y-65224900D03*
X136016000Y-65224900D03*
X137116000Y-65224900D03*
X138216000Y-65224900D03*
X139316000Y-65224900D03*
X140416000Y-65224900D03*
X141516000Y-65224900D03*
X142616000Y-65224900D03*
X143716000Y-65224900D03*
D30*
X145096000Y-63224900D03*
X145096000Y-54224900D03*
X128946000Y-63224900D03*
X128946000Y-54224900D03*
%TD*%
D11*
%TO.C,SW1*%
X171281000Y-66878000D03*
X166031000Y-66878000D03*
X171281000Y-63678000D03*
X166031000Y-63678000D03*
%TD*%
D31*
%TO.C,J18*%
X107201000Y-123698000D03*
X108201000Y-123698000D03*
X109201000Y-123698000D03*
X110201000Y-123698000D03*
X111201000Y-123698000D03*
X112201000Y-123698000D03*
X113201000Y-123698000D03*
X114201000Y-123698000D03*
X115201000Y-123698000D03*
X116201000Y-123698000D03*
X117201000Y-123698000D03*
X118201000Y-123698000D03*
X119201000Y-123698000D03*
X120201000Y-123698000D03*
X121201000Y-123698000D03*
X122201000Y-123698000D03*
X123201000Y-123698000D03*
X124201000Y-123698000D03*
X125201000Y-123698000D03*
X126201000Y-123698000D03*
D32*
X104401000Y-126398000D03*
X129001000Y-126398000D03*
%TD*%
D13*
%TO.C,C20*%
X64008000Y-72380500D03*
X64008000Y-71515500D03*
%TD*%
D16*
%TO.C,C19*%
X60706000Y-75288500D03*
X60706000Y-72163500D03*
%TD*%
D12*
%TO.C,C8*%
X53280000Y-112539000D03*
X53280000Y-114089000D03*
%TD*%
D14*
%TO.C,R3*%
X150332500Y-141864000D03*
X151527500Y-141864000D03*
%TD*%
D17*
%TO.C,C26*%
X71678800Y-147246000D03*
X71678800Y-148971000D03*
%TD*%
D19*
%TO.C,C3*%
X77585000Y-71077400D03*
X77585000Y-69352400D03*
%TD*%
D14*
%TO.C,R20*%
X51396400Y-150480000D03*
X52591400Y-150480000D03*
%TD*%
D28*
%TO.C,C22*%
X161420800Y-158498900D03*
X163145800Y-158498900D03*
%TD*%
D11*
%TO.C,SW8*%
X153331000Y-166548000D03*
X158581000Y-166548000D03*
X153331000Y-169748000D03*
X158581000Y-169748000D03*
%TD*%
D17*
%TO.C,C27*%
X61354400Y-157415300D03*
X61354400Y-159140300D03*
%TD*%
D14*
%TO.C,R22*%
X71677600Y-150596600D03*
X72872600Y-150596600D03*
%TD*%
D33*
%TO.C,U5*%
X55434000Y-111522000D03*
X55434000Y-112022000D03*
X55434000Y-112522000D03*
X55434000Y-113022000D03*
X55434000Y-113522000D03*
D34*
X56404000Y-114492000D03*
X56904000Y-114492000D03*
X57404000Y-114492000D03*
X57904000Y-114492000D03*
X58404000Y-114492000D03*
D33*
X59374000Y-113522000D03*
X59374000Y-113022000D03*
X59374000Y-112522000D03*
X59374000Y-112022000D03*
X59374000Y-111522000D03*
D34*
X58404000Y-110552000D03*
X57904000Y-110552000D03*
X57404000Y-110552000D03*
X56904000Y-110552000D03*
X56404000Y-110552000D03*
D35*
X57404000Y-112522000D03*
%TD*%
D13*
%TO.C,C18*%
X58928000Y-75108500D03*
X58928000Y-74243500D03*
%TD*%
D31*
%TO.C,J9*%
X107201000Y-166634400D03*
X108201000Y-166634400D03*
X109201000Y-166634400D03*
X110201000Y-166634400D03*
X111201000Y-166634400D03*
X112201000Y-166634400D03*
X113201000Y-166634400D03*
X114201000Y-166634400D03*
X115201000Y-166634400D03*
X116201000Y-166634400D03*
X117201000Y-166634400D03*
X118201000Y-166634400D03*
X119201000Y-166634400D03*
X120201000Y-166634400D03*
X121201000Y-166634400D03*
X122201000Y-166634400D03*
X123201000Y-166634400D03*
X124201000Y-166634400D03*
X125201000Y-166634400D03*
X126201000Y-166634400D03*
D32*
X104401000Y-169334400D03*
X129001000Y-169334400D03*
%TD*%
D36*
%TO.C,U1*%
X81141000Y-69575400D03*
X81141000Y-70225400D03*
X81141000Y-70875400D03*
X81141000Y-71525400D03*
X81141000Y-72175400D03*
X81141000Y-72825400D03*
X81141000Y-73475400D03*
X81141000Y-74125400D03*
X86881000Y-74125400D03*
X86881000Y-73475400D03*
X86881000Y-72825400D03*
X86881000Y-72175400D03*
X86881000Y-71525400D03*
X86881000Y-70875400D03*
X86881000Y-70225400D03*
X86881000Y-69575400D03*
%TD*%
D37*
%TO.C,C21*%
X169281600Y-70803100D03*
X166031600Y-70803100D03*
%TD*%
D11*
%TO.C,SW5*%
X64546000Y-147254400D03*
X69796000Y-147254400D03*
X64546000Y-150454400D03*
X69796000Y-150454400D03*
%TD*%
%TO.C,SW6*%
X74706000Y-147254400D03*
X79956000Y-147254400D03*
X74706000Y-150454400D03*
X79956000Y-150454400D03*
%TD*%
D24*
%TO.C,R1*%
X148539200Y-154469500D03*
X148539200Y-155664500D03*
%TD*%
D10*
%TO.C,R11*%
X53848000Y-75339500D03*
X53848000Y-74144500D03*
%TD*%
D38*
%TO.C,LED1*%
X163656000Y-173998000D03*
X160956000Y-173998000D03*
D39*
X162306000Y-173848000D03*
%TD*%
D14*
%TO.C,R8*%
X65950500Y-64262000D03*
X67145500Y-64262000D03*
%TD*%
D11*
%TO.C,SW2*%
X159681000Y-147498000D03*
X164931000Y-147498000D03*
X159681000Y-150698000D03*
X164931000Y-150698000D03*
%TD*%
D14*
%TO.C,R17*%
X168024900Y-74663900D03*
X169219900Y-74663900D03*
%TD*%
D13*
%TO.C,C13*%
X58420000Y-108890500D03*
X58420000Y-108025500D03*
%TD*%
D24*
%TO.C,R18*%
X141986000Y-69916500D03*
X141986000Y-71111500D03*
%TD*%
D19*
%TO.C,C1*%
X74537000Y-71077400D03*
X74537000Y-69352400D03*
%TD*%
D14*
%TO.C,R10*%
X65950500Y-62738000D03*
X67145500Y-62738000D03*
%TD*%
D10*
%TO.C,R13*%
X55372000Y-75339500D03*
X55372000Y-74144500D03*
%TD*%
D40*
%TO.C,J2*%
X79030000Y-51524400D03*
D41*
X78855000Y-61224400D03*
D40*
X85530000Y-54224400D03*
D41*
X85705000Y-61224400D03*
%TD*%
M02*
