%TF.GenerationSoftware,KiCad,Pcbnew,7.0.2*%
%TF.CreationDate,2024-01-05T18:48:28-08:00*%
%TF.ProjectId,MuKOB,4d754b4f-422e-46b6-9963-61645f706362,1.0*%
%TF.SameCoordinates,Original*%
%TF.FileFunction,Plated,1,4,PTH,Mixed*%
%TF.FilePolarity,Positive*%
%FSLAX46Y46*%
G04 Gerber Fmt 4.6, Leading zero omitted, Abs format (unit mm)*
G04 Created by KiCad (PCBNEW 7.0.2) date 2024-01-05 18:48:28*
%MOMM*%
%LPD*%
G01*
G04 APERTURE LIST*
%TA.AperFunction,ViaDrill*%
%ADD10C,0.350000*%
%TD*%
%TA.AperFunction,ViaDrill*%
%ADD11C,0.400000*%
%TD*%
%TA.AperFunction,ComponentDrill*%
%ADD12C,0.750000*%
%TD*%
%TA.AperFunction,ComponentDrill*%
%ADD13C,0.800000*%
%TD*%
%TA.AperFunction,ComponentDrill*%
%ADD14C,1.000000*%
%TD*%
G04 aperture for slot hole*
%TA.AperFunction,ComponentDrill*%
%ADD15O,1.000000X2.200000*%
%TD*%
%TA.AperFunction,ComponentDrill*%
%ADD16C,1.020000*%
%TD*%
%TA.AperFunction,ComponentDrill*%
%ADD17C,1.200000*%
%TD*%
G04 aperture for slot hole*
%TA.AperFunction,ComponentDrill*%
%ADD18O,2.100000X2.200000*%
%TD*%
%TA.AperFunction,ComponentDrill*%
%ADD19C,3.200000*%
%TD*%
G04 APERTURE END LIST*
D10*
X52480000Y-63514000D03*
X54180000Y-111214000D03*
X54430000Y-106514000D03*
X57180000Y-76864000D03*
X58430000Y-105614000D03*
X59639200Y-144678400D03*
X59980000Y-82214000D03*
X60330000Y-53164000D03*
X60530000Y-115064000D03*
X60630000Y-111214000D03*
X60730000Y-76864000D03*
X62730000Y-58714000D03*
X64516000Y-144653000D03*
X72830000Y-71114000D03*
X79959200Y-140792200D03*
X83028727Y-71516341D03*
X83330000Y-106664000D03*
X106530000Y-132814000D03*
X113780000Y-119388500D03*
X114180000Y-108114000D03*
X114201000Y-127164000D03*
X114330000Y-119938500D03*
X114855500Y-121807075D03*
X115201000Y-127764000D03*
X116030000Y-120564000D03*
X116201000Y-129138500D03*
X117082100Y-120561900D03*
X117230000Y-131714000D03*
X118178200Y-120565800D03*
X118230000Y-132364000D03*
X119180000Y-133054900D03*
X119380000Y-118239500D03*
X119430000Y-120513000D03*
X120546463Y-121621200D03*
X121094366Y-121046700D03*
X121180000Y-133613700D03*
X122061360Y-120513000D03*
X123180000Y-134203900D03*
X124030000Y-133054900D03*
X125471500Y-132314000D03*
X125580000Y-104614000D03*
X126010900Y-122197900D03*
X130380000Y-87214000D03*
X131180000Y-74614000D03*
X131180000Y-85214000D03*
X133880000Y-103814000D03*
X134705500Y-103814000D03*
X136280000Y-103714000D03*
X137180000Y-80314000D03*
X141980000Y-80514000D03*
X153380000Y-141864000D03*
X154180000Y-83814000D03*
X166649400Y-144424400D03*
X169230000Y-76064000D03*
D11*
X55371999Y-59540899D03*
X55372000Y-69850000D03*
X56515000Y-118059200D03*
X56972200Y-157657800D03*
X56972200Y-160907800D03*
X57404000Y-106756200D03*
X58928000Y-69850000D03*
X59715400Y-80848502D03*
X60147200Y-116357400D03*
X60147200Y-119761000D03*
X62484000Y-69850000D03*
X64490600Y-62763400D03*
X69189600Y-111531400D03*
X70459600Y-84268500D03*
X71704200Y-152323800D03*
X72644000Y-91440000D03*
X73229400Y-142951200D03*
X74422000Y-85852000D03*
X76047600Y-89789000D03*
X76149200Y-72923400D03*
X76479400Y-142951200D03*
X76758800Y-59258200D03*
X76758800Y-62508200D03*
X79070200Y-55753000D03*
X79120200Y-67817200D03*
X81610200Y-98171000D03*
X82448400Y-61163200D03*
X82448400Y-64413200D03*
X86280000Y-66814000D03*
X88442800Y-95580200D03*
X88468200Y-105918000D03*
X92736600Y-62103000D03*
X93549400Y-84658200D03*
X95986600Y-62103000D03*
X96647000Y-79527400D03*
X96799400Y-84658200D03*
X98958400Y-81838800D03*
X102260400Y-114401600D03*
X102260400Y-118033800D03*
X103530400Y-120802400D03*
X104470200Y-164515800D03*
X105867200Y-84201000D03*
X107188000Y-125679200D03*
X108178600Y-86512400D03*
X109348200Y-141503400D03*
X111379000Y-72059800D03*
X112598200Y-141503400D03*
X113690400Y-69748400D03*
X117881400Y-105130600D03*
X120573800Y-110667800D03*
X122174000Y-102870000D03*
X122201000Y-126393000D03*
X122230000Y-168314000D03*
X124230000Y-126364000D03*
X124230000Y-168314000D03*
X126051500Y-125806200D03*
X126230000Y-168314000D03*
X126847600Y-79705200D03*
X126974600Y-94996000D03*
X126974600Y-98246000D03*
X127279400Y-102870000D03*
X127380000Y-60564000D03*
X127980000Y-137414000D03*
X128498600Y-91186000D03*
X128498600Y-93954600D03*
X129159000Y-82016600D03*
X130630000Y-60564000D03*
X132041900Y-114998500D03*
X132280000Y-65714000D03*
X132280000Y-95914000D03*
X135380000Y-75964000D03*
X135483600Y-99999800D03*
X136297000Y-92252800D03*
X138180000Y-60964000D03*
X138180000Y-63514000D03*
X138506200Y-103022400D03*
X139547000Y-92252800D03*
X140385800Y-138150600D03*
X140416000Y-63728000D03*
X145897600Y-92100400D03*
X147243800Y-61036200D03*
X148209000Y-94411800D03*
X149148800Y-86918800D03*
X149529800Y-79477200D03*
X149529800Y-82727200D03*
X150368000Y-148844000D03*
X154380000Y-88112600D03*
X156387800Y-161874200D03*
X162026600Y-171323000D03*
X168554400Y-135051800D03*
X168554400Y-138301800D03*
D12*
%TO.C,Q1*%
X72898000Y-60960000D03*
X72898000Y-62230000D03*
X72898000Y-63500000D03*
D13*
%TO.C,CFA1*%
X68280000Y-51614000D03*
X68280000Y-59114000D03*
%TO.C,CFA2*%
X69730000Y-117264000D03*
X77230000Y-117264000D03*
%TO.C,CF1*%
X80680000Y-80264000D03*
X88180000Y-80264000D03*
%TO.C,CFA4*%
X95180000Y-158964000D03*
X95180000Y-166464000D03*
%TO.C,CF4*%
X100830000Y-136464000D03*
X100830000Y-143964000D03*
%TO.C,CF3*%
X116530000Y-107264000D03*
X124030000Y-107264000D03*
%TO.C,CFA3*%
X126830000Y-72164000D03*
X134330000Y-72164000D03*
%TO.C,R2*%
X134480000Y-82204000D03*
X134480000Y-92364000D03*
%TO.C,CFA5*%
X136580000Y-138164000D03*
X136580000Y-145664000D03*
%TO.C,CF5*%
X136580000Y-159214000D03*
X136580000Y-166714000D03*
%TO.C,CF2*%
X161830000Y-102764000D03*
X161830000Y-110264000D03*
D14*
%TO.C,TP4*%
X62920000Y-123714000D03*
%TO.C,JP3*%
X64180000Y-114164000D03*
X64180000Y-116704000D03*
%TO.C,TP5*%
X66730000Y-123714000D03*
%TO.C,TP3*%
X68380000Y-69464000D03*
%TO.C,OP1*%
X73730000Y-98114000D03*
%TO.C,BZ1*%
X76200000Y-105420000D03*
X76200000Y-113020000D03*
%TO.C,OP1*%
X76270000Y-98114000D03*
X78810000Y-98114000D03*
%TO.C,JP-PWR-1*%
X80955000Y-85849000D03*
X80955000Y-88389000D03*
X83495000Y-85849000D03*
X83495000Y-88389000D03*
%TO.C,JP-PWR-2*%
X84905000Y-160999000D03*
X84905000Y-163539000D03*
X87445000Y-160999000D03*
X87445000Y-163539000D03*
%TO.C,J1*%
X90830400Y-54314000D03*
X90830400Y-56854000D03*
X90830400Y-59394000D03*
%TO.C,J3*%
X91555000Y-92974400D03*
X91555000Y-95514400D03*
X91555000Y-98054400D03*
X91555000Y-100594400D03*
X91555000Y-103134400D03*
X91555000Y-105674400D03*
X91555000Y-108214400D03*
%TO.C,J5*%
X93330000Y-73314000D03*
X93330000Y-75854000D03*
X93330000Y-78394000D03*
X93330000Y-80934000D03*
%TO.C,JP1*%
X96012000Y-54354000D03*
X96012000Y-56894000D03*
%TO.C,J16*%
X100191000Y-154950400D03*
X102731000Y-154950400D03*
%TO.C,J19*%
X105266000Y-114345720D03*
X105266000Y-116885720D03*
%TO.C,J13*%
X105266000Y-144790400D03*
X105266000Y-147330400D03*
%TO.C,J16*%
X105271000Y-154950400D03*
%TO.C,J15*%
X107111800Y-136398000D03*
%TO.C,J19*%
X107806000Y-114345720D03*
X107806000Y-116885720D03*
%TO.C,J13*%
X107806000Y-144790400D03*
X107806000Y-147330400D03*
%TO.C,J16*%
X107811000Y-154950400D03*
%TO.C,J15*%
X109651800Y-136398000D03*
%TO.C,J19*%
X110346000Y-114345720D03*
X110346000Y-116885720D03*
%TO.C,J13*%
X110346000Y-144790400D03*
X110346000Y-147330400D03*
%TO.C,J16*%
X110351000Y-154950400D03*
%TO.C,J15*%
X112191800Y-136398000D03*
%TO.C,J19*%
X112886000Y-114345720D03*
X112886000Y-116885720D03*
%TO.C,J13*%
X112886000Y-144790400D03*
X112886000Y-147330400D03*
%TO.C,J16*%
X112891000Y-154950400D03*
%TO.C,J15*%
X114731800Y-136398000D03*
%TO.C,J19*%
X115426000Y-114345720D03*
X115426000Y-116885720D03*
%TO.C,J13*%
X115426000Y-144790400D03*
X115426000Y-147330400D03*
%TO.C,J16*%
X115431000Y-154950400D03*
%TO.C,J15*%
X117271800Y-136398000D03*
%TO.C,J19*%
X117966000Y-114345720D03*
X117966000Y-116885720D03*
%TO.C,J13*%
X117966000Y-144790400D03*
X117966000Y-147330400D03*
%TO.C,J16*%
X117971000Y-154950400D03*
%TO.C,J15*%
X119811800Y-136398000D03*
%TO.C,J19*%
X120506000Y-114345720D03*
X120506000Y-116885720D03*
%TO.C,J13*%
X120506000Y-144790400D03*
X120506000Y-147330400D03*
%TO.C,J16*%
X120511000Y-154950400D03*
%TO.C,J15*%
X122351800Y-136398000D03*
%TO.C,J19*%
X123046000Y-114345720D03*
X123046000Y-116885720D03*
%TO.C,J13*%
X123046000Y-144790400D03*
X123046000Y-147330400D03*
%TO.C,J16*%
X123051000Y-154950400D03*
%TO.C,J19*%
X125586000Y-114345720D03*
X125586000Y-116885720D03*
%TO.C,J13*%
X125586000Y-144790400D03*
X125586000Y-147330400D03*
%TO.C,J16*%
X125591000Y-154950400D03*
%TO.C,J19*%
X128126000Y-114345720D03*
X128126000Y-116885720D03*
%TO.C,J13*%
X128126000Y-144790400D03*
X128126000Y-147330400D03*
%TO.C,J16*%
X128131000Y-154950400D03*
X130671000Y-154950400D03*
X133211000Y-154950400D03*
%TO.C,OP2*%
X139675000Y-82753200D03*
X139675000Y-85293200D03*
X139675000Y-87833200D03*
%TO.C,OP3*%
X139675000Y-95453200D03*
X139675000Y-97993200D03*
X139675000Y-100533200D03*
%TO.C,OP6*%
X139675000Y-108153200D03*
X139675000Y-110693200D03*
X139675000Y-113233200D03*
%TO.C,OP8*%
X139700000Y-71120000D03*
X139700000Y-73660000D03*
X139700000Y-76200000D03*
%TO.C,OP9*%
X144272000Y-71120000D03*
X144272000Y-73660000D03*
X144272000Y-76200000D03*
%TO.C,OP4*%
X144272000Y-82804000D03*
X144272000Y-85344000D03*
X144272000Y-87884000D03*
%TO.C,OP5*%
X144272000Y-95504000D03*
X144272000Y-98044000D03*
X144272000Y-100584000D03*
%TO.C,OP7*%
X144272000Y-108204000D03*
X144272000Y-110744000D03*
X144272000Y-113284000D03*
D15*
%TO.C,J7*%
X152973400Y-64977000D03*
X152973400Y-72177000D03*
D14*
%TO.C,J17*%
X154686000Y-138201400D03*
D15*
%TO.C,J7*%
X155473400Y-57277000D03*
D14*
%TO.C,JP2*%
X156057600Y-64978200D03*
X156057600Y-67518200D03*
%TO.C,TP2*%
X156680000Y-105214000D03*
%TO.C,TP1*%
X156680000Y-112164000D03*
%TO.C,J17*%
X157226000Y-138201400D03*
D15*
%TO.C,J7*%
X157973400Y-72177000D03*
D14*
%TO.C,J17*%
X159766000Y-138201400D03*
%TO.C,RE1*%
X159823200Y-141581900D03*
X159823200Y-156081900D03*
%TO.C,J17*%
X162306000Y-138201400D03*
%TO.C,RE1*%
X162323200Y-141581900D03*
X164823200Y-141581900D03*
X164823200Y-156081900D03*
%TO.C,J17*%
X164846000Y-138201400D03*
%TO.C,J10*%
X166878000Y-78994000D03*
X166878000Y-81534000D03*
X166878000Y-84074000D03*
X166878000Y-86614000D03*
X166878000Y-89154000D03*
X166878000Y-91694000D03*
X166878000Y-94234000D03*
%TO.C,J4*%
X166878000Y-100076000D03*
X166878000Y-102616000D03*
X166878000Y-105156000D03*
%TO.C,J8*%
X166878000Y-110236000D03*
X166878000Y-112776000D03*
X166878000Y-115316000D03*
D16*
%TO.C,U2*%
X102870000Y-51714400D03*
X102870000Y-54254400D03*
X102870000Y-56794400D03*
X102870000Y-59334400D03*
X102870000Y-61874400D03*
X102870000Y-64414400D03*
X102870000Y-66954400D03*
X102870000Y-69494400D03*
X102870000Y-72034400D03*
X102870000Y-74574400D03*
X102870000Y-77114400D03*
X102870000Y-79654400D03*
X102870000Y-82194400D03*
X102870000Y-84734400D03*
X102870000Y-87274400D03*
X102870000Y-89814400D03*
X102870000Y-92354400D03*
X102870000Y-94894400D03*
X102870000Y-97434400D03*
X102870000Y-99974400D03*
X112344100Y-81444400D03*
X114884100Y-81444400D03*
X117424100Y-81444400D03*
X120650000Y-51714400D03*
X120650000Y-54254400D03*
X120650000Y-56794400D03*
X120650000Y-59334400D03*
X120650000Y-61874400D03*
X120650000Y-64414400D03*
X120650000Y-66954400D03*
X120650000Y-69494400D03*
X120650000Y-72034400D03*
X120650000Y-74574400D03*
X120650000Y-77114400D03*
X120650000Y-79654400D03*
X120650000Y-82194400D03*
X120650000Y-84734400D03*
X120650000Y-87274400D03*
X120650000Y-89814400D03*
X120650000Y-92354400D03*
X120650000Y-94894400D03*
X120650000Y-97434400D03*
X120650000Y-99974400D03*
D17*
%TO.C,J12*%
X57150000Y-84836000D03*
X57150000Y-89836000D03*
%TO.C,J11*%
X57150000Y-96012000D03*
X57150000Y-101012000D03*
D18*
%TO.C,RE1*%
X155723200Y-149081900D03*
X168923200Y-149081900D03*
D19*
%TO.C,M_KSI2*%
X73724200Y-54874400D03*
%TO.C,M_KSI3*%
X73724200Y-123454400D03*
%TO.C,M_KSI1*%
X167704200Y-54874400D03*
%TO.C,M_KSI4*%
X167704200Y-123454400D03*
M02*
