%TF.GenerationSoftware,KiCad,Pcbnew,7.0.2*%
%TF.CreationDate,2024-01-05T18:48:20-08:00*%
%TF.ProjectId,MuKOB,4d754b4f-422e-46b6-9963-61645f706362,1.0*%
%TF.SameCoordinates,Original*%
%TF.FileFunction,Soldermask,Bot*%
%TF.FilePolarity,Negative*%
%FSLAX46Y46*%
G04 Gerber Fmt 4.6, Leading zero omitted, Abs format (unit mm)*
G04 Created by KiCad (PCBNEW 7.0.2) date 2024-01-05 18:48:20*
%MOMM*%
%LPD*%
G01*
G04 APERTURE LIST*
%ADD10C,1.524000*%
%ADD11O,2.900000X3.000000*%
%ADD12C,1.600000*%
%ADD13O,1.600000X1.600000*%
%ADD14R,2.400000X2.400000*%
%ADD15C,2.400000*%
%ADD16R,1.700000X1.700000*%
%ADD17O,1.700000X1.700000*%
%ADD18C,3.200000*%
%ADD19O,1.800000X1.800000*%
%ADD20O,1.500000X1.500000*%
%ADD21C,1.701800*%
%ADD22C,2.700000*%
%ADD23R,2.000000X2.000000*%
%ADD24C,2.000000*%
%ADD25C,3.600000*%
%ADD26C,5.700000*%
%ADD27C,0.950000*%
%ADD28C,1.200000*%
%ADD29R,1.500000X1.050000*%
%ADD30O,1.500000X1.050000*%
%ADD31O,1.712000X3.220000*%
G04 APERTURE END LIST*
D10*
%TO.C,RE1*%
X164823200Y-141581900D03*
X159823200Y-141581900D03*
X162323200Y-141581900D03*
X164823200Y-156081900D03*
X159823200Y-156081900D03*
D11*
X168923200Y-149081900D03*
X155723200Y-149081900D03*
%TD*%
D12*
%TO.C,CF1*%
X80680000Y-80264000D03*
D13*
X88180000Y-80264000D03*
%TD*%
D12*
%TO.C,CFA2*%
X69730000Y-117264000D03*
D13*
X77230000Y-117264000D03*
%TD*%
D14*
%TO.C,J12*%
X57150000Y-89836000D03*
D15*
X57150000Y-84836000D03*
%TD*%
D16*
%TO.C,TP1*%
X156680000Y-112164000D03*
%TD*%
%TO.C,TP2*%
X156680000Y-105214000D03*
%TD*%
%TO.C,JP3*%
X64180000Y-116704000D03*
D17*
X64180000Y-114164000D03*
%TD*%
D18*
%TO.C,M_H2*%
X144856200Y-169164000D03*
%TD*%
D16*
%TO.C,OP9*%
X144272000Y-76200000D03*
D17*
X144272000Y-73660000D03*
X144272000Y-71120000D03*
%TD*%
D16*
%TO.C,J19*%
X105266000Y-116885720D03*
D17*
X105266000Y-114345720D03*
X107806000Y-116885720D03*
X107806000Y-114345720D03*
X110346000Y-116885720D03*
X110346000Y-114345720D03*
X112886000Y-116885720D03*
X112886000Y-114345720D03*
X115426000Y-116885720D03*
X115426000Y-114345720D03*
X117966000Y-116885720D03*
X117966000Y-114345720D03*
X120506000Y-116885720D03*
X120506000Y-114345720D03*
X123046000Y-116885720D03*
X123046000Y-114345720D03*
X125586000Y-116885720D03*
X125586000Y-114345720D03*
X128126000Y-116885720D03*
X128126000Y-114345720D03*
%TD*%
D19*
%TO.C,U2*%
X109035000Y-51844400D03*
D20*
X109335000Y-54874400D03*
X114185000Y-54874400D03*
D19*
X114485000Y-51844400D03*
D17*
X102870000Y-51714400D03*
X102870000Y-54254400D03*
D16*
X102870000Y-56794400D03*
D17*
X102870000Y-59334400D03*
X102870000Y-61874400D03*
X102870000Y-64414400D03*
X102870000Y-66954400D03*
D16*
X102870000Y-69494400D03*
D17*
X102870000Y-72034400D03*
X102870000Y-74574400D03*
X102870000Y-77114400D03*
X102870000Y-79654400D03*
D16*
X102870000Y-82194400D03*
D17*
X102870000Y-84734400D03*
X102870000Y-87274400D03*
X102870000Y-89814400D03*
X102870000Y-92354400D03*
D16*
X102870000Y-94894400D03*
D17*
X102870000Y-97434400D03*
X102870000Y-99974400D03*
X120650000Y-99974400D03*
X120650000Y-97434400D03*
D16*
X120650000Y-94894400D03*
D17*
X120650000Y-92354400D03*
X120650000Y-89814400D03*
X120650000Y-87274400D03*
X120650000Y-84734400D03*
D16*
X120650000Y-82194400D03*
D17*
X120650000Y-79654400D03*
X120650000Y-77114400D03*
X120650000Y-74574400D03*
X120650000Y-72034400D03*
D16*
X120650000Y-69494400D03*
D17*
X120650000Y-66954400D03*
X120650000Y-64414400D03*
X120650000Y-61874400D03*
X120650000Y-59334400D03*
D16*
X120650000Y-56794400D03*
D17*
X120650000Y-54254400D03*
X120650000Y-51714400D03*
X112344100Y-81444400D03*
D16*
X114884100Y-81444400D03*
D17*
X117424100Y-81444400D03*
%TD*%
D21*
%TO.C,J14*%
X59072780Y-55194200D03*
X59072780Y-62204600D03*
%TD*%
D18*
%TO.C,M_H5*%
X55956200Y-123444000D03*
%TD*%
D16*
%TO.C,JP-PWR-2*%
X84905000Y-163539000D03*
D17*
X84905000Y-160999000D03*
X87445000Y-163539000D03*
X87445000Y-160999000D03*
%TD*%
D12*
%TO.C,CFA5*%
X136580000Y-145664000D03*
D13*
X136580000Y-138164000D03*
%TD*%
D22*
%TO.C,M_DISP4*%
X99796600Y-107213400D03*
%TD*%
D16*
%TO.C,JP1*%
X96012000Y-56894000D03*
D17*
X96012000Y-54354000D03*
%TD*%
D12*
%TO.C,CFA1*%
X68280000Y-59114000D03*
D13*
X68280000Y-51614000D03*
%TD*%
D16*
%TO.C,JP2*%
X156057600Y-67518200D03*
D17*
X156057600Y-64978200D03*
%TD*%
D23*
%TO.C,BZ1*%
X76200000Y-105420000D03*
D24*
X76200000Y-113020000D03*
%TD*%
D25*
%TO.C,M_KSI3*%
X73724200Y-123454400D03*
D26*
X73724200Y-123454400D03*
%TD*%
D16*
%TO.C,J16*%
X100191000Y-154950400D03*
D17*
X102731000Y-154950400D03*
X105271000Y-154950400D03*
X107811000Y-154950400D03*
X110351000Y-154950400D03*
X112891000Y-154950400D03*
X115431000Y-154950400D03*
X117971000Y-154950400D03*
X120511000Y-154950400D03*
X123051000Y-154950400D03*
X125591000Y-154950400D03*
X128131000Y-154950400D03*
X130671000Y-154950400D03*
X133211000Y-154950400D03*
%TD*%
D12*
%TO.C,CF5*%
X136580000Y-166714000D03*
D13*
X136580000Y-159214000D03*
%TD*%
D16*
%TO.C,OP2*%
X139675000Y-87833200D03*
D17*
X139675000Y-85293200D03*
X139675000Y-82753200D03*
%TD*%
D18*
%TO.C,M_DISP3*%
X89777000Y-153172400D03*
%TD*%
D12*
%TO.C,CFA3*%
X126830000Y-72164000D03*
D13*
X134330000Y-72164000D03*
%TD*%
D16*
%TO.C,OP8*%
X139700000Y-76200000D03*
D17*
X139700000Y-73660000D03*
X139700000Y-71120000D03*
%TD*%
D25*
%TO.C,M_KSI4*%
X167704200Y-123454400D03*
D26*
X167704200Y-123454400D03*
%TD*%
D12*
%TO.C,CF4*%
X100830000Y-143964000D03*
D13*
X100830000Y-136464000D03*
%TD*%
D18*
%TO.C,M_DISP2*%
X142482000Y-152537400D03*
%TD*%
D27*
%TO.C,J6*%
X140896000Y-53804900D03*
X134096000Y-53804900D03*
%TD*%
D16*
%TO.C,J17*%
X164846000Y-138201400D03*
D17*
X162306000Y-138201400D03*
X159766000Y-138201400D03*
X157226000Y-138201400D03*
X154686000Y-138201400D03*
%TD*%
D16*
%TO.C,J10*%
X166878000Y-94234000D03*
D17*
X166878000Y-91694000D03*
X166878000Y-89154000D03*
X166878000Y-86614000D03*
X166878000Y-84074000D03*
X166878000Y-81534000D03*
X166878000Y-78994000D03*
%TD*%
D16*
%TO.C,OP3*%
X139675000Y-100533200D03*
D17*
X139675000Y-97993200D03*
X139675000Y-95453200D03*
%TD*%
D16*
%TO.C,J15*%
X122351800Y-136398000D03*
D17*
X119811800Y-136398000D03*
X117271800Y-136398000D03*
X114731800Y-136398000D03*
X112191800Y-136398000D03*
X109651800Y-136398000D03*
X107111800Y-136398000D03*
%TD*%
D16*
%TO.C,OP7*%
X144272000Y-113284000D03*
D17*
X144272000Y-110744000D03*
X144272000Y-108204000D03*
%TD*%
D16*
%TO.C,J8*%
X166878000Y-115316000D03*
D17*
X166878000Y-112776000D03*
X166878000Y-110236000D03*
%TD*%
D16*
%TO.C,JP-PWR-1*%
X80955000Y-88389000D03*
D17*
X80955000Y-85849000D03*
X83495000Y-88389000D03*
X83495000Y-85849000D03*
%TD*%
D12*
%TO.C,CF2*%
X161830000Y-110264000D03*
D13*
X161830000Y-102764000D03*
%TD*%
D22*
%TO.C,M_DISP5*%
X129971800Y-107213400D03*
%TD*%
D14*
%TO.C,J11*%
X57150000Y-101012000D03*
D15*
X57150000Y-96012000D03*
%TD*%
D16*
%TO.C,TP4*%
X62920000Y-123714000D03*
%TD*%
D12*
%TO.C,CFA4*%
X95180000Y-166464000D03*
D13*
X95180000Y-158964000D03*
%TD*%
D16*
%TO.C,J5*%
X93330000Y-73314000D03*
D17*
X93330000Y-75854000D03*
X93330000Y-78394000D03*
X93330000Y-80934000D03*
%TD*%
D12*
%TO.C,R2*%
X134480000Y-92364000D03*
D13*
X134480000Y-82204000D03*
%TD*%
D18*
%TO.C,M_DISP1*%
X95492000Y-148727400D03*
%TD*%
%TO.C,M_H4*%
X144856200Y-137414000D03*
%TD*%
D16*
%TO.C,J1*%
X90830400Y-59394000D03*
D17*
X90830400Y-56854000D03*
X90830400Y-54314000D03*
%TD*%
D16*
%TO.C,OP4*%
X144272000Y-87884000D03*
D17*
X144272000Y-85344000D03*
X144272000Y-82804000D03*
%TD*%
D16*
%TO.C,TP3*%
X68380000Y-69464000D03*
%TD*%
%TO.C,OP6*%
X139675000Y-113233200D03*
D17*
X139675000Y-110693200D03*
X139675000Y-108153200D03*
%TD*%
D25*
%TO.C,M_KSI2*%
X73724200Y-54874400D03*
D26*
X73724200Y-54874400D03*
%TD*%
D12*
%TO.C,CF3*%
X116530000Y-107264000D03*
D13*
X124030000Y-107264000D03*
%TD*%
D16*
%TO.C,OP1*%
X73730000Y-98114000D03*
D17*
X76270000Y-98114000D03*
X78810000Y-98114000D03*
%TD*%
D25*
%TO.C,M_KSI1*%
X167704200Y-54874400D03*
D26*
X167704200Y-54874400D03*
%TD*%
D18*
%TO.C,M_H3*%
X55956200Y-137414000D03*
%TD*%
D16*
%TO.C,TP5*%
X66730000Y-123714000D03*
%TD*%
%TO.C,OP5*%
X144272000Y-100584000D03*
D17*
X144272000Y-98044000D03*
X144272000Y-95504000D03*
%TD*%
D18*
%TO.C,M_H1*%
X55956200Y-169164000D03*
%TD*%
D28*
%TO.C,J2*%
X82280000Y-52824400D03*
X82280000Y-58824400D03*
%TD*%
D29*
%TO.C,Q1*%
X72898000Y-60960000D03*
D30*
X72898000Y-62230000D03*
X72898000Y-63500000D03*
%TD*%
D16*
%TO.C,J4*%
X166878000Y-105156000D03*
D17*
X166878000Y-102616000D03*
X166878000Y-100076000D03*
%TD*%
D31*
%TO.C,J7*%
X155473400Y-57277000D03*
X152973400Y-72177000D03*
X157973400Y-72177000D03*
X152973400Y-64977000D03*
%TD*%
D16*
%TO.C,J3*%
X91555000Y-92974400D03*
D17*
X91555000Y-95514400D03*
X91555000Y-98054400D03*
X91555000Y-100594400D03*
X91555000Y-103134400D03*
X91555000Y-105674400D03*
X91555000Y-108214400D03*
%TD*%
D16*
%TO.C,J13*%
X105266000Y-144790400D03*
D17*
X105266000Y-147330400D03*
X107806000Y-144790400D03*
X107806000Y-147330400D03*
X110346000Y-144790400D03*
X110346000Y-147330400D03*
X112886000Y-144790400D03*
X112886000Y-147330400D03*
X115426000Y-144790400D03*
X115426000Y-147330400D03*
X117966000Y-144790400D03*
X117966000Y-147330400D03*
X120506000Y-144790400D03*
X120506000Y-147330400D03*
X123046000Y-144790400D03*
X123046000Y-147330400D03*
X125586000Y-144790400D03*
X125586000Y-147330400D03*
X128126000Y-144790400D03*
X128126000Y-147330400D03*
%TD*%
M02*
