%TF.GenerationSoftware,KiCad,Pcbnew,7.0.2*%
%TF.CreationDate,2024-01-09T21:21:53-08:00*%
%TF.ProjectId,MK-KS-MkII,4d4b2d4b-532d-44d6-9b49-492e6b696361,1.0*%
%TF.SameCoordinates,Original*%
%TF.FileFunction,Soldermask,Top*%
%TF.FilePolarity,Negative*%
%FSLAX46Y46*%
G04 Gerber Fmt 4.6, Leading zero omitted, Abs format (unit mm)*
G04 Created by KiCad (PCBNEW 7.0.2) date 2024-01-09 21:21:53*
%MOMM*%
%LPD*%
G01*
G04 APERTURE LIST*
G04 Aperture macros list*
%AMRoundRect*
0 Rectangle with rounded corners*
0 $1 Rounding radius*
0 $2 $3 $4 $5 $6 $7 $8 $9 X,Y pos of 4 corners*
0 Add a 4 corners polygon primitive as box body*
4,1,4,$2,$3,$4,$5,$6,$7,$8,$9,$2,$3,0*
0 Add four circle primitives for the rounded corners*
1,1,$1+$1,$2,$3*
1,1,$1+$1,$4,$5*
1,1,$1+$1,$6,$7*
1,1,$1+$1,$8,$9*
0 Add four rect primitives between the rounded corners*
20,1,$1+$1,$2,$3,$4,$5,0*
20,1,$1+$1,$4,$5,$6,$7,0*
20,1,$1+$1,$6,$7,$8,$9,0*
20,1,$1+$1,$8,$9,$2,$3,0*%
G04 Aperture macros list end*
%ADD10O,1.700000X1.700000*%
%ADD11R,1.700000X3.500000*%
%ADD12R,1.700000X1.700000*%
%ADD13R,2.400000X2.400000*%
%ADD14C,2.400000*%
%ADD15RoundRect,0.225000X-0.375000X0.225000X-0.375000X-0.225000X0.375000X-0.225000X0.375000X0.225000X0*%
%ADD16RoundRect,0.237500X0.237500X-0.300000X0.237500X0.300000X-0.237500X0.300000X-0.237500X-0.300000X0*%
%ADD17C,5.700000*%
%ADD18C,3.600000*%
%ADD19RoundRect,0.225000X-0.225000X-0.375000X0.225000X-0.375000X0.225000X0.375000X-0.225000X0.375000X0*%
%ADD20O,3.220000X1.712000*%
%ADD21RoundRect,0.160000X0.197500X0.160000X-0.197500X0.160000X-0.197500X-0.160000X0.197500X-0.160000X0*%
%ADD22RoundRect,0.237500X-0.300000X-0.237500X0.300000X-0.237500X0.300000X0.237500X-0.300000X0.237500X0*%
%ADD23R,0.710000X0.900000*%
%ADD24R,0.800000X0.600000*%
%ADD25RoundRect,0.160000X-0.197500X-0.160000X0.197500X-0.160000X0.197500X0.160000X-0.197500X0.160000X0*%
%ADD26R,1.600000X1.600000*%
%ADD27C,1.600000*%
%ADD28O,1.600000X1.600000*%
%ADD29C,4.700000*%
%ADD30C,7.000000*%
%ADD31O,5.000000X2.500000*%
%ADD32O,4.500000X2.250000*%
%ADD33R,1.600000X1.400000*%
%ADD34RoundRect,0.150000X0.587500X0.150000X-0.587500X0.150000X-0.587500X-0.150000X0.587500X-0.150000X0*%
%ADD35R,1.050000X1.500000*%
%ADD36O,1.050000X1.500000*%
%ADD37RoundRect,0.225000X0.375000X-0.225000X0.375000X0.225000X-0.375000X0.225000X-0.375000X-0.225000X0*%
%ADD38RoundRect,0.150000X0.825000X0.150000X-0.825000X0.150000X-0.825000X-0.150000X0.825000X-0.150000X0*%
G04 APERTURE END LIST*
D10*
%TO.C,U1*%
X150176000Y-115554000D03*
D11*
X150176000Y-114654000D03*
D10*
X147636000Y-115554000D03*
D11*
X147636000Y-114654000D03*
D12*
X145096000Y-115554000D03*
D11*
X145096000Y-114654000D03*
D10*
X142556000Y-115554000D03*
D11*
X142556000Y-114654000D03*
D10*
X140016000Y-115554000D03*
D11*
X140016000Y-114654000D03*
D10*
X140106000Y-128234000D03*
D11*
X140106000Y-129134000D03*
D10*
X142646000Y-128234000D03*
D11*
X142646000Y-129134000D03*
D12*
X145186000Y-128234000D03*
D11*
X145186000Y-129134000D03*
D10*
X147726000Y-128234000D03*
D11*
X147726000Y-129134000D03*
D10*
X150266000Y-128234000D03*
D11*
X150266000Y-129134000D03*
%TD*%
D13*
%TO.C,ST3*%
X130138000Y-99627800D03*
D14*
X125138000Y-99627800D03*
%TD*%
D15*
%TO.C,D7*%
X79019400Y-125782800D03*
X79019400Y-129082800D03*
%TD*%
D16*
%TO.C,C7*%
X99594400Y-117587800D03*
X99594400Y-115862800D03*
%TD*%
D12*
%TO.C,TP5*%
X100609400Y-135432800D03*
%TD*%
%TO.C,J3*%
X157857000Y-133268000D03*
D10*
X157857000Y-135808000D03*
X157857000Y-138348000D03*
%TD*%
D16*
%TO.C,C5*%
X89434400Y-117587800D03*
X89434400Y-115862800D03*
%TD*%
D17*
%TO.C,M_KSI4*%
X61239400Y-167182800D03*
D18*
X61239400Y-167182800D03*
%TD*%
D19*
%TO.C,D3*%
X100609400Y-110032800D03*
X103909400Y-110032800D03*
%TD*%
D12*
%TO.C,JP3*%
X144742000Y-165979000D03*
D10*
X142202000Y-165979000D03*
%TD*%
D19*
%TO.C,D1*%
X127407000Y-109782000D03*
X130707000Y-109782000D03*
%TD*%
D13*
%TO.C,ST1*%
X100709400Y-99627800D03*
D14*
X95709400Y-99627800D03*
%TD*%
D20*
%TO.C,J5*%
X152453000Y-163472000D03*
X137553000Y-160972000D03*
X137553000Y-165972000D03*
X144753000Y-160972000D03*
%TD*%
D21*
%TO.C,R9*%
X116421900Y-122732800D03*
X115226900Y-122732800D03*
%TD*%
D22*
%TO.C,C4*%
X95706900Y-110032800D03*
X97431900Y-110032800D03*
%TD*%
D19*
%TO.C,D8*%
X102899400Y-122732800D03*
X106199400Y-122732800D03*
%TD*%
D12*
%TO.C,TP1*%
X114599000Y-113854000D03*
%TD*%
D23*
%TO.C,LED1*%
X118436400Y-94388800D03*
X121136400Y-94388800D03*
D24*
X119786400Y-94538800D03*
%TD*%
D25*
%TO.C,R2*%
X151572500Y-110434000D03*
X152767500Y-110434000D03*
%TD*%
D12*
%TO.C,OPa1*%
X58593000Y-122644000D03*
D10*
X58593000Y-120104000D03*
%TD*%
D25*
%TO.C,R1*%
X106959400Y-110032800D03*
X108154400Y-110032800D03*
%TD*%
D12*
%TO.C,TP2*%
X85369400Y-135432800D03*
%TD*%
D25*
%TO.C,R10*%
X110806900Y-110032800D03*
X112001900Y-110032800D03*
%TD*%
D17*
%TO.C,M_KSI1*%
X61239400Y-98602800D03*
D18*
X61239400Y-98602800D03*
%TD*%
D12*
%TO.C,TP4*%
X100609400Y-130352800D03*
%TD*%
D25*
%TO.C,R8*%
X110146900Y-122732800D03*
X111341900Y-122732800D03*
%TD*%
D26*
%TO.C,C3*%
X69875400Y-120080851D03*
D27*
X69875400Y-115080851D03*
%TD*%
D26*
%TO.C,D4*%
X86537800Y-110794800D03*
D28*
X86537800Y-118414800D03*
%TD*%
D25*
%TO.C,R7*%
X119099400Y-100507800D03*
X120294400Y-100507800D03*
%TD*%
D29*
%TO.C,SHLD-1*%
X70129400Y-104952800D03*
D30*
X70129400Y-104952800D03*
%TD*%
D29*
%TO.C,SHLD-2*%
X146329400Y-104952800D03*
D30*
X146329400Y-104952800D03*
%TD*%
D10*
%TO.C,SW1*%
X120528400Y-162884800D03*
D12*
X120528400Y-165424800D03*
D10*
X115448400Y-162884800D03*
X115448400Y-165424800D03*
%TD*%
D12*
%TO.C,JP2*%
X130688400Y-162859800D03*
D10*
X130688400Y-165399800D03*
%TD*%
D12*
%TO.C,JP1*%
X147069000Y-137366000D03*
D10*
X144529000Y-137366000D03*
%TD*%
D31*
%TO.C,J2*%
X82880200Y-107489100D03*
D32*
X82880200Y-101489100D03*
%TD*%
D33*
%TO.C,SW3*%
X97053400Y-161884800D03*
X106153400Y-161920800D03*
X97053400Y-166384800D03*
X106153400Y-166420800D03*
%TD*%
D17*
%TO.C,M_KSI2*%
X155219400Y-98602800D03*
D18*
X155219400Y-98602800D03*
%TD*%
D13*
%TO.C,ST2*%
X107774400Y-99627800D03*
D14*
X112774400Y-99627800D03*
%TD*%
D29*
%TO.C,SHLD-4*%
X70129400Y-145592800D03*
D30*
X70129400Y-145592800D03*
%TD*%
D16*
%TO.C,C6*%
X94514400Y-117587800D03*
X94514400Y-115862800D03*
%TD*%
D12*
%TO.C,TP3*%
X85369400Y-130352800D03*
%TD*%
D33*
%TO.C,SW2*%
X74773400Y-161884800D03*
X83873400Y-161920800D03*
X74773400Y-166384800D03*
X83873400Y-166420800D03*
%TD*%
D34*
%TO.C,Q3*%
X108964400Y-131302800D03*
X108964400Y-129402800D03*
X107089400Y-130352800D03*
%TD*%
D25*
%TO.C,R6*%
X98081900Y-122732800D03*
X99276900Y-122732800D03*
%TD*%
D35*
%TO.C,Q4*%
X120929400Y-108762800D03*
D36*
X119659400Y-108762800D03*
X118389400Y-108762800D03*
%TD*%
D26*
%TO.C,D2*%
X79425800Y-118414800D03*
D28*
X79425800Y-110794800D03*
%TD*%
D21*
%TO.C,R5*%
X93561900Y-122732800D03*
X92366900Y-122732800D03*
%TD*%
D17*
%TO.C,M_KSI3*%
X155219400Y-167182800D03*
D18*
X155219400Y-167182800D03*
%TD*%
D12*
%TO.C,JP5*%
X152564000Y-135827000D03*
D10*
X152564000Y-138367000D03*
%TD*%
D16*
%TO.C,C8*%
X104674400Y-117587800D03*
X104674400Y-115862800D03*
%TD*%
D12*
%TO.C,JP4*%
X128341000Y-128229000D03*
D10*
X130881000Y-128229000D03*
%TD*%
D29*
%TO.C,SHLD-3*%
X146329400Y-145592800D03*
D30*
X146329400Y-145592800D03*
%TD*%
D37*
%TO.C,D5*%
X120878600Y-118541800D03*
X120878600Y-115241800D03*
%TD*%
D38*
%TO.C,U4*%
X95529400Y-132257800D03*
X95529400Y-130987800D03*
X95529400Y-129717800D03*
X95529400Y-128447800D03*
X90579400Y-128447800D03*
X90579400Y-129717800D03*
X90579400Y-130987800D03*
X90579400Y-132257800D03*
%TD*%
D16*
%TO.C,C9*%
X109754400Y-117587800D03*
X109754400Y-115862800D03*
%TD*%
D12*
%TO.C,J4*%
X137439400Y-136702800D03*
D10*
X137439400Y-139242800D03*
X137439400Y-141782800D03*
X137439400Y-144322800D03*
X137439400Y-146862800D03*
X137439400Y-149402800D03*
X137439400Y-151942800D03*
%TD*%
M02*
