%TF.GenerationSoftware,KiCad,Pcbnew,7.0.2*%
%TF.CreationDate,2024-01-09T21:21:53-08:00*%
%TF.ProjectId,MK-KS-MkII,4d4b2d4b-532d-44d6-9b49-492e6b696361,1.0*%
%TF.SameCoordinates,Original*%
%TF.FileFunction,Paste,Top*%
%TF.FilePolarity,Positive*%
%FSLAX46Y46*%
G04 Gerber Fmt 4.6, Leading zero omitted, Abs format (unit mm)*
G04 Created by KiCad (PCBNEW 7.0.2) date 2024-01-09 21:21:53*
%MOMM*%
%LPD*%
G01*
G04 APERTURE LIST*
G04 Aperture macros list*
%AMRoundRect*
0 Rectangle with rounded corners*
0 $1 Rounding radius*
0 $2 $3 $4 $5 $6 $7 $8 $9 X,Y pos of 4 corners*
0 Add a 4 corners polygon primitive as box body*
4,1,4,$2,$3,$4,$5,$6,$7,$8,$9,$2,$3,0*
0 Add four circle primitives for the rounded corners*
1,1,$1+$1,$2,$3*
1,1,$1+$1,$4,$5*
1,1,$1+$1,$6,$7*
1,1,$1+$1,$8,$9*
0 Add four rect primitives between the rounded corners*
20,1,$1+$1,$2,$3,$4,$5,0*
20,1,$1+$1,$4,$5,$6,$7,0*
20,1,$1+$1,$6,$7,$8,$9,0*
20,1,$1+$1,$8,$9,$2,$3,0*%
G04 Aperture macros list end*
%ADD10RoundRect,0.225000X-0.375000X0.225000X-0.375000X-0.225000X0.375000X-0.225000X0.375000X0.225000X0*%
%ADD11RoundRect,0.237500X0.237500X-0.300000X0.237500X0.300000X-0.237500X0.300000X-0.237500X-0.300000X0*%
%ADD12RoundRect,0.225000X-0.225000X-0.375000X0.225000X-0.375000X0.225000X0.375000X-0.225000X0.375000X0*%
%ADD13RoundRect,0.160000X0.197500X0.160000X-0.197500X0.160000X-0.197500X-0.160000X0.197500X-0.160000X0*%
%ADD14RoundRect,0.237500X-0.300000X-0.237500X0.300000X-0.237500X0.300000X0.237500X-0.300000X0.237500X0*%
%ADD15R,0.710000X0.900000*%
%ADD16R,0.800000X0.600000*%
%ADD17RoundRect,0.160000X-0.197500X-0.160000X0.197500X-0.160000X0.197500X0.160000X-0.197500X0.160000X0*%
%ADD18R,1.600000X1.400000*%
%ADD19RoundRect,0.150000X0.587500X0.150000X-0.587500X0.150000X-0.587500X-0.150000X0.587500X-0.150000X0*%
%ADD20RoundRect,0.225000X0.375000X-0.225000X0.375000X0.225000X-0.375000X0.225000X-0.375000X-0.225000X0*%
%ADD21RoundRect,0.150000X0.825000X0.150000X-0.825000X0.150000X-0.825000X-0.150000X0.825000X-0.150000X0*%
G04 APERTURE END LIST*
D10*
%TO.C,D7*%
X79019400Y-125782800D03*
X79019400Y-129082800D03*
%TD*%
D11*
%TO.C,C7*%
X99594400Y-117587800D03*
X99594400Y-115862800D03*
%TD*%
%TO.C,C5*%
X89434400Y-117587800D03*
X89434400Y-115862800D03*
%TD*%
D12*
%TO.C,D3*%
X100609400Y-110032800D03*
X103909400Y-110032800D03*
%TD*%
%TO.C,D1*%
X127407000Y-109782000D03*
X130707000Y-109782000D03*
%TD*%
D13*
%TO.C,R9*%
X116421900Y-122732800D03*
X115226900Y-122732800D03*
%TD*%
D14*
%TO.C,C4*%
X95706900Y-110032800D03*
X97431900Y-110032800D03*
%TD*%
D12*
%TO.C,D8*%
X102899400Y-122732800D03*
X106199400Y-122732800D03*
%TD*%
D15*
%TO.C,LED1*%
X118436400Y-94388800D03*
X121136400Y-94388800D03*
D16*
X119786400Y-94538800D03*
%TD*%
D17*
%TO.C,R2*%
X151572500Y-110434000D03*
X152767500Y-110434000D03*
%TD*%
%TO.C,R1*%
X106959400Y-110032800D03*
X108154400Y-110032800D03*
%TD*%
%TO.C,R10*%
X110806900Y-110032800D03*
X112001900Y-110032800D03*
%TD*%
%TO.C,R8*%
X110146900Y-122732800D03*
X111341900Y-122732800D03*
%TD*%
%TO.C,R7*%
X119099400Y-100507800D03*
X120294400Y-100507800D03*
%TD*%
D18*
%TO.C,SW3*%
X97053400Y-161884800D03*
X106153400Y-161920800D03*
X97053400Y-166384800D03*
X106153400Y-166420800D03*
%TD*%
D11*
%TO.C,C6*%
X94514400Y-117587800D03*
X94514400Y-115862800D03*
%TD*%
D18*
%TO.C,SW2*%
X74773400Y-161884800D03*
X83873400Y-161920800D03*
X74773400Y-166384800D03*
X83873400Y-166420800D03*
%TD*%
D19*
%TO.C,Q3*%
X108964400Y-131302800D03*
X108964400Y-129402800D03*
X107089400Y-130352800D03*
%TD*%
D17*
%TO.C,R6*%
X98081900Y-122732800D03*
X99276900Y-122732800D03*
%TD*%
D13*
%TO.C,R5*%
X93561900Y-122732800D03*
X92366900Y-122732800D03*
%TD*%
D11*
%TO.C,C8*%
X104674400Y-117587800D03*
X104674400Y-115862800D03*
%TD*%
D20*
%TO.C,D5*%
X120878600Y-118541800D03*
X120878600Y-115241800D03*
%TD*%
D21*
%TO.C,U4*%
X95529400Y-132257800D03*
X95529400Y-130987800D03*
X95529400Y-129717800D03*
X95529400Y-128447800D03*
X90579400Y-128447800D03*
X90579400Y-129717800D03*
X90579400Y-130987800D03*
X90579400Y-132257800D03*
%TD*%
D11*
%TO.C,C9*%
X109754400Y-117587800D03*
X109754400Y-115862800D03*
%TD*%
M02*
