%TF.GenerationSoftware,KiCad,Pcbnew,7.0.2*%
%TF.CreationDate,2024-01-09T21:22:07-08:00*%
%TF.ProjectId,MK-KS-MkII,4d4b2d4b-532d-44d6-9b49-492e6b696361,1.0*%
%TF.SameCoordinates,Original*%
%TF.FileFunction,Plated,1,2,PTH,Mixed*%
%TF.FilePolarity,Positive*%
%FSLAX46Y46*%
G04 Gerber Fmt 4.6, Leading zero omitted, Abs format (unit mm)*
G04 Created by KiCad (PCBNEW 7.0.2) date 2024-01-09 21:22:07*
%MOMM*%
%LPD*%
G01*
G04 APERTURE LIST*
%TA.AperFunction,ViaDrill*%
%ADD10C,0.400000*%
%TD*%
%TA.AperFunction,ViaDrill*%
%ADD11C,0.500000*%
%TD*%
%TA.AperFunction,ComponentDrill*%
%ADD12C,0.750000*%
%TD*%
%TA.AperFunction,ComponentDrill*%
%ADD13C,0.800000*%
%TD*%
%TA.AperFunction,ComponentDrill*%
%ADD14C,1.000000*%
%TD*%
G04 aperture for slot hole*
%TA.AperFunction,ComponentDrill*%
%ADD15O,3.000000X1.000000*%
%TD*%
G04 aperture for slot hole*
%TA.AperFunction,ComponentDrill*%
%ADD16O,3.500000X1.000000*%
%TD*%
G04 aperture for slot hole*
%TA.AperFunction,ComponentDrill*%
%ADD17O,2.200000X1.000000*%
%TD*%
%TA.AperFunction,ComponentDrill*%
%ADD18C,1.020000*%
%TD*%
%TA.AperFunction,ComponentDrill*%
%ADD19C,1.200000*%
%TD*%
%TA.AperFunction,ComponentDrill*%
%ADD20C,3.200000*%
%TD*%
%TA.AperFunction,ComponentDrill*%
%ADD21C,4.300000*%
%TD*%
G04 APERTURE END LIST*
D10*
X90627200Y-119253000D03*
X90627200Y-126898400D03*
X97739200Y-129717800D03*
X100609000Y-163991000D03*
X118465600Y-97434400D03*
D11*
X74803000Y-159941800D03*
X79044800Y-124155200D03*
X83870800Y-159941800D03*
X89484200Y-114198400D03*
X94538800Y-114223800D03*
X95580200Y-126794800D03*
X97028000Y-159941800D03*
X97409000Y-111633000D03*
X97480000Y-141713000D03*
X99618800Y-114223800D03*
X104724200Y-114249200D03*
X106172000Y-159941800D03*
X108229400Y-122732800D03*
X109778800Y-114249200D03*
X110667800Y-129413000D03*
X116433600Y-121056400D03*
X122555000Y-118541800D03*
X126559000Y-144311000D03*
D12*
%TO.C,Q4*%
X118389400Y-108762800D03*
X119659400Y-108762800D03*
X120929400Y-108762800D03*
D13*
%TO.C,C3*%
X69875400Y-115080851D03*
X69875400Y-120080851D03*
%TO.C,D2*%
X79425800Y-110794800D03*
X79425800Y-118414800D03*
%TO.C,D4*%
X86537800Y-110794800D03*
X86537800Y-118414800D03*
D14*
%TO.C,OPa1*%
X58593000Y-120104000D03*
X58593000Y-122644000D03*
D15*
%TO.C,J2*%
X82880200Y-101489100D03*
D16*
X82880200Y-107489100D03*
D14*
%TO.C,TP3*%
X85369400Y-130352800D03*
%TO.C,TP2*%
X85369400Y-135432800D03*
%TO.C,TP4*%
X100609400Y-130352800D03*
%TO.C,TP5*%
X100609400Y-135432800D03*
%TO.C,TP1*%
X114599000Y-113854000D03*
%TO.C,SW1*%
X115448400Y-162884800D03*
X115448400Y-165424800D03*
X120528400Y-162884800D03*
X120528400Y-165424800D03*
%TO.C,JP4*%
X128341000Y-128229000D03*
%TO.C,JP2*%
X130688400Y-162859800D03*
X130688400Y-165399800D03*
%TO.C,JP4*%
X130881000Y-128229000D03*
%TO.C,J4*%
X137439400Y-136702800D03*
X137439400Y-139242800D03*
X137439400Y-141782800D03*
X137439400Y-144322800D03*
X137439400Y-146862800D03*
X137439400Y-149402800D03*
X137439400Y-151942800D03*
D17*
%TO.C,J5*%
X137553000Y-160972000D03*
X137553000Y-165972000D03*
D14*
%TO.C,JP3*%
X142202000Y-165979000D03*
%TO.C,JP1*%
X144529000Y-137366000D03*
%TO.C,JP3*%
X144742000Y-165979000D03*
D17*
%TO.C,J5*%
X144753000Y-160972000D03*
D14*
%TO.C,JP1*%
X147069000Y-137366000D03*
D17*
%TO.C,J5*%
X152453000Y-163472000D03*
D14*
%TO.C,JP5*%
X152564000Y-135827000D03*
X152564000Y-138367000D03*
%TO.C,J3*%
X157857000Y-133268000D03*
X157857000Y-135808000D03*
X157857000Y-138348000D03*
D18*
%TO.C,U1*%
X140016000Y-115554000D03*
X140106000Y-128234000D03*
X142556000Y-115554000D03*
X142646000Y-128234000D03*
X145096000Y-115554000D03*
X145186000Y-128234000D03*
X147636000Y-115554000D03*
X147726000Y-128234000D03*
X150176000Y-115554000D03*
X150266000Y-128234000D03*
D19*
%TO.C,ST1*%
X95709400Y-99627800D03*
X100709400Y-99627800D03*
%TO.C,ST2*%
X107774400Y-99627800D03*
X112774400Y-99627800D03*
%TO.C,ST3*%
X125138000Y-99627800D03*
X130138000Y-99627800D03*
D20*
%TO.C,M_KSI1*%
X61239400Y-98602800D03*
%TO.C,M_KSI4*%
X61239400Y-167182800D03*
%TO.C,M_KSI2*%
X155219400Y-98602800D03*
%TO.C,M_KSI3*%
X155219400Y-167182800D03*
D21*
%TO.C,SHLD-1*%
X70129400Y-104952800D03*
%TO.C,SHLD-4*%
X70129400Y-145592800D03*
%TO.C,SHLD-2*%
X146329400Y-104952800D03*
%TO.C,SHLD-3*%
X146329400Y-145592800D03*
M02*
