%TF.GenerationSoftware,KiCad,Pcbnew,7.0.2*%
%TF.CreationDate,2024-01-09T21:21:53-08:00*%
%TF.ProjectId,MK-KS-MkII,4d4b2d4b-532d-44d6-9b49-492e6b696361,1.0*%
%TF.SameCoordinates,Original*%
%TF.FileFunction,Soldermask,Bot*%
%TF.FilePolarity,Negative*%
%FSLAX46Y46*%
G04 Gerber Fmt 4.6, Leading zero omitted, Abs format (unit mm)*
G04 Created by KiCad (PCBNEW 7.0.2) date 2024-01-09 21:21:53*
%MOMM*%
%LPD*%
G01*
G04 APERTURE LIST*
%ADD10O,1.700000X1.700000*%
%ADD11R,1.700000X1.700000*%
%ADD12R,2.400000X2.400000*%
%ADD13C,2.400000*%
%ADD14C,5.700000*%
%ADD15C,3.600000*%
%ADD16O,3.220000X1.712000*%
%ADD17R,1.600000X1.600000*%
%ADD18C,1.600000*%
%ADD19O,1.600000X1.600000*%
%ADD20C,7.000000*%
%ADD21C,4.700000*%
%ADD22O,5.000000X2.500000*%
%ADD23O,4.500000X2.250000*%
%ADD24R,1.050000X1.500000*%
%ADD25O,1.050000X1.500000*%
G04 APERTURE END LIST*
D10*
%TO.C,U1*%
X150176000Y-115554000D03*
X147636000Y-115554000D03*
D11*
X145096000Y-115554000D03*
D10*
X142556000Y-115554000D03*
X140016000Y-115554000D03*
X140106000Y-128234000D03*
X142646000Y-128234000D03*
D11*
X145186000Y-128234000D03*
D10*
X147726000Y-128234000D03*
X150266000Y-128234000D03*
%TD*%
D12*
%TO.C,ST3*%
X130138000Y-99627800D03*
D13*
X125138000Y-99627800D03*
%TD*%
D11*
%TO.C,TP5*%
X100609400Y-135432800D03*
%TD*%
%TO.C,J3*%
X157857000Y-133268000D03*
D10*
X157857000Y-135808000D03*
X157857000Y-138348000D03*
%TD*%
D14*
%TO.C,M_KSI4*%
X61239400Y-167182800D03*
D15*
X61239400Y-167182800D03*
%TD*%
D11*
%TO.C,JP3*%
X144742000Y-165979000D03*
D10*
X142202000Y-165979000D03*
%TD*%
D12*
%TO.C,ST1*%
X100709400Y-99627800D03*
D13*
X95709400Y-99627800D03*
%TD*%
D16*
%TO.C,J5*%
X152453000Y-163472000D03*
X137553000Y-160972000D03*
X137553000Y-165972000D03*
X144753000Y-160972000D03*
%TD*%
D11*
%TO.C,TP1*%
X114599000Y-113854000D03*
%TD*%
%TO.C,OPa1*%
X58593000Y-122644000D03*
D10*
X58593000Y-120104000D03*
%TD*%
D11*
%TO.C,TP2*%
X85369400Y-135432800D03*
%TD*%
D14*
%TO.C,M_KSI1*%
X61239400Y-98602800D03*
D15*
X61239400Y-98602800D03*
%TD*%
D11*
%TO.C,TP4*%
X100609400Y-130352800D03*
%TD*%
D17*
%TO.C,C3*%
X69875400Y-120080851D03*
D18*
X69875400Y-115080851D03*
%TD*%
D17*
%TO.C,D4*%
X86537800Y-110794800D03*
D19*
X86537800Y-118414800D03*
%TD*%
D20*
%TO.C,SHLD-1*%
X70129400Y-104952800D03*
D21*
X70129400Y-104952800D03*
%TD*%
D20*
%TO.C,SHLD-2*%
X146329400Y-104952800D03*
D21*
X146329400Y-104952800D03*
%TD*%
D10*
%TO.C,SW1*%
X120528400Y-162884800D03*
D11*
X120528400Y-165424800D03*
D10*
X115448400Y-162884800D03*
X115448400Y-165424800D03*
%TD*%
D11*
%TO.C,JP2*%
X130688400Y-162859800D03*
D10*
X130688400Y-165399800D03*
%TD*%
D11*
%TO.C,JP1*%
X147069000Y-137366000D03*
D10*
X144529000Y-137366000D03*
%TD*%
D22*
%TO.C,J2*%
X82880200Y-107489100D03*
D23*
X82880200Y-101489100D03*
%TD*%
D14*
%TO.C,M_KSI2*%
X155219400Y-98602800D03*
D15*
X155219400Y-98602800D03*
%TD*%
D12*
%TO.C,ST2*%
X107774400Y-99627800D03*
D13*
X112774400Y-99627800D03*
%TD*%
D20*
%TO.C,SHLD-4*%
X70129400Y-145592800D03*
D21*
X70129400Y-145592800D03*
%TD*%
D11*
%TO.C,TP3*%
X85369400Y-130352800D03*
%TD*%
D24*
%TO.C,Q4*%
X120929400Y-108762800D03*
D25*
X119659400Y-108762800D03*
X118389400Y-108762800D03*
%TD*%
D17*
%TO.C,D2*%
X79425800Y-118414800D03*
D19*
X79425800Y-110794800D03*
%TD*%
D14*
%TO.C,M_KSI3*%
X155219400Y-167182800D03*
D15*
X155219400Y-167182800D03*
%TD*%
D11*
%TO.C,JP5*%
X152564000Y-135827000D03*
D10*
X152564000Y-138367000D03*
%TD*%
D11*
%TO.C,JP4*%
X128341000Y-128229000D03*
D10*
X130881000Y-128229000D03*
%TD*%
D20*
%TO.C,SHLD-3*%
X146329400Y-145592800D03*
D21*
X146329400Y-145592800D03*
%TD*%
D11*
%TO.C,J4*%
X137439400Y-136702800D03*
D10*
X137439400Y-139242800D03*
X137439400Y-141782800D03*
X137439400Y-144322800D03*
X137439400Y-146862800D03*
X137439400Y-149402800D03*
X137439400Y-151942800D03*
%TD*%
M02*
