%TF.GenerationSoftware,KiCad,Pcbnew,7.0.2*%
%TF.CreationDate,2024-01-09T21:21:53-08:00*%
%TF.ProjectId,MK-KS-MkII,4d4b2d4b-532d-44d6-9b49-492e6b696361,1.0*%
%TF.SameCoordinates,Original*%
%TF.FileFunction,Copper,L2,Bot*%
%TF.FilePolarity,Positive*%
%FSLAX46Y46*%
G04 Gerber Fmt 4.6, Leading zero omitted, Abs format (unit mm)*
G04 Created by KiCad (PCBNEW 7.0.2) date 2024-01-09 21:21:53*
%MOMM*%
%LPD*%
G01*
G04 APERTURE LIST*
%ADD10C,0.222250*%
%TA.AperFunction,NonConductor*%
%ADD11C,0.222250*%
%TD*%
%TA.AperFunction,ComponentPad*%
%ADD12O,1.700000X1.700000*%
%TD*%
%TA.AperFunction,ComponentPad*%
%ADD13R,1.700000X1.700000*%
%TD*%
%TA.AperFunction,ComponentPad*%
%ADD14R,2.400000X2.400000*%
%TD*%
%TA.AperFunction,ComponentPad*%
%ADD15C,2.400000*%
%TD*%
%TA.AperFunction,ConnectorPad*%
%ADD16C,5.700000*%
%TD*%
%TA.AperFunction,ComponentPad*%
%ADD17C,3.600000*%
%TD*%
%TA.AperFunction,ComponentPad*%
%ADD18O,3.016000X1.508000*%
%TD*%
%TA.AperFunction,ComponentPad*%
%ADD19R,1.600000X1.600000*%
%TD*%
%TA.AperFunction,ComponentPad*%
%ADD20C,1.600000*%
%TD*%
%TA.AperFunction,ComponentPad*%
%ADD21O,1.600000X1.600000*%
%TD*%
%TA.AperFunction,ConnectorPad*%
%ADD22C,7.000000*%
%TD*%
%TA.AperFunction,ComponentPad*%
%ADD23C,4.700000*%
%TD*%
%TA.AperFunction,ComponentPad*%
%ADD24O,5.000000X2.500000*%
%TD*%
%TA.AperFunction,ComponentPad*%
%ADD25O,4.500000X2.250000*%
%TD*%
%TA.AperFunction,ComponentPad*%
%ADD26R,1.050000X1.500000*%
%TD*%
%TA.AperFunction,ComponentPad*%
%ADD27O,1.050000X1.500000*%
%TD*%
%TA.AperFunction,ViaPad*%
%ADD28C,0.800000*%
%TD*%
%TA.AperFunction,ViaPad*%
%ADD29C,0.600000*%
%TD*%
%TA.AperFunction,ViaPad*%
%ADD30C,1.000000*%
%TD*%
%TA.AperFunction,Conductor*%
%ADD31C,0.250000*%
%TD*%
%TA.AperFunction,Conductor*%
%ADD32C,0.800000*%
%TD*%
%TA.AperFunction,Conductor*%
%ADD33C,0.400000*%
%TD*%
G04 APERTURE END LIST*
D10*
D11*
X59927642Y-156483333D02*
X59038642Y-156483333D01*
X59461975Y-156060000D02*
X59377309Y-156017666D01*
X59377309Y-156017666D02*
X59334975Y-155933000D01*
X59461975Y-156483333D02*
X59377309Y-156441000D01*
X59377309Y-156441000D02*
X59334975Y-156356333D01*
X59334975Y-156356333D02*
X59334975Y-156187000D01*
X59334975Y-156187000D02*
X59377309Y-156102333D01*
X59377309Y-156102333D02*
X59461975Y-156060000D01*
X59461975Y-156060000D02*
X59927642Y-156060000D01*
X59334975Y-155552000D02*
X60223975Y-155552000D01*
X59334975Y-155044000D02*
X59842975Y-155425000D01*
X60223975Y-155044000D02*
X59715975Y-155552000D01*
X60223975Y-154493667D02*
X60223975Y-154324333D01*
X60223975Y-154324333D02*
X60181642Y-154239667D01*
X60181642Y-154239667D02*
X60096975Y-154155000D01*
X60096975Y-154155000D02*
X59927642Y-154112667D01*
X59927642Y-154112667D02*
X59631309Y-154112667D01*
X59631309Y-154112667D02*
X59461975Y-154155000D01*
X59461975Y-154155000D02*
X59377309Y-154239667D01*
X59377309Y-154239667D02*
X59334975Y-154324333D01*
X59334975Y-154324333D02*
X59334975Y-154493667D01*
X59334975Y-154493667D02*
X59377309Y-154578333D01*
X59377309Y-154578333D02*
X59461975Y-154663000D01*
X59461975Y-154663000D02*
X59631309Y-154705333D01*
X59631309Y-154705333D02*
X59927642Y-154705333D01*
X59927642Y-154705333D02*
X60096975Y-154663000D01*
X60096975Y-154663000D02*
X60181642Y-154578333D01*
X60181642Y-154578333D02*
X60223975Y-154493667D01*
X59800642Y-153435334D02*
X59758309Y-153308334D01*
X59758309Y-153308334D02*
X59715975Y-153266000D01*
X59715975Y-153266000D02*
X59631309Y-153223667D01*
X59631309Y-153223667D02*
X59504309Y-153223667D01*
X59504309Y-153223667D02*
X59419642Y-153266000D01*
X59419642Y-153266000D02*
X59377309Y-153308334D01*
X59377309Y-153308334D02*
X59334975Y-153393000D01*
X59334975Y-153393000D02*
X59334975Y-153731667D01*
X59334975Y-153731667D02*
X60223975Y-153731667D01*
X60223975Y-153731667D02*
X60223975Y-153435334D01*
X60223975Y-153435334D02*
X60181642Y-153350667D01*
X60181642Y-153350667D02*
X60139309Y-153308334D01*
X60139309Y-153308334D02*
X60054642Y-153266000D01*
X60054642Y-153266000D02*
X59969975Y-153266000D01*
X59969975Y-153266000D02*
X59885309Y-153308334D01*
X59885309Y-153308334D02*
X59842975Y-153350667D01*
X59842975Y-153350667D02*
X59800642Y-153435334D01*
X59800642Y-153435334D02*
X59800642Y-153731667D01*
X59673642Y-152842667D02*
X59673642Y-152165334D01*
X59334975Y-151742000D02*
X60223975Y-151742000D01*
X59334975Y-151234000D02*
X59842975Y-151615000D01*
X60223975Y-151234000D02*
X59715975Y-151742000D01*
X59334975Y-150133333D02*
X59334975Y-150175667D01*
X59334975Y-150175667D02*
X59377309Y-150260333D01*
X59377309Y-150260333D02*
X59504309Y-150387333D01*
X59504309Y-150387333D02*
X59758309Y-150599000D01*
X59758309Y-150599000D02*
X59885309Y-150683667D01*
X59885309Y-150683667D02*
X60012309Y-150726000D01*
X60012309Y-150726000D02*
X60096975Y-150726000D01*
X60096975Y-150726000D02*
X60181642Y-150683667D01*
X60181642Y-150683667D02*
X60223975Y-150599000D01*
X60223975Y-150599000D02*
X60223975Y-150556667D01*
X60223975Y-150556667D02*
X60181642Y-150472000D01*
X60181642Y-150472000D02*
X60096975Y-150429667D01*
X60096975Y-150429667D02*
X60054642Y-150429667D01*
X60054642Y-150429667D02*
X59969975Y-150472000D01*
X59969975Y-150472000D02*
X59927642Y-150514333D01*
X59927642Y-150514333D02*
X59758309Y-150768333D01*
X59758309Y-150768333D02*
X59715975Y-150810667D01*
X59715975Y-150810667D02*
X59631309Y-150853000D01*
X59631309Y-150853000D02*
X59504309Y-150853000D01*
X59504309Y-150853000D02*
X59419642Y-150810667D01*
X59419642Y-150810667D02*
X59377309Y-150768333D01*
X59377309Y-150768333D02*
X59334975Y-150683667D01*
X59334975Y-150683667D02*
X59334975Y-150556667D01*
X59334975Y-150556667D02*
X59377309Y-150472000D01*
X59377309Y-150472000D02*
X59419642Y-150429667D01*
X59419642Y-150429667D02*
X59588975Y-150302667D01*
X59588975Y-150302667D02*
X59715975Y-150260333D01*
X59715975Y-150260333D02*
X59800642Y-150260333D01*
X59377309Y-149794666D02*
X59334975Y-149667666D01*
X59334975Y-149667666D02*
X59334975Y-149456000D01*
X59334975Y-149456000D02*
X59377309Y-149371333D01*
X59377309Y-149371333D02*
X59419642Y-149329000D01*
X59419642Y-149329000D02*
X59504309Y-149286666D01*
X59504309Y-149286666D02*
X59588975Y-149286666D01*
X59588975Y-149286666D02*
X59673642Y-149329000D01*
X59673642Y-149329000D02*
X59715975Y-149371333D01*
X59715975Y-149371333D02*
X59758309Y-149456000D01*
X59758309Y-149456000D02*
X59800642Y-149625333D01*
X59800642Y-149625333D02*
X59842975Y-149710000D01*
X59842975Y-149710000D02*
X59885309Y-149752333D01*
X59885309Y-149752333D02*
X59969975Y-149794666D01*
X59969975Y-149794666D02*
X60054642Y-149794666D01*
X60054642Y-149794666D02*
X60139309Y-149752333D01*
X60139309Y-149752333D02*
X60181642Y-149710000D01*
X60181642Y-149710000D02*
X60223975Y-149625333D01*
X60223975Y-149625333D02*
X60223975Y-149413666D01*
X60223975Y-149413666D02*
X60181642Y-149286666D01*
X59038642Y-148016666D02*
X60308642Y-148016666D01*
X59334975Y-146704333D02*
X60223975Y-146704333D01*
X60223975Y-146704333D02*
X59588975Y-146408000D01*
X59588975Y-146408000D02*
X60223975Y-146111666D01*
X60223975Y-146111666D02*
X59334975Y-146111666D01*
X59334975Y-145688333D02*
X60223975Y-145688333D01*
X59334975Y-145180333D02*
X59842975Y-145561333D01*
X60223975Y-145180333D02*
X59715975Y-145688333D01*
X60223975Y-144630000D02*
X60223975Y-144460666D01*
X60223975Y-144460666D02*
X60181642Y-144376000D01*
X60181642Y-144376000D02*
X60096975Y-144291333D01*
X60096975Y-144291333D02*
X59927642Y-144249000D01*
X59927642Y-144249000D02*
X59631309Y-144249000D01*
X59631309Y-144249000D02*
X59461975Y-144291333D01*
X59461975Y-144291333D02*
X59377309Y-144376000D01*
X59377309Y-144376000D02*
X59334975Y-144460666D01*
X59334975Y-144460666D02*
X59334975Y-144630000D01*
X59334975Y-144630000D02*
X59377309Y-144714666D01*
X59377309Y-144714666D02*
X59461975Y-144799333D01*
X59461975Y-144799333D02*
X59631309Y-144841666D01*
X59631309Y-144841666D02*
X59927642Y-144841666D01*
X59927642Y-144841666D02*
X60096975Y-144799333D01*
X60096975Y-144799333D02*
X60181642Y-144714666D01*
X60181642Y-144714666D02*
X60223975Y-144630000D01*
X59800642Y-143571667D02*
X59758309Y-143444667D01*
X59758309Y-143444667D02*
X59715975Y-143402333D01*
X59715975Y-143402333D02*
X59631309Y-143360000D01*
X59631309Y-143360000D02*
X59504309Y-143360000D01*
X59504309Y-143360000D02*
X59419642Y-143402333D01*
X59419642Y-143402333D02*
X59377309Y-143444667D01*
X59377309Y-143444667D02*
X59334975Y-143529333D01*
X59334975Y-143529333D02*
X59334975Y-143868000D01*
X59334975Y-143868000D02*
X60223975Y-143868000D01*
X60223975Y-143868000D02*
X60223975Y-143571667D01*
X60223975Y-143571667D02*
X60181642Y-143487000D01*
X60181642Y-143487000D02*
X60139309Y-143444667D01*
X60139309Y-143444667D02*
X60054642Y-143402333D01*
X60054642Y-143402333D02*
X59969975Y-143402333D01*
X59969975Y-143402333D02*
X59885309Y-143444667D01*
X59885309Y-143444667D02*
X59842975Y-143487000D01*
X59842975Y-143487000D02*
X59800642Y-143571667D01*
X59800642Y-143571667D02*
X59800642Y-143868000D01*
X59673642Y-142979000D02*
X59673642Y-142301667D01*
X59334975Y-141878333D02*
X60223975Y-141878333D01*
X59800642Y-141158667D02*
X59800642Y-141455000D01*
X59334975Y-141455000D02*
X60223975Y-141455000D01*
X60223975Y-141455000D02*
X60223975Y-141031667D01*
X59334975Y-140015667D02*
X60223975Y-140015667D01*
X60223975Y-140015667D02*
X59588975Y-139719334D01*
X59588975Y-139719334D02*
X60223975Y-139423000D01*
X60223975Y-139423000D02*
X59334975Y-139423000D01*
X59334975Y-138999667D02*
X60223975Y-138999667D01*
X59673642Y-138915000D02*
X59334975Y-138661000D01*
X59927642Y-138661000D02*
X59588975Y-138999667D01*
X59334975Y-138280000D02*
X60223975Y-138280000D01*
X59334975Y-137856667D02*
X60223975Y-137856667D01*
X59927642Y-136840668D02*
X59334975Y-136629001D01*
X59334975Y-136629001D02*
X59927642Y-136417334D01*
X59334975Y-135613001D02*
X59334975Y-136121001D01*
X59334975Y-135867001D02*
X60223975Y-135867001D01*
X60223975Y-135867001D02*
X60096975Y-135951668D01*
X60096975Y-135951668D02*
X60012309Y-136036335D01*
X60012309Y-136036335D02*
X59969975Y-136121001D01*
X59419642Y-135232001D02*
X59377309Y-135189668D01*
X59377309Y-135189668D02*
X59334975Y-135232001D01*
X59334975Y-135232001D02*
X59377309Y-135274334D01*
X59377309Y-135274334D02*
X59419642Y-135232001D01*
X59419642Y-135232001D02*
X59334975Y-135232001D01*
X60223975Y-134639335D02*
X60223975Y-134554668D01*
X60223975Y-134554668D02*
X60181642Y-134470001D01*
X60181642Y-134470001D02*
X60139309Y-134427668D01*
X60139309Y-134427668D02*
X60054642Y-134385335D01*
X60054642Y-134385335D02*
X59885309Y-134343001D01*
X59885309Y-134343001D02*
X59673642Y-134343001D01*
X59673642Y-134343001D02*
X59504309Y-134385335D01*
X59504309Y-134385335D02*
X59419642Y-134427668D01*
X59419642Y-134427668D02*
X59377309Y-134470001D01*
X59377309Y-134470001D02*
X59334975Y-134554668D01*
X59334975Y-134554668D02*
X59334975Y-134639335D01*
X59334975Y-134639335D02*
X59377309Y-134724001D01*
X59377309Y-134724001D02*
X59419642Y-134766335D01*
X59419642Y-134766335D02*
X59504309Y-134808668D01*
X59504309Y-134808668D02*
X59673642Y-134851001D01*
X59673642Y-134851001D02*
X59885309Y-134851001D01*
X59885309Y-134851001D02*
X60054642Y-134808668D01*
X60054642Y-134808668D02*
X60139309Y-134766335D01*
X60139309Y-134766335D02*
X60181642Y-134724001D01*
X60181642Y-134724001D02*
X60223975Y-134639335D01*
X57979462Y-155975333D02*
X57937129Y-156017666D01*
X57937129Y-156017666D02*
X57894795Y-156144666D01*
X57894795Y-156144666D02*
X57894795Y-156229333D01*
X57894795Y-156229333D02*
X57937129Y-156356333D01*
X57937129Y-156356333D02*
X58021795Y-156441000D01*
X58021795Y-156441000D02*
X58106462Y-156483333D01*
X58106462Y-156483333D02*
X58275795Y-156525666D01*
X58275795Y-156525666D02*
X58402795Y-156525666D01*
X58402795Y-156525666D02*
X58572129Y-156483333D01*
X58572129Y-156483333D02*
X58656795Y-156441000D01*
X58656795Y-156441000D02*
X58741462Y-156356333D01*
X58741462Y-156356333D02*
X58783795Y-156229333D01*
X58783795Y-156229333D02*
X58783795Y-156144666D01*
X58783795Y-156144666D02*
X58741462Y-156017666D01*
X58741462Y-156017666D02*
X58699129Y-155975333D01*
X57894795Y-155467333D02*
X57937129Y-155552000D01*
X57937129Y-155552000D02*
X57979462Y-155594333D01*
X57979462Y-155594333D02*
X58064129Y-155636666D01*
X58064129Y-155636666D02*
X58318129Y-155636666D01*
X58318129Y-155636666D02*
X58402795Y-155594333D01*
X58402795Y-155594333D02*
X58445129Y-155552000D01*
X58445129Y-155552000D02*
X58487462Y-155467333D01*
X58487462Y-155467333D02*
X58487462Y-155340333D01*
X58487462Y-155340333D02*
X58445129Y-155255666D01*
X58445129Y-155255666D02*
X58402795Y-155213333D01*
X58402795Y-155213333D02*
X58318129Y-155171000D01*
X58318129Y-155171000D02*
X58064129Y-155171000D01*
X58064129Y-155171000D02*
X57979462Y-155213333D01*
X57979462Y-155213333D02*
X57937129Y-155255666D01*
X57937129Y-155255666D02*
X57894795Y-155340333D01*
X57894795Y-155340333D02*
X57894795Y-155467333D01*
X58487462Y-154790000D02*
X57598462Y-154790000D01*
X58445129Y-154790000D02*
X58487462Y-154705333D01*
X58487462Y-154705333D02*
X58487462Y-154536000D01*
X58487462Y-154536000D02*
X58445129Y-154451333D01*
X58445129Y-154451333D02*
X58402795Y-154409000D01*
X58402795Y-154409000D02*
X58318129Y-154366667D01*
X58318129Y-154366667D02*
X58064129Y-154366667D01*
X58064129Y-154366667D02*
X57979462Y-154409000D01*
X57979462Y-154409000D02*
X57937129Y-154451333D01*
X57937129Y-154451333D02*
X57894795Y-154536000D01*
X57894795Y-154536000D02*
X57894795Y-154705333D01*
X57894795Y-154705333D02*
X57937129Y-154790000D01*
X58487462Y-154070334D02*
X57894795Y-153858667D01*
X58487462Y-153647000D02*
X57894795Y-153858667D01*
X57894795Y-153858667D02*
X57683129Y-153943334D01*
X57683129Y-153943334D02*
X57640795Y-153985667D01*
X57640795Y-153985667D02*
X57598462Y-154070334D01*
X57894795Y-153308334D02*
X58487462Y-153308334D01*
X58318129Y-153308334D02*
X58402795Y-153266001D01*
X58402795Y-153266001D02*
X58445129Y-153223667D01*
X58445129Y-153223667D02*
X58487462Y-153139001D01*
X58487462Y-153139001D02*
X58487462Y-153054334D01*
X57894795Y-152758001D02*
X58487462Y-152758001D01*
X58783795Y-152758001D02*
X58741462Y-152800334D01*
X58741462Y-152800334D02*
X58699129Y-152758001D01*
X58699129Y-152758001D02*
X58741462Y-152715668D01*
X58741462Y-152715668D02*
X58783795Y-152758001D01*
X58783795Y-152758001D02*
X58699129Y-152758001D01*
X58487462Y-151953668D02*
X57767795Y-151953668D01*
X57767795Y-151953668D02*
X57683129Y-151996001D01*
X57683129Y-151996001D02*
X57640795Y-152038335D01*
X57640795Y-152038335D02*
X57598462Y-152123001D01*
X57598462Y-152123001D02*
X57598462Y-152250001D01*
X57598462Y-152250001D02*
X57640795Y-152334668D01*
X57937129Y-151953668D02*
X57894795Y-152038335D01*
X57894795Y-152038335D02*
X57894795Y-152207668D01*
X57894795Y-152207668D02*
X57937129Y-152292335D01*
X57937129Y-152292335D02*
X57979462Y-152334668D01*
X57979462Y-152334668D02*
X58064129Y-152377001D01*
X58064129Y-152377001D02*
X58318129Y-152377001D01*
X58318129Y-152377001D02*
X58402795Y-152334668D01*
X58402795Y-152334668D02*
X58445129Y-152292335D01*
X58445129Y-152292335D02*
X58487462Y-152207668D01*
X58487462Y-152207668D02*
X58487462Y-152038335D01*
X58487462Y-152038335D02*
X58445129Y-151953668D01*
X57894795Y-151530335D02*
X58783795Y-151530335D01*
X57894795Y-151149335D02*
X58360462Y-151149335D01*
X58360462Y-151149335D02*
X58445129Y-151191668D01*
X58445129Y-151191668D02*
X58487462Y-151276335D01*
X58487462Y-151276335D02*
X58487462Y-151403335D01*
X58487462Y-151403335D02*
X58445129Y-151488002D01*
X58445129Y-151488002D02*
X58402795Y-151530335D01*
X58487462Y-150853002D02*
X58487462Y-150514335D01*
X58783795Y-150726002D02*
X58021795Y-150726002D01*
X58021795Y-150726002D02*
X57937129Y-150683669D01*
X57937129Y-150683669D02*
X57894795Y-150599002D01*
X57894795Y-150599002D02*
X57894795Y-150514335D01*
X58699129Y-149583002D02*
X58741462Y-149540669D01*
X58741462Y-149540669D02*
X58783795Y-149456002D01*
X58783795Y-149456002D02*
X58783795Y-149244336D01*
X58783795Y-149244336D02*
X58741462Y-149159669D01*
X58741462Y-149159669D02*
X58699129Y-149117336D01*
X58699129Y-149117336D02*
X58614462Y-149075002D01*
X58614462Y-149075002D02*
X58529795Y-149075002D01*
X58529795Y-149075002D02*
X58402795Y-149117336D01*
X58402795Y-149117336D02*
X57894795Y-149625336D01*
X57894795Y-149625336D02*
X57894795Y-149075002D01*
X58783795Y-148524669D02*
X58783795Y-148440002D01*
X58783795Y-148440002D02*
X58741462Y-148355335D01*
X58741462Y-148355335D02*
X58699129Y-148313002D01*
X58699129Y-148313002D02*
X58614462Y-148270669D01*
X58614462Y-148270669D02*
X58445129Y-148228335D01*
X58445129Y-148228335D02*
X58233462Y-148228335D01*
X58233462Y-148228335D02*
X58064129Y-148270669D01*
X58064129Y-148270669D02*
X57979462Y-148313002D01*
X57979462Y-148313002D02*
X57937129Y-148355335D01*
X57937129Y-148355335D02*
X57894795Y-148440002D01*
X57894795Y-148440002D02*
X57894795Y-148524669D01*
X57894795Y-148524669D02*
X57937129Y-148609335D01*
X57937129Y-148609335D02*
X57979462Y-148651669D01*
X57979462Y-148651669D02*
X58064129Y-148694002D01*
X58064129Y-148694002D02*
X58233462Y-148736335D01*
X58233462Y-148736335D02*
X58445129Y-148736335D01*
X58445129Y-148736335D02*
X58614462Y-148694002D01*
X58614462Y-148694002D02*
X58699129Y-148651669D01*
X58699129Y-148651669D02*
X58741462Y-148609335D01*
X58741462Y-148609335D02*
X58783795Y-148524669D01*
X58699129Y-147889668D02*
X58741462Y-147847335D01*
X58741462Y-147847335D02*
X58783795Y-147762668D01*
X58783795Y-147762668D02*
X58783795Y-147551002D01*
X58783795Y-147551002D02*
X58741462Y-147466335D01*
X58741462Y-147466335D02*
X58699129Y-147424002D01*
X58699129Y-147424002D02*
X58614462Y-147381668D01*
X58614462Y-147381668D02*
X58529795Y-147381668D01*
X58529795Y-147381668D02*
X58402795Y-147424002D01*
X58402795Y-147424002D02*
X57894795Y-147932002D01*
X57894795Y-147932002D02*
X57894795Y-147381668D01*
X58783795Y-147085335D02*
X58783795Y-146535001D01*
X58783795Y-146535001D02*
X58445129Y-146831335D01*
X58445129Y-146831335D02*
X58445129Y-146704335D01*
X58445129Y-146704335D02*
X58402795Y-146619668D01*
X58402795Y-146619668D02*
X58360462Y-146577335D01*
X58360462Y-146577335D02*
X58275795Y-146535001D01*
X58275795Y-146535001D02*
X58064129Y-146535001D01*
X58064129Y-146535001D02*
X57979462Y-146577335D01*
X57979462Y-146577335D02*
X57937129Y-146619668D01*
X57937129Y-146619668D02*
X57894795Y-146704335D01*
X57894795Y-146704335D02*
X57894795Y-146958335D01*
X57894795Y-146958335D02*
X57937129Y-147043001D01*
X57937129Y-147043001D02*
X57979462Y-147085335D01*
X58233462Y-146154001D02*
X58233462Y-145476668D01*
X58699129Y-145095667D02*
X58741462Y-145053334D01*
X58741462Y-145053334D02*
X58783795Y-144968667D01*
X58783795Y-144968667D02*
X58783795Y-144757001D01*
X58783795Y-144757001D02*
X58741462Y-144672334D01*
X58741462Y-144672334D02*
X58699129Y-144630001D01*
X58699129Y-144630001D02*
X58614462Y-144587667D01*
X58614462Y-144587667D02*
X58529795Y-144587667D01*
X58529795Y-144587667D02*
X58402795Y-144630001D01*
X58402795Y-144630001D02*
X57894795Y-145138001D01*
X57894795Y-145138001D02*
X57894795Y-144587667D01*
X58487462Y-143825667D02*
X57894795Y-143825667D01*
X58826129Y-144037334D02*
X58191129Y-144249000D01*
X58191129Y-144249000D02*
X58191129Y-143698667D01*
X58148795Y-142725000D02*
X58148795Y-142301667D01*
X57894795Y-142809667D02*
X58783795Y-142513334D01*
X58783795Y-142513334D02*
X57894795Y-142217000D01*
X58360462Y-141920667D02*
X58360462Y-141624334D01*
X57894795Y-141497334D02*
X57894795Y-141920667D01*
X57894795Y-141920667D02*
X58783795Y-141920667D01*
X58783795Y-141920667D02*
X58783795Y-141497334D01*
X57937129Y-141158667D02*
X57894795Y-141031667D01*
X57894795Y-141031667D02*
X57894795Y-140820001D01*
X57894795Y-140820001D02*
X57937129Y-140735334D01*
X57937129Y-140735334D02*
X57979462Y-140693001D01*
X57979462Y-140693001D02*
X58064129Y-140650667D01*
X58064129Y-140650667D02*
X58148795Y-140650667D01*
X58148795Y-140650667D02*
X58233462Y-140693001D01*
X58233462Y-140693001D02*
X58275795Y-140735334D01*
X58275795Y-140735334D02*
X58318129Y-140820001D01*
X58318129Y-140820001D02*
X58360462Y-140989334D01*
X58360462Y-140989334D02*
X58402795Y-141074001D01*
X58402795Y-141074001D02*
X58445129Y-141116334D01*
X58445129Y-141116334D02*
X58529795Y-141158667D01*
X58529795Y-141158667D02*
X58614462Y-141158667D01*
X58614462Y-141158667D02*
X58699129Y-141116334D01*
X58699129Y-141116334D02*
X58741462Y-141074001D01*
X58741462Y-141074001D02*
X58783795Y-140989334D01*
X58783795Y-140989334D02*
X58783795Y-140777667D01*
X58783795Y-140777667D02*
X58741462Y-140650667D01*
X57894795Y-140269667D02*
X58487462Y-140269667D01*
X58783795Y-140269667D02*
X58741462Y-140312000D01*
X58741462Y-140312000D02*
X58699129Y-140269667D01*
X58699129Y-140269667D02*
X58741462Y-140227334D01*
X58741462Y-140227334D02*
X58783795Y-140269667D01*
X58783795Y-140269667D02*
X58699129Y-140269667D01*
X57894795Y-139719334D02*
X57937129Y-139804001D01*
X57937129Y-139804001D02*
X58021795Y-139846334D01*
X58021795Y-139846334D02*
X58783795Y-139846334D01*
X57894795Y-139380667D02*
X58783795Y-139380667D01*
X58233462Y-139296000D02*
X57894795Y-139042000D01*
X58487462Y-139042000D02*
X58148795Y-139380667D01*
X58487462Y-138745667D02*
X57894795Y-138534000D01*
X58487462Y-138322333D02*
X57894795Y-138534000D01*
X57894795Y-138534000D02*
X57683129Y-138618667D01*
X57683129Y-138618667D02*
X57640795Y-138661000D01*
X57640795Y-138661000D02*
X57598462Y-138745667D01*
D12*
%TO.P,U1,1,RESET-*%
%TO.N,/RESET-*%
X150176000Y-115554000D03*
%TO.P,U1,2,3V3*%
%TO.N,/V3.3I*%
X147636000Y-115554000D03*
D13*
%TO.P,U1,3,VIO*%
%TO.N,unconnected-(U1-VIO-Pad3)*%
X145096000Y-115554000D03*
D12*
%TO.P,U1,4,GND*%
%TO.N,GND*%
X142556000Y-115554000D03*
%TO.P,U1,5,VBUS*%
%TO.N,/V5I*%
X140016000Y-115554000D03*
%TO.P,U1,6,CB0*%
%TO.N,/CB0*%
X140106000Y-128234000D03*
%TO.P,U1,7,TXD*%
%TO.N,/TXD*%
X142646000Y-128234000D03*
D13*
%TO.P,U1,8,RTS-*%
%TO.N,/SNDR_EN*%
X145186000Y-128234000D03*
D12*
%TO.P,U1,9,RXD*%
%TO.N,/RXD*%
X147726000Y-128234000D03*
%TO.P,U1,10,CTS-*%
%TO.N,/KEY_PDL_DOT-*%
X150266000Y-128234000D03*
%TD*%
D14*
%TO.P,ST3,1,Pin_1*%
%TO.N,GND*%
X130138000Y-99627800D03*
D15*
%TO.P,ST3,2,Pin_2*%
%TO.N,/KEY_PDL-*%
X125138000Y-99627800D03*
%TD*%
D13*
%TO.P,TP5,1,Pin_1*%
%TO.N,/KOB_KEY-*%
X100609400Y-135432800D03*
%TD*%
%TO.P,J3,1,Pin_1*%
%TO.N,GND*%
X157857000Y-133268000D03*
D12*
%TO.P,J3,2,Pin_2*%
%TO.N,/RXD*%
X157857000Y-135808000D03*
%TO.P,J3,3,Pin_3*%
%TO.N,/TXD*%
X157857000Y-138348000D03*
%TD*%
D16*
%TO.P,M_KSI4,1,1*%
%TO.N,GND*%
X61239400Y-167182800D03*
D17*
X61239400Y-167182800D03*
%TD*%
D13*
%TO.P,JP3,1,A*%
%TO.N,/KOB_KEY-*%
X144742000Y-165979000D03*
D12*
%TO.P,JP3,2,B*%
%TO.N,/KEY_PDL-*%
X142202000Y-165979000D03*
%TD*%
D14*
%TO.P,ST1,1,Pin_1*%
%TO.N,/LOOP_PWR*%
X100709400Y-99627800D03*
D15*
%TO.P,ST1,2,Pin_2*%
%TO.N,/LP1*%
X95709400Y-99627800D03*
%TD*%
D18*
%TO.P,J5,1*%
%TO.N,GND*%
X152453000Y-163472000D03*
%TO.P,J5,2*%
%TO.N,/KEY_PDL-*%
X137553000Y-160972000D03*
%TO.P,J5,3*%
%TO.N,/PDL_DASH-*%
X137553000Y-165972000D03*
%TO.P,J5,4*%
%TO.N,/KOB_KEY-*%
X144753000Y-160972000D03*
%TD*%
D13*
%TO.P,TP1,1,Pin_1*%
%TO.N,/LP2*%
X114599000Y-113854000D03*
%TD*%
%TO.P,OPa1,1,Pin_1*%
%TO.N,+5V*%
X58593000Y-122644000D03*
D12*
%TO.P,OPa1,2,Pin_2*%
%TO.N,/LOOP_PWR*%
X58593000Y-120104000D03*
%TD*%
D13*
%TO.P,TP2,1,Pin_1*%
%TO.N,/SNDR_EN*%
X85369400Y-135432800D03*
%TD*%
D16*
%TO.P,M_KSI1,1,1*%
%TO.N,GND*%
X61239400Y-98602800D03*
D17*
X61239400Y-98602800D03*
%TD*%
D13*
%TO.P,TP4,1,Pin_1*%
%TO.N,/LOOP_STATE*%
X100609400Y-130352800D03*
%TD*%
D19*
%TO.P,C3,1*%
%TO.N,/LOOP_PWR*%
X69875400Y-120080851D03*
D20*
%TO.P,C3,2*%
%TO.N,GND*%
X69875400Y-115080851D03*
%TD*%
D19*
%TO.P,D4,1,K*%
%TO.N,/LPI-*%
X86537800Y-110794800D03*
D21*
%TO.P,D4,2,A*%
%TO.N,GND*%
X86537800Y-118414800D03*
%TD*%
D22*
%TO.P,SHLD-1,1,1*%
%TO.N,GND*%
X70129400Y-104952800D03*
D23*
X70129400Y-104952800D03*
%TD*%
D22*
%TO.P,SHLD-2,1,1*%
%TO.N,GND*%
X146329400Y-104952800D03*
D23*
X146329400Y-104952800D03*
%TD*%
D12*
%TO.P,SW1,1,A*%
%TO.N,GND*%
X120528400Y-162884800D03*
D13*
X120528400Y-165424800D03*
D12*
%TO.P,SW1,2,B*%
%TO.N,/KEY_PDL_DOT-*%
X115448400Y-162884800D03*
X115448400Y-165424800D03*
%TD*%
D13*
%TO.P,JP2,1,A*%
%TO.N,/KEY_PDL_DOT-*%
X130688400Y-162859800D03*
D12*
%TO.P,JP2,2,B*%
%TO.N,/KEY_PDL-*%
X130688400Y-165399800D03*
%TD*%
D13*
%TO.P,JP1,1,A*%
%TO.N,/V3.3I*%
X147069000Y-137366000D03*
D12*
%TO.P,JP1,2,B*%
%TO.N,+3.3V*%
X144529000Y-137366000D03*
%TD*%
D24*
%TO.P,J2,1,In*%
%TO.N,/LPI+*%
X82880200Y-107489100D03*
D25*
%TO.P,J2,2,Ext*%
%TO.N,/LPI-*%
X82880200Y-101489100D03*
%TD*%
D16*
%TO.P,M_KSI2,1,1*%
%TO.N,GND*%
X155219400Y-98602800D03*
D17*
X155219400Y-98602800D03*
%TD*%
D14*
%TO.P,ST2,1,Pin_1*%
%TO.N,/LP1*%
X107774400Y-99627800D03*
D15*
%TO.P,ST2,2,Pin_2*%
%TO.N,/LP2*%
X112774400Y-99627800D03*
%TD*%
D22*
%TO.P,SHLD-4,1,1*%
%TO.N,GND*%
X70129400Y-145592800D03*
D23*
X70129400Y-145592800D03*
%TD*%
D13*
%TO.P,TP3,1,Pin_1*%
%TO.N,/OFFSET_REF_V*%
X85369400Y-130352800D03*
%TD*%
D26*
%TO.P,Q4,1,E*%
%TO.N,GND*%
X120929400Y-108762800D03*
D27*
%TO.P,Q4,2,B*%
%TO.N,Net-(Q4-B)*%
X119659400Y-108762800D03*
%TO.P,Q4,3,C*%
%TO.N,Net-(LED1-K)*%
X118389400Y-108762800D03*
%TD*%
D19*
%TO.P,D2,1,K*%
%TO.N,/LOOP_PWR*%
X79425800Y-118414800D03*
D21*
%TO.P,D2,2,A*%
%TO.N,/LPI+*%
X79425800Y-110794800D03*
%TD*%
D16*
%TO.P,M_KSI3,1,1*%
%TO.N,GND*%
X155219400Y-167182800D03*
D17*
X155219400Y-167182800D03*
%TD*%
D13*
%TO.P,JP5,1,A*%
%TO.N,/RXD*%
X152564000Y-135827000D03*
D12*
%TO.P,JP5,2,B*%
%TO.N,/TXD*%
X152564000Y-138367000D03*
%TD*%
D13*
%TO.P,JP4,1,A*%
%TO.N,/PDL_DASH-*%
X128341000Y-128229000D03*
D12*
%TO.P,JP4,2,B*%
%TO.N,/CB0*%
X130881000Y-128229000D03*
%TD*%
D22*
%TO.P,SHLD-3,1,1*%
%TO.N,GND*%
X146329400Y-145592800D03*
D23*
X146329400Y-145592800D03*
%TD*%
D13*
%TO.P,J4,1,Pin_1*%
%TO.N,GND*%
X137439400Y-136702800D03*
D12*
%TO.P,J4,2,Pin_2*%
X137439400Y-139242800D03*
%TO.P,J4,3,Pin_3*%
%TO.N,+3.3V*%
X137439400Y-141782800D03*
%TO.P,J4,4,Pin_4*%
%TO.N,+5V*%
X137439400Y-144322800D03*
%TO.P,J4,5,Pin_5*%
%TO.N,/SNDR_EN*%
X137439400Y-146862800D03*
%TO.P,J4,6,Pin_6*%
%TO.N,/KEY_PDL_DOT-*%
X137439400Y-149402800D03*
%TO.P,J4,7,Pin_7*%
%TO.N,/PDL_DASH-*%
X137439400Y-151942800D03*
%TD*%
D28*
%TO.N,+5V*%
X126559000Y-144311000D03*
%TO.N,+3.3V*%
X97480000Y-141713000D03*
D29*
%TO.N,/KOB_KEY-*%
X100609000Y-163991000D03*
D28*
%TO.N,GND*%
X104724200Y-114249200D03*
X110667800Y-129413000D03*
X95580200Y-126794800D03*
X99618800Y-114223800D03*
X74803000Y-159941800D03*
X83870800Y-159941800D03*
X94538800Y-114223800D03*
X79044800Y-124155200D03*
X97409000Y-111633000D03*
X122555000Y-118541800D03*
X106172000Y-159941800D03*
X109778800Y-114249200D03*
X97028000Y-159941800D03*
X89484200Y-114198400D03*
X116433600Y-121056400D03*
D30*
%TO.N,/LP2*%
X108229400Y-122732800D03*
D29*
%TO.N,/LOOP_STATE*%
X97739200Y-129717800D03*
%TO.N,/SNDR_EN*%
X90627200Y-119253000D03*
X90627200Y-126898400D03*
%TO.N,Net-(LED1-K)*%
X118465600Y-97434400D03*
%TD*%
D31*
%TO.N,/KEY_PDL_DOT-*%
X144751200Y-141787800D02*
X137439400Y-149099600D01*
X144957200Y-141787800D02*
X144751200Y-141787800D01*
X137439400Y-149099600D02*
X137439400Y-149402800D01*
X150266000Y-136479000D02*
X144957200Y-141787800D01*
X150266000Y-128234000D02*
X150266000Y-136479000D01*
%TO.N,/SNDR_EN*%
X145186000Y-131453000D02*
X145186000Y-128234000D01*
X138594400Y-138044600D02*
X145186000Y-131453000D01*
X138594400Y-145707800D02*
X138594400Y-138044600D01*
X137439400Y-146862800D02*
X138594400Y-145707800D01*
%TO.N,/V3.3I*%
X146571000Y-116619000D02*
X147636000Y-115554000D01*
X146571000Y-136868000D02*
X146571000Y-116619000D01*
D32*
%TO.N,/LP2*%
X114579400Y-101432800D02*
X112774400Y-99627800D01*
X114579400Y-113907600D02*
X114579400Y-101432800D01*
X108229400Y-120257600D02*
X114579400Y-113907600D01*
X108229400Y-122732800D02*
X108229400Y-120257600D01*
D33*
%TO.N,+5V*%
X126570800Y-144322800D02*
X126559000Y-144311000D01*
X137439400Y-144322800D02*
X126570800Y-144322800D01*
%TO.N,+3.3V*%
X97549800Y-141782800D02*
X137439400Y-141782800D01*
X97480000Y-141713000D02*
X97549800Y-141782800D01*
D31*
%TO.N,/KOB_KEY-*%
X143420000Y-168712000D02*
X144742000Y-167390000D01*
X100609000Y-163991000D02*
X105330000Y-168712000D01*
X105330000Y-168712000D02*
X143420000Y-168712000D01*
X144742000Y-167390000D02*
X144742000Y-165979000D01*
%TO.N,/TXD*%
X157857000Y-138348000D02*
X152583000Y-138348000D01*
%TO.N,/RXD*%
X157857000Y-135808000D02*
X152583000Y-135808000D01*
%TO.N,/KEY_PDL-*%
X151452708Y-110567708D02*
X136077908Y-110567708D01*
X151409000Y-134672000D02*
X153721499Y-132359501D01*
X137553000Y-160972000D02*
X151409000Y-147116000D01*
X153721499Y-132359501D02*
X153721499Y-112836499D01*
X136077908Y-110567708D02*
X125138000Y-99627800D01*
X153721499Y-112836499D02*
X151452708Y-110567708D01*
X151409000Y-147116000D02*
X151409000Y-134672000D01*
%TO.N,/LOOP_STATE*%
X97739200Y-129717800D02*
X97739200Y-130048000D01*
X97739200Y-130048000D02*
X98044000Y-130352800D01*
X98044000Y-130352800D02*
X100609400Y-130352800D01*
%TO.N,/SNDR_EN*%
X137439400Y-146862800D02*
X96799400Y-146862800D01*
X90627200Y-119253000D02*
X90627200Y-126898400D01*
X90627200Y-130175000D02*
X90627200Y-126898400D01*
X85369400Y-135432800D02*
X90627200Y-130175000D01*
X96799400Y-146862800D02*
X85369400Y-135432800D01*
%TO.N,Net-(LED1-K)*%
X118389400Y-97510600D02*
X118389400Y-108762800D01*
X118465600Y-97434400D02*
X118389400Y-97510600D01*
%TD*%
%TA.AperFunction,Conductor*%
%TO.N,GND*%
G36*
X150702834Y-137029269D02*
G01*
X150758767Y-137071141D01*
X150783184Y-137136605D01*
X150783500Y-137145451D01*
X150783500Y-146805547D01*
X150763815Y-146872586D01*
X150747181Y-146893228D01*
X150098864Y-147541544D01*
X150037541Y-147575029D01*
X149967849Y-147570045D01*
X149911916Y-147528173D01*
X149887499Y-147462709D01*
X149899089Y-147400846D01*
X150028065Y-147128151D01*
X150030404Y-147122501D01*
X150160750Y-146758209D01*
X150162517Y-146752386D01*
X150256532Y-146377053D01*
X150257718Y-146371094D01*
X150314493Y-145988353D01*
X150315089Y-145982300D01*
X150334075Y-145595833D01*
X150334075Y-145589766D01*
X150315089Y-145203299D01*
X150314493Y-145197246D01*
X150257718Y-144814505D01*
X150256532Y-144808546D01*
X150162517Y-144433213D01*
X150160750Y-144427390D01*
X150030404Y-144063098D01*
X150028072Y-144057465D01*
X149862641Y-143707691D01*
X149859770Y-143702322D01*
X149660850Y-143370444D01*
X149657482Y-143365403D01*
X149426982Y-143054610D01*
X149423124Y-143049908D01*
X149329330Y-142946422D01*
X149329329Y-142946422D01*
X148016294Y-144259456D01*
X147904369Y-144121882D01*
X147689410Y-143921124D01*
X147664854Y-143903791D01*
X148975776Y-142592869D01*
X148975776Y-142592868D01*
X148872291Y-142499075D01*
X148867589Y-142495217D01*
X148556796Y-142264717D01*
X148551755Y-142261349D01*
X148219877Y-142062429D01*
X148214508Y-142059558D01*
X147864734Y-141894127D01*
X147859101Y-141891795D01*
X147494809Y-141761449D01*
X147488986Y-141759682D01*
X147113653Y-141665667D01*
X147107694Y-141664481D01*
X146724953Y-141607706D01*
X146718900Y-141607110D01*
X146334490Y-141588226D01*
X146268497Y-141565275D01*
X146225388Y-141510290D01*
X146218850Y-141440727D01*
X146250958Y-141378672D01*
X146252795Y-141376793D01*
X150571821Y-137057768D01*
X150633142Y-137024285D01*
X150702834Y-137029269D01*
G37*
%TD.AperFunction*%
%TA.AperFunction,Conductor*%
G36*
X137689400Y-138807298D02*
G01*
X137581715Y-138758120D01*
X137475163Y-138742800D01*
X137403637Y-138742800D01*
X137297085Y-138758120D01*
X137189400Y-138807298D01*
X137189400Y-137138301D01*
X137297085Y-137187480D01*
X137403637Y-137202800D01*
X137475163Y-137202800D01*
X137581715Y-137187480D01*
X137689400Y-137138301D01*
X137689400Y-138807298D01*
G37*
%TD.AperFunction*%
%TA.AperFunction,Conductor*%
G36*
X120778400Y-164989298D02*
G01*
X120670715Y-164940120D01*
X120564163Y-164924800D01*
X120492637Y-164924800D01*
X120386085Y-164940120D01*
X120278400Y-164989298D01*
X120278400Y-163320301D01*
X120386085Y-163369480D01*
X120492637Y-163384800D01*
X120564163Y-163384800D01*
X120670715Y-163369480D01*
X120778400Y-163320301D01*
X120778400Y-164989298D01*
G37*
%TD.AperFunction*%
%TA.AperFunction,Conductor*%
G36*
X159696981Y-93964006D02*
G01*
X159742736Y-94016810D01*
X159753942Y-94068321D01*
X159753942Y-171645921D01*
X159734257Y-171712960D01*
X159681453Y-171758715D01*
X159629942Y-171769921D01*
X56652342Y-171769921D01*
X56585303Y-171750236D01*
X56539548Y-171697432D01*
X56528342Y-171645921D01*
X56528342Y-167186156D01*
X57884662Y-167186156D01*
X57903964Y-167542171D01*
X57904690Y-167548844D01*
X57962374Y-167900704D01*
X57963813Y-167907242D01*
X58059196Y-168250779D01*
X58061347Y-168257163D01*
X58193312Y-168588370D01*
X58196132Y-168594466D01*
X58363139Y-168909474D01*
X58366594Y-168915217D01*
X58566686Y-169210331D01*
X58570747Y-169215673D01*
X58700368Y-169368275D01*
X58700369Y-169368276D01*
X59941665Y-168126979D01*
X60104530Y-168317670D01*
X60295219Y-168480533D01*
X59051289Y-169724463D01*
X59065041Y-169737490D01*
X59070140Y-169741822D01*
X59353993Y-169957601D01*
X59359539Y-169961361D01*
X59665044Y-170145177D01*
X59670983Y-170148325D01*
X59994561Y-170298029D01*
X60000803Y-170300516D01*
X60338680Y-170414360D01*
X60345144Y-170416155D01*
X60693346Y-170492800D01*
X60699980Y-170493887D01*
X61054429Y-170532436D01*
X61061126Y-170532800D01*
X61417674Y-170532800D01*
X61424370Y-170532436D01*
X61778819Y-170493887D01*
X61785453Y-170492800D01*
X62133655Y-170416155D01*
X62140119Y-170414360D01*
X62477996Y-170300516D01*
X62484238Y-170298029D01*
X62807816Y-170148325D01*
X62813755Y-170145177D01*
X63119260Y-169961361D01*
X63124806Y-169957601D01*
X63408652Y-169741827D01*
X63413776Y-169737474D01*
X63427509Y-169724464D01*
X63427509Y-169724463D01*
X62183580Y-168480533D01*
X62374270Y-168317670D01*
X62537133Y-168126980D01*
X63778429Y-169368275D01*
X63778430Y-169368275D01*
X63908052Y-169215673D01*
X63912113Y-169210331D01*
X64112205Y-168915217D01*
X64115660Y-168909474D01*
X64282667Y-168594466D01*
X64285487Y-168588370D01*
X64417452Y-168257163D01*
X64419603Y-168250779D01*
X64514986Y-167907242D01*
X64516425Y-167900704D01*
X64574109Y-167548844D01*
X64574835Y-167542171D01*
X64594138Y-167186156D01*
X64594138Y-167179443D01*
X64574835Y-166823428D01*
X64574109Y-166816755D01*
X64516425Y-166464895D01*
X64514986Y-166458357D01*
X64419603Y-166114820D01*
X64417452Y-166108436D01*
X64285487Y-165777229D01*
X64282667Y-165771133D01*
X64115660Y-165456125D01*
X64112205Y-165450382D01*
X63912113Y-165155268D01*
X63908052Y-165149926D01*
X63778430Y-164997323D01*
X63778429Y-164997322D01*
X62537132Y-166238618D01*
X62374270Y-166047930D01*
X62183579Y-165885065D01*
X63427509Y-164641135D01*
X63413758Y-164628109D01*
X63408659Y-164623777D01*
X63124806Y-164407998D01*
X63119260Y-164404238D01*
X62813755Y-164220422D01*
X62807816Y-164217274D01*
X62484238Y-164067570D01*
X62477996Y-164065083D01*
X62258125Y-163991000D01*
X99803434Y-163991000D01*
X99823631Y-164170251D01*
X99823631Y-164170253D01*
X99823632Y-164170255D01*
X99883211Y-164340522D01*
X99924651Y-164406473D01*
X99979185Y-164493264D01*
X100106735Y-164620814D01*
X100106737Y-164620815D01*
X100106738Y-164620816D01*
X100259478Y-164716789D01*
X100429745Y-164776368D01*
X100476822Y-164781672D01*
X100541236Y-164808738D01*
X100550621Y-164817211D01*
X104829196Y-169095787D01*
X104842096Y-169111888D01*
X104893223Y-169159900D01*
X104896020Y-169162611D01*
X104915529Y-169182120D01*
X104918709Y-169184587D01*
X104927571Y-169192155D01*
X104946926Y-169210331D01*
X104959418Y-169222062D01*
X104976970Y-169231711D01*
X104993238Y-169242397D01*
X105009064Y-169254673D01*
X105049146Y-169272017D01*
X105059633Y-169277155D01*
X105097907Y-169298197D01*
X105106410Y-169300379D01*
X105117308Y-169303178D01*
X105135713Y-169309478D01*
X105154104Y-169317437D01*
X105197250Y-169324270D01*
X105208668Y-169326635D01*
X105250981Y-169337500D01*
X105271016Y-169337500D01*
X105290415Y-169339027D01*
X105310196Y-169342160D01*
X105353674Y-169338050D01*
X105365344Y-169337500D01*
X143337256Y-169337500D01*
X143357762Y-169339764D01*
X143360665Y-169339672D01*
X143360667Y-169339673D01*
X143427872Y-169337561D01*
X143431768Y-169337500D01*
X143455448Y-169337500D01*
X143459350Y-169337500D01*
X143463313Y-169336999D01*
X143474962Y-169336080D01*
X143518627Y-169334709D01*
X143537859Y-169329120D01*
X143556918Y-169325174D01*
X143564099Y-169324267D01*
X143576792Y-169322664D01*
X143617407Y-169306582D01*
X143628444Y-169302803D01*
X143670390Y-169290618D01*
X143687629Y-169280422D01*
X143705102Y-169271862D01*
X143723732Y-169264486D01*
X143759064Y-169238814D01*
X143768830Y-169232400D01*
X143786311Y-169222062D01*
X143806420Y-169210170D01*
X143820585Y-169196004D01*
X143835373Y-169183373D01*
X143851587Y-169171594D01*
X143879438Y-169137926D01*
X143887279Y-169129309D01*
X145125788Y-167890801D01*
X145141885Y-167877906D01*
X145143873Y-167875787D01*
X145143877Y-167875786D01*
X145189949Y-167826723D01*
X145192534Y-167824055D01*
X145212120Y-167804471D01*
X145214585Y-167801292D01*
X145222167Y-167792416D01*
X145252062Y-167760582D01*
X145261717Y-167743018D01*
X145272394Y-167726764D01*
X145284673Y-167710936D01*
X145302018Y-167670852D01*
X145307160Y-167660356D01*
X145328197Y-167622092D01*
X145333179Y-167602684D01*
X145339481Y-167584280D01*
X145347437Y-167565896D01*
X145354269Y-167522752D01*
X145356633Y-167511338D01*
X145367500Y-167469019D01*
X145367500Y-167453498D01*
X145387185Y-167386460D01*
X145439989Y-167340705D01*
X145491500Y-167329499D01*
X145636561Y-167329499D01*
X145639872Y-167329499D01*
X145699483Y-167323091D01*
X145834331Y-167272796D01*
X145949546Y-167186546D01*
X146035796Y-167071331D01*
X146086091Y-166936483D01*
X146092500Y-166876873D01*
X146092499Y-165081128D01*
X146086091Y-165021517D01*
X146035796Y-164886669D01*
X145949546Y-164771454D01*
X145834331Y-164685204D01*
X145699483Y-164634909D01*
X145639873Y-164628500D01*
X145636550Y-164628500D01*
X143847439Y-164628500D01*
X143847420Y-164628500D01*
X143844128Y-164628501D01*
X143840848Y-164628853D01*
X143840840Y-164628854D01*
X143784515Y-164634909D01*
X143649669Y-164685204D01*
X143534454Y-164771454D01*
X143448204Y-164886669D01*
X143399189Y-165018083D01*
X143357317Y-165074016D01*
X143291852Y-165098433D01*
X143223580Y-165083581D01*
X143195326Y-165062430D01*
X143073404Y-164940508D01*
X143073401Y-164940505D01*
X142879830Y-164804965D01*
X142665663Y-164705097D01*
X142604502Y-164688709D01*
X142437407Y-164643936D01*
X142202000Y-164623340D01*
X141966592Y-164643936D01*
X141738336Y-164705097D01*
X141524170Y-164804965D01*
X141330598Y-164940505D01*
X141163505Y-165107598D01*
X141027965Y-165301170D01*
X140928097Y-165515336D01*
X140866936Y-165743592D01*
X140846340Y-165978999D01*
X140866936Y-166214407D01*
X140877085Y-166252282D01*
X140928097Y-166442663D01*
X141027965Y-166656830D01*
X141163505Y-166850401D01*
X141330599Y-167017495D01*
X141524170Y-167153035D01*
X141738337Y-167252903D01*
X141966592Y-167314063D01*
X142202000Y-167334659D01*
X142437408Y-167314063D01*
X142665663Y-167252903D01*
X142879830Y-167153035D01*
X143073401Y-167017495D01*
X143195329Y-166895566D01*
X143256648Y-166862084D01*
X143326340Y-166867068D01*
X143382274Y-166908939D01*
X143399189Y-166939916D01*
X143448204Y-167071331D01*
X143534454Y-167186546D01*
X143649669Y-167272796D01*
X143705557Y-167293640D01*
X143761490Y-167335511D01*
X143785907Y-167400975D01*
X143771055Y-167469248D01*
X143749904Y-167497503D01*
X143197228Y-168050181D01*
X143135905Y-168083666D01*
X143109547Y-168086500D01*
X105640453Y-168086500D01*
X105573414Y-168066815D01*
X105552772Y-168050181D01*
X102927390Y-165424799D01*
X114092740Y-165424799D01*
X114113336Y-165660207D01*
X114138896Y-165755598D01*
X114174497Y-165888463D01*
X114274365Y-166102630D01*
X114409905Y-166296201D01*
X114576999Y-166463295D01*
X114770570Y-166598835D01*
X114984737Y-166698703D01*
X115212992Y-166759863D01*
X115448400Y-166780459D01*
X115683808Y-166759863D01*
X115912063Y-166698703D01*
X116126230Y-166598835D01*
X116319801Y-166463295D01*
X116463778Y-166319318D01*
X119178400Y-166319318D01*
X119178754Y-166325932D01*
X119184800Y-166382171D01*
X119235047Y-166516889D01*
X119321211Y-166631988D01*
X119436310Y-166718152D01*
X119571028Y-166768399D01*
X119627267Y-166774445D01*
X119633882Y-166774800D01*
X120278399Y-166774800D01*
X120278399Y-165860301D01*
X120386085Y-165909480D01*
X120492637Y-165924800D01*
X120564163Y-165924800D01*
X120670715Y-165909480D01*
X120778399Y-165860301D01*
X120778399Y-166774800D01*
X121422918Y-166774800D01*
X121429532Y-166774445D01*
X121485771Y-166768399D01*
X121620489Y-166718152D01*
X121735588Y-166631988D01*
X121821752Y-166516889D01*
X121871999Y-166382171D01*
X121878045Y-166325932D01*
X121878400Y-166319318D01*
X121878400Y-165674800D01*
X120962086Y-165674800D01*
X120987893Y-165634644D01*
X121028400Y-165496689D01*
X121028400Y-165399800D01*
X129332740Y-165399800D01*
X129353336Y-165635207D01*
X129391391Y-165777229D01*
X129414497Y-165863463D01*
X129514365Y-166077630D01*
X129649905Y-166271201D01*
X129816999Y-166438295D01*
X130010570Y-166573835D01*
X130224737Y-166673703D01*
X130452992Y-166734863D01*
X130688400Y-166755459D01*
X130923808Y-166734863D01*
X131152063Y-166673703D01*
X131366230Y-166573835D01*
X131559801Y-166438295D01*
X131726895Y-166271201D01*
X131862435Y-166077630D01*
X131885341Y-166028508D01*
X135540696Y-166028508D01*
X135571009Y-166252282D01*
X135640788Y-166467041D01*
X135747796Y-166665895D01*
X135878065Y-166829246D01*
X135888589Y-166842442D01*
X136058643Y-166991014D01*
X136058645Y-166991015D01*
X136252493Y-167106834D01*
X136463910Y-167186181D01*
X136686090Y-167226500D01*
X136686093Y-167226500D01*
X138360566Y-167226500D01*
X138363343Y-167226500D01*
X138531905Y-167211329D01*
X138749582Y-167151254D01*
X138953033Y-167053277D01*
X139135721Y-166920547D01*
X139291772Y-166757330D01*
X139416173Y-166568871D01*
X139504923Y-166361229D01*
X139555172Y-166141076D01*
X139565303Y-165915490D01*
X139534991Y-165691719D01*
X139465211Y-165476957D01*
X139358204Y-165278106D01*
X139358203Y-165278104D01*
X139217412Y-165101559D01*
X139197817Y-165084439D01*
X139047357Y-164952986D01*
X139047354Y-164952984D01*
X138853506Y-164837165D01*
X138642089Y-164757818D01*
X138419910Y-164717500D01*
X138419907Y-164717500D01*
X136742657Y-164717500D01*
X136739907Y-164717747D01*
X136739895Y-164717748D01*
X136574091Y-164732671D01*
X136356419Y-164792745D01*
X136152965Y-164890723D01*
X135970282Y-165023450D01*
X135814225Y-165186673D01*
X135689826Y-165375130D01*
X135601076Y-165582769D01*
X135550828Y-165802924D01*
X135540696Y-166028508D01*
X131885341Y-166028508D01*
X131962303Y-165863463D01*
X132023463Y-165635208D01*
X132044059Y-165399800D01*
X132023463Y-165164392D01*
X131962303Y-164936137D01*
X131862435Y-164721971D01*
X131726895Y-164528399D01*
X131604968Y-164406473D01*
X131571484Y-164345150D01*
X131576468Y-164275458D01*
X131618340Y-164219525D01*
X131649315Y-164202610D01*
X131780731Y-164153596D01*
X131895946Y-164067346D01*
X131982196Y-163952131D01*
X132032491Y-163817283D01*
X132038900Y-163757673D01*
X132038900Y-163722000D01*
X150467411Y-163722000D01*
X150471497Y-163752166D01*
X150541250Y-163966844D01*
X150648215Y-164165616D01*
X150788952Y-164342097D01*
X150958934Y-164490605D01*
X151152712Y-164606383D01*
X151364043Y-164685697D01*
X151586135Y-164726000D01*
X152203000Y-164726000D01*
X152203000Y-163972000D01*
X152703000Y-163972000D01*
X152703000Y-164726000D01*
X152734546Y-164757546D01*
X152768031Y-164818869D01*
X152763047Y-164888561D01*
X152741373Y-164925503D01*
X152550747Y-165149926D01*
X152546686Y-165155268D01*
X152346594Y-165450382D01*
X152343139Y-165456125D01*
X152176132Y-165771133D01*
X152173312Y-165777229D01*
X152041347Y-166108436D01*
X152039196Y-166114820D01*
X151943813Y-166458357D01*
X151942374Y-166464895D01*
X151884690Y-166816755D01*
X151883964Y-166823428D01*
X151864661Y-167179443D01*
X151864661Y-167186156D01*
X151883964Y-167542171D01*
X151884690Y-167548844D01*
X151942374Y-167900704D01*
X151943813Y-167907242D01*
X152039196Y-168250779D01*
X152041347Y-168257163D01*
X152173312Y-168588370D01*
X152176132Y-168594466D01*
X152343139Y-168909474D01*
X152346594Y-168915217D01*
X152546686Y-169210331D01*
X152550747Y-169215673D01*
X152680368Y-169368275D01*
X152680369Y-169368276D01*
X153921666Y-168126979D01*
X154084530Y-168317670D01*
X154275219Y-168480533D01*
X153031289Y-169724463D01*
X153045041Y-169737490D01*
X153050140Y-169741822D01*
X153333993Y-169957601D01*
X153339539Y-169961361D01*
X153645044Y-170145177D01*
X153650983Y-170148325D01*
X153974561Y-170298029D01*
X153980803Y-170300516D01*
X154318680Y-170414360D01*
X154325144Y-170416155D01*
X154673346Y-170492800D01*
X154679980Y-170493887D01*
X155034429Y-170532436D01*
X155041126Y-170532800D01*
X155397674Y-170532800D01*
X155404370Y-170532436D01*
X155758819Y-170493887D01*
X155765453Y-170492800D01*
X156113655Y-170416155D01*
X156120119Y-170414360D01*
X156457996Y-170300516D01*
X156464238Y-170298029D01*
X156787816Y-170148325D01*
X156793755Y-170145177D01*
X157099260Y-169961361D01*
X157104806Y-169957601D01*
X157388652Y-169741827D01*
X157393776Y-169737474D01*
X157407509Y-169724464D01*
X157407509Y-169724463D01*
X156163580Y-168480533D01*
X156354270Y-168317670D01*
X156517133Y-168126980D01*
X157758429Y-169368275D01*
X157758430Y-169368275D01*
X157888052Y-169215673D01*
X157892113Y-169210331D01*
X158092205Y-168915217D01*
X158095660Y-168909474D01*
X158262667Y-168594466D01*
X158265487Y-168588370D01*
X158397452Y-168257163D01*
X158399603Y-168250779D01*
X158494986Y-167907242D01*
X158496425Y-167900704D01*
X158554109Y-167548844D01*
X158554835Y-167542171D01*
X158574138Y-167186156D01*
X158574138Y-167179443D01*
X158554835Y-166823428D01*
X158554109Y-166816755D01*
X158496425Y-166464895D01*
X158494986Y-166458357D01*
X158399603Y-166114820D01*
X158397452Y-166108436D01*
X158265487Y-165777229D01*
X158262667Y-165771133D01*
X158095660Y-165456125D01*
X158092205Y-165450382D01*
X157892113Y-165155268D01*
X157888052Y-165149926D01*
X157758430Y-164997323D01*
X157758429Y-164997322D01*
X156517132Y-166238618D01*
X156354270Y-166047930D01*
X156163579Y-165885065D01*
X157407509Y-164641135D01*
X157393758Y-164628109D01*
X157388659Y-164623777D01*
X157104806Y-164407998D01*
X157099260Y-164404238D01*
X156793755Y-164220422D01*
X156787816Y-164217274D01*
X156464238Y-164067570D01*
X156457996Y-164065083D01*
X156120119Y-163951239D01*
X156113655Y-163949444D01*
X155765453Y-163872799D01*
X155758819Y-163871712D01*
X155404370Y-163833163D01*
X155397674Y-163832800D01*
X155041126Y-163832800D01*
X155034429Y-163833163D01*
X154679980Y-163871712D01*
X154673346Y-163872799D01*
X154578489Y-163893679D01*
X154508785Y-163888866D01*
X154452749Y-163847132D01*
X154428171Y-163781728D01*
X154430942Y-163744986D01*
X154436188Y-163722000D01*
X153486686Y-163722000D01*
X153512493Y-163681844D01*
X153553000Y-163543889D01*
X153553000Y-163400111D01*
X153512493Y-163262156D01*
X153486686Y-163222000D01*
X154438589Y-163222000D01*
X154434502Y-163191833D01*
X154364749Y-162977155D01*
X154257784Y-162778383D01*
X154117047Y-162601902D01*
X153947065Y-162453394D01*
X153753287Y-162337616D01*
X153541956Y-162258302D01*
X153319865Y-162218000D01*
X152703000Y-162218000D01*
X152703000Y-162972000D01*
X152203000Y-162972000D01*
X152203000Y-162218000D01*
X151645457Y-162218000D01*
X151639918Y-162218248D01*
X151474181Y-162233165D01*
X151256593Y-162293216D01*
X151053226Y-162391151D01*
X150870607Y-162523833D01*
X150714619Y-162686982D01*
X150590268Y-162875368D01*
X150501553Y-163082924D01*
X150469811Y-163221999D01*
X150469812Y-163222000D01*
X151419314Y-163222000D01*
X151393507Y-163262156D01*
X151353000Y-163400111D01*
X151353000Y-163543889D01*
X151393507Y-163681844D01*
X151419314Y-163722000D01*
X150467411Y-163722000D01*
X132038900Y-163722000D01*
X132038899Y-161961928D01*
X132032491Y-161902317D01*
X131982196Y-161767469D01*
X131895946Y-161652254D01*
X131780731Y-161566004D01*
X131645883Y-161515709D01*
X131586273Y-161509300D01*
X131582950Y-161509300D01*
X129793839Y-161509300D01*
X129793820Y-161509300D01*
X129790528Y-161509301D01*
X129787248Y-161509653D01*
X129787240Y-161509654D01*
X129730915Y-161515709D01*
X129596069Y-161566004D01*
X129480854Y-161652254D01*
X129394604Y-161767468D01*
X129344310Y-161902315D01*
X129344309Y-161902317D01*
X129337900Y-161961927D01*
X129337900Y-161965248D01*
X129337900Y-161965249D01*
X129337900Y-163754360D01*
X129337900Y-163754378D01*
X129337901Y-163757672D01*
X129344309Y-163817283D01*
X129394604Y-163952131D01*
X129480854Y-164067346D01*
X129596069Y-164153596D01*
X129708307Y-164195458D01*
X129727482Y-164202610D01*
X129783416Y-164244481D01*
X129807833Y-164309946D01*
X129792981Y-164378219D01*
X129771831Y-164406473D01*
X129649903Y-164528401D01*
X129514365Y-164721970D01*
X129414497Y-164936136D01*
X129353336Y-165164392D01*
X129332740Y-165399800D01*
X121028400Y-165399800D01*
X121028400Y-165352911D01*
X120987893Y-165214956D01*
X120962086Y-165174800D01*
X121878400Y-165174800D01*
X121878400Y-164530281D01*
X121878045Y-164523667D01*
X121871999Y-164467428D01*
X121821752Y-164332710D01*
X121735588Y-164217611D01*
X121620488Y-164131447D01*
X121488412Y-164082185D01*
X121432479Y-164040313D01*
X121408062Y-163974849D01*
X121422914Y-163906576D01*
X121444065Y-163878321D01*
X121566509Y-163755877D01*
X121702000Y-163562376D01*
X121801830Y-163348292D01*
X121859036Y-163134800D01*
X120962086Y-163134800D01*
X120987893Y-163094644D01*
X121028400Y-162956689D01*
X121028400Y-162812911D01*
X120987893Y-162674956D01*
X120962086Y-162634800D01*
X121859036Y-162634800D01*
X121859035Y-162634799D01*
X121801830Y-162421307D01*
X121701999Y-162207221D01*
X121566509Y-162013721D01*
X121399481Y-161846693D01*
X121205976Y-161711199D01*
X120991892Y-161611369D01*
X120778399Y-161554164D01*
X120778399Y-162449298D01*
X120670715Y-162400120D01*
X120564163Y-162384800D01*
X120492637Y-162384800D01*
X120386085Y-162400120D01*
X120278400Y-162449298D01*
X120278400Y-161554164D01*
X120278399Y-161554164D01*
X120064907Y-161611369D01*
X119850821Y-161711200D01*
X119657321Y-161846690D01*
X119490290Y-162013721D01*
X119354800Y-162207221D01*
X119254969Y-162421307D01*
X119197764Y-162634799D01*
X119197764Y-162634800D01*
X120094714Y-162634800D01*
X120068907Y-162674956D01*
X120028400Y-162812911D01*
X120028400Y-162956689D01*
X120068907Y-163094644D01*
X120094714Y-163134800D01*
X119197764Y-163134800D01*
X119254969Y-163348292D01*
X119354799Y-163562376D01*
X119490293Y-163755881D01*
X119612734Y-163878322D01*
X119646219Y-163939645D01*
X119641235Y-164009337D01*
X119599363Y-164065270D01*
X119568387Y-164082185D01*
X119436311Y-164131447D01*
X119321211Y-164217611D01*
X119235047Y-164332710D01*
X119184800Y-164467428D01*
X119178754Y-164523667D01*
X119178400Y-164530281D01*
X119178400Y-165174800D01*
X120094714Y-165174800D01*
X120068907Y-165214956D01*
X120028400Y-165352911D01*
X120028400Y-165496689D01*
X120068907Y-165634644D01*
X120094714Y-165674800D01*
X119178400Y-165674800D01*
X119178400Y-166319318D01*
X116463778Y-166319318D01*
X116486895Y-166296201D01*
X116622435Y-166102630D01*
X116722303Y-165888463D01*
X116783463Y-165660208D01*
X116804059Y-165424800D01*
X116783463Y-165189392D01*
X116722303Y-164961137D01*
X116622435Y-164746971D01*
X116486895Y-164553399D01*
X116319801Y-164386305D01*
X116134239Y-164256373D01*
X116090615Y-164201797D01*
X116083423Y-164132298D01*
X116114945Y-164069944D01*
X116134231Y-164053232D01*
X116319801Y-163923295D01*
X116486895Y-163756201D01*
X116622435Y-163562630D01*
X116722303Y-163348463D01*
X116783463Y-163120208D01*
X116804059Y-162884800D01*
X116783463Y-162649392D01*
X116722303Y-162421137D01*
X116622435Y-162206971D01*
X116486895Y-162013399D01*
X116319801Y-161846305D01*
X116126230Y-161710765D01*
X115912063Y-161610897D01*
X115850901Y-161594509D01*
X115683807Y-161549736D01*
X115448399Y-161529140D01*
X115212992Y-161549736D01*
X114984736Y-161610897D01*
X114770570Y-161710765D01*
X114576998Y-161846305D01*
X114409905Y-162013398D01*
X114274365Y-162206970D01*
X114174497Y-162421136D01*
X114113336Y-162649392D01*
X114092740Y-162884799D01*
X114113336Y-163120207D01*
X114151371Y-163262156D01*
X114174497Y-163348463D01*
X114274365Y-163562630D01*
X114409905Y-163756201D01*
X114576999Y-163923295D01*
X114762560Y-164053226D01*
X114806183Y-164107802D01*
X114813376Y-164177301D01*
X114781854Y-164239655D01*
X114762559Y-164256375D01*
X114576995Y-164386308D01*
X114409905Y-164553398D01*
X114274365Y-164746970D01*
X114174497Y-164961136D01*
X114113336Y-165189392D01*
X114092740Y-165424799D01*
X102927390Y-165424799D01*
X101435211Y-163932620D01*
X101401726Y-163871297D01*
X101399672Y-163858821D01*
X101394368Y-163811749D01*
X101394368Y-163811748D01*
X101394368Y-163811745D01*
X101334789Y-163641478D01*
X101238816Y-163488738D01*
X101238815Y-163488737D01*
X101238814Y-163488735D01*
X101111264Y-163361185D01*
X101048867Y-163321978D01*
X100958522Y-163265211D01*
X100788255Y-163205632D01*
X100788253Y-163205631D01*
X100788251Y-163205631D01*
X100608999Y-163185434D01*
X100429748Y-163205631D01*
X100429745Y-163205631D01*
X100429745Y-163205632D01*
X100259478Y-163265211D01*
X100259476Y-163265211D01*
X100259476Y-163265212D01*
X100106735Y-163361185D01*
X99979185Y-163488735D01*
X99883212Y-163641476D01*
X99883211Y-163641478D01*
X99843712Y-163754360D01*
X99823631Y-163811748D01*
X99803434Y-163991000D01*
X62258125Y-163991000D01*
X62140119Y-163951239D01*
X62133655Y-163949444D01*
X61785453Y-163872799D01*
X61778819Y-163871712D01*
X61424370Y-163833163D01*
X61417674Y-163832800D01*
X61061126Y-163832800D01*
X61054429Y-163833163D01*
X60699980Y-163871712D01*
X60693346Y-163872799D01*
X60345144Y-163949444D01*
X60338680Y-163951239D01*
X60000803Y-164065083D01*
X59994561Y-164067570D01*
X59670983Y-164217274D01*
X59665044Y-164220422D01*
X59359539Y-164404238D01*
X59353993Y-164407998D01*
X59070137Y-164623780D01*
X59065029Y-164628118D01*
X59051289Y-164641133D01*
X59051289Y-164641136D01*
X60295219Y-165885066D01*
X60104530Y-166047930D01*
X59941666Y-166238619D01*
X58700369Y-164997322D01*
X58570742Y-165149933D01*
X58566686Y-165155268D01*
X58366594Y-165450382D01*
X58363139Y-165456125D01*
X58196132Y-165771133D01*
X58193312Y-165777229D01*
X58061347Y-166108436D01*
X58059196Y-166114820D01*
X57963813Y-166458357D01*
X57962374Y-166464895D01*
X57904690Y-166816755D01*
X57903964Y-166823428D01*
X57884662Y-167179443D01*
X57884662Y-167186156D01*
X56528342Y-167186156D01*
X56528342Y-157130962D01*
X56548027Y-157063923D01*
X56564661Y-157043281D01*
X56564661Y-157043280D01*
X56585142Y-157022800D01*
X56585142Y-133168342D01*
X57158500Y-133168342D01*
X57158500Y-157322500D01*
X61298306Y-157322500D01*
X61298306Y-145595833D01*
X66124725Y-145595833D01*
X66143710Y-145982300D01*
X66144306Y-145988353D01*
X66201081Y-146371094D01*
X66202267Y-146377053D01*
X66296282Y-146752386D01*
X66298049Y-146758209D01*
X66428395Y-147122501D01*
X66430727Y-147128134D01*
X66596158Y-147477908D01*
X66599029Y-147483277D01*
X66797949Y-147815155D01*
X66801317Y-147820196D01*
X67031817Y-148130989D01*
X67035675Y-148135691D01*
X67129468Y-148239176D01*
X67129469Y-148239176D01*
X68442504Y-146926141D01*
X68554431Y-147063718D01*
X68769390Y-147264476D01*
X68793943Y-147281808D01*
X67483022Y-148592729D01*
X67483022Y-148592730D01*
X67586508Y-148686524D01*
X67591210Y-148690382D01*
X67902003Y-148920882D01*
X67907044Y-148924250D01*
X68238922Y-149123170D01*
X68244291Y-149126041D01*
X68594065Y-149291472D01*
X68599698Y-149293804D01*
X68963990Y-149424150D01*
X68969813Y-149425917D01*
X69345146Y-149519932D01*
X69351105Y-149521118D01*
X69733846Y-149577893D01*
X69739899Y-149578489D01*
X70126367Y-149597475D01*
X70132433Y-149597475D01*
X70518900Y-149578489D01*
X70524953Y-149577893D01*
X70907694Y-149521118D01*
X70913653Y-149519932D01*
X71288986Y-149425917D01*
X71294809Y-149424150D01*
X71659101Y-149293804D01*
X71664734Y-149291472D01*
X72014508Y-149126041D01*
X72019877Y-149123170D01*
X72351755Y-148924250D01*
X72356796Y-148920882D01*
X72667589Y-148690382D01*
X72672280Y-148686533D01*
X72775776Y-148592729D01*
X71464855Y-147281808D01*
X71489410Y-147264476D01*
X71704369Y-147063718D01*
X71816295Y-146926142D01*
X73129329Y-148239176D01*
X73223133Y-148135680D01*
X73226982Y-148130989D01*
X73457482Y-147820196D01*
X73460850Y-147815155D01*
X73659770Y-147483277D01*
X73662641Y-147477908D01*
X73828072Y-147128134D01*
X73830404Y-147122501D01*
X73960750Y-146758209D01*
X73962517Y-146752386D01*
X74056532Y-146377053D01*
X74057718Y-146371094D01*
X74114493Y-145988353D01*
X74115089Y-145982300D01*
X74134075Y-145595833D01*
X74134075Y-145589766D01*
X74115089Y-145203299D01*
X74114493Y-145197246D01*
X74057718Y-144814505D01*
X74056532Y-144808546D01*
X73962517Y-144433213D01*
X73960750Y-144427390D01*
X73830404Y-144063098D01*
X73828072Y-144057465D01*
X73662641Y-143707691D01*
X73659770Y-143702322D01*
X73460850Y-143370444D01*
X73457482Y-143365403D01*
X73226982Y-143054610D01*
X73223124Y-143049908D01*
X73129330Y-142946422D01*
X73129329Y-142946422D01*
X71816294Y-144259456D01*
X71704369Y-144121882D01*
X71489410Y-143921124D01*
X71464855Y-143903791D01*
X72775776Y-142592869D01*
X72775776Y-142592868D01*
X72672291Y-142499075D01*
X72667589Y-142495217D01*
X72356796Y-142264717D01*
X72351755Y-142261349D01*
X72019877Y-142062429D01*
X72014508Y-142059558D01*
X71664734Y-141894127D01*
X71659101Y-141891795D01*
X71294809Y-141761449D01*
X71288986Y-141759682D01*
X70913653Y-141665667D01*
X70907694Y-141664481D01*
X70524953Y-141607706D01*
X70518900Y-141607110D01*
X70132433Y-141588125D01*
X70126367Y-141588125D01*
X69739899Y-141607110D01*
X69733846Y-141607706D01*
X69351105Y-141664481D01*
X69345146Y-141665667D01*
X68969813Y-141759682D01*
X68963990Y-141761449D01*
X68599698Y-141891795D01*
X68594065Y-141894127D01*
X68244291Y-142059558D01*
X68238922Y-142062429D01*
X67907044Y-142261349D01*
X67902003Y-142264717D01*
X67591207Y-142495218D01*
X67586505Y-142499077D01*
X67483022Y-142592868D01*
X67483022Y-142592869D01*
X68793944Y-143903791D01*
X68769390Y-143921124D01*
X68554431Y-144121882D01*
X68442504Y-144259457D01*
X67129469Y-142946422D01*
X67129468Y-142946422D01*
X67035677Y-143049905D01*
X67031818Y-143054607D01*
X66801317Y-143365403D01*
X66797949Y-143370444D01*
X66599029Y-143702322D01*
X66596158Y-143707691D01*
X66430727Y-144057465D01*
X66428395Y-144063098D01*
X66298049Y-144427390D01*
X66296282Y-144433213D01*
X66202267Y-144808546D01*
X66201081Y-144814505D01*
X66144306Y-145197246D01*
X66143710Y-145203299D01*
X66124725Y-145589766D01*
X66124725Y-145595833D01*
X61298306Y-145595833D01*
X61298306Y-136327378D01*
X84018900Y-136327378D01*
X84018901Y-136330672D01*
X84025309Y-136390283D01*
X84075604Y-136525131D01*
X84161854Y-136640346D01*
X84277069Y-136726596D01*
X84411917Y-136776891D01*
X84471527Y-136783300D01*
X85783947Y-136783299D01*
X85850986Y-136802984D01*
X85871628Y-136819618D01*
X96298596Y-147246587D01*
X96311496Y-147262688D01*
X96362623Y-147310700D01*
X96365420Y-147313411D01*
X96384929Y-147332920D01*
X96388109Y-147335387D01*
X96396971Y-147342955D01*
X96428818Y-147372862D01*
X96446372Y-147382512D01*
X96462636Y-147393196D01*
X96467350Y-147396852D01*
X96478464Y-147405473D01*
X96503309Y-147416224D01*
X96518552Y-147422821D01*
X96529031Y-147427954D01*
X96567308Y-147448997D01*
X96586706Y-147453977D01*
X96605108Y-147460277D01*
X96623504Y-147468238D01*
X96666661Y-147475073D01*
X96678064Y-147477434D01*
X96720381Y-147488300D01*
X96740416Y-147488300D01*
X96759813Y-147489826D01*
X96779596Y-147492960D01*
X96823074Y-147488850D01*
X96834744Y-147488300D01*
X136164173Y-147488300D01*
X136231212Y-147507985D01*
X136265745Y-147541173D01*
X136400905Y-147734201D01*
X136567999Y-147901295D01*
X136753560Y-148031226D01*
X136797183Y-148085802D01*
X136804376Y-148155301D01*
X136772854Y-148217655D01*
X136753559Y-148234375D01*
X136567995Y-148364308D01*
X136400905Y-148531398D01*
X136265365Y-148724970D01*
X136165497Y-148939136D01*
X136104336Y-149167392D01*
X136083740Y-149402800D01*
X136104336Y-149638207D01*
X136149109Y-149805302D01*
X136165497Y-149866463D01*
X136265365Y-150080630D01*
X136400905Y-150274201D01*
X136567999Y-150441295D01*
X136753560Y-150571226D01*
X136797183Y-150625802D01*
X136804376Y-150695301D01*
X136772854Y-150757655D01*
X136753559Y-150774375D01*
X136567995Y-150904308D01*
X136400905Y-151071398D01*
X136265365Y-151264970D01*
X136165497Y-151479136D01*
X136104336Y-151707392D01*
X136083740Y-151942800D01*
X136104336Y-152178207D01*
X136149109Y-152345301D01*
X136165497Y-152406463D01*
X136265365Y-152620630D01*
X136400905Y-152814201D01*
X136567999Y-152981295D01*
X136761570Y-153116835D01*
X136975737Y-153216703D01*
X137203992Y-153277863D01*
X137439400Y-153298459D01*
X137674808Y-153277863D01*
X137903063Y-153216703D01*
X138117230Y-153116835D01*
X138310801Y-152981295D01*
X138477895Y-152814201D01*
X138613435Y-152620630D01*
X138713303Y-152406463D01*
X138774463Y-152178208D01*
X138795059Y-151942800D01*
X138774463Y-151707392D01*
X138713303Y-151479137D01*
X138613435Y-151264971D01*
X138477895Y-151071399D01*
X138310801Y-150904305D01*
X138125239Y-150774373D01*
X138081615Y-150719797D01*
X138074423Y-150650298D01*
X138105945Y-150587944D01*
X138125231Y-150571232D01*
X138310801Y-150441295D01*
X138477895Y-150274201D01*
X138613435Y-150080630D01*
X138713303Y-149866463D01*
X138774463Y-149638208D01*
X138795059Y-149402800D01*
X138774463Y-149167392D01*
X138713303Y-148939137D01*
X138704790Y-148920882D01*
X138677219Y-148861756D01*
X138666726Y-148792679D01*
X138695245Y-148728895D01*
X138701906Y-148721682D01*
X142122786Y-145300802D01*
X142184105Y-145267320D01*
X142253797Y-145272304D01*
X142309730Y-145314176D01*
X142334147Y-145379640D01*
X142334314Y-145394570D01*
X142324725Y-145589766D01*
X142324725Y-145595833D01*
X142343710Y-145982300D01*
X142344306Y-145988353D01*
X142401081Y-146371094D01*
X142402267Y-146377053D01*
X142496282Y-146752386D01*
X142498049Y-146758209D01*
X142628395Y-147122501D01*
X142630727Y-147128134D01*
X142796158Y-147477908D01*
X142799029Y-147483277D01*
X142997949Y-147815155D01*
X143001317Y-147820196D01*
X143231817Y-148130989D01*
X143235675Y-148135691D01*
X143329468Y-148239176D01*
X143329469Y-148239176D01*
X144642504Y-146926141D01*
X144754431Y-147063718D01*
X144969390Y-147264476D01*
X144993943Y-147281808D01*
X143683022Y-148592729D01*
X143683022Y-148592730D01*
X143786508Y-148686524D01*
X143791210Y-148690382D01*
X144102003Y-148920882D01*
X144107044Y-148924250D01*
X144438922Y-149123170D01*
X144444291Y-149126041D01*
X144794065Y-149291472D01*
X144799698Y-149293804D01*
X145163990Y-149424150D01*
X145169813Y-149425917D01*
X145545146Y-149519932D01*
X145551105Y-149521118D01*
X145933846Y-149577893D01*
X145939899Y-149578489D01*
X146326367Y-149597475D01*
X146332433Y-149597475D01*
X146718900Y-149578489D01*
X146724953Y-149577893D01*
X147107694Y-149521118D01*
X147113653Y-149519932D01*
X147488986Y-149425917D01*
X147494809Y-149424150D01*
X147859101Y-149293804D01*
X147864751Y-149291465D01*
X148137446Y-149162489D01*
X148206465Y-149151620D01*
X148270404Y-149179791D01*
X148308962Y-149238058D01*
X148309897Y-149307921D01*
X148278144Y-149362264D01*
X137959228Y-159681181D01*
X137897905Y-159714666D01*
X137871547Y-159717500D01*
X136742657Y-159717500D01*
X136739907Y-159717747D01*
X136739895Y-159717748D01*
X136574091Y-159732671D01*
X136356419Y-159792745D01*
X136152965Y-159890723D01*
X135970282Y-160023450D01*
X135814225Y-160186673D01*
X135689826Y-160375130D01*
X135601076Y-160582769D01*
X135550828Y-160802924D01*
X135540696Y-161028508D01*
X135571009Y-161252282D01*
X135640788Y-161467041D01*
X135747796Y-161665895D01*
X135888587Y-161842440D01*
X135888589Y-161842442D01*
X136058643Y-161991014D01*
X136058645Y-161991015D01*
X136252493Y-162106834D01*
X136463910Y-162186181D01*
X136686090Y-162226500D01*
X136686093Y-162226500D01*
X138360566Y-162226500D01*
X138363343Y-162226500D01*
X138531905Y-162211329D01*
X138749582Y-162151254D01*
X138953033Y-162053277D01*
X139135721Y-161920547D01*
X139291772Y-161757330D01*
X139416173Y-161568871D01*
X139504923Y-161361229D01*
X139555172Y-161141076D01*
X139560227Y-161028508D01*
X142740696Y-161028508D01*
X142771009Y-161252282D01*
X142840788Y-161467041D01*
X142947796Y-161665895D01*
X143088587Y-161842440D01*
X143088589Y-161842442D01*
X143258643Y-161991014D01*
X143258645Y-161991015D01*
X143452493Y-162106834D01*
X143663910Y-162186181D01*
X143886090Y-162226500D01*
X143886093Y-162226500D01*
X145560566Y-162226500D01*
X145563343Y-162226500D01*
X145731905Y-162211329D01*
X145949582Y-162151254D01*
X146153033Y-162053277D01*
X146335721Y-161920547D01*
X146491772Y-161757330D01*
X146616173Y-161568871D01*
X146704923Y-161361229D01*
X146755172Y-161141076D01*
X146765303Y-160915490D01*
X146734991Y-160691719D01*
X146665211Y-160476957D01*
X146558204Y-160278106D01*
X146558203Y-160278104D01*
X146417412Y-160101559D01*
X146385429Y-160073616D01*
X146247357Y-159952986D01*
X146247354Y-159952984D01*
X146053506Y-159837165D01*
X145842089Y-159757818D01*
X145619910Y-159717500D01*
X145619907Y-159717500D01*
X143942657Y-159717500D01*
X143939907Y-159717747D01*
X143939895Y-159717748D01*
X143774091Y-159732671D01*
X143556419Y-159792745D01*
X143352965Y-159890723D01*
X143170282Y-160023450D01*
X143014225Y-160186673D01*
X142889826Y-160375130D01*
X142801076Y-160582769D01*
X142750828Y-160802924D01*
X142740696Y-161028508D01*
X139560227Y-161028508D01*
X139565303Y-160915490D01*
X139534991Y-160691719D01*
X139465211Y-160476957D01*
X139358204Y-160278106D01*
X139326706Y-160238609D01*
X139300298Y-160173925D01*
X139313053Y-160105229D01*
X139335969Y-160073619D01*
X151792789Y-147616800D01*
X151808885Y-147603906D01*
X151810873Y-147601787D01*
X151810877Y-147601786D01*
X151856949Y-147552723D01*
X151859534Y-147550055D01*
X151879120Y-147530471D01*
X151881585Y-147527292D01*
X151889167Y-147518416D01*
X151919062Y-147486582D01*
X151928717Y-147469018D01*
X151939394Y-147452764D01*
X151951673Y-147436936D01*
X151969018Y-147396852D01*
X151974160Y-147386356D01*
X151995197Y-147348092D01*
X152000179Y-147328684D01*
X152006481Y-147310280D01*
X152014437Y-147291896D01*
X152021269Y-147248752D01*
X152023633Y-147237338D01*
X152034500Y-147195019D01*
X152034500Y-147174982D01*
X152036027Y-147155584D01*
X152039160Y-147135804D01*
X152035050Y-147092324D01*
X152034500Y-147080655D01*
X152034500Y-139784861D01*
X152054185Y-139717822D01*
X152106989Y-139672067D01*
X152176147Y-139662123D01*
X152190578Y-139665082D01*
X152328592Y-139702063D01*
X152564000Y-139722659D01*
X152799408Y-139702063D01*
X153027663Y-139640903D01*
X153241830Y-139541035D01*
X153435401Y-139405495D01*
X153602495Y-139238401D01*
X153738035Y-139044830D01*
X153738036Y-139044826D01*
X153744257Y-139035943D01*
X153745316Y-139036684D01*
X153784082Y-138992657D01*
X153850293Y-138973500D01*
X156581773Y-138973500D01*
X156648812Y-138993185D01*
X156683345Y-139026373D01*
X156818505Y-139219401D01*
X156985599Y-139386495D01*
X157179170Y-139522035D01*
X157393337Y-139621903D01*
X157621592Y-139683063D01*
X157857000Y-139703659D01*
X158092408Y-139683063D01*
X158320663Y-139621903D01*
X158534830Y-139522035D01*
X158728401Y-139386495D01*
X158895495Y-139219401D01*
X159031035Y-139025830D01*
X159130903Y-138811663D01*
X159192063Y-138583408D01*
X159212659Y-138348000D01*
X159192063Y-138112592D01*
X159130903Y-137884337D01*
X159031035Y-137670171D01*
X158895495Y-137476599D01*
X158728401Y-137309505D01*
X158542839Y-137179573D01*
X158499216Y-137124998D01*
X158492022Y-137055500D01*
X158523545Y-136993145D01*
X158542837Y-136976428D01*
X158728401Y-136846495D01*
X158895495Y-136679401D01*
X159031035Y-136485830D01*
X159130903Y-136271663D01*
X159192063Y-136043408D01*
X159212659Y-135808000D01*
X159192063Y-135572592D01*
X159130903Y-135344337D01*
X159031035Y-135130171D01*
X158895495Y-134936599D01*
X158773181Y-134814285D01*
X158739696Y-134752962D01*
X158744680Y-134683270D01*
X158786552Y-134627337D01*
X158817528Y-134610422D01*
X158949089Y-134561352D01*
X159064188Y-134475188D01*
X159150352Y-134360089D01*
X159200599Y-134225371D01*
X159206645Y-134169132D01*
X159207000Y-134162518D01*
X159207000Y-133518000D01*
X158290686Y-133518000D01*
X158316493Y-133477844D01*
X158357000Y-133339889D01*
X158357000Y-133196111D01*
X158316493Y-133058156D01*
X158290686Y-133018000D01*
X159207000Y-133018000D01*
X159207000Y-132373481D01*
X159206645Y-132366867D01*
X159200599Y-132310628D01*
X159150352Y-132175910D01*
X159064188Y-132060811D01*
X158949089Y-131974647D01*
X158814371Y-131924400D01*
X158758132Y-131918354D01*
X158751518Y-131918000D01*
X158107000Y-131918000D01*
X158107000Y-132832498D01*
X157999315Y-132783320D01*
X157892763Y-132768000D01*
X157821237Y-132768000D01*
X157714685Y-132783320D01*
X157607000Y-132832498D01*
X157607000Y-131918000D01*
X156962482Y-131918000D01*
X156955867Y-131918354D01*
X156899628Y-131924400D01*
X156764910Y-131974647D01*
X156649811Y-132060811D01*
X156563647Y-132175910D01*
X156513400Y-132310628D01*
X156507354Y-132366867D01*
X156507000Y-132373481D01*
X156507000Y-133018000D01*
X157423314Y-133018000D01*
X157397507Y-133058156D01*
X157357000Y-133196111D01*
X157357000Y-133339889D01*
X157397507Y-133477844D01*
X157423314Y-133518000D01*
X156507000Y-133518000D01*
X156507000Y-134162518D01*
X156507354Y-134169132D01*
X156513400Y-134225371D01*
X156563647Y-134360089D01*
X156649811Y-134475188D01*
X156764911Y-134561352D01*
X156896471Y-134610422D01*
X156952404Y-134652294D01*
X156976821Y-134717758D01*
X156961969Y-134786031D01*
X156940819Y-134814285D01*
X156818503Y-134936601D01*
X156683349Y-135129623D01*
X156628772Y-135173248D01*
X156581774Y-135182500D01*
X154038499Y-135182500D01*
X153971460Y-135162815D01*
X153925705Y-135110011D01*
X153914499Y-135058500D01*
X153914499Y-134932439D01*
X153914499Y-134932438D01*
X153914499Y-134929128D01*
X153908091Y-134869517D01*
X153857796Y-134734669D01*
X153771546Y-134619454D01*
X153656331Y-134533204D01*
X153521483Y-134482909D01*
X153461873Y-134476500D01*
X153458551Y-134476500D01*
X152788451Y-134476500D01*
X152721412Y-134456815D01*
X152675657Y-134404011D01*
X152665713Y-134334853D01*
X152694738Y-134271297D01*
X152700770Y-134264819D01*
X153272637Y-133692952D01*
X154105287Y-132860301D01*
X154121384Y-132847407D01*
X154123372Y-132845288D01*
X154123376Y-132845287D01*
X154169448Y-132796224D01*
X154172033Y-132793556D01*
X154191619Y-132773972D01*
X154194084Y-132770793D01*
X154201666Y-132761917D01*
X154231561Y-132730083D01*
X154241216Y-132712519D01*
X154251893Y-132696265D01*
X154264172Y-132680437D01*
X154281517Y-132640353D01*
X154286659Y-132629857D01*
X154307696Y-132591593D01*
X154312678Y-132572185D01*
X154318980Y-132553781D01*
X154326936Y-132535397D01*
X154333768Y-132492253D01*
X154336132Y-132480839D01*
X154346999Y-132438520D01*
X154346999Y-132418484D01*
X154348526Y-132399085D01*
X154351659Y-132379305D01*
X154347549Y-132335825D01*
X154346999Y-132324156D01*
X154346999Y-112919242D01*
X154349263Y-112898738D01*
X154347060Y-112828625D01*
X154346999Y-112824730D01*
X154346999Y-112801039D01*
X154346999Y-112797149D01*
X154346497Y-112793176D01*
X154345579Y-112781517D01*
X154344208Y-112737872D01*
X154338619Y-112718639D01*
X154334673Y-112699581D01*
X154332163Y-112679705D01*
X154316087Y-112639103D01*
X154312303Y-112628052D01*
X154306380Y-112607667D01*
X154300117Y-112586109D01*
X154289913Y-112568854D01*
X154281360Y-112551394D01*
X154273985Y-112532768D01*
X154273985Y-112532767D01*
X154248307Y-112497424D01*
X154241900Y-112487670D01*
X154219668Y-112450078D01*
X154205505Y-112435915D01*
X154192866Y-112421116D01*
X154181094Y-112404912D01*
X154147440Y-112377072D01*
X154138798Y-112369208D01*
X151953510Y-110183919D01*
X151940614Y-110167821D01*
X151889483Y-110119806D01*
X151886686Y-110117095D01*
X151869935Y-110100344D01*
X151867179Y-110097588D01*
X151863998Y-110095120D01*
X151855130Y-110087545D01*
X151823290Y-110057646D01*
X151805732Y-110047993D01*
X151789472Y-110037312D01*
X151773644Y-110025035D01*
X151733559Y-110007688D01*
X151723069Y-110002549D01*
X151684799Y-109981510D01*
X151665399Y-109976529D01*
X151646992Y-109970227D01*
X151628605Y-109962270D01*
X151585466Y-109955437D01*
X151574032Y-109953069D01*
X151531727Y-109942208D01*
X151511692Y-109942208D01*
X151492294Y-109940681D01*
X151484870Y-109939505D01*
X151472513Y-109937548D01*
X151472512Y-109937548D01*
X151439459Y-109940672D01*
X151429033Y-109941658D01*
X151417364Y-109942208D01*
X136388361Y-109942208D01*
X136321322Y-109922523D01*
X136300680Y-109905889D01*
X131350624Y-104955833D01*
X142324725Y-104955833D01*
X142343710Y-105342300D01*
X142344306Y-105348353D01*
X142401081Y-105731094D01*
X142402267Y-105737053D01*
X142496282Y-106112386D01*
X142498049Y-106118209D01*
X142628395Y-106482501D01*
X142630727Y-106488134D01*
X142796158Y-106837908D01*
X142799029Y-106843277D01*
X142997949Y-107175155D01*
X143001317Y-107180196D01*
X143231817Y-107490989D01*
X143235675Y-107495691D01*
X143329468Y-107599176D01*
X143329469Y-107599176D01*
X144642504Y-106286141D01*
X144754431Y-106423718D01*
X144969390Y-106624476D01*
X144993943Y-106641808D01*
X143683022Y-107952729D01*
X143683022Y-107952730D01*
X143786508Y-108046524D01*
X143791210Y-108050382D01*
X144102003Y-108280882D01*
X144107044Y-108284250D01*
X144438922Y-108483170D01*
X144444291Y-108486041D01*
X144794065Y-108651472D01*
X144799698Y-108653804D01*
X145163990Y-108784150D01*
X145169813Y-108785917D01*
X145545146Y-108879932D01*
X145551105Y-108881118D01*
X145933846Y-108937893D01*
X145939899Y-108938489D01*
X146326367Y-108957475D01*
X146332433Y-108957475D01*
X146718900Y-108938489D01*
X146724953Y-108937893D01*
X147107694Y-108881118D01*
X147113653Y-108879932D01*
X147488986Y-108785917D01*
X147494809Y-108784150D01*
X147859101Y-108653804D01*
X147864734Y-108651472D01*
X148214508Y-108486041D01*
X148219877Y-108483170D01*
X148551755Y-108284250D01*
X148556796Y-108280882D01*
X148867589Y-108050382D01*
X148872280Y-108046533D01*
X148975776Y-107952729D01*
X147664855Y-106641808D01*
X147689410Y-106624476D01*
X147904369Y-106423718D01*
X148016295Y-106286142D01*
X149329329Y-107599176D01*
X149423133Y-107495680D01*
X149426982Y-107490989D01*
X149657482Y-107180196D01*
X149660850Y-107175155D01*
X149859770Y-106843277D01*
X149862641Y-106837908D01*
X150028072Y-106488134D01*
X150030404Y-106482501D01*
X150160750Y-106118209D01*
X150162517Y-106112386D01*
X150256532Y-105737053D01*
X150257718Y-105731094D01*
X150314493Y-105348353D01*
X150315089Y-105342300D01*
X150334075Y-104955833D01*
X150334075Y-104949766D01*
X150315089Y-104563299D01*
X150314493Y-104557246D01*
X150257718Y-104174505D01*
X150256532Y-104168546D01*
X150162517Y-103793213D01*
X150160750Y-103787390D01*
X150030404Y-103423098D01*
X150028072Y-103417465D01*
X149862641Y-103067691D01*
X149859770Y-103062322D01*
X149660850Y-102730444D01*
X149657482Y-102725403D01*
X149426982Y-102414610D01*
X149423124Y-102409908D01*
X149329330Y-102306422D01*
X149329329Y-102306422D01*
X148016294Y-103619456D01*
X147904369Y-103481882D01*
X147689410Y-103281124D01*
X147664855Y-103263791D01*
X148975776Y-101952869D01*
X148975776Y-101952868D01*
X148872291Y-101859075D01*
X148867589Y-101855217D01*
X148556796Y-101624717D01*
X148551755Y-101621349D01*
X148219877Y-101422429D01*
X148214508Y-101419558D01*
X147864734Y-101254127D01*
X147859101Y-101251795D01*
X147494809Y-101121449D01*
X147488986Y-101119682D01*
X147113653Y-101025667D01*
X147107694Y-101024481D01*
X146724953Y-100967706D01*
X146718900Y-100967110D01*
X146332433Y-100948125D01*
X146326367Y-100948125D01*
X145939899Y-100967110D01*
X145933846Y-100967706D01*
X145551105Y-101024481D01*
X145545146Y-101025667D01*
X145169813Y-101119682D01*
X145163990Y-101121449D01*
X144799698Y-101251795D01*
X144794065Y-101254127D01*
X144444291Y-101419558D01*
X144438922Y-101422429D01*
X144107044Y-101621349D01*
X144102003Y-101624717D01*
X143791207Y-101855218D01*
X143786505Y-101859077D01*
X143683022Y-101952868D01*
X143683022Y-101952869D01*
X144993944Y-103263791D01*
X144969390Y-103281124D01*
X144754431Y-103481882D01*
X144642504Y-103619457D01*
X143329469Y-102306422D01*
X143329468Y-102306422D01*
X143235677Y-102409905D01*
X143231818Y-102414607D01*
X143001317Y-102725403D01*
X142997949Y-102730444D01*
X142799029Y-103062322D01*
X142796158Y-103067691D01*
X142630727Y-103417465D01*
X142628395Y-103423098D01*
X142498049Y-103787390D01*
X142496282Y-103793213D01*
X142402267Y-104168546D01*
X142401081Y-104174505D01*
X142344306Y-104557246D01*
X142343710Y-104563299D01*
X142324725Y-104949766D01*
X142324725Y-104955833D01*
X131350624Y-104955833D01*
X127267109Y-100872318D01*
X128438000Y-100872318D01*
X128438354Y-100878932D01*
X128444400Y-100935171D01*
X128494647Y-101069889D01*
X128580811Y-101184988D01*
X128695910Y-101271152D01*
X128830628Y-101321399D01*
X128886867Y-101327445D01*
X128893482Y-101327800D01*
X129888000Y-101327800D01*
X129888000Y-100173681D01*
X129981369Y-100212356D01*
X130098677Y-100227800D01*
X130177323Y-100227800D01*
X130294631Y-100212356D01*
X130388000Y-100173681D01*
X130388000Y-101327800D01*
X131382518Y-101327800D01*
X131389132Y-101327445D01*
X131445371Y-101321399D01*
X131580089Y-101271152D01*
X131695188Y-101184988D01*
X131781352Y-101069889D01*
X131831599Y-100935171D01*
X131837645Y-100878932D01*
X131838000Y-100872318D01*
X131838000Y-99877800D01*
X130683882Y-99877800D01*
X130722556Y-99784431D01*
X130743177Y-99627800D01*
X130722556Y-99471169D01*
X130683882Y-99377800D01*
X131838000Y-99377800D01*
X131838000Y-98606156D01*
X151864661Y-98606156D01*
X151883964Y-98962171D01*
X151884690Y-98968844D01*
X151942374Y-99320704D01*
X151943813Y-99327242D01*
X152039196Y-99670779D01*
X152041347Y-99677163D01*
X152173312Y-100008370D01*
X152176132Y-100014466D01*
X152343139Y-100329474D01*
X152346594Y-100335217D01*
X152546686Y-100630331D01*
X152550747Y-100635673D01*
X152680368Y-100788275D01*
X152680369Y-100788276D01*
X153921665Y-99546979D01*
X154084530Y-99737670D01*
X154275219Y-99900533D01*
X153031289Y-101144463D01*
X153045041Y-101157490D01*
X153050140Y-101161822D01*
X153333993Y-101377601D01*
X153339539Y-101381361D01*
X153645044Y-101565177D01*
X153650983Y-101568325D01*
X153974561Y-101718029D01*
X153980803Y-101720516D01*
X154318680Y-101834360D01*
X154325144Y-101836155D01*
X154673346Y-101912800D01*
X154679980Y-101913887D01*
X155034429Y-101952436D01*
X155041126Y-101952800D01*
X155397674Y-101952800D01*
X155404370Y-101952436D01*
X155758819Y-101913887D01*
X155765453Y-101912800D01*
X156113655Y-101836155D01*
X156120119Y-101834360D01*
X156457996Y-101720516D01*
X156464238Y-101718029D01*
X156787816Y-101568325D01*
X156793755Y-101565177D01*
X157099260Y-101381361D01*
X157104806Y-101377601D01*
X157388652Y-101161827D01*
X157393776Y-101157474D01*
X157407509Y-101144464D01*
X157407509Y-101144463D01*
X156163580Y-99900533D01*
X156354270Y-99737670D01*
X156517133Y-99546979D01*
X157758429Y-100788275D01*
X157758430Y-100788275D01*
X157888052Y-100635673D01*
X157892113Y-100630331D01*
X158092205Y-100335217D01*
X158095660Y-100329474D01*
X158262667Y-100014466D01*
X158265487Y-100008370D01*
X158397452Y-99677163D01*
X158399603Y-99670779D01*
X158494986Y-99327242D01*
X158496425Y-99320704D01*
X158554109Y-98968844D01*
X158554835Y-98962171D01*
X158574138Y-98606156D01*
X158574138Y-98599443D01*
X158554835Y-98243428D01*
X158554109Y-98236755D01*
X158496425Y-97884895D01*
X158494986Y-97878357D01*
X158399603Y-97534820D01*
X158397452Y-97528436D01*
X158265487Y-97197229D01*
X158262667Y-97191133D01*
X158095660Y-96876125D01*
X158092205Y-96870382D01*
X157892113Y-96575268D01*
X157888052Y-96569926D01*
X157758430Y-96417323D01*
X157758429Y-96417322D01*
X156517132Y-97658618D01*
X156354270Y-97467930D01*
X156163579Y-97305065D01*
X157407509Y-96061135D01*
X157393758Y-96048109D01*
X157388659Y-96043777D01*
X157104806Y-95827998D01*
X157099260Y-95824238D01*
X156793755Y-95640422D01*
X156787816Y-95637274D01*
X156464238Y-95487570D01*
X156457996Y-95485083D01*
X156120119Y-95371239D01*
X156113655Y-95369444D01*
X155765453Y-95292799D01*
X155758819Y-95291712D01*
X155404370Y-95253163D01*
X155397674Y-95252800D01*
X155041126Y-95252800D01*
X155034429Y-95253163D01*
X154679980Y-95291712D01*
X154673346Y-95292799D01*
X154325144Y-95369444D01*
X154318680Y-95371239D01*
X153980803Y-95485083D01*
X153974561Y-95487570D01*
X153650983Y-95637274D01*
X153645044Y-95640422D01*
X153339539Y-95824238D01*
X153333993Y-95827998D01*
X153050137Y-96043780D01*
X153045029Y-96048118D01*
X153031289Y-96061133D01*
X153031289Y-96061136D01*
X154275219Y-97305066D01*
X154084530Y-97467930D01*
X153921666Y-97658619D01*
X152680369Y-96417322D01*
X152550742Y-96569933D01*
X152546686Y-96575268D01*
X152346594Y-96870382D01*
X152343139Y-96876125D01*
X152176132Y-97191133D01*
X152173312Y-97197229D01*
X152041347Y-97528436D01*
X152039196Y-97534820D01*
X151943813Y-97878357D01*
X151942374Y-97884895D01*
X151884690Y-98236755D01*
X151883964Y-98243428D01*
X151864661Y-98599443D01*
X151864661Y-98606156D01*
X131838000Y-98606156D01*
X131838000Y-98383281D01*
X131837645Y-98376667D01*
X131831599Y-98320428D01*
X131781352Y-98185710D01*
X131695188Y-98070611D01*
X131580089Y-97984447D01*
X131445371Y-97934200D01*
X131389132Y-97928154D01*
X131382518Y-97927800D01*
X130388000Y-97927800D01*
X130388000Y-99081918D01*
X130294631Y-99043244D01*
X130177323Y-99027800D01*
X130098677Y-99027800D01*
X129981369Y-99043244D01*
X129888000Y-99081918D01*
X129888000Y-97927800D01*
X128893482Y-97927800D01*
X128886867Y-97928154D01*
X128830628Y-97934200D01*
X128695910Y-97984447D01*
X128580811Y-98070611D01*
X128494647Y-98185710D01*
X128444400Y-98320428D01*
X128438354Y-98376667D01*
X128438000Y-98383281D01*
X128438000Y-99377800D01*
X129592118Y-99377800D01*
X129553444Y-99471169D01*
X129532823Y-99627800D01*
X129553444Y-99784431D01*
X129592118Y-99877800D01*
X128438000Y-99877800D01*
X128438000Y-100872318D01*
X127267109Y-100872318D01*
X126756628Y-100361837D01*
X126723143Y-100300514D01*
X126728127Y-100230822D01*
X126728830Y-100228985D01*
X126767508Y-100130437D01*
X126824222Y-99881957D01*
X126843268Y-99627800D01*
X126824222Y-99373643D01*
X126767508Y-99125163D01*
X126674393Y-98887912D01*
X126654738Y-98853869D01*
X126546961Y-98667192D01*
X126546959Y-98667188D01*
X126388050Y-98467923D01*
X126201217Y-98294568D01*
X125990634Y-98150995D01*
X125761004Y-98040411D01*
X125517458Y-97965287D01*
X125265435Y-97927300D01*
X125010565Y-97927300D01*
X124758542Y-97965287D01*
X124514996Y-98040411D01*
X124285366Y-98150995D01*
X124180074Y-98222781D01*
X124074781Y-98294569D01*
X123887950Y-98467923D01*
X123729038Y-98667192D01*
X123601608Y-98887908D01*
X123508492Y-99125162D01*
X123451777Y-99373645D01*
X123432731Y-99627799D01*
X123451777Y-99881954D01*
X123508492Y-100130437D01*
X123601608Y-100367691D01*
X123695722Y-100530701D01*
X123729041Y-100588412D01*
X123887950Y-100787677D01*
X124074783Y-100961032D01*
X124285366Y-101104605D01*
X124514996Y-101215189D01*
X124758542Y-101290313D01*
X125010565Y-101328300D01*
X125265435Y-101328300D01*
X125517458Y-101290313D01*
X125750590Y-101218400D01*
X125820453Y-101217451D01*
X125874821Y-101249211D01*
X135577104Y-110951495D01*
X135590004Y-110967596D01*
X135641131Y-111015608D01*
X135643928Y-111018319D01*
X135663437Y-111037828D01*
X135666617Y-111040295D01*
X135675479Y-111047863D01*
X135707326Y-111077770D01*
X135724878Y-111087419D01*
X135741146Y-111098105D01*
X135756972Y-111110381D01*
X135797054Y-111127725D01*
X135807541Y-111132863D01*
X135845815Y-111153905D01*
X135854318Y-111156087D01*
X135865216Y-111158886D01*
X135883621Y-111165186D01*
X135902012Y-111173145D01*
X135945158Y-111179978D01*
X135956576Y-111182343D01*
X135998889Y-111193208D01*
X136018924Y-111193208D01*
X136038323Y-111194735D01*
X136058104Y-111197868D01*
X136101582Y-111193758D01*
X136113252Y-111193208D01*
X151142256Y-111193208D01*
X151209295Y-111212893D01*
X151229937Y-111229527D01*
X153059680Y-113059270D01*
X153093165Y-113120593D01*
X153095999Y-113146951D01*
X153095999Y-132049046D01*
X153076314Y-132116085D01*
X153059680Y-132136727D01*
X151103181Y-134093226D01*
X151041858Y-134126711D01*
X150972166Y-134121727D01*
X150916233Y-134079855D01*
X150891816Y-134014391D01*
X150891500Y-134005545D01*
X150891500Y-129509227D01*
X150911185Y-129442188D01*
X150944373Y-129407654D01*
X151137401Y-129272495D01*
X151304495Y-129105401D01*
X151440035Y-128911830D01*
X151539903Y-128697663D01*
X151601063Y-128469408D01*
X151621659Y-128234000D01*
X151621221Y-128228999D01*
X151601063Y-127998592D01*
X151599723Y-127993592D01*
X151539903Y-127770337D01*
X151440035Y-127556171D01*
X151304495Y-127362599D01*
X151137401Y-127195505D01*
X150943830Y-127059965D01*
X150729663Y-126960097D01*
X150668501Y-126943709D01*
X150501407Y-126898936D01*
X150265999Y-126878340D01*
X150030592Y-126898936D01*
X149802336Y-126960097D01*
X149588170Y-127059965D01*
X149394598Y-127195505D01*
X149227505Y-127362598D01*
X149097575Y-127548159D01*
X149042998Y-127591784D01*
X148973500Y-127598978D01*
X148911145Y-127567455D01*
X148894425Y-127548159D01*
X148820971Y-127443255D01*
X148764495Y-127362599D01*
X148597401Y-127195505D01*
X148403830Y-127059965D01*
X148189663Y-126960097D01*
X148128502Y-126943709D01*
X147961407Y-126898936D01*
X147725999Y-126878340D01*
X147490592Y-126898936D01*
X147352593Y-126935913D01*
X147282743Y-126934250D01*
X147224881Y-126895087D01*
X147197377Y-126830859D01*
X147196500Y-126816138D01*
X147196500Y-116995976D01*
X147216185Y-116928937D01*
X147268989Y-116883182D01*
X147338147Y-116873238D01*
X147352589Y-116876200D01*
X147400592Y-116889063D01*
X147636000Y-116909659D01*
X147871408Y-116889063D01*
X148099663Y-116827903D01*
X148313830Y-116728035D01*
X148507401Y-116592495D01*
X148674495Y-116425401D01*
X148804426Y-116239839D01*
X148859002Y-116196216D01*
X148928500Y-116189022D01*
X148990855Y-116220545D01*
X149007571Y-116239837D01*
X149137505Y-116425401D01*
X149304599Y-116592495D01*
X149498170Y-116728035D01*
X149712337Y-116827903D01*
X149892594Y-116876202D01*
X149940592Y-116889063D01*
X150175999Y-116909659D01*
X150175999Y-116909658D01*
X150176000Y-116909659D01*
X150411408Y-116889063D01*
X150639663Y-116827903D01*
X150853830Y-116728035D01*
X151047401Y-116592495D01*
X151214495Y-116425401D01*
X151350035Y-116231830D01*
X151449903Y-116017663D01*
X151511063Y-115789408D01*
X151531659Y-115554000D01*
X151511063Y-115318592D01*
X151449903Y-115090337D01*
X151350035Y-114876171D01*
X151214495Y-114682599D01*
X151047401Y-114515505D01*
X150853830Y-114379965D01*
X150639663Y-114280097D01*
X150578501Y-114263709D01*
X150411407Y-114218936D01*
X150176000Y-114198340D01*
X149940592Y-114218936D01*
X149712336Y-114280097D01*
X149498170Y-114379965D01*
X149304598Y-114515505D01*
X149137508Y-114682595D01*
X149137507Y-114682597D01*
X149137505Y-114682599D01*
X149106207Y-114727297D01*
X149007574Y-114868160D01*
X148952997Y-114911785D01*
X148883498Y-114918977D01*
X148821144Y-114887455D01*
X148804429Y-114868164D01*
X148674495Y-114682599D01*
X148507401Y-114515505D01*
X148313830Y-114379965D01*
X148099663Y-114280097D01*
X148038501Y-114263709D01*
X147871407Y-114218936D01*
X147636000Y-114198340D01*
X147400592Y-114218936D01*
X147172336Y-114280097D01*
X146958170Y-114379965D01*
X146764601Y-114515503D01*
X146642673Y-114637431D01*
X146581350Y-114670915D01*
X146511658Y-114665931D01*
X146455725Y-114624059D01*
X146438810Y-114593082D01*
X146410019Y-114515890D01*
X146389796Y-114461669D01*
X146303546Y-114346454D01*
X146188331Y-114260204D01*
X146053483Y-114209909D01*
X145993873Y-114203500D01*
X145990550Y-114203500D01*
X144201439Y-114203500D01*
X144201420Y-114203500D01*
X144198128Y-114203501D01*
X144194848Y-114203853D01*
X144194840Y-114203854D01*
X144138515Y-114209909D01*
X144003669Y-114260204D01*
X143888454Y-114346454D01*
X143802204Y-114461669D01*
X143752997Y-114593599D01*
X143711125Y-114649532D01*
X143645661Y-114673949D01*
X143577388Y-114659097D01*
X143549134Y-114637946D01*
X143427081Y-114515893D01*
X143233576Y-114380399D01*
X143019492Y-114280569D01*
X142806000Y-114223364D01*
X142806000Y-115107505D01*
X142701161Y-115059627D01*
X142592473Y-115044000D01*
X142519527Y-115044000D01*
X142410839Y-115059627D01*
X142306000Y-115107505D01*
X142306000Y-114223364D01*
X142305999Y-114223364D01*
X142092507Y-114280569D01*
X141878421Y-114380400D01*
X141684921Y-114515890D01*
X141517893Y-114682918D01*
X141387880Y-114868596D01*
X141333303Y-114912220D01*
X141263804Y-114919413D01*
X141201450Y-114887891D01*
X141184730Y-114868595D01*
X141054495Y-114682599D01*
X140887401Y-114515505D01*
X140693830Y-114379965D01*
X140479663Y-114280097D01*
X140418502Y-114263709D01*
X140251407Y-114218936D01*
X140016000Y-114198340D01*
X139780592Y-114218936D01*
X139552336Y-114280097D01*
X139338170Y-114379965D01*
X139144598Y-114515505D01*
X138977505Y-114682598D01*
X138841965Y-114876170D01*
X138742097Y-115090336D01*
X138680936Y-115318592D01*
X138660340Y-115554000D01*
X138680936Y-115789407D01*
X138685469Y-115806323D01*
X138742097Y-116017663D01*
X138841965Y-116231830D01*
X138977505Y-116425401D01*
X139144599Y-116592495D01*
X139338170Y-116728035D01*
X139552337Y-116827903D01*
X139780592Y-116889063D01*
X140016000Y-116909659D01*
X140251408Y-116889063D01*
X140479663Y-116827903D01*
X140693830Y-116728035D01*
X140887401Y-116592495D01*
X141054495Y-116425401D01*
X141184732Y-116239403D01*
X141239307Y-116195780D01*
X141308805Y-116188586D01*
X141371160Y-116220109D01*
X141387880Y-116239404D01*
X141517893Y-116425081D01*
X141684918Y-116592106D01*
X141878423Y-116727600D01*
X142092509Y-116827430D01*
X142306000Y-116884634D01*
X142306000Y-116000494D01*
X142410839Y-116048373D01*
X142519527Y-116064000D01*
X142592473Y-116064000D01*
X142701161Y-116048373D01*
X142806000Y-116000494D01*
X142806000Y-116884633D01*
X143019490Y-116827430D01*
X143233576Y-116727600D01*
X143427077Y-116592109D01*
X143549133Y-116470053D01*
X143610456Y-116436568D01*
X143680148Y-116441552D01*
X143736082Y-116483423D01*
X143752996Y-116514399D01*
X143802204Y-116646331D01*
X143888454Y-116761546D01*
X144003669Y-116847796D01*
X144138517Y-116898091D01*
X144198127Y-116904500D01*
X145821500Y-116904499D01*
X145888539Y-116924184D01*
X145934294Y-116976987D01*
X145945500Y-117028499D01*
X145945500Y-126759500D01*
X145925815Y-126826539D01*
X145873011Y-126872294D01*
X145821500Y-126883500D01*
X144291439Y-126883500D01*
X144291420Y-126883500D01*
X144288128Y-126883501D01*
X144284848Y-126883853D01*
X144284840Y-126883854D01*
X144228515Y-126889909D01*
X144093669Y-126940204D01*
X143978454Y-127026454D01*
X143892204Y-127141669D01*
X143843189Y-127273083D01*
X143801317Y-127329016D01*
X143735852Y-127353433D01*
X143667580Y-127338581D01*
X143639326Y-127317430D01*
X143517404Y-127195508D01*
X143517401Y-127195505D01*
X143323830Y-127059965D01*
X143109663Y-126960097D01*
X143048501Y-126943709D01*
X142881407Y-126898936D01*
X142646000Y-126878340D01*
X142410592Y-126898936D01*
X142182336Y-126960097D01*
X141968170Y-127059965D01*
X141774598Y-127195505D01*
X141607505Y-127362598D01*
X141477575Y-127548159D01*
X141422998Y-127591784D01*
X141353500Y-127598978D01*
X141291145Y-127567455D01*
X141274425Y-127548159D01*
X141200971Y-127443255D01*
X141144495Y-127362599D01*
X140977401Y-127195505D01*
X140783830Y-127059965D01*
X140569663Y-126960097D01*
X140508502Y-126943709D01*
X140341407Y-126898936D01*
X140105999Y-126878340D01*
X139870592Y-126898936D01*
X139642336Y-126960097D01*
X139428170Y-127059965D01*
X139234598Y-127195505D01*
X139067505Y-127362598D01*
X138931965Y-127556170D01*
X138832097Y-127770336D01*
X138770936Y-127998592D01*
X138750340Y-128234000D01*
X138770936Y-128469407D01*
X138815709Y-128636501D01*
X138832097Y-128697663D01*
X138931965Y-128911830D01*
X139067505Y-129105401D01*
X139234599Y-129272495D01*
X139428170Y-129408035D01*
X139642337Y-129507903D01*
X139870592Y-129569063D01*
X140106000Y-129589659D01*
X140341408Y-129569063D01*
X140569663Y-129507903D01*
X140783830Y-129408035D01*
X140977401Y-129272495D01*
X141144495Y-129105401D01*
X141274426Y-128919839D01*
X141329002Y-128876216D01*
X141398500Y-128869022D01*
X141460855Y-128900545D01*
X141477571Y-128919837D01*
X141607505Y-129105401D01*
X141774599Y-129272495D01*
X141968170Y-129408035D01*
X142182337Y-129507903D01*
X142391932Y-129564063D01*
X142410592Y-129569063D01*
X142645999Y-129589659D01*
X142645999Y-129589658D01*
X142646000Y-129589659D01*
X142881408Y-129569063D01*
X143109663Y-129507903D01*
X143323830Y-129408035D01*
X143517401Y-129272495D01*
X143639329Y-129150566D01*
X143700648Y-129117084D01*
X143770340Y-129122068D01*
X143826274Y-129163939D01*
X143843189Y-129194916D01*
X143892204Y-129326331D01*
X143978454Y-129441546D01*
X144093669Y-129527796D01*
X144228517Y-129578091D01*
X144288127Y-129584500D01*
X144436500Y-129584499D01*
X144503539Y-129604183D01*
X144549294Y-129656987D01*
X144560500Y-129708499D01*
X144560500Y-131142546D01*
X144540815Y-131209585D01*
X144524181Y-131230227D01*
X138837927Y-136916481D01*
X138776604Y-136949966D01*
X138750246Y-136952800D01*
X137873086Y-136952800D01*
X137898893Y-136912644D01*
X137939400Y-136774689D01*
X137939400Y-136630911D01*
X137898893Y-136492956D01*
X137873086Y-136452800D01*
X138789400Y-136452800D01*
X138789400Y-135808281D01*
X138789045Y-135801667D01*
X138782999Y-135745428D01*
X138732752Y-135610710D01*
X138646588Y-135495611D01*
X138531489Y-135409447D01*
X138396771Y-135359200D01*
X138340532Y-135353154D01*
X138333918Y-135352800D01*
X137689400Y-135352800D01*
X137689400Y-136267298D01*
X137581715Y-136218120D01*
X137475163Y-136202800D01*
X137403637Y-136202800D01*
X137297085Y-136218120D01*
X137189400Y-136267298D01*
X137189400Y-135352800D01*
X136544882Y-135352800D01*
X136538267Y-135353154D01*
X136482028Y-135359200D01*
X136347310Y-135409447D01*
X136232211Y-135495611D01*
X136146047Y-135610710D01*
X136095800Y-135745428D01*
X136089754Y-135801667D01*
X136089400Y-135808281D01*
X136089400Y-136452800D01*
X137005714Y-136452800D01*
X136979907Y-136492956D01*
X136939400Y-136630911D01*
X136939400Y-136774689D01*
X136979907Y-136912644D01*
X137005714Y-136952800D01*
X136089400Y-136952800D01*
X136089400Y-137597318D01*
X136089754Y-137603932D01*
X136095800Y-137660171D01*
X136146047Y-137794889D01*
X136232211Y-137909988D01*
X136347310Y-137996152D01*
X136479387Y-138045414D01*
X136535320Y-138087286D01*
X136559737Y-138152750D01*
X136544885Y-138221023D01*
X136523735Y-138249277D01*
X136401288Y-138371724D01*
X136265800Y-138565221D01*
X136165969Y-138779307D01*
X136108764Y-138992799D01*
X136108764Y-138992800D01*
X137005714Y-138992800D01*
X136979907Y-139032956D01*
X136939400Y-139170911D01*
X136939400Y-139314689D01*
X136979907Y-139452644D01*
X137005714Y-139492800D01*
X136108764Y-139492800D01*
X136165969Y-139706292D01*
X136265799Y-139920376D01*
X136401293Y-140113881D01*
X136568318Y-140280906D01*
X136753995Y-140410919D01*
X136797619Y-140465496D01*
X136804812Y-140534995D01*
X136773290Y-140597349D01*
X136753995Y-140614069D01*
X136567995Y-140744308D01*
X136400905Y-140911398D01*
X136318264Y-141029423D01*
X136263687Y-141073048D01*
X136216689Y-141082300D01*
X98179066Y-141082300D01*
X98112027Y-141062615D01*
X98086917Y-141041273D01*
X98085871Y-141040111D01*
X97932730Y-140928848D01*
X97759802Y-140851855D01*
X97574648Y-140812500D01*
X97574646Y-140812500D01*
X97385354Y-140812500D01*
X97385352Y-140812500D01*
X97200197Y-140851855D01*
X97027269Y-140928848D01*
X96874129Y-141040110D01*
X96747466Y-141180783D01*
X96652820Y-141344715D01*
X96594326Y-141524742D01*
X96574540Y-141712999D01*
X96594326Y-141901257D01*
X96652820Y-142081284D01*
X96747466Y-142245216D01*
X96874129Y-142385889D01*
X97027269Y-142497151D01*
X97200197Y-142574144D01*
X97385352Y-142613500D01*
X97385354Y-142613500D01*
X97574648Y-142613500D01*
X97698084Y-142587262D01*
X97759803Y-142574144D01*
X97932730Y-142497151D01*
X97932730Y-142497150D01*
X97939760Y-142494021D01*
X97990196Y-142483300D01*
X136216689Y-142483300D01*
X136283728Y-142502985D01*
X136318263Y-142536176D01*
X136400905Y-142654201D01*
X136567999Y-142821295D01*
X136753560Y-142951226D01*
X136797183Y-143005802D01*
X136804376Y-143075301D01*
X136772854Y-143137655D01*
X136753559Y-143154375D01*
X136567995Y-143284308D01*
X136400905Y-143451398D01*
X136318264Y-143569423D01*
X136263687Y-143613048D01*
X136216689Y-143622300D01*
X127183398Y-143622300D01*
X127116359Y-143602615D01*
X127110513Y-143598618D01*
X127011730Y-143526848D01*
X126838802Y-143449855D01*
X126653648Y-143410500D01*
X126653646Y-143410500D01*
X126464354Y-143410500D01*
X126464352Y-143410500D01*
X126279197Y-143449855D01*
X126106269Y-143526848D01*
X125953129Y-143638110D01*
X125826466Y-143778783D01*
X125731820Y-143942715D01*
X125673326Y-144122742D01*
X125653540Y-144311000D01*
X125673326Y-144499257D01*
X125731820Y-144679284D01*
X125826466Y-144843216D01*
X125953129Y-144983889D01*
X126106269Y-145095151D01*
X126279197Y-145172144D01*
X126464352Y-145211500D01*
X126464354Y-145211500D01*
X126653648Y-145211500D01*
X126777084Y-145185262D01*
X126838803Y-145172144D01*
X127011730Y-145095151D01*
X127078029Y-145046981D01*
X127143836Y-145023502D01*
X127150915Y-145023300D01*
X136216689Y-145023300D01*
X136283728Y-145042985D01*
X136318263Y-145076176D01*
X136400905Y-145194201D01*
X136567999Y-145361295D01*
X136753560Y-145491226D01*
X136797183Y-145545802D01*
X136804376Y-145615301D01*
X136772854Y-145677655D01*
X136753558Y-145694375D01*
X136621534Y-145786820D01*
X136567995Y-145824308D01*
X136400905Y-145991398D01*
X136307347Y-146125014D01*
X136295613Y-146141773D01*
X136265749Y-146184423D01*
X136211172Y-146228048D01*
X136164174Y-146237300D01*
X97109852Y-146237300D01*
X97042813Y-146217615D01*
X97022171Y-146200981D01*
X87148569Y-136327378D01*
X99258900Y-136327378D01*
X99258901Y-136330672D01*
X99265309Y-136390283D01*
X99315604Y-136525131D01*
X99401854Y-136640346D01*
X99517069Y-136726596D01*
X99651917Y-136776891D01*
X99711527Y-136783300D01*
X101507272Y-136783299D01*
X101566883Y-136776891D01*
X101701731Y-136726596D01*
X101816946Y-136640346D01*
X101903196Y-136525131D01*
X101953491Y-136390283D01*
X101959900Y-136330673D01*
X101959899Y-134534928D01*
X101953491Y-134475317D01*
X101903196Y-134340469D01*
X101816946Y-134225254D01*
X101701731Y-134139004D01*
X101566883Y-134088709D01*
X101507273Y-134082300D01*
X101503950Y-134082300D01*
X99714839Y-134082300D01*
X99714820Y-134082300D01*
X99711528Y-134082301D01*
X99708248Y-134082653D01*
X99708240Y-134082654D01*
X99651915Y-134088709D01*
X99517069Y-134139004D01*
X99401854Y-134225254D01*
X99315604Y-134340468D01*
X99265310Y-134475315D01*
X99265309Y-134475317D01*
X99258900Y-134534927D01*
X99258900Y-134538248D01*
X99258900Y-134538249D01*
X99258900Y-136327360D01*
X99258900Y-136327378D01*
X87148569Y-136327378D01*
X86756218Y-135935027D01*
X86722733Y-135873704D01*
X86719899Y-135847346D01*
X86719899Y-135018252D01*
X86739584Y-134951213D01*
X86756218Y-134930571D01*
X88843741Y-132843048D01*
X91010989Y-130675800D01*
X91027085Y-130662906D01*
X91029073Y-130660787D01*
X91029077Y-130660786D01*
X91075149Y-130611723D01*
X91077734Y-130609055D01*
X91097320Y-130589471D01*
X91099785Y-130586292D01*
X91107367Y-130577416D01*
X91137262Y-130545582D01*
X91146912Y-130528027D01*
X91157600Y-130511757D01*
X91158070Y-130511151D01*
X91169873Y-130495936D01*
X91187226Y-130455832D01*
X91192357Y-130445362D01*
X91213397Y-130407092D01*
X91218375Y-130387699D01*
X91224681Y-130369282D01*
X91226218Y-130365728D01*
X91232638Y-130350896D01*
X91239472Y-130307745D01*
X91241835Y-130296331D01*
X91252700Y-130254019D01*
X91252700Y-130233983D01*
X91254227Y-130214584D01*
X91257360Y-130194804D01*
X91253250Y-130151324D01*
X91252700Y-130139655D01*
X91252700Y-129717800D01*
X96933634Y-129717800D01*
X96953831Y-129897051D01*
X96953831Y-129897053D01*
X96953832Y-129897055D01*
X97013411Y-130067322D01*
X97013412Y-130067323D01*
X97109382Y-130220060D01*
X97109383Y-130220061D01*
X97109384Y-130220062D01*
X97126959Y-130237637D01*
X97158354Y-130290721D01*
X97160582Y-130298390D01*
X97170780Y-130315635D01*
X97179336Y-130333100D01*
X97186714Y-130351732D01*
X97186715Y-130351733D01*
X97212380Y-130387059D01*
X97218793Y-130396822D01*
X97241026Y-130434416D01*
X97241029Y-130434419D01*
X97241030Y-130434420D01*
X97255195Y-130448585D01*
X97267827Y-130463375D01*
X97279606Y-130479587D01*
X97313257Y-130507425D01*
X97321898Y-130515288D01*
X97543198Y-130736589D01*
X97556096Y-130752688D01*
X97607225Y-130800702D01*
X97610021Y-130803412D01*
X97629529Y-130822920D01*
X97632709Y-130825387D01*
X97641571Y-130832955D01*
X97673418Y-130862862D01*
X97690970Y-130872511D01*
X97707238Y-130883197D01*
X97723064Y-130895473D01*
X97763146Y-130912817D01*
X97773633Y-130917955D01*
X97811907Y-130938997D01*
X97820410Y-130941179D01*
X97831308Y-130943978D01*
X97849713Y-130950278D01*
X97868104Y-130958237D01*
X97911250Y-130965070D01*
X97922668Y-130967435D01*
X97964981Y-130978300D01*
X97985016Y-130978300D01*
X98004415Y-130979827D01*
X98024196Y-130982960D01*
X98067674Y-130978850D01*
X98079344Y-130978300D01*
X99134901Y-130978300D01*
X99201940Y-130997985D01*
X99247695Y-131050789D01*
X99258900Y-131102300D01*
X99258901Y-131250672D01*
X99265309Y-131310283D01*
X99315604Y-131445131D01*
X99401854Y-131560346D01*
X99517069Y-131646596D01*
X99651917Y-131696891D01*
X99711527Y-131703300D01*
X101507272Y-131703299D01*
X101566883Y-131696891D01*
X101701731Y-131646596D01*
X101816946Y-131560346D01*
X101903196Y-131445131D01*
X101953491Y-131310283D01*
X101959900Y-131250673D01*
X101959899Y-129454928D01*
X101953491Y-129395317D01*
X101903196Y-129260469D01*
X101816946Y-129145254D01*
X101787991Y-129123578D01*
X126990500Y-129123578D01*
X126990501Y-129126872D01*
X126990853Y-129130152D01*
X126990854Y-129130159D01*
X126996909Y-129186484D01*
X127007746Y-129215538D01*
X127047204Y-129321331D01*
X127133454Y-129436546D01*
X127248669Y-129522796D01*
X127383517Y-129573091D01*
X127443127Y-129579500D01*
X129238872Y-129579499D01*
X129298483Y-129573091D01*
X129433331Y-129522796D01*
X129548546Y-129436546D01*
X129634796Y-129321331D01*
X129683810Y-129189916D01*
X129725681Y-129133983D01*
X129791146Y-129109566D01*
X129859419Y-129124418D01*
X129887673Y-129145568D01*
X130009599Y-129267495D01*
X130203170Y-129403035D01*
X130417337Y-129502903D01*
X130645592Y-129564063D01*
X130881000Y-129584659D01*
X131116408Y-129564063D01*
X131344663Y-129502903D01*
X131558830Y-129403035D01*
X131752401Y-129267495D01*
X131919495Y-129100401D01*
X132055035Y-128906830D01*
X132154903Y-128692663D01*
X132216063Y-128464408D01*
X132236659Y-128229000D01*
X132216063Y-127993592D01*
X132154903Y-127765337D01*
X132055035Y-127551171D01*
X131919495Y-127357599D01*
X131752401Y-127190505D01*
X131558830Y-127054965D01*
X131344663Y-126955097D01*
X131283501Y-126938709D01*
X131116407Y-126893936D01*
X130881000Y-126873340D01*
X130645592Y-126893936D01*
X130417336Y-126955097D01*
X130203170Y-127054965D01*
X130009601Y-127190503D01*
X129887673Y-127312431D01*
X129826350Y-127345915D01*
X129756658Y-127340931D01*
X129700725Y-127299059D01*
X129683810Y-127268082D01*
X129676291Y-127247922D01*
X129634796Y-127136669D01*
X129548546Y-127021454D01*
X129433331Y-126935204D01*
X129298483Y-126884909D01*
X129242166Y-126878854D01*
X129242165Y-126878853D01*
X129238873Y-126878500D01*
X129235550Y-126878500D01*
X127446439Y-126878500D01*
X127446420Y-126878500D01*
X127443128Y-126878501D01*
X127439848Y-126878853D01*
X127439840Y-126878854D01*
X127383515Y-126884909D01*
X127248669Y-126935204D01*
X127133454Y-127021454D01*
X127047204Y-127136668D01*
X126996909Y-127271516D01*
X126991973Y-127317430D01*
X126990500Y-127331127D01*
X126990500Y-127334448D01*
X126990500Y-127334449D01*
X126990500Y-129123560D01*
X126990500Y-129123578D01*
X101787991Y-129123578D01*
X101701731Y-129059004D01*
X101566883Y-129008709D01*
X101507273Y-129002300D01*
X101503950Y-129002300D01*
X99714839Y-129002300D01*
X99714820Y-129002300D01*
X99711528Y-129002301D01*
X99708248Y-129002653D01*
X99708240Y-129002654D01*
X99651915Y-129008709D01*
X99517069Y-129059004D01*
X99401854Y-129145254D01*
X99315604Y-129260468D01*
X99265309Y-129395316D01*
X99260270Y-129442188D01*
X99258900Y-129454927D01*
X99258900Y-129458249D01*
X99258900Y-129603300D01*
X99239215Y-129670339D01*
X99186411Y-129716094D01*
X99134900Y-129727300D01*
X98656648Y-129727300D01*
X98589609Y-129707615D01*
X98543854Y-129654811D01*
X98533428Y-129617183D01*
X98524568Y-129538545D01*
X98464989Y-129368278D01*
X98369016Y-129215538D01*
X98369015Y-129215537D01*
X98369014Y-129215535D01*
X98241464Y-129087985D01*
X98179067Y-129048778D01*
X98088722Y-128992011D01*
X97918455Y-128932432D01*
X97918453Y-128932431D01*
X97918451Y-128932431D01*
X97739200Y-128912234D01*
X97559948Y-128932431D01*
X97559945Y-128932431D01*
X97559945Y-128932432D01*
X97389678Y-128992011D01*
X97389676Y-128992011D01*
X97389676Y-128992012D01*
X97236935Y-129087985D01*
X97109385Y-129215535D01*
X97039768Y-129326331D01*
X97013411Y-129368278D01*
X96964554Y-129507903D01*
X96953831Y-129538548D01*
X96933634Y-129717800D01*
X91252700Y-129717800D01*
X91252700Y-127443255D01*
X91271706Y-127377283D01*
X91271708Y-127377280D01*
X91352989Y-127247922D01*
X91412568Y-127077655D01*
X91432765Y-126898400D01*
X91412568Y-126719145D01*
X91352989Y-126548878D01*
X91308479Y-126478041D01*
X91271706Y-126419516D01*
X91252700Y-126353544D01*
X91252700Y-122732800D01*
X107224059Y-122732800D01*
X107243376Y-122928933D01*
X107300585Y-123117526D01*
X107300586Y-123117527D01*
X107393490Y-123291338D01*
X107518517Y-123443683D01*
X107670862Y-123568710D01*
X107844673Y-123661614D01*
X108033268Y-123718824D01*
X108229400Y-123738141D01*
X108425532Y-123718824D01*
X108614127Y-123661614D01*
X108787938Y-123568710D01*
X108940283Y-123443683D01*
X109065310Y-123291338D01*
X109158214Y-123117527D01*
X109215424Y-122928932D01*
X109234741Y-122732800D01*
X109215424Y-122536668D01*
X109158214Y-122348073D01*
X109144540Y-122322492D01*
X109129900Y-122264041D01*
X109129900Y-120681960D01*
X109149585Y-120614921D01*
X109166214Y-120594284D01*
X114519680Y-115240817D01*
X114581003Y-115207333D01*
X114607361Y-115204499D01*
X115493561Y-115204499D01*
X115496872Y-115204499D01*
X115556483Y-115198091D01*
X115691331Y-115147796D01*
X115806546Y-115061546D01*
X115892796Y-114946331D01*
X115943091Y-114811483D01*
X115949500Y-114751873D01*
X115949499Y-112956128D01*
X115943091Y-112896517D01*
X115892796Y-112761669D01*
X115806546Y-112646454D01*
X115691331Y-112560204D01*
X115634549Y-112539025D01*
X115560565Y-112511431D01*
X115504632Y-112469559D01*
X115480215Y-112404095D01*
X115479899Y-112395276D01*
X115479899Y-109038180D01*
X117363900Y-109038180D01*
X117364197Y-109041197D01*
X117364198Y-109041214D01*
X117378737Y-109188831D01*
X117378738Y-109188833D01*
X117437377Y-109382141D01*
X117532602Y-109560294D01*
X117581742Y-109620171D01*
X117660752Y-109716447D01*
X117738829Y-109780522D01*
X117816906Y-109844598D01*
X117995059Y-109939823D01*
X118188367Y-109998462D01*
X118389400Y-110018262D01*
X118590433Y-109998462D01*
X118783741Y-109939823D01*
X118961894Y-109844598D01*
X118961896Y-109844596D01*
X118965947Y-109842431D01*
X119034349Y-109828189D01*
X119082853Y-109842431D01*
X119086903Y-109844596D01*
X119086906Y-109844598D01*
X119265059Y-109939823D01*
X119458367Y-109998462D01*
X119659400Y-110018262D01*
X119860433Y-109998462D01*
X120053741Y-109939823D01*
X120053743Y-109939821D01*
X120055417Y-109939314D01*
X120125284Y-109938690D01*
X120155214Y-109953505D01*
X120297028Y-110006399D01*
X120353267Y-110012445D01*
X120359882Y-110012800D01*
X120679400Y-110012800D01*
X120679400Y-109100114D01*
X120679997Y-109087960D01*
X120684029Y-109047020D01*
X120748452Y-109097163D01*
X120866824Y-109137800D01*
X120960473Y-109137800D01*
X121052846Y-109122386D01*
X121162914Y-109062819D01*
X121179400Y-109044910D01*
X121179400Y-110012800D01*
X121498918Y-110012800D01*
X121505532Y-110012445D01*
X121561771Y-110006399D01*
X121696489Y-109956152D01*
X121811588Y-109869988D01*
X121897752Y-109754889D01*
X121947999Y-109620171D01*
X121954045Y-109563932D01*
X121954400Y-109557318D01*
X121954400Y-109012800D01*
X121208960Y-109012800D01*
X121247678Y-108970741D01*
X121297951Y-108856130D01*
X121308286Y-108731405D01*
X121277563Y-108610081D01*
X121214006Y-108512800D01*
X121954400Y-108512800D01*
X121954400Y-107968281D01*
X121954045Y-107961667D01*
X121947999Y-107905428D01*
X121897752Y-107770710D01*
X121811588Y-107655611D01*
X121696489Y-107569447D01*
X121561771Y-107519200D01*
X121505532Y-107513154D01*
X121498918Y-107512800D01*
X121179400Y-107512800D01*
X121179400Y-108482182D01*
X121110348Y-108428437D01*
X120991976Y-108387800D01*
X120898327Y-108387800D01*
X120805954Y-108403214D01*
X120695886Y-108462781D01*
X120683769Y-108475942D01*
X120679997Y-108437638D01*
X120679400Y-108425484D01*
X120679400Y-107512800D01*
X120359882Y-107512800D01*
X120353267Y-107513154D01*
X120297026Y-107519200D01*
X120145607Y-107575677D01*
X120145187Y-107574551D01*
X120100249Y-107591309D01*
X120055418Y-107586285D01*
X119860432Y-107527137D01*
X119679198Y-107509288D01*
X119659400Y-107507338D01*
X119659399Y-107507338D01*
X119458368Y-107527137D01*
X119366841Y-107554902D01*
X119265059Y-107585777D01*
X119220116Y-107609799D01*
X119197352Y-107621967D01*
X119128949Y-107636208D01*
X119063706Y-107611207D01*
X119022336Y-107554902D01*
X119014900Y-107512608D01*
X119014900Y-98068540D01*
X119034585Y-98001501D01*
X119051220Y-97980858D01*
X119095415Y-97936663D01*
X119101076Y-97927654D01*
X119191389Y-97783922D01*
X119250968Y-97613655D01*
X119271165Y-97434400D01*
X119250968Y-97255145D01*
X119191389Y-97084878D01*
X119095416Y-96932138D01*
X119095415Y-96932137D01*
X119095414Y-96932135D01*
X118967864Y-96804585D01*
X118905467Y-96765379D01*
X118815122Y-96708611D01*
X118644855Y-96649032D01*
X118644853Y-96649031D01*
X118644851Y-96649031D01*
X118465600Y-96628834D01*
X118286348Y-96649031D01*
X118286345Y-96649031D01*
X118286345Y-96649032D01*
X118116078Y-96708611D01*
X118116076Y-96708611D01*
X118116076Y-96708612D01*
X117963335Y-96804585D01*
X117835785Y-96932135D01*
X117739812Y-97084876D01*
X117739811Y-97084878D01*
X117702631Y-97191133D01*
X117680231Y-97255148D01*
X117660034Y-97434400D01*
X117680231Y-97613651D01*
X117680231Y-97613653D01*
X117680232Y-97613655D01*
X117739811Y-97783922D01*
X117744892Y-97792009D01*
X117763900Y-97857982D01*
X117763900Y-107665854D01*
X117744215Y-107732893D01*
X117718566Y-107761707D01*
X117660750Y-107809155D01*
X117532601Y-107965306D01*
X117437378Y-108143456D01*
X117378737Y-108336768D01*
X117364198Y-108484385D01*
X117364197Y-108484403D01*
X117363900Y-108487420D01*
X117363900Y-109038180D01*
X115479899Y-109038180D01*
X115479899Y-101513426D01*
X115481427Y-101494023D01*
X115482207Y-101489099D01*
X115483619Y-101480188D01*
X115480070Y-101412468D01*
X115479900Y-101405979D01*
X115479900Y-101388849D01*
X115479900Y-101385608D01*
X115477770Y-101365342D01*
X115477261Y-101358886D01*
X115473712Y-101291154D01*
X115470085Y-101277618D01*
X115466539Y-101258484D01*
X115465074Y-101244542D01*
X115444116Y-101180044D01*
X115442271Y-101173815D01*
X115424721Y-101108314D01*
X115418358Y-101095827D01*
X115410908Y-101077841D01*
X115408403Y-101070131D01*
X115406579Y-101064516D01*
X115372649Y-101005749D01*
X115369578Y-101000092D01*
X115343101Y-100948125D01*
X115338783Y-100939650D01*
X115329962Y-100928758D01*
X115318937Y-100912716D01*
X115311935Y-100900587D01*
X115311934Y-100900586D01*
X115311933Y-100900584D01*
X115266527Y-100850155D01*
X115262332Y-100845242D01*
X115251561Y-100831942D01*
X115249519Y-100829420D01*
X115235124Y-100815025D01*
X115230655Y-100810316D01*
X115185271Y-100759911D01*
X115173931Y-100751673D01*
X115159134Y-100739035D01*
X114479615Y-100059516D01*
X114446130Y-99998193D01*
X114446404Y-99944243D01*
X114460622Y-99881957D01*
X114479668Y-99627800D01*
X114460622Y-99373643D01*
X114403908Y-99125163D01*
X114310793Y-98887912D01*
X114291138Y-98853869D01*
X114183361Y-98667192D01*
X114183359Y-98667188D01*
X114024450Y-98467923D01*
X113837617Y-98294568D01*
X113627034Y-98150995D01*
X113397404Y-98040411D01*
X113153858Y-97965287D01*
X112901835Y-97927300D01*
X112646965Y-97927300D01*
X112394942Y-97965287D01*
X112151396Y-98040411D01*
X111921766Y-98150995D01*
X111816474Y-98222781D01*
X111711181Y-98294569D01*
X111524350Y-98467923D01*
X111365438Y-98667192D01*
X111238008Y-98887908D01*
X111144892Y-99125162D01*
X111088177Y-99373645D01*
X111069131Y-99627800D01*
X111088177Y-99881954D01*
X111144892Y-100130437D01*
X111238008Y-100367691D01*
X111332122Y-100530701D01*
X111365441Y-100588412D01*
X111524350Y-100787677D01*
X111711183Y-100961032D01*
X111921766Y-101104605D01*
X112151396Y-101215189D01*
X112394942Y-101290313D01*
X112646965Y-101328300D01*
X112901835Y-101328300D01*
X113100263Y-101298391D01*
X113169488Y-101307864D01*
X113206426Y-101333325D01*
X113642580Y-101769479D01*
X113676065Y-101830802D01*
X113678899Y-101857160D01*
X113678899Y-112409870D01*
X113659214Y-112476909D01*
X113606410Y-112522664D01*
X113598234Y-112526051D01*
X113506671Y-112560203D01*
X113506670Y-112560203D01*
X113506669Y-112560204D01*
X113472062Y-112586111D01*
X113391454Y-112646454D01*
X113305204Y-112761668D01*
X113254910Y-112896515D01*
X113254909Y-112896517D01*
X113248500Y-112956127D01*
X113248500Y-112959430D01*
X113248499Y-112959449D01*
X113248500Y-113913637D01*
X113228815Y-113980676D01*
X113212181Y-114001318D01*
X107649664Y-119563835D01*
X107634872Y-119576469D01*
X107623532Y-119584708D01*
X107578151Y-119635108D01*
X107573689Y-119639809D01*
X107561580Y-119651919D01*
X107561563Y-119651937D01*
X107559281Y-119654220D01*
X107557246Y-119656732D01*
X107557243Y-119656736D01*
X107546459Y-119670051D01*
X107542252Y-119674976D01*
X107496866Y-119725384D01*
X107489858Y-119737522D01*
X107478842Y-119753550D01*
X107470019Y-119764445D01*
X107439218Y-119824895D01*
X107436122Y-119830596D01*
X107402222Y-119889313D01*
X107397888Y-119902652D01*
X107390444Y-119920622D01*
X107384080Y-119933112D01*
X107366526Y-119998617D01*
X107364684Y-120004834D01*
X107343725Y-120069343D01*
X107342260Y-120083286D01*
X107338715Y-120102414D01*
X107335086Y-120115955D01*
X107331536Y-120183691D01*
X107331028Y-120190153D01*
X107328900Y-120210408D01*
X107328900Y-120213652D01*
X107328900Y-120230774D01*
X107328730Y-120237263D01*
X107325180Y-120304989D01*
X107327373Y-120318832D01*
X107328899Y-120338226D01*
X107328900Y-122264041D01*
X107314259Y-122322493D01*
X107300585Y-122348075D01*
X107243376Y-122536666D01*
X107224059Y-122732800D01*
X91252700Y-122732800D01*
X91252700Y-119797855D01*
X91271706Y-119731883D01*
X91295716Y-119693671D01*
X91352989Y-119602522D01*
X91412568Y-119432255D01*
X91432765Y-119253000D01*
X91412568Y-119073745D01*
X91352989Y-118903478D01*
X91257016Y-118750738D01*
X91257015Y-118750737D01*
X91257014Y-118750735D01*
X91129464Y-118623185D01*
X91067067Y-118583979D01*
X90976722Y-118527211D01*
X90806455Y-118467632D01*
X90806453Y-118467631D01*
X90806451Y-118467631D01*
X90627200Y-118447434D01*
X90447948Y-118467631D01*
X90447945Y-118467631D01*
X90447945Y-118467632D01*
X90277678Y-118527211D01*
X90277676Y-118527211D01*
X90277676Y-118527212D01*
X90124935Y-118623185D01*
X89997385Y-118750735D01*
X89901412Y-118903476D01*
X89901411Y-118903478D01*
X89892143Y-118929964D01*
X89841831Y-119073748D01*
X89821634Y-119253000D01*
X89841831Y-119432251D01*
X89841831Y-119432253D01*
X89841832Y-119432255D01*
X89901411Y-119602522D01*
X89945423Y-119672566D01*
X89982694Y-119731883D01*
X90001700Y-119797855D01*
X90001700Y-126353545D01*
X89982694Y-126419517D01*
X89901412Y-126548876D01*
X89841831Y-126719148D01*
X89821634Y-126898400D01*
X89841831Y-127077651D01*
X89841831Y-127077653D01*
X89841832Y-127077655D01*
X89901411Y-127247922D01*
X89982693Y-127377282D01*
X90001699Y-127443252D01*
X90001699Y-129864547D01*
X89982014Y-129931586D01*
X89965380Y-129952228D01*
X85871626Y-134045981D01*
X85810303Y-134079466D01*
X85783945Y-134082300D01*
X84474839Y-134082300D01*
X84474820Y-134082300D01*
X84471528Y-134082301D01*
X84468248Y-134082653D01*
X84468240Y-134082654D01*
X84411915Y-134088709D01*
X84277069Y-134139004D01*
X84161854Y-134225254D01*
X84075604Y-134340468D01*
X84025310Y-134475315D01*
X84025309Y-134475317D01*
X84018900Y-134534927D01*
X84018900Y-134538248D01*
X84018900Y-134538249D01*
X84018900Y-136327360D01*
X84018900Y-136327378D01*
X61298306Y-136327378D01*
X61298306Y-133168342D01*
X57158500Y-133168342D01*
X56585142Y-133168342D01*
X56585142Y-131247378D01*
X84018900Y-131247378D01*
X84018901Y-131250672D01*
X84025309Y-131310283D01*
X84075604Y-131445131D01*
X84161854Y-131560346D01*
X84277069Y-131646596D01*
X84411917Y-131696891D01*
X84471527Y-131703300D01*
X86267272Y-131703299D01*
X86326883Y-131696891D01*
X86461731Y-131646596D01*
X86576946Y-131560346D01*
X86663196Y-131445131D01*
X86713491Y-131310283D01*
X86719900Y-131250673D01*
X86719899Y-129454928D01*
X86713491Y-129395317D01*
X86663196Y-129260469D01*
X86576946Y-129145254D01*
X86461731Y-129059004D01*
X86326883Y-129008709D01*
X86267273Y-129002300D01*
X86263950Y-129002300D01*
X84474839Y-129002300D01*
X84474820Y-129002300D01*
X84471528Y-129002301D01*
X84468248Y-129002653D01*
X84468240Y-129002654D01*
X84411915Y-129008709D01*
X84277069Y-129059004D01*
X84161854Y-129145254D01*
X84075604Y-129260468D01*
X84025309Y-129395316D01*
X84020270Y-129442188D01*
X84018900Y-129454927D01*
X84018900Y-129458248D01*
X84018900Y-129458249D01*
X84018900Y-131247360D01*
X84018900Y-131247378D01*
X56585142Y-131247378D01*
X56585142Y-120103999D01*
X57237340Y-120103999D01*
X57257936Y-120339407D01*
X57302709Y-120506501D01*
X57319097Y-120567663D01*
X57418965Y-120781830D01*
X57554505Y-120975401D01*
X57554508Y-120975403D01*
X57554508Y-120975404D01*
X57676430Y-121097326D01*
X57709915Y-121158649D01*
X57704931Y-121228341D01*
X57663059Y-121284274D01*
X57632083Y-121301189D01*
X57500669Y-121350204D01*
X57385454Y-121436454D01*
X57299204Y-121551668D01*
X57248910Y-121686515D01*
X57248909Y-121686517D01*
X57242500Y-121746127D01*
X57242500Y-121749448D01*
X57242500Y-121749449D01*
X57242500Y-123538560D01*
X57242500Y-123538578D01*
X57242501Y-123541872D01*
X57248909Y-123601483D01*
X57299204Y-123736331D01*
X57385454Y-123851546D01*
X57500669Y-123937796D01*
X57635517Y-123988091D01*
X57695127Y-123994500D01*
X59490872Y-123994499D01*
X59550483Y-123988091D01*
X59685331Y-123937796D01*
X59800546Y-123851546D01*
X59886796Y-123736331D01*
X59937091Y-123601483D01*
X59943500Y-123541873D01*
X59943499Y-121746128D01*
X59937091Y-121686517D01*
X59886796Y-121551669D01*
X59800546Y-121436454D01*
X59685331Y-121350204D01*
X59616809Y-121324647D01*
X59553916Y-121301189D01*
X59497983Y-121259317D01*
X59473566Y-121193853D01*
X59488418Y-121125580D01*
X59509563Y-121097332D01*
X59631495Y-120975401D01*
X59666486Y-120925429D01*
X68574900Y-120925429D01*
X68574901Y-120928723D01*
X68575253Y-120932003D01*
X68575254Y-120932010D01*
X68579919Y-120975401D01*
X68581309Y-120988334D01*
X68631604Y-121123182D01*
X68717854Y-121238397D01*
X68833069Y-121324647D01*
X68967917Y-121374942D01*
X69027527Y-121381351D01*
X70723272Y-121381350D01*
X70782883Y-121374942D01*
X70917731Y-121324647D01*
X71032946Y-121238397D01*
X71119196Y-121123182D01*
X71169491Y-120988334D01*
X71175900Y-120928724D01*
X71175899Y-119259378D01*
X78125300Y-119259378D01*
X78125301Y-119262672D01*
X78131709Y-119322283D01*
X78182004Y-119457131D01*
X78268254Y-119572346D01*
X78383469Y-119658596D01*
X78518317Y-119708891D01*
X78577927Y-119715300D01*
X80273672Y-119715299D01*
X80333283Y-119708891D01*
X80468131Y-119658596D01*
X80583346Y-119572346D01*
X80669596Y-119457131D01*
X80719891Y-119322283D01*
X80726300Y-119262673D01*
X80726300Y-118664800D01*
X85258928Y-118664800D01*
X85311533Y-118861126D01*
X85407665Y-119067280D01*
X85538141Y-119253619D01*
X85698980Y-119414458D01*
X85885319Y-119544934D01*
X86091473Y-119641066D01*
X86287799Y-119693671D01*
X86287800Y-119693671D01*
X86287800Y-118730486D01*
X86299755Y-118742441D01*
X86412652Y-118799965D01*
X86506319Y-118814800D01*
X86569281Y-118814800D01*
X86662948Y-118799965D01*
X86775845Y-118742441D01*
X86787800Y-118730486D01*
X86787800Y-119693671D01*
X86984126Y-119641066D01*
X87190280Y-119544934D01*
X87376619Y-119414458D01*
X87537458Y-119253619D01*
X87667934Y-119067280D01*
X87764066Y-118861126D01*
X87816672Y-118664800D01*
X86853486Y-118664800D01*
X86865441Y-118652845D01*
X86922965Y-118539948D01*
X86942786Y-118414800D01*
X86922965Y-118289652D01*
X86865441Y-118176755D01*
X86853486Y-118164800D01*
X87816672Y-118164800D01*
X87816671Y-118164799D01*
X87764066Y-117968473D01*
X87667934Y-117762319D01*
X87537458Y-117575980D01*
X87376619Y-117415141D01*
X87190280Y-117284665D01*
X86984126Y-117188533D01*
X86787800Y-117135926D01*
X86787800Y-118099114D01*
X86775845Y-118087159D01*
X86662948Y-118029635D01*
X86569281Y-118014800D01*
X86506319Y-118014800D01*
X86412652Y-118029635D01*
X86299755Y-118087159D01*
X86287800Y-118099114D01*
X86287800Y-117135927D01*
X86287799Y-117135926D01*
X86091473Y-117188533D01*
X85885319Y-117284665D01*
X85698980Y-117415141D01*
X85538141Y-117575980D01*
X85407665Y-117762319D01*
X85311533Y-117968473D01*
X85258928Y-118164799D01*
X85258928Y-118164800D01*
X86222114Y-118164800D01*
X86210159Y-118176755D01*
X86152635Y-118289652D01*
X86132814Y-118414800D01*
X86152635Y-118539948D01*
X86210159Y-118652845D01*
X86222114Y-118664800D01*
X85258928Y-118664800D01*
X80726300Y-118664800D01*
X80726299Y-117566928D01*
X80719891Y-117507317D01*
X80669596Y-117372469D01*
X80583346Y-117257254D01*
X80468131Y-117171004D01*
X80333283Y-117120709D01*
X80273673Y-117114300D01*
X80270350Y-117114300D01*
X78581239Y-117114300D01*
X78581220Y-117114300D01*
X78577928Y-117114301D01*
X78574648Y-117114653D01*
X78574640Y-117114654D01*
X78518315Y-117120709D01*
X78383469Y-117171004D01*
X78268254Y-117257254D01*
X78182004Y-117372468D01*
X78131710Y-117507315D01*
X78131709Y-117507317D01*
X78125300Y-117566927D01*
X78125300Y-117570248D01*
X78125300Y-117570249D01*
X78125300Y-119259360D01*
X78125300Y-119259378D01*
X71175899Y-119259378D01*
X71175899Y-119232979D01*
X71169491Y-119173368D01*
X71119196Y-119038520D01*
X71032946Y-118923305D01*
X70917731Y-118837055D01*
X70782883Y-118786760D01*
X70723273Y-118780351D01*
X70719950Y-118780351D01*
X69030839Y-118780351D01*
X69030820Y-118780351D01*
X69027528Y-118780352D01*
X69024248Y-118780704D01*
X69024240Y-118780705D01*
X68967915Y-118786760D01*
X68833069Y-118837055D01*
X68717854Y-118923305D01*
X68631604Y-119038519D01*
X68581310Y-119173366D01*
X68581309Y-119173368D01*
X68574900Y-119232978D01*
X68574900Y-119236299D01*
X68574900Y-119236300D01*
X68574900Y-120925411D01*
X68574900Y-120925429D01*
X59666486Y-120925429D01*
X59767035Y-120781830D01*
X59866903Y-120567663D01*
X59928063Y-120339408D01*
X59948659Y-120104000D01*
X59928063Y-119868592D01*
X59866903Y-119640337D01*
X59767035Y-119426171D01*
X59631495Y-119232599D01*
X59464401Y-119065505D01*
X59270830Y-118929965D01*
X59056663Y-118830097D01*
X58995502Y-118813709D01*
X58828407Y-118768936D01*
X58593000Y-118748340D01*
X58357592Y-118768936D01*
X58129336Y-118830097D01*
X57915170Y-118929965D01*
X57721598Y-119065505D01*
X57554505Y-119232598D01*
X57418965Y-119426170D01*
X57319097Y-119640336D01*
X57257936Y-119868592D01*
X57237340Y-120103999D01*
X56585142Y-120103999D01*
X56585142Y-115188982D01*
X56598781Y-115142531D01*
X56595103Y-115141008D01*
X56604542Y-115118220D01*
X56604542Y-115080850D01*
X68570433Y-115080850D01*
X68590258Y-115307453D01*
X68649133Y-115527177D01*
X68745266Y-115733335D01*
X68796372Y-115806322D01*
X68796374Y-115806323D01*
X69477446Y-115125250D01*
X69490235Y-115205999D01*
X69547759Y-115318896D01*
X69637355Y-115408492D01*
X69750252Y-115466016D01*
X69830999Y-115478804D01*
X69149926Y-116159876D01*
X69149926Y-116159877D01*
X69222915Y-116210984D01*
X69429073Y-116307117D01*
X69648797Y-116365992D01*
X69875399Y-116385817D01*
X70102002Y-116365992D01*
X70321726Y-116307117D01*
X70527880Y-116210985D01*
X70600872Y-116159876D01*
X69919801Y-115478804D01*
X70000548Y-115466016D01*
X70113445Y-115408492D01*
X70203041Y-115318896D01*
X70260565Y-115205999D01*
X70273353Y-115125251D01*
X70954425Y-115806323D01*
X71005534Y-115733331D01*
X71101666Y-115527177D01*
X71160541Y-115307453D01*
X71180366Y-115080850D01*
X71160541Y-114854248D01*
X71101666Y-114634524D01*
X71005533Y-114428366D01*
X70954425Y-114355377D01*
X70273353Y-115036449D01*
X70260565Y-114955703D01*
X70203041Y-114842806D01*
X70113445Y-114753210D01*
X70000548Y-114695686D01*
X69919800Y-114682897D01*
X70600872Y-114001825D01*
X70600871Y-114001823D01*
X70527884Y-113950717D01*
X70321726Y-113854584D01*
X70102002Y-113795709D01*
X69875399Y-113775884D01*
X69648797Y-113795709D01*
X69429072Y-113854584D01*
X69222916Y-113950716D01*
X69149927Y-114001824D01*
X69149926Y-114001824D01*
X69831000Y-114682897D01*
X69750252Y-114695686D01*
X69637355Y-114753210D01*
X69547759Y-114842806D01*
X69490235Y-114955703D01*
X69477446Y-115036450D01*
X68796373Y-114355377D01*
X68796373Y-114355378D01*
X68745265Y-114428367D01*
X68649133Y-114634523D01*
X68590258Y-114854248D01*
X68570433Y-115080850D01*
X56604542Y-115080850D01*
X56604542Y-110794800D01*
X78120331Y-110794800D01*
X78140164Y-111021489D01*
X78199061Y-111241297D01*
X78295232Y-111447535D01*
X78425753Y-111633940D01*
X78586659Y-111794846D01*
X78773064Y-111925367D01*
X78773065Y-111925367D01*
X78773066Y-111925368D01*
X78979304Y-112021539D01*
X79199108Y-112080435D01*
X79425800Y-112100268D01*
X79652492Y-112080435D01*
X79872296Y-112021539D01*
X80078534Y-111925368D01*
X80264939Y-111794847D01*
X80420408Y-111639378D01*
X85237300Y-111639378D01*
X85237301Y-111642672D01*
X85243709Y-111702283D01*
X85294004Y-111837131D01*
X85380254Y-111952346D01*
X85495469Y-112038596D01*
X85630317Y-112088891D01*
X85689927Y-112095300D01*
X87385672Y-112095299D01*
X87445283Y-112088891D01*
X87580131Y-112038596D01*
X87695346Y-111952346D01*
X87781596Y-111837131D01*
X87831891Y-111702283D01*
X87838300Y-111642673D01*
X87838299Y-109946928D01*
X87831891Y-109887317D01*
X87781596Y-109752469D01*
X87695346Y-109637254D01*
X87580131Y-109551004D01*
X87445283Y-109500709D01*
X87385673Y-109494300D01*
X87382350Y-109494300D01*
X85693239Y-109494300D01*
X85693220Y-109494300D01*
X85689928Y-109494301D01*
X85686648Y-109494653D01*
X85686640Y-109494654D01*
X85630315Y-109500709D01*
X85495469Y-109551004D01*
X85380254Y-109637254D01*
X85294004Y-109752468D01*
X85243709Y-109887316D01*
X85237972Y-109940681D01*
X85237300Y-109946927D01*
X85237300Y-109950248D01*
X85237300Y-109950249D01*
X85237300Y-111639360D01*
X85237300Y-111639378D01*
X80420408Y-111639378D01*
X80425847Y-111633939D01*
X80556368Y-111447534D01*
X80652539Y-111241296D01*
X80711435Y-111021492D01*
X80731268Y-110794800D01*
X80711435Y-110568108D01*
X80652539Y-110348304D01*
X80556368Y-110142066D01*
X80538884Y-110117095D01*
X80425846Y-109955659D01*
X80264940Y-109794753D01*
X80078535Y-109664232D01*
X79872297Y-109568061D01*
X79652489Y-109509164D01*
X79425800Y-109489331D01*
X79199110Y-109509164D01*
X78979302Y-109568061D01*
X78773064Y-109664232D01*
X78586659Y-109794753D01*
X78425753Y-109955659D01*
X78295232Y-110142064D01*
X78199061Y-110348302D01*
X78140164Y-110568110D01*
X78120331Y-110794800D01*
X56604542Y-110794800D01*
X56604542Y-104955833D01*
X66124725Y-104955833D01*
X66143710Y-105342300D01*
X66144306Y-105348353D01*
X66201081Y-105731094D01*
X66202267Y-105737053D01*
X66296282Y-106112386D01*
X66298049Y-106118209D01*
X66428395Y-106482501D01*
X66430727Y-106488134D01*
X66596158Y-106837908D01*
X66599029Y-106843277D01*
X66797949Y-107175155D01*
X66801317Y-107180196D01*
X67031817Y-107490989D01*
X67035675Y-107495691D01*
X67129468Y-107599176D01*
X67129469Y-107599176D01*
X68442503Y-106286141D01*
X68554431Y-106423718D01*
X68769390Y-106624476D01*
X68793943Y-106641808D01*
X67483022Y-107952729D01*
X67483022Y-107952730D01*
X67586508Y-108046524D01*
X67591210Y-108050382D01*
X67902003Y-108280882D01*
X67907044Y-108284250D01*
X68238922Y-108483170D01*
X68244291Y-108486041D01*
X68594065Y-108651472D01*
X68599698Y-108653804D01*
X68963990Y-108784150D01*
X68969813Y-108785917D01*
X69345146Y-108879932D01*
X69351105Y-108881118D01*
X69733846Y-108937893D01*
X69739899Y-108938489D01*
X70126367Y-108957475D01*
X70132433Y-108957475D01*
X70518900Y-108938489D01*
X70524953Y-108937893D01*
X70907694Y-108881118D01*
X70913653Y-108879932D01*
X71288986Y-108785917D01*
X71294809Y-108784150D01*
X71659101Y-108653804D01*
X71664734Y-108651472D01*
X72014508Y-108486041D01*
X72019877Y-108483170D01*
X72351755Y-108284250D01*
X72356796Y-108280882D01*
X72667589Y-108050382D01*
X72672280Y-108046533D01*
X72775776Y-107952729D01*
X72443329Y-107620282D01*
X79879700Y-107620282D01*
X79918804Y-107879715D01*
X79996137Y-108130423D01*
X80109972Y-108366804D01*
X80190138Y-108484385D01*
X80257771Y-108583585D01*
X80394929Y-108731405D01*
X80436219Y-108775905D01*
X80641343Y-108939486D01*
X80868557Y-109070668D01*
X81112784Y-109166520D01*
X81368570Y-109224902D01*
X81564706Y-109239600D01*
X81567023Y-109239600D01*
X84193377Y-109239600D01*
X84195694Y-109239600D01*
X84391830Y-109224902D01*
X84647616Y-109166520D01*
X84891843Y-109070668D01*
X85119057Y-108939486D01*
X85324181Y-108775905D01*
X85478043Y-108610081D01*
X85502628Y-108583585D01*
X85502629Y-108583582D01*
X85502633Y-108583579D01*
X85650428Y-108366804D01*
X85764263Y-108130423D01*
X85841596Y-107879715D01*
X85880700Y-107620282D01*
X85880700Y-107357918D01*
X85841596Y-107098485D01*
X85764263Y-106847777D01*
X85650428Y-106611396D01*
X85502633Y-106394621D01*
X85502632Y-106394620D01*
X85502628Y-106394614D01*
X85324184Y-106202298D01*
X85324183Y-106202297D01*
X85324181Y-106202295D01*
X85119057Y-106038714D01*
X85119056Y-106038713D01*
X84891841Y-105907531D01*
X84647618Y-105811680D01*
X84391827Y-105753297D01*
X84198008Y-105738773D01*
X84197997Y-105738772D01*
X84195694Y-105738600D01*
X81564706Y-105738600D01*
X81562403Y-105738772D01*
X81562391Y-105738773D01*
X81368572Y-105753297D01*
X81112781Y-105811680D01*
X80868558Y-105907531D01*
X80641343Y-106038713D01*
X80436215Y-106202298D01*
X80257771Y-106394614D01*
X80197851Y-106482501D01*
X80109972Y-106611396D01*
X79996137Y-106847777D01*
X79918804Y-107098485D01*
X79879700Y-107357918D01*
X79879700Y-107620282D01*
X72443329Y-107620282D01*
X71464855Y-106641808D01*
X71489410Y-106624476D01*
X71704369Y-106423718D01*
X71816295Y-106286142D01*
X73129329Y-107599176D01*
X73223133Y-107495680D01*
X73226982Y-107490989D01*
X73457482Y-107180196D01*
X73460850Y-107175155D01*
X73659770Y-106843277D01*
X73662641Y-106837908D01*
X73828072Y-106488134D01*
X73830404Y-106482501D01*
X73960750Y-106118209D01*
X73962517Y-106112386D01*
X74056532Y-105737053D01*
X74057718Y-105731094D01*
X74114493Y-105348353D01*
X74115089Y-105342300D01*
X74134075Y-104955833D01*
X74134075Y-104949766D01*
X74115089Y-104563299D01*
X74114493Y-104557246D01*
X74057718Y-104174505D01*
X74056532Y-104168546D01*
X73962517Y-103793213D01*
X73960750Y-103787390D01*
X73830404Y-103423098D01*
X73828072Y-103417465D01*
X73662641Y-103067691D01*
X73659770Y-103062322D01*
X73460850Y-102730444D01*
X73457482Y-102725403D01*
X73226982Y-102414610D01*
X73223124Y-102409908D01*
X73129330Y-102306422D01*
X73129329Y-102306422D01*
X71816294Y-103619456D01*
X71704369Y-103481882D01*
X71489410Y-103281124D01*
X71464854Y-103263790D01*
X72775776Y-101952869D01*
X72775776Y-101952868D01*
X72672291Y-101859075D01*
X72667589Y-101855217D01*
X72356796Y-101624717D01*
X72351755Y-101621349D01*
X72131111Y-101489100D01*
X80124674Y-101489100D01*
X80125821Y-101503668D01*
X80144748Y-101744171D01*
X80204477Y-101992960D01*
X80266222Y-102142024D01*
X80302391Y-102229343D01*
X80436077Y-102447499D01*
X80602244Y-102642056D01*
X80796801Y-102808223D01*
X81014957Y-102941909D01*
X81189594Y-103014246D01*
X81251339Y-103039822D01*
X81329939Y-103058692D01*
X81500130Y-103099552D01*
X81691337Y-103114600D01*
X81693782Y-103114600D01*
X84066618Y-103114600D01*
X84069063Y-103114600D01*
X84260270Y-103099552D01*
X84509060Y-103039822D01*
X84745443Y-102941909D01*
X84963599Y-102808223D01*
X85158156Y-102642056D01*
X85324323Y-102447499D01*
X85458009Y-102229343D01*
X85555922Y-101992960D01*
X85615652Y-101744170D01*
X85635726Y-101489100D01*
X85615652Y-101234030D01*
X85565343Y-101024481D01*
X85555922Y-100985239D01*
X85525882Y-100912716D01*
X85458009Y-100748857D01*
X85324323Y-100530701D01*
X85158156Y-100336144D01*
X84963599Y-100169977D01*
X84745443Y-100036291D01*
X84653466Y-99998193D01*
X84509060Y-99938377D01*
X84260271Y-99878648D01*
X84071497Y-99863791D01*
X84071482Y-99863790D01*
X84069063Y-99863600D01*
X81691337Y-99863600D01*
X81688918Y-99863790D01*
X81688902Y-99863791D01*
X81500128Y-99878648D01*
X81251339Y-99938377D01*
X81014955Y-100036292D01*
X80796802Y-100169976D01*
X80602244Y-100336144D01*
X80436076Y-100530702D01*
X80302392Y-100748855D01*
X80204477Y-100985239D01*
X80144748Y-101234028D01*
X80134414Y-101365342D01*
X80124674Y-101489100D01*
X72131111Y-101489100D01*
X72019877Y-101422429D01*
X72014508Y-101419558D01*
X71664734Y-101254127D01*
X71659101Y-101251795D01*
X71294809Y-101121449D01*
X71288986Y-101119682D01*
X70913653Y-101025667D01*
X70907694Y-101024481D01*
X70524953Y-100967706D01*
X70518900Y-100967110D01*
X70132433Y-100948125D01*
X70126367Y-100948125D01*
X69739899Y-100967110D01*
X69733846Y-100967706D01*
X69351105Y-101024481D01*
X69345146Y-101025667D01*
X68969813Y-101119682D01*
X68963990Y-101121449D01*
X68599698Y-101251795D01*
X68594065Y-101254127D01*
X68244291Y-101419558D01*
X68238922Y-101422429D01*
X67907044Y-101621349D01*
X67902003Y-101624717D01*
X67591207Y-101855218D01*
X67586505Y-101859077D01*
X67483022Y-101952868D01*
X67483022Y-101952869D01*
X68793943Y-103263791D01*
X68769390Y-103281124D01*
X68554431Y-103481882D01*
X68442505Y-103619457D01*
X67129469Y-102306422D01*
X67129468Y-102306422D01*
X67035677Y-102409905D01*
X67031818Y-102414607D01*
X66801317Y-102725403D01*
X66797949Y-102730444D01*
X66599029Y-103062322D01*
X66596158Y-103067691D01*
X66430727Y-103417465D01*
X66428395Y-103423098D01*
X66298049Y-103787390D01*
X66296282Y-103793213D01*
X66202267Y-104168546D01*
X66201081Y-104174505D01*
X66144306Y-104557246D01*
X66143710Y-104563299D01*
X66124725Y-104949766D01*
X66124725Y-104955833D01*
X56604542Y-104955833D01*
X56604542Y-98606156D01*
X57884662Y-98606156D01*
X57903964Y-98962171D01*
X57904690Y-98968844D01*
X57962374Y-99320704D01*
X57963813Y-99327242D01*
X58059196Y-99670779D01*
X58061347Y-99677163D01*
X58193312Y-100008370D01*
X58196132Y-100014466D01*
X58363139Y-100329474D01*
X58366594Y-100335217D01*
X58566686Y-100630331D01*
X58570747Y-100635673D01*
X58700368Y-100788275D01*
X58700369Y-100788276D01*
X59941665Y-99546979D01*
X60104530Y-99737670D01*
X60295219Y-99900533D01*
X59051289Y-101144463D01*
X59065041Y-101157490D01*
X59070140Y-101161822D01*
X59353993Y-101377601D01*
X59359539Y-101381361D01*
X59665044Y-101565177D01*
X59670983Y-101568325D01*
X59994561Y-101718029D01*
X60000803Y-101720516D01*
X60338680Y-101834360D01*
X60345144Y-101836155D01*
X60693346Y-101912800D01*
X60699980Y-101913887D01*
X61054429Y-101952436D01*
X61061126Y-101952800D01*
X61417674Y-101952800D01*
X61424370Y-101952436D01*
X61778819Y-101913887D01*
X61785453Y-101912800D01*
X62133655Y-101836155D01*
X62140119Y-101834360D01*
X62477996Y-101720516D01*
X62484238Y-101718029D01*
X62807816Y-101568325D01*
X62813755Y-101565177D01*
X63119260Y-101381361D01*
X63124806Y-101377601D01*
X63408652Y-101161827D01*
X63413776Y-101157474D01*
X63427509Y-101144464D01*
X63427509Y-101144463D01*
X62183580Y-99900533D01*
X62374270Y-99737670D01*
X62537133Y-99546980D01*
X63778429Y-100788275D01*
X63778430Y-100788275D01*
X63908052Y-100635673D01*
X63912113Y-100630331D01*
X64112205Y-100335217D01*
X64115660Y-100329474D01*
X64282667Y-100014466D01*
X64285487Y-100008370D01*
X64417452Y-99677163D01*
X64419603Y-99670779D01*
X64431536Y-99627800D01*
X94004131Y-99627800D01*
X94023177Y-99881954D01*
X94079892Y-100130437D01*
X94173008Y-100367691D01*
X94267122Y-100530701D01*
X94300441Y-100588412D01*
X94459350Y-100787677D01*
X94646183Y-100961032D01*
X94856766Y-101104605D01*
X95086396Y-101215189D01*
X95329942Y-101290313D01*
X95581965Y-101328300D01*
X95836835Y-101328300D01*
X96088858Y-101290313D01*
X96332404Y-101215189D01*
X96562034Y-101104605D01*
X96772617Y-100961032D01*
X96868164Y-100872378D01*
X99008900Y-100872378D01*
X99008901Y-100875672D01*
X99009253Y-100878952D01*
X99009254Y-100878959D01*
X99015309Y-100935284D01*
X99027402Y-100967706D01*
X99065604Y-101070131D01*
X99151854Y-101185346D01*
X99267069Y-101271596D01*
X99401917Y-101321891D01*
X99461527Y-101328300D01*
X101957272Y-101328299D01*
X102016883Y-101321891D01*
X102151731Y-101271596D01*
X102266946Y-101185346D01*
X102353196Y-101070131D01*
X102403491Y-100935283D01*
X102409900Y-100875673D01*
X102409900Y-100872378D01*
X106073900Y-100872378D01*
X106073901Y-100875672D01*
X106074253Y-100878952D01*
X106074254Y-100878959D01*
X106080309Y-100935284D01*
X106092402Y-100967706D01*
X106130604Y-101070131D01*
X106216854Y-101185346D01*
X106332069Y-101271596D01*
X106466917Y-101321891D01*
X106526527Y-101328300D01*
X109022272Y-101328299D01*
X109081883Y-101321891D01*
X109216731Y-101271596D01*
X109331946Y-101185346D01*
X109418196Y-101070131D01*
X109468491Y-100935283D01*
X109474900Y-100875673D01*
X109474899Y-98379928D01*
X109468491Y-98320317D01*
X109418196Y-98185469D01*
X109331946Y-98070254D01*
X109216731Y-97984004D01*
X109081883Y-97933709D01*
X109030216Y-97928154D01*
X109025566Y-97927654D01*
X109025565Y-97927653D01*
X109022273Y-97927300D01*
X109018950Y-97927300D01*
X106529839Y-97927300D01*
X106529820Y-97927300D01*
X106526528Y-97927301D01*
X106523248Y-97927653D01*
X106523240Y-97927654D01*
X106466915Y-97933709D01*
X106332069Y-97984004D01*
X106216854Y-98070254D01*
X106130604Y-98185468D01*
X106080309Y-98320316D01*
X106076932Y-98351731D01*
X106073900Y-98379927D01*
X106073900Y-98383248D01*
X106073900Y-98383249D01*
X106073900Y-100872360D01*
X106073900Y-100872378D01*
X102409900Y-100872378D01*
X102409899Y-98379928D01*
X102403491Y-98320317D01*
X102353196Y-98185469D01*
X102266946Y-98070254D01*
X102151731Y-97984004D01*
X102016883Y-97933709D01*
X101965216Y-97928154D01*
X101960566Y-97927654D01*
X101960565Y-97927653D01*
X101957273Y-97927300D01*
X101953950Y-97927300D01*
X99464839Y-97927300D01*
X99464820Y-97927300D01*
X99461528Y-97927301D01*
X99458248Y-97927653D01*
X99458240Y-97927654D01*
X99401915Y-97933709D01*
X99267069Y-97984004D01*
X99151854Y-98070254D01*
X99065604Y-98185468D01*
X99015309Y-98320316D01*
X99011932Y-98351731D01*
X99008900Y-98379927D01*
X99008900Y-98383248D01*
X99008900Y-98383249D01*
X99008900Y-100872360D01*
X99008900Y-100872378D01*
X96868164Y-100872378D01*
X96959450Y-100787677D01*
X97118359Y-100588412D01*
X97245793Y-100367688D01*
X97338908Y-100130437D01*
X97395622Y-99881957D01*
X97414668Y-99627800D01*
X97395622Y-99373643D01*
X97338908Y-99125163D01*
X97245793Y-98887912D01*
X97226138Y-98853869D01*
X97118361Y-98667192D01*
X97118359Y-98667188D01*
X96959450Y-98467923D01*
X96772617Y-98294568D01*
X96562034Y-98150995D01*
X96332404Y-98040411D01*
X96088858Y-97965287D01*
X95836835Y-97927300D01*
X95581965Y-97927300D01*
X95329942Y-97965287D01*
X95086396Y-98040411D01*
X94856766Y-98150995D01*
X94751474Y-98222781D01*
X94646181Y-98294569D01*
X94459350Y-98467923D01*
X94300438Y-98667192D01*
X94173008Y-98887908D01*
X94079892Y-99125162D01*
X94023177Y-99373645D01*
X94004131Y-99627800D01*
X64431536Y-99627800D01*
X64514986Y-99327242D01*
X64516425Y-99320704D01*
X64574109Y-98968844D01*
X64574835Y-98962171D01*
X64594138Y-98606156D01*
X64594138Y-98599443D01*
X64574835Y-98243428D01*
X64574109Y-98236755D01*
X64516425Y-97884895D01*
X64514986Y-97878357D01*
X64419603Y-97534820D01*
X64417452Y-97528436D01*
X64285487Y-97197229D01*
X64282667Y-97191133D01*
X64115660Y-96876125D01*
X64112205Y-96870382D01*
X63912113Y-96575268D01*
X63908052Y-96569926D01*
X63778430Y-96417323D01*
X63778429Y-96417322D01*
X62537132Y-97658618D01*
X62374270Y-97467930D01*
X62183579Y-97305065D01*
X63427509Y-96061135D01*
X63413758Y-96048109D01*
X63408659Y-96043777D01*
X63124806Y-95827998D01*
X63119260Y-95824238D01*
X62813755Y-95640422D01*
X62807816Y-95637274D01*
X62484238Y-95487570D01*
X62477996Y-95485083D01*
X62140119Y-95371239D01*
X62133655Y-95369444D01*
X61785453Y-95292799D01*
X61778819Y-95291712D01*
X61424370Y-95253163D01*
X61417674Y-95252800D01*
X61061126Y-95252800D01*
X61054429Y-95253163D01*
X60699980Y-95291712D01*
X60693346Y-95292799D01*
X60345144Y-95369444D01*
X60338680Y-95371239D01*
X60000803Y-95485083D01*
X59994561Y-95487570D01*
X59670983Y-95637274D01*
X59665044Y-95640422D01*
X59359539Y-95824238D01*
X59353993Y-95827998D01*
X59070137Y-96043780D01*
X59065029Y-96048118D01*
X59051289Y-96061133D01*
X59051289Y-96061136D01*
X60295219Y-97305066D01*
X60104530Y-97467930D01*
X59941666Y-97658619D01*
X58700369Y-96417322D01*
X58570742Y-96569933D01*
X58566686Y-96575268D01*
X58366594Y-96870382D01*
X58363139Y-96876125D01*
X58196132Y-97191133D01*
X58193312Y-97197229D01*
X58061347Y-97528436D01*
X58059196Y-97534820D01*
X57963813Y-97878357D01*
X57962374Y-97884895D01*
X57904690Y-98236755D01*
X57903964Y-98243428D01*
X57884662Y-98599443D01*
X57884662Y-98606156D01*
X56604542Y-98606156D01*
X56604542Y-94068321D01*
X56624227Y-94001282D01*
X56677031Y-93955527D01*
X56728542Y-93944321D01*
X159629942Y-93944321D01*
X159696981Y-93964006D01*
G37*
%TD.AperFunction*%
%TD*%
M02*
