%TF.GenerationSoftware,KiCad,Pcbnew,7.0.2*%
%TF.CreationDate,2024-01-05T23:58:58-08:00*%
%TF.ProjectId,MK_KS,4d4b5f4b-532e-46b6-9963-61645f706362,1.0*%
%TF.SameCoordinates,Original*%
%TF.FileFunction,Plated,1,2,PTH,Mixed*%
%TF.FilePolarity,Positive*%
%FSLAX46Y46*%
G04 Gerber Fmt 4.6, Leading zero omitted, Abs format (unit mm)*
G04 Created by KiCad (PCBNEW 7.0.2) date 2024-01-05 23:58:58*
%MOMM*%
%LPD*%
G01*
G04 APERTURE LIST*
%TA.AperFunction,ViaDrill*%
%ADD10C,0.400000*%
%TD*%
%TA.AperFunction,ViaDrill*%
%ADD11C,0.500000*%
%TD*%
G04 aperture for slot hole*
%TA.AperFunction,ComponentDrill*%
%ADD12O,0.650000X1.050000*%
%TD*%
G04 aperture for slot hole*
%TA.AperFunction,ComponentDrill*%
%ADD13O,0.700000X1.200000*%
%TD*%
%TA.AperFunction,ComponentDrill*%
%ADD14C,0.750000*%
%TD*%
%TA.AperFunction,ComponentDrill*%
%ADD15C,0.800000*%
%TD*%
%TA.AperFunction,ComponentDrill*%
%ADD16C,1.000000*%
%TD*%
G04 aperture for slot hole*
%TA.AperFunction,ComponentDrill*%
%ADD17O,3.000000X1.000000*%
%TD*%
G04 aperture for slot hole*
%TA.AperFunction,ComponentDrill*%
%ADD18O,3.500000X1.000000*%
%TD*%
G04 aperture for slot hole*
%TA.AperFunction,ComponentDrill*%
%ADD19O,1.000000X2.000000*%
%TD*%
%TA.AperFunction,ComponentDrill*%
%ADD20C,1.200000*%
%TD*%
%TA.AperFunction,ComponentDrill*%
%ADD21C,3.200000*%
%TD*%
%TA.AperFunction,ComponentDrill*%
%ADD22C,4.300000*%
%TD*%
G04 APERTURE END LIST*
D10*
X90627200Y-119253000D03*
X90627200Y-126898400D03*
X97739200Y-129717800D03*
X107518200Y-125171200D03*
X111404400Y-125323600D03*
X118465600Y-97434400D03*
X136042400Y-123012200D03*
X136042400Y-129463800D03*
X137312400Y-120015000D03*
D11*
X74803000Y-159941800D03*
X79044800Y-124155200D03*
X83870800Y-159941800D03*
X89484200Y-114198400D03*
X94538800Y-114223800D03*
X95580200Y-126794800D03*
X97028000Y-159941800D03*
X97409000Y-111633000D03*
X99618800Y-114223800D03*
X104724200Y-114249200D03*
X106172000Y-159941800D03*
X108229400Y-122732800D03*
X109778800Y-114249200D03*
X110667800Y-129413000D03*
X116433600Y-121056400D03*
X119862600Y-139674600D03*
X122021600Y-128066800D03*
X122555000Y-118541800D03*
X128064800Y-96875600D03*
X133678200Y-113563400D03*
X133883400Y-108661200D03*
X136321800Y-106093800D03*
X138305000Y-96901000D03*
D12*
%TO.C,J1*%
X130828000Y-98241800D03*
X135678000Y-98241800D03*
D13*
X130528000Y-95211800D03*
X135978000Y-95211800D03*
D14*
%TO.C,Q4*%
X118389400Y-108762800D03*
X119659400Y-108762800D03*
X120929400Y-108762800D03*
%TO.C,Q1*%
X128295400Y-136850800D03*
%TO.C,Q2*%
X129565400Y-129336800D03*
X129565400Y-130606800D03*
X129565400Y-131876800D03*
%TO.C,Q1*%
X129565400Y-136850800D03*
X130835400Y-136850800D03*
D15*
%TO.C,C3*%
X69875400Y-115080851D03*
X69875400Y-120080851D03*
%TO.C,D2*%
X79425800Y-110794800D03*
X79425800Y-118414800D03*
%TO.C,D4*%
X86537800Y-110794800D03*
X86537800Y-118414800D03*
D16*
%TO.C,OPa2*%
X69494400Y-128447800D03*
X72034400Y-128447800D03*
D17*
%TO.C,J2*%
X82880200Y-101489100D03*
D18*
X82880200Y-107489100D03*
D16*
%TO.C,TP3*%
X85369400Y-130352800D03*
%TO.C,TP2*%
X85369400Y-135432800D03*
%TO.C,TP4*%
X100609400Y-130352800D03*
%TO.C,TP5*%
X100609400Y-135432800D03*
%TO.C,TP1*%
X114579400Y-116382800D03*
%TO.C,SW1*%
X115448400Y-162884800D03*
X115448400Y-165424800D03*
X120528400Y-162884800D03*
X120528400Y-165424800D03*
%TO.C,OPa1*%
X128143000Y-110236000D03*
X128143000Y-112776000D03*
X128143000Y-115316000D03*
%TO.C,JP2*%
X130688400Y-162859800D03*
X130688400Y-165399800D03*
%TO.C,J4*%
X137439400Y-136702800D03*
X137439400Y-139242800D03*
X137439400Y-141782800D03*
X137439400Y-144322800D03*
X137439400Y-146862800D03*
X137439400Y-149402800D03*
X137439400Y-151942800D03*
%TO.C,JP1*%
X138573000Y-114403200D03*
X138573000Y-116943200D03*
D19*
%TO.C,J5*%
X145133400Y-159155300D03*
X148833400Y-161155300D03*
D16*
%TO.C,J3*%
X149737069Y-119722800D03*
X149737069Y-122492800D03*
X149737069Y-125262800D03*
X149737069Y-128032800D03*
X149737069Y-130802800D03*
%TO.C,JP3*%
X150317200Y-157429200D03*
%TO.C,J3*%
X152577069Y-121107800D03*
X152577069Y-123877800D03*
X152577069Y-126647800D03*
X152577069Y-129417800D03*
%TO.C,JP3*%
X152857200Y-157429200D03*
D19*
%TO.C,J5*%
X154333400Y-161155300D03*
X156733400Y-159155300D03*
D20*
%TO.C,ST1*%
X95709400Y-99627800D03*
X100709400Y-99627800D03*
%TO.C,ST2*%
X107774400Y-99627800D03*
X112774400Y-99627800D03*
D21*
%TO.C,M_KSI1*%
X61239400Y-98602800D03*
%TO.C,M_KSI4*%
X61239400Y-167182800D03*
%TO.C,J3*%
X151157069Y-112762800D03*
X151157069Y-137762800D03*
%TO.C,M_KSI2*%
X155219400Y-98602800D03*
%TO.C,M_KSI3*%
X155219400Y-167182800D03*
D22*
%TO.C,SHLD-1*%
X70129400Y-104952800D03*
%TO.C,SHLD-4*%
X70129400Y-145592800D03*
%TO.C,SHLD-2*%
X146329400Y-104952800D03*
%TO.C,SHLD-3*%
X146329400Y-145592800D03*
M02*
