%TF.GenerationSoftware,KiCad,Pcbnew,7.0.2*%
%TF.CreationDate,2024-01-05T23:58:43-08:00*%
%TF.ProjectId,MK_KS,4d4b5f4b-532e-46b6-9963-61645f706362,1.0*%
%TF.SameCoordinates,Original*%
%TF.FileFunction,Paste,Top*%
%TF.FilePolarity,Positive*%
%FSLAX46Y46*%
G04 Gerber Fmt 4.6, Leading zero omitted, Abs format (unit mm)*
G04 Created by KiCad (PCBNEW 7.0.2) date 2024-01-05 23:58:43*
%MOMM*%
%LPD*%
G01*
G04 APERTURE LIST*
G04 Aperture macros list*
%AMRoundRect*
0 Rectangle with rounded corners*
0 $1 Rounding radius*
0 $2 $3 $4 $5 $6 $7 $8 $9 X,Y pos of 4 corners*
0 Add a 4 corners polygon primitive as box body*
4,1,4,$2,$3,$4,$5,$6,$7,$8,$9,$2,$3,0*
0 Add four circle primitives for the rounded corners*
1,1,$1+$1,$2,$3*
1,1,$1+$1,$4,$5*
1,1,$1+$1,$6,$7*
1,1,$1+$1,$8,$9*
0 Add four rect primitives between the rounded corners*
20,1,$1+$1,$2,$3,$4,$5,0*
20,1,$1+$1,$4,$5,$6,$7,0*
20,1,$1+$1,$6,$7,$8,$9,0*
20,1,$1+$1,$8,$9,$2,$3,0*%
G04 Aperture macros list end*
%ADD10RoundRect,0.225000X-0.375000X0.225000X-0.375000X-0.225000X0.375000X-0.225000X0.375000X0.225000X0*%
%ADD11RoundRect,0.237500X0.237500X-0.300000X0.237500X0.300000X-0.237500X0.300000X-0.237500X-0.300000X0*%
%ADD12RoundRect,0.090000X-0.090000X0.139000X-0.090000X-0.139000X0.090000X-0.139000X0.090000X0.139000X0*%
%ADD13RoundRect,0.160000X-0.197500X-0.160000X0.197500X-0.160000X0.197500X0.160000X-0.197500X0.160000X0*%
%ADD14RoundRect,0.225000X-0.225000X-0.375000X0.225000X-0.375000X0.225000X0.375000X-0.225000X0.375000X0*%
%ADD15RoundRect,0.160000X0.197500X0.160000X-0.197500X0.160000X-0.197500X-0.160000X0.197500X-0.160000X0*%
%ADD16RoundRect,0.237500X-0.300000X-0.237500X0.300000X-0.237500X0.300000X0.237500X-0.300000X0.237500X0*%
%ADD17RoundRect,0.150000X-0.150000X0.825000X-0.150000X-0.825000X0.150000X-0.825000X0.150000X0.825000X0*%
%ADD18RoundRect,0.150000X-0.587500X-0.150000X0.587500X-0.150000X0.587500X0.150000X-0.587500X0.150000X0*%
%ADD19R,0.710000X0.900000*%
%ADD20R,0.800000X0.600000*%
%ADD21RoundRect,0.160000X0.160000X-0.197500X0.160000X0.197500X-0.160000X0.197500X-0.160000X-0.197500X0*%
%ADD22R,1.600000X1.400000*%
%ADD23RoundRect,0.150000X0.587500X0.150000X-0.587500X0.150000X-0.587500X-0.150000X0.587500X-0.150000X0*%
%ADD24R,0.400000X1.750000*%
%ADD25R,1.825000X0.700000*%
%ADD26R,2.000000X1.460000*%
%ADD27RoundRect,0.384800X0.265200X1.240200X-0.265200X1.240200X-0.265200X-1.240200X0.265200X-1.240200X0*%
%ADD28R,1.425000X2.500000*%
%ADD29RoundRect,0.225000X0.375000X-0.225000X0.375000X0.225000X-0.375000X0.225000X-0.375000X-0.225000X0*%
%ADD30RoundRect,0.150000X0.825000X0.150000X-0.825000X0.150000X-0.825000X-0.150000X0.825000X-0.150000X0*%
G04 APERTURE END LIST*
D10*
%TO.C,D7*%
X79019400Y-125782800D03*
X79019400Y-129082800D03*
%TD*%
D11*
%TO.C,C7*%
X99594400Y-117587800D03*
X99594400Y-115862800D03*
%TD*%
D12*
%TO.C,C2*%
X135331200Y-112749200D03*
X135331200Y-113614200D03*
%TD*%
D11*
%TO.C,C5*%
X89434400Y-117587800D03*
X89434400Y-115862800D03*
%TD*%
D12*
%TO.C,C1*%
X132308600Y-112724500D03*
X132308600Y-113589500D03*
%TD*%
D13*
%TO.C,R3*%
X137248300Y-130606800D03*
X138443300Y-130606800D03*
%TD*%
D14*
%TO.C,D3*%
X100609400Y-110032800D03*
X103909400Y-110032800D03*
%TD*%
%TO.C,D1*%
X127653000Y-106148200D03*
X130953000Y-106148200D03*
%TD*%
D15*
%TO.C,R9*%
X116421900Y-122732800D03*
X115226900Y-122732800D03*
%TD*%
D16*
%TO.C,C4*%
X95706900Y-110032800D03*
X97431900Y-110032800D03*
%TD*%
D17*
%TO.C,U3*%
X139852400Y-121527800D03*
X138582400Y-121527800D03*
X137312400Y-121527800D03*
X136042400Y-121527800D03*
X136042400Y-126477800D03*
X137312400Y-126477800D03*
X138582400Y-126477800D03*
X139852400Y-126477800D03*
%TD*%
D14*
%TO.C,D8*%
X102899400Y-122732800D03*
X106199400Y-122732800D03*
%TD*%
D18*
%TO.C,U1*%
X136698000Y-107738200D03*
X136698000Y-109638200D03*
X138573000Y-108688200D03*
%TD*%
D19*
%TO.C,LED1*%
X118436400Y-94388800D03*
X121136400Y-94388800D03*
D20*
X119786400Y-94538800D03*
%TD*%
D15*
%TO.C,R2*%
X130670900Y-140766800D03*
X129475900Y-140766800D03*
%TD*%
D13*
%TO.C,R1*%
X106959400Y-110032800D03*
X108154400Y-110032800D03*
%TD*%
%TO.C,R10*%
X110806900Y-110032800D03*
X112001900Y-110032800D03*
%TD*%
%TO.C,R8*%
X110146900Y-122732800D03*
X111341900Y-122732800D03*
%TD*%
D21*
%TO.C,R4*%
X123723400Y-129320300D03*
X123723400Y-128125300D03*
%TD*%
D13*
%TO.C,R7*%
X119099400Y-100507800D03*
X120294400Y-100507800D03*
%TD*%
D22*
%TO.C,SW3*%
X97053400Y-161884800D03*
X106153400Y-161920800D03*
X97053400Y-166384800D03*
X106153400Y-166420800D03*
%TD*%
D11*
%TO.C,C6*%
X94514400Y-117587800D03*
X94514400Y-115862800D03*
%TD*%
D22*
%TO.C,SW2*%
X74773400Y-161884800D03*
X83873400Y-161920800D03*
X74773400Y-166384800D03*
X83873400Y-166420800D03*
%TD*%
D23*
%TO.C,Q3*%
X108964400Y-131302800D03*
X108964400Y-129402800D03*
X107089400Y-130352800D03*
%TD*%
D13*
%TO.C,R6*%
X98081900Y-122732800D03*
X99276900Y-122732800D03*
%TD*%
D15*
%TO.C,R5*%
X93561900Y-122732800D03*
X92366900Y-122732800D03*
%TD*%
D24*
%TO.C,J1*%
X134553000Y-98036800D03*
X133903000Y-98036800D03*
X133253000Y-98036800D03*
X132603000Y-98036800D03*
X131953000Y-98036800D03*
D25*
X136240500Y-96911800D03*
D26*
X136153000Y-98241800D03*
D27*
X135978000Y-95636800D03*
D28*
X134215500Y-94961800D03*
X132290500Y-94961800D03*
D27*
X130528000Y-95636800D03*
D26*
X130353000Y-98241800D03*
D25*
X130265500Y-96911800D03*
%TD*%
D11*
%TO.C,C8*%
X104674400Y-117587800D03*
X104674400Y-115862800D03*
%TD*%
D29*
%TO.C,D6*%
X119913400Y-131388800D03*
X119913400Y-128088800D03*
%TD*%
%TO.C,D5*%
X120878600Y-118541800D03*
X120878600Y-115241800D03*
%TD*%
D30*
%TO.C,U4*%
X95529400Y-132257800D03*
X95529400Y-130987800D03*
X95529400Y-129717800D03*
X95529400Y-128447800D03*
X90579400Y-128447800D03*
X90579400Y-129717800D03*
X90579400Y-130987800D03*
X90579400Y-132257800D03*
%TD*%
D11*
%TO.C,C9*%
X109754400Y-117587800D03*
X109754400Y-115862800D03*
%TD*%
M02*
