%TF.GenerationSoftware,KiCad,Pcbnew,7.0.2*%
%TF.CreationDate,2024-01-05T23:58:43-08:00*%
%TF.ProjectId,MK_KS,4d4b5f4b-532e-46b6-9963-61645f706362,1.0*%
%TF.SameCoordinates,Original*%
%TF.FileFunction,Soldermask,Top*%
%TF.FilePolarity,Negative*%
%FSLAX46Y46*%
G04 Gerber Fmt 4.6, Leading zero omitted, Abs format (unit mm)*
G04 Created by KiCad (PCBNEW 7.0.2) date 2024-01-05 23:58:43*
%MOMM*%
%LPD*%
G01*
G04 APERTURE LIST*
G04 Aperture macros list*
%AMRoundRect*
0 Rectangle with rounded corners*
0 $1 Rounding radius*
0 $2 $3 $4 $5 $6 $7 $8 $9 X,Y pos of 4 corners*
0 Add a 4 corners polygon primitive as box body*
4,1,4,$2,$3,$4,$5,$6,$7,$8,$9,$2,$3,0*
0 Add four circle primitives for the rounded corners*
1,1,$1+$1,$2,$3*
1,1,$1+$1,$4,$5*
1,1,$1+$1,$6,$7*
1,1,$1+$1,$8,$9*
0 Add four rect primitives between the rounded corners*
20,1,$1+$1,$2,$3,$4,$5,0*
20,1,$1+$1,$4,$5,$6,$7,0*
20,1,$1+$1,$6,$7,$8,$9,0*
20,1,$1+$1,$8,$9,$2,$3,0*%
G04 Aperture macros list end*
%ADD10RoundRect,0.225000X-0.375000X0.225000X-0.375000X-0.225000X0.375000X-0.225000X0.375000X0.225000X0*%
%ADD11RoundRect,0.237500X0.237500X-0.300000X0.237500X0.300000X-0.237500X0.300000X-0.237500X-0.300000X0*%
%ADD12R,1.700000X1.700000*%
%ADD13O,1.700000X1.700000*%
%ADD14R,1.500000X1.050000*%
%ADD15O,1.500000X1.050000*%
%ADD16RoundRect,0.100000X-0.100000X0.217500X-0.100000X-0.217500X0.100000X-0.217500X0.100000X0.217500X0*%
%ADD17C,4.000000*%
%ADD18R,1.600000X1.600000*%
%ADD19C,1.600000*%
%ADD20RoundRect,0.160000X-0.197500X-0.160000X0.197500X-0.160000X0.197500X0.160000X-0.197500X0.160000X0*%
%ADD21C,3.600000*%
%ADD22C,5.700000*%
%ADD23RoundRect,0.225000X-0.225000X-0.375000X0.225000X-0.375000X0.225000X0.375000X-0.225000X0.375000X0*%
%ADD24R,2.400000X2.400000*%
%ADD25C,2.400000*%
%ADD26O,1.804000X3.404000*%
%ADD27RoundRect,0.160000X0.197500X0.160000X-0.197500X0.160000X-0.197500X-0.160000X0.197500X-0.160000X0*%
%ADD28RoundRect,0.237500X-0.300000X-0.237500X0.300000X-0.237500X0.300000X0.237500X-0.300000X0.237500X0*%
%ADD29RoundRect,0.150000X-0.150000X0.825000X-0.150000X-0.825000X0.150000X-0.825000X0.150000X0.825000X0*%
%ADD30RoundRect,0.150000X-0.587500X-0.150000X0.587500X-0.150000X0.587500X0.150000X-0.587500X0.150000X0*%
%ADD31R,0.710000X0.900000*%
%ADD32R,0.800000X0.600000*%
%ADD33O,1.600000X1.600000*%
%ADD34RoundRect,0.160000X0.160000X-0.197500X0.160000X0.197500X-0.160000X0.197500X-0.160000X-0.197500X0*%
%ADD35C,4.700000*%
%ADD36C,7.000000*%
%ADD37O,5.000000X2.500000*%
%ADD38O,4.500000X2.250000*%
%ADD39R,1.600000X1.400000*%
%ADD40RoundRect,0.150000X0.587500X0.150000X-0.587500X0.150000X-0.587500X-0.150000X0.587500X-0.150000X0*%
%ADD41R,1.050000X1.500000*%
%ADD42O,1.050000X1.500000*%
%ADD43R,0.400000X1.750000*%
%ADD44R,1.825000X0.700000*%
%ADD45R,2.000000X1.460000*%
%ADD46RoundRect,0.384800X0.265200X1.240200X-0.265200X1.240200X-0.265200X-1.240200X0.265200X-1.240200X0*%
%ADD47O,1.300000X1.800000*%
%ADD48O,1.050000X1.450000*%
%ADD49R,1.425000X2.500000*%
%ADD50RoundRect,0.225000X0.375000X-0.225000X0.375000X0.225000X-0.375000X0.225000X-0.375000X-0.225000X0*%
%ADD51RoundRect,0.150000X0.825000X0.150000X-0.825000X0.150000X-0.825000X-0.150000X0.825000X-0.150000X0*%
G04 APERTURE END LIST*
D10*
%TO.C,D7*%
X79019400Y-125782800D03*
X79019400Y-129082800D03*
%TD*%
D11*
%TO.C,C7*%
X99594400Y-117587800D03*
X99594400Y-115862800D03*
%TD*%
D12*
%TO.C,OPa2*%
X69494400Y-128447800D03*
D13*
X72034400Y-128447800D03*
%TD*%
D14*
%TO.C,Q2*%
X129565400Y-129336800D03*
D15*
X129565400Y-130606800D03*
X129565400Y-131876800D03*
%TD*%
D16*
%TO.C,C2*%
X135331200Y-112774200D03*
X135331200Y-113589200D03*
%TD*%
D12*
%TO.C,TP5*%
X100609400Y-135432800D03*
%TD*%
D17*
%TO.C,J3*%
X151157069Y-137762800D03*
X151157069Y-112762800D03*
D18*
X149737069Y-119722800D03*
D19*
X149737069Y-122492800D03*
X149737069Y-125262800D03*
X149737069Y-128032800D03*
X149737069Y-130802800D03*
X152577069Y-121107800D03*
X152577069Y-123877800D03*
X152577069Y-126647800D03*
X152577069Y-129417800D03*
%TD*%
D11*
%TO.C,C5*%
X89434400Y-117587800D03*
X89434400Y-115862800D03*
%TD*%
D16*
%TO.C,C1*%
X132308600Y-112749500D03*
X132308600Y-113564500D03*
%TD*%
D20*
%TO.C,R3*%
X137248300Y-130606800D03*
X138443300Y-130606800D03*
%TD*%
D21*
%TO.C,M_KSI4*%
X61239400Y-167182800D03*
D22*
X61239400Y-167182800D03*
%TD*%
D23*
%TO.C,D3*%
X100609400Y-110032800D03*
X103909400Y-110032800D03*
%TD*%
D12*
%TO.C,JP3*%
X150317200Y-157429200D03*
D13*
X152857200Y-157429200D03*
%TD*%
D23*
%TO.C,D1*%
X127653000Y-106148200D03*
X130953000Y-106148200D03*
%TD*%
D24*
%TO.C,ST1*%
X100709400Y-99627800D03*
D25*
X95709400Y-99627800D03*
%TD*%
D26*
%TO.C,J5*%
X156733400Y-159155300D03*
X154333400Y-161155300D03*
X148833400Y-161155300D03*
X145133400Y-159155300D03*
%TD*%
D27*
%TO.C,R9*%
X116421900Y-122732800D03*
X115226900Y-122732800D03*
%TD*%
D28*
%TO.C,C4*%
X95706900Y-110032800D03*
X97431900Y-110032800D03*
%TD*%
D29*
%TO.C,U3*%
X139852400Y-121527800D03*
X138582400Y-121527800D03*
X137312400Y-121527800D03*
X136042400Y-121527800D03*
X136042400Y-126477800D03*
X137312400Y-126477800D03*
X138582400Y-126477800D03*
X139852400Y-126477800D03*
%TD*%
D23*
%TO.C,D8*%
X102899400Y-122732800D03*
X106199400Y-122732800D03*
%TD*%
D30*
%TO.C,U1*%
X136698000Y-107738200D03*
X136698000Y-109638200D03*
X138573000Y-108688200D03*
%TD*%
D12*
%TO.C,TP1*%
X114579400Y-116382800D03*
%TD*%
D31*
%TO.C,LED1*%
X118436400Y-94388800D03*
X121136400Y-94388800D03*
D32*
X119786400Y-94538800D03*
%TD*%
D27*
%TO.C,R2*%
X130670900Y-140766800D03*
X129475900Y-140766800D03*
%TD*%
D12*
%TO.C,OPa1*%
X128143000Y-115316000D03*
D13*
X128143000Y-112776000D03*
X128143000Y-110236000D03*
%TD*%
D20*
%TO.C,R1*%
X106959400Y-110032800D03*
X108154400Y-110032800D03*
%TD*%
D12*
%TO.C,TP2*%
X85369400Y-135432800D03*
%TD*%
D20*
%TO.C,R10*%
X110806900Y-110032800D03*
X112001900Y-110032800D03*
%TD*%
D21*
%TO.C,M_KSI1*%
X61239400Y-98602800D03*
D22*
X61239400Y-98602800D03*
%TD*%
D12*
%TO.C,TP4*%
X100609400Y-130352800D03*
%TD*%
D20*
%TO.C,R8*%
X110146900Y-122732800D03*
X111341900Y-122732800D03*
%TD*%
D18*
%TO.C,C3*%
X69875400Y-120080851D03*
D19*
X69875400Y-115080851D03*
%TD*%
D18*
%TO.C,D4*%
X86537800Y-110794800D03*
D33*
X86537800Y-118414800D03*
%TD*%
D34*
%TO.C,R4*%
X123723400Y-129320300D03*
X123723400Y-128125300D03*
%TD*%
D20*
%TO.C,R7*%
X119099400Y-100507800D03*
X120294400Y-100507800D03*
%TD*%
D35*
%TO.C,SHLD-1*%
X70129400Y-104952800D03*
D36*
X70129400Y-104952800D03*
%TD*%
D35*
%TO.C,SHLD-2*%
X146329400Y-104952800D03*
D36*
X146329400Y-104952800D03*
%TD*%
D13*
%TO.C,SW1*%
X120528400Y-162884800D03*
D12*
X120528400Y-165424800D03*
D13*
X115448400Y-162884800D03*
X115448400Y-165424800D03*
%TD*%
D12*
%TO.C,JP2*%
X130688400Y-162859800D03*
D13*
X130688400Y-165399800D03*
%TD*%
D12*
%TO.C,JP1*%
X138573000Y-114403200D03*
D13*
X138573000Y-116943200D03*
%TD*%
D37*
%TO.C,J2*%
X82880200Y-107489100D03*
D38*
X82880200Y-101489100D03*
%TD*%
D39*
%TO.C,SW3*%
X97053400Y-161884800D03*
X106153400Y-161920800D03*
X97053400Y-166384800D03*
X106153400Y-166420800D03*
%TD*%
D21*
%TO.C,M_KSI2*%
X155219400Y-98602800D03*
D22*
X155219400Y-98602800D03*
%TD*%
D24*
%TO.C,ST2*%
X107774400Y-99627800D03*
D25*
X112774400Y-99627800D03*
%TD*%
D35*
%TO.C,SHLD-4*%
X70129400Y-145592800D03*
D36*
X70129400Y-145592800D03*
%TD*%
D11*
%TO.C,C6*%
X94514400Y-117587800D03*
X94514400Y-115862800D03*
%TD*%
D12*
%TO.C,TP3*%
X85369400Y-130352800D03*
%TD*%
D39*
%TO.C,SW2*%
X74773400Y-161884800D03*
X83873400Y-161920800D03*
X74773400Y-166384800D03*
X83873400Y-166420800D03*
%TD*%
D40*
%TO.C,Q3*%
X108964400Y-131302800D03*
X108964400Y-129402800D03*
X107089400Y-130352800D03*
%TD*%
D20*
%TO.C,R6*%
X98081900Y-122732800D03*
X99276900Y-122732800D03*
%TD*%
D41*
%TO.C,Q4*%
X120929400Y-108762800D03*
D42*
X119659400Y-108762800D03*
X118389400Y-108762800D03*
%TD*%
D18*
%TO.C,D2*%
X79425800Y-118414800D03*
D33*
X79425800Y-110794800D03*
%TD*%
D27*
%TO.C,R5*%
X93561900Y-122732800D03*
X92366900Y-122732800D03*
%TD*%
D21*
%TO.C,M_KSI3*%
X155219400Y-167182800D03*
D22*
X155219400Y-167182800D03*
%TD*%
D43*
%TO.C,J1*%
X134553000Y-98036800D03*
X133903000Y-98036800D03*
X133253000Y-98036800D03*
X132603000Y-98036800D03*
X131953000Y-98036800D03*
D44*
X136240500Y-96911800D03*
D45*
X136153000Y-98241800D03*
D46*
X135978000Y-95636800D03*
D47*
X135978000Y-95211800D03*
D48*
X135678000Y-98241800D03*
D49*
X134215500Y-94961800D03*
X132290500Y-94961800D03*
D48*
X130828000Y-98241800D03*
D46*
X130528000Y-95636800D03*
D47*
X130528000Y-95211800D03*
D45*
X130353000Y-98241800D03*
D44*
X130265500Y-96911800D03*
%TD*%
D41*
%TO.C,Q1*%
X130835400Y-136850800D03*
D42*
X129565400Y-136850800D03*
X128295400Y-136850800D03*
%TD*%
D11*
%TO.C,C8*%
X104674400Y-117587800D03*
X104674400Y-115862800D03*
%TD*%
D50*
%TO.C,D6*%
X119913400Y-131388800D03*
X119913400Y-128088800D03*
%TD*%
D35*
%TO.C,SHLD-3*%
X146329400Y-145592800D03*
D36*
X146329400Y-145592800D03*
%TD*%
D50*
%TO.C,D5*%
X120878600Y-118541800D03*
X120878600Y-115241800D03*
%TD*%
D51*
%TO.C,U4*%
X95529400Y-132257800D03*
X95529400Y-130987800D03*
X95529400Y-129717800D03*
X95529400Y-128447800D03*
X90579400Y-128447800D03*
X90579400Y-129717800D03*
X90579400Y-130987800D03*
X90579400Y-132257800D03*
%TD*%
D11*
%TO.C,C9*%
X109754400Y-117587800D03*
X109754400Y-115862800D03*
%TD*%
D12*
%TO.C,J4*%
X137439400Y-136702800D03*
D13*
X137439400Y-139242800D03*
X137439400Y-141782800D03*
X137439400Y-144322800D03*
X137439400Y-146862800D03*
X137439400Y-149402800D03*
X137439400Y-151942800D03*
%TD*%
M02*
