%TF.GenerationSoftware,KiCad,Pcbnew,7.0.2*%
%TF.CreationDate,2024-01-05T23:58:43-08:00*%
%TF.ProjectId,MK_KS,4d4b5f4b-532e-46b6-9963-61645f706362,1.0*%
%TF.SameCoordinates,Original*%
%TF.FileFunction,Copper,L2,Bot*%
%TF.FilePolarity,Positive*%
%FSLAX46Y46*%
G04 Gerber Fmt 4.6, Leading zero omitted, Abs format (unit mm)*
G04 Created by KiCad (PCBNEW 7.0.2) date 2024-01-05 23:58:43*
%MOMM*%
%LPD*%
G01*
G04 APERTURE LIST*
%ADD10C,0.222250*%
%TA.AperFunction,NonConductor*%
%ADD11C,0.222250*%
%TD*%
%TA.AperFunction,ComponentPad*%
%ADD12R,1.700000X1.700000*%
%TD*%
%TA.AperFunction,ComponentPad*%
%ADD13O,1.700000X1.700000*%
%TD*%
%TA.AperFunction,ComponentPad*%
%ADD14R,1.500000X1.050000*%
%TD*%
%TA.AperFunction,ComponentPad*%
%ADD15O,1.500000X1.050000*%
%TD*%
%TA.AperFunction,ComponentPad*%
%ADD16C,4.000000*%
%TD*%
%TA.AperFunction,ComponentPad*%
%ADD17R,1.600000X1.600000*%
%TD*%
%TA.AperFunction,ComponentPad*%
%ADD18C,1.600000*%
%TD*%
%TA.AperFunction,ComponentPad*%
%ADD19C,3.600000*%
%TD*%
%TA.AperFunction,ConnectorPad*%
%ADD20C,5.700000*%
%TD*%
%TA.AperFunction,ComponentPad*%
%ADD21R,2.400000X2.400000*%
%TD*%
%TA.AperFunction,ComponentPad*%
%ADD22C,2.400000*%
%TD*%
%TA.AperFunction,ComponentPad*%
%ADD23O,1.600000X3.200000*%
%TD*%
%TA.AperFunction,ComponentPad*%
%ADD24O,1.600000X1.600000*%
%TD*%
%TA.AperFunction,ComponentPad*%
%ADD25C,4.700000*%
%TD*%
%TA.AperFunction,ConnectorPad*%
%ADD26C,7.000000*%
%TD*%
%TA.AperFunction,ComponentPad*%
%ADD27O,5.000000X2.500000*%
%TD*%
%TA.AperFunction,ComponentPad*%
%ADD28O,4.500000X2.250000*%
%TD*%
%TA.AperFunction,ComponentPad*%
%ADD29R,1.050000X1.500000*%
%TD*%
%TA.AperFunction,ComponentPad*%
%ADD30O,1.050000X1.500000*%
%TD*%
%TA.AperFunction,ComponentPad*%
%ADD31O,1.300000X1.800000*%
%TD*%
%TA.AperFunction,ComponentPad*%
%ADD32O,1.050000X1.450000*%
%TD*%
%TA.AperFunction,ViaPad*%
%ADD33C,0.800000*%
%TD*%
%TA.AperFunction,ViaPad*%
%ADD34C,1.000000*%
%TD*%
%TA.AperFunction,ViaPad*%
%ADD35C,0.600000*%
%TD*%
%TA.AperFunction,Conductor*%
%ADD36C,0.400000*%
%TD*%
%TA.AperFunction,Conductor*%
%ADD37C,0.800000*%
%TD*%
%TA.AperFunction,Conductor*%
%ADD38C,0.250000*%
%TD*%
G04 APERTURE END LIST*
D10*
D11*
X58892862Y-155287133D02*
X58003862Y-155287133D01*
X58427195Y-154863800D02*
X58342529Y-154821466D01*
X58342529Y-154821466D02*
X58300195Y-154736800D01*
X58427195Y-155287133D02*
X58342529Y-155244800D01*
X58342529Y-155244800D02*
X58300195Y-155160133D01*
X58300195Y-155160133D02*
X58300195Y-154990800D01*
X58300195Y-154990800D02*
X58342529Y-154906133D01*
X58342529Y-154906133D02*
X58427195Y-154863800D01*
X58427195Y-154863800D02*
X58892862Y-154863800D01*
X58300195Y-154355800D02*
X59189195Y-154355800D01*
X58300195Y-153847800D02*
X58808195Y-154228800D01*
X59189195Y-153847800D02*
X58681195Y-154355800D01*
X59189195Y-153297467D02*
X59189195Y-153128133D01*
X59189195Y-153128133D02*
X59146862Y-153043467D01*
X59146862Y-153043467D02*
X59062195Y-152958800D01*
X59062195Y-152958800D02*
X58892862Y-152916467D01*
X58892862Y-152916467D02*
X58596529Y-152916467D01*
X58596529Y-152916467D02*
X58427195Y-152958800D01*
X58427195Y-152958800D02*
X58342529Y-153043467D01*
X58342529Y-153043467D02*
X58300195Y-153128133D01*
X58300195Y-153128133D02*
X58300195Y-153297467D01*
X58300195Y-153297467D02*
X58342529Y-153382133D01*
X58342529Y-153382133D02*
X58427195Y-153466800D01*
X58427195Y-153466800D02*
X58596529Y-153509133D01*
X58596529Y-153509133D02*
X58892862Y-153509133D01*
X58892862Y-153509133D02*
X59062195Y-153466800D01*
X59062195Y-153466800D02*
X59146862Y-153382133D01*
X59146862Y-153382133D02*
X59189195Y-153297467D01*
X58765862Y-152239134D02*
X58723529Y-152112134D01*
X58723529Y-152112134D02*
X58681195Y-152069800D01*
X58681195Y-152069800D02*
X58596529Y-152027467D01*
X58596529Y-152027467D02*
X58469529Y-152027467D01*
X58469529Y-152027467D02*
X58384862Y-152069800D01*
X58384862Y-152069800D02*
X58342529Y-152112134D01*
X58342529Y-152112134D02*
X58300195Y-152196800D01*
X58300195Y-152196800D02*
X58300195Y-152535467D01*
X58300195Y-152535467D02*
X59189195Y-152535467D01*
X59189195Y-152535467D02*
X59189195Y-152239134D01*
X59189195Y-152239134D02*
X59146862Y-152154467D01*
X59146862Y-152154467D02*
X59104529Y-152112134D01*
X59104529Y-152112134D02*
X59019862Y-152069800D01*
X59019862Y-152069800D02*
X58935195Y-152069800D01*
X58935195Y-152069800D02*
X58850529Y-152112134D01*
X58850529Y-152112134D02*
X58808195Y-152154467D01*
X58808195Y-152154467D02*
X58765862Y-152239134D01*
X58765862Y-152239134D02*
X58765862Y-152535467D01*
X58638862Y-151646467D02*
X58638862Y-150969134D01*
X58300195Y-150545800D02*
X59189195Y-150545800D01*
X58300195Y-150037800D02*
X58808195Y-150418800D01*
X59189195Y-150037800D02*
X58681195Y-150545800D01*
X58300195Y-148937133D02*
X58300195Y-148979467D01*
X58300195Y-148979467D02*
X58342529Y-149064133D01*
X58342529Y-149064133D02*
X58469529Y-149191133D01*
X58469529Y-149191133D02*
X58723529Y-149402800D01*
X58723529Y-149402800D02*
X58850529Y-149487467D01*
X58850529Y-149487467D02*
X58977529Y-149529800D01*
X58977529Y-149529800D02*
X59062195Y-149529800D01*
X59062195Y-149529800D02*
X59146862Y-149487467D01*
X59146862Y-149487467D02*
X59189195Y-149402800D01*
X59189195Y-149402800D02*
X59189195Y-149360467D01*
X59189195Y-149360467D02*
X59146862Y-149275800D01*
X59146862Y-149275800D02*
X59062195Y-149233467D01*
X59062195Y-149233467D02*
X59019862Y-149233467D01*
X59019862Y-149233467D02*
X58935195Y-149275800D01*
X58935195Y-149275800D02*
X58892862Y-149318133D01*
X58892862Y-149318133D02*
X58723529Y-149572133D01*
X58723529Y-149572133D02*
X58681195Y-149614467D01*
X58681195Y-149614467D02*
X58596529Y-149656800D01*
X58596529Y-149656800D02*
X58469529Y-149656800D01*
X58469529Y-149656800D02*
X58384862Y-149614467D01*
X58384862Y-149614467D02*
X58342529Y-149572133D01*
X58342529Y-149572133D02*
X58300195Y-149487467D01*
X58300195Y-149487467D02*
X58300195Y-149360467D01*
X58300195Y-149360467D02*
X58342529Y-149275800D01*
X58342529Y-149275800D02*
X58384862Y-149233467D01*
X58384862Y-149233467D02*
X58554195Y-149106467D01*
X58554195Y-149106467D02*
X58681195Y-149064133D01*
X58681195Y-149064133D02*
X58765862Y-149064133D01*
X58342529Y-148598466D02*
X58300195Y-148471466D01*
X58300195Y-148471466D02*
X58300195Y-148259800D01*
X58300195Y-148259800D02*
X58342529Y-148175133D01*
X58342529Y-148175133D02*
X58384862Y-148132800D01*
X58384862Y-148132800D02*
X58469529Y-148090466D01*
X58469529Y-148090466D02*
X58554195Y-148090466D01*
X58554195Y-148090466D02*
X58638862Y-148132800D01*
X58638862Y-148132800D02*
X58681195Y-148175133D01*
X58681195Y-148175133D02*
X58723529Y-148259800D01*
X58723529Y-148259800D02*
X58765862Y-148429133D01*
X58765862Y-148429133D02*
X58808195Y-148513800D01*
X58808195Y-148513800D02*
X58850529Y-148556133D01*
X58850529Y-148556133D02*
X58935195Y-148598466D01*
X58935195Y-148598466D02*
X59019862Y-148598466D01*
X59019862Y-148598466D02*
X59104529Y-148556133D01*
X59104529Y-148556133D02*
X59146862Y-148513800D01*
X59146862Y-148513800D02*
X59189195Y-148429133D01*
X59189195Y-148429133D02*
X59189195Y-148217466D01*
X59189195Y-148217466D02*
X59146862Y-148090466D01*
X58003862Y-146820466D02*
X59273862Y-146820466D01*
X58300195Y-145508133D02*
X59189195Y-145508133D01*
X59189195Y-145508133D02*
X58554195Y-145211800D01*
X58554195Y-145211800D02*
X59189195Y-144915466D01*
X59189195Y-144915466D02*
X58300195Y-144915466D01*
X58300195Y-144492133D02*
X59189195Y-144492133D01*
X58300195Y-143984133D02*
X58808195Y-144365133D01*
X59189195Y-143984133D02*
X58681195Y-144492133D01*
X59189195Y-143433800D02*
X59189195Y-143264466D01*
X59189195Y-143264466D02*
X59146862Y-143179800D01*
X59146862Y-143179800D02*
X59062195Y-143095133D01*
X59062195Y-143095133D02*
X58892862Y-143052800D01*
X58892862Y-143052800D02*
X58596529Y-143052800D01*
X58596529Y-143052800D02*
X58427195Y-143095133D01*
X58427195Y-143095133D02*
X58342529Y-143179800D01*
X58342529Y-143179800D02*
X58300195Y-143264466D01*
X58300195Y-143264466D02*
X58300195Y-143433800D01*
X58300195Y-143433800D02*
X58342529Y-143518466D01*
X58342529Y-143518466D02*
X58427195Y-143603133D01*
X58427195Y-143603133D02*
X58596529Y-143645466D01*
X58596529Y-143645466D02*
X58892862Y-143645466D01*
X58892862Y-143645466D02*
X59062195Y-143603133D01*
X59062195Y-143603133D02*
X59146862Y-143518466D01*
X59146862Y-143518466D02*
X59189195Y-143433800D01*
X58765862Y-142375467D02*
X58723529Y-142248467D01*
X58723529Y-142248467D02*
X58681195Y-142206133D01*
X58681195Y-142206133D02*
X58596529Y-142163800D01*
X58596529Y-142163800D02*
X58469529Y-142163800D01*
X58469529Y-142163800D02*
X58384862Y-142206133D01*
X58384862Y-142206133D02*
X58342529Y-142248467D01*
X58342529Y-142248467D02*
X58300195Y-142333133D01*
X58300195Y-142333133D02*
X58300195Y-142671800D01*
X58300195Y-142671800D02*
X59189195Y-142671800D01*
X59189195Y-142671800D02*
X59189195Y-142375467D01*
X59189195Y-142375467D02*
X59146862Y-142290800D01*
X59146862Y-142290800D02*
X59104529Y-142248467D01*
X59104529Y-142248467D02*
X59019862Y-142206133D01*
X59019862Y-142206133D02*
X58935195Y-142206133D01*
X58935195Y-142206133D02*
X58850529Y-142248467D01*
X58850529Y-142248467D02*
X58808195Y-142290800D01*
X58808195Y-142290800D02*
X58765862Y-142375467D01*
X58765862Y-142375467D02*
X58765862Y-142671800D01*
X58638862Y-141782800D02*
X58638862Y-141105467D01*
X58300195Y-140682133D02*
X59189195Y-140682133D01*
X58765862Y-139962467D02*
X58765862Y-140258800D01*
X58300195Y-140258800D02*
X59189195Y-140258800D01*
X59189195Y-140258800D02*
X59189195Y-139835467D01*
X58892862Y-138904134D02*
X58300195Y-138692467D01*
X58300195Y-138692467D02*
X58892862Y-138480800D01*
X58300195Y-137676467D02*
X58300195Y-138184467D01*
X58300195Y-137930467D02*
X59189195Y-137930467D01*
X59189195Y-137930467D02*
X59062195Y-138015134D01*
X59062195Y-138015134D02*
X58977529Y-138099801D01*
X58977529Y-138099801D02*
X58935195Y-138184467D01*
X58384862Y-137295467D02*
X58342529Y-137253134D01*
X58342529Y-137253134D02*
X58300195Y-137295467D01*
X58300195Y-137295467D02*
X58342529Y-137337800D01*
X58342529Y-137337800D02*
X58384862Y-137295467D01*
X58384862Y-137295467D02*
X58300195Y-137295467D01*
X59189195Y-136702801D02*
X59189195Y-136618134D01*
X59189195Y-136618134D02*
X59146862Y-136533467D01*
X59146862Y-136533467D02*
X59104529Y-136491134D01*
X59104529Y-136491134D02*
X59019862Y-136448801D01*
X59019862Y-136448801D02*
X58850529Y-136406467D01*
X58850529Y-136406467D02*
X58638862Y-136406467D01*
X58638862Y-136406467D02*
X58469529Y-136448801D01*
X58469529Y-136448801D02*
X58384862Y-136491134D01*
X58384862Y-136491134D02*
X58342529Y-136533467D01*
X58342529Y-136533467D02*
X58300195Y-136618134D01*
X58300195Y-136618134D02*
X58300195Y-136702801D01*
X58300195Y-136702801D02*
X58342529Y-136787467D01*
X58342529Y-136787467D02*
X58384862Y-136829801D01*
X58384862Y-136829801D02*
X58469529Y-136872134D01*
X58469529Y-136872134D02*
X58638862Y-136914467D01*
X58638862Y-136914467D02*
X58850529Y-136914467D01*
X58850529Y-136914467D02*
X59019862Y-136872134D01*
X59019862Y-136872134D02*
X59104529Y-136829801D01*
X59104529Y-136829801D02*
X59146862Y-136787467D01*
X59146862Y-136787467D02*
X59189195Y-136702801D01*
X58384862Y-134162801D02*
X58342529Y-134205134D01*
X58342529Y-134205134D02*
X58300195Y-134332134D01*
X58300195Y-134332134D02*
X58300195Y-134416801D01*
X58300195Y-134416801D02*
X58342529Y-134543801D01*
X58342529Y-134543801D02*
X58427195Y-134628468D01*
X58427195Y-134628468D02*
X58511862Y-134670801D01*
X58511862Y-134670801D02*
X58681195Y-134713134D01*
X58681195Y-134713134D02*
X58808195Y-134713134D01*
X58808195Y-134713134D02*
X58977529Y-134670801D01*
X58977529Y-134670801D02*
X59062195Y-134628468D01*
X59062195Y-134628468D02*
X59146862Y-134543801D01*
X59146862Y-134543801D02*
X59189195Y-134416801D01*
X59189195Y-134416801D02*
X59189195Y-134332134D01*
X59189195Y-134332134D02*
X59146862Y-134205134D01*
X59146862Y-134205134D02*
X59104529Y-134162801D01*
X58300195Y-133654801D02*
X58342529Y-133739468D01*
X58342529Y-133739468D02*
X58384862Y-133781801D01*
X58384862Y-133781801D02*
X58469529Y-133824134D01*
X58469529Y-133824134D02*
X58723529Y-133824134D01*
X58723529Y-133824134D02*
X58808195Y-133781801D01*
X58808195Y-133781801D02*
X58850529Y-133739468D01*
X58850529Y-133739468D02*
X58892862Y-133654801D01*
X58892862Y-133654801D02*
X58892862Y-133527801D01*
X58892862Y-133527801D02*
X58850529Y-133443134D01*
X58850529Y-133443134D02*
X58808195Y-133400801D01*
X58808195Y-133400801D02*
X58723529Y-133358468D01*
X58723529Y-133358468D02*
X58469529Y-133358468D01*
X58469529Y-133358468D02*
X58384862Y-133400801D01*
X58384862Y-133400801D02*
X58342529Y-133443134D01*
X58342529Y-133443134D02*
X58300195Y-133527801D01*
X58300195Y-133527801D02*
X58300195Y-133654801D01*
X58892862Y-132977468D02*
X58003862Y-132977468D01*
X58850529Y-132977468D02*
X58892862Y-132892801D01*
X58892862Y-132892801D02*
X58892862Y-132723468D01*
X58892862Y-132723468D02*
X58850529Y-132638801D01*
X58850529Y-132638801D02*
X58808195Y-132596468D01*
X58808195Y-132596468D02*
X58723529Y-132554135D01*
X58723529Y-132554135D02*
X58469529Y-132554135D01*
X58469529Y-132554135D02*
X58384862Y-132596468D01*
X58384862Y-132596468D02*
X58342529Y-132638801D01*
X58342529Y-132638801D02*
X58300195Y-132723468D01*
X58300195Y-132723468D02*
X58300195Y-132892801D01*
X58300195Y-132892801D02*
X58342529Y-132977468D01*
X58892862Y-132257802D02*
X58300195Y-132046135D01*
X58892862Y-131834468D02*
X58300195Y-132046135D01*
X58300195Y-132046135D02*
X58088529Y-132130802D01*
X58088529Y-132130802D02*
X58046195Y-132173135D01*
X58046195Y-132173135D02*
X58003862Y-132257802D01*
X58300195Y-131495802D02*
X58892862Y-131495802D01*
X58723529Y-131495802D02*
X58808195Y-131453469D01*
X58808195Y-131453469D02*
X58850529Y-131411135D01*
X58850529Y-131411135D02*
X58892862Y-131326469D01*
X58892862Y-131326469D02*
X58892862Y-131241802D01*
X58300195Y-130945469D02*
X58892862Y-130945469D01*
X59189195Y-130945469D02*
X59146862Y-130987802D01*
X59146862Y-130987802D02*
X59104529Y-130945469D01*
X59104529Y-130945469D02*
X59146862Y-130903136D01*
X59146862Y-130903136D02*
X59189195Y-130945469D01*
X59189195Y-130945469D02*
X59104529Y-130945469D01*
X58892862Y-130141136D02*
X58173195Y-130141136D01*
X58173195Y-130141136D02*
X58088529Y-130183469D01*
X58088529Y-130183469D02*
X58046195Y-130225803D01*
X58046195Y-130225803D02*
X58003862Y-130310469D01*
X58003862Y-130310469D02*
X58003862Y-130437469D01*
X58003862Y-130437469D02*
X58046195Y-130522136D01*
X58342529Y-130141136D02*
X58300195Y-130225803D01*
X58300195Y-130225803D02*
X58300195Y-130395136D01*
X58300195Y-130395136D02*
X58342529Y-130479803D01*
X58342529Y-130479803D02*
X58384862Y-130522136D01*
X58384862Y-130522136D02*
X58469529Y-130564469D01*
X58469529Y-130564469D02*
X58723529Y-130564469D01*
X58723529Y-130564469D02*
X58808195Y-130522136D01*
X58808195Y-130522136D02*
X58850529Y-130479803D01*
X58850529Y-130479803D02*
X58892862Y-130395136D01*
X58892862Y-130395136D02*
X58892862Y-130225803D01*
X58892862Y-130225803D02*
X58850529Y-130141136D01*
X58300195Y-129717803D02*
X59189195Y-129717803D01*
X58300195Y-129336803D02*
X58765862Y-129336803D01*
X58765862Y-129336803D02*
X58850529Y-129379136D01*
X58850529Y-129379136D02*
X58892862Y-129463803D01*
X58892862Y-129463803D02*
X58892862Y-129590803D01*
X58892862Y-129590803D02*
X58850529Y-129675470D01*
X58850529Y-129675470D02*
X58808195Y-129717803D01*
X58892862Y-129040470D02*
X58892862Y-128701803D01*
X59189195Y-128913470D02*
X58427195Y-128913470D01*
X58427195Y-128913470D02*
X58342529Y-128871137D01*
X58342529Y-128871137D02*
X58300195Y-128786470D01*
X58300195Y-128786470D02*
X58300195Y-128701803D01*
X59104529Y-127770470D02*
X59146862Y-127728137D01*
X59146862Y-127728137D02*
X59189195Y-127643470D01*
X59189195Y-127643470D02*
X59189195Y-127431804D01*
X59189195Y-127431804D02*
X59146862Y-127347137D01*
X59146862Y-127347137D02*
X59104529Y-127304804D01*
X59104529Y-127304804D02*
X59019862Y-127262470D01*
X59019862Y-127262470D02*
X58935195Y-127262470D01*
X58935195Y-127262470D02*
X58808195Y-127304804D01*
X58808195Y-127304804D02*
X58300195Y-127812804D01*
X58300195Y-127812804D02*
X58300195Y-127262470D01*
X59189195Y-126712137D02*
X59189195Y-126627470D01*
X59189195Y-126627470D02*
X59146862Y-126542803D01*
X59146862Y-126542803D02*
X59104529Y-126500470D01*
X59104529Y-126500470D02*
X59019862Y-126458137D01*
X59019862Y-126458137D02*
X58850529Y-126415803D01*
X58850529Y-126415803D02*
X58638862Y-126415803D01*
X58638862Y-126415803D02*
X58469529Y-126458137D01*
X58469529Y-126458137D02*
X58384862Y-126500470D01*
X58384862Y-126500470D02*
X58342529Y-126542803D01*
X58342529Y-126542803D02*
X58300195Y-126627470D01*
X58300195Y-126627470D02*
X58300195Y-126712137D01*
X58300195Y-126712137D02*
X58342529Y-126796803D01*
X58342529Y-126796803D02*
X58384862Y-126839137D01*
X58384862Y-126839137D02*
X58469529Y-126881470D01*
X58469529Y-126881470D02*
X58638862Y-126923803D01*
X58638862Y-126923803D02*
X58850529Y-126923803D01*
X58850529Y-126923803D02*
X59019862Y-126881470D01*
X59019862Y-126881470D02*
X59104529Y-126839137D01*
X59104529Y-126839137D02*
X59146862Y-126796803D01*
X59146862Y-126796803D02*
X59189195Y-126712137D01*
X59104529Y-126077136D02*
X59146862Y-126034803D01*
X59146862Y-126034803D02*
X59189195Y-125950136D01*
X59189195Y-125950136D02*
X59189195Y-125738470D01*
X59189195Y-125738470D02*
X59146862Y-125653803D01*
X59146862Y-125653803D02*
X59104529Y-125611470D01*
X59104529Y-125611470D02*
X59019862Y-125569136D01*
X59019862Y-125569136D02*
X58935195Y-125569136D01*
X58935195Y-125569136D02*
X58808195Y-125611470D01*
X58808195Y-125611470D02*
X58300195Y-126119470D01*
X58300195Y-126119470D02*
X58300195Y-125569136D01*
X59189195Y-125272803D02*
X59189195Y-124722469D01*
X59189195Y-124722469D02*
X58850529Y-125018803D01*
X58850529Y-125018803D02*
X58850529Y-124891803D01*
X58850529Y-124891803D02*
X58808195Y-124807136D01*
X58808195Y-124807136D02*
X58765862Y-124764803D01*
X58765862Y-124764803D02*
X58681195Y-124722469D01*
X58681195Y-124722469D02*
X58469529Y-124722469D01*
X58469529Y-124722469D02*
X58384862Y-124764803D01*
X58384862Y-124764803D02*
X58342529Y-124807136D01*
X58342529Y-124807136D02*
X58300195Y-124891803D01*
X58300195Y-124891803D02*
X58300195Y-125145803D01*
X58300195Y-125145803D02*
X58342529Y-125230469D01*
X58342529Y-125230469D02*
X58384862Y-125272803D01*
X58638862Y-124341469D02*
X58638862Y-123664136D01*
X59104529Y-123283135D02*
X59146862Y-123240802D01*
X59146862Y-123240802D02*
X59189195Y-123156135D01*
X59189195Y-123156135D02*
X59189195Y-122944469D01*
X59189195Y-122944469D02*
X59146862Y-122859802D01*
X59146862Y-122859802D02*
X59104529Y-122817469D01*
X59104529Y-122817469D02*
X59019862Y-122775135D01*
X59019862Y-122775135D02*
X58935195Y-122775135D01*
X58935195Y-122775135D02*
X58808195Y-122817469D01*
X58808195Y-122817469D02*
X58300195Y-123325469D01*
X58300195Y-123325469D02*
X58300195Y-122775135D01*
X58892862Y-122013135D02*
X58300195Y-122013135D01*
X59231529Y-122224802D02*
X58596529Y-122436468D01*
X58596529Y-122436468D02*
X58596529Y-121886135D01*
X58554195Y-120912468D02*
X58554195Y-120489135D01*
X58300195Y-120997135D02*
X59189195Y-120700802D01*
X59189195Y-120700802D02*
X58300195Y-120404468D01*
X58765862Y-120108135D02*
X58765862Y-119811802D01*
X58300195Y-119684802D02*
X58300195Y-120108135D01*
X58300195Y-120108135D02*
X59189195Y-120108135D01*
X59189195Y-120108135D02*
X59189195Y-119684802D01*
X58342529Y-119346135D02*
X58300195Y-119219135D01*
X58300195Y-119219135D02*
X58300195Y-119007469D01*
X58300195Y-119007469D02*
X58342529Y-118922802D01*
X58342529Y-118922802D02*
X58384862Y-118880469D01*
X58384862Y-118880469D02*
X58469529Y-118838135D01*
X58469529Y-118838135D02*
X58554195Y-118838135D01*
X58554195Y-118838135D02*
X58638862Y-118880469D01*
X58638862Y-118880469D02*
X58681195Y-118922802D01*
X58681195Y-118922802D02*
X58723529Y-119007469D01*
X58723529Y-119007469D02*
X58765862Y-119176802D01*
X58765862Y-119176802D02*
X58808195Y-119261469D01*
X58808195Y-119261469D02*
X58850529Y-119303802D01*
X58850529Y-119303802D02*
X58935195Y-119346135D01*
X58935195Y-119346135D02*
X59019862Y-119346135D01*
X59019862Y-119346135D02*
X59104529Y-119303802D01*
X59104529Y-119303802D02*
X59146862Y-119261469D01*
X59146862Y-119261469D02*
X59189195Y-119176802D01*
X59189195Y-119176802D02*
X59189195Y-118965135D01*
X59189195Y-118965135D02*
X59146862Y-118838135D01*
X58300195Y-118457135D02*
X58892862Y-118457135D01*
X59189195Y-118457135D02*
X59146862Y-118499468D01*
X59146862Y-118499468D02*
X59104529Y-118457135D01*
X59104529Y-118457135D02*
X59146862Y-118414802D01*
X59146862Y-118414802D02*
X59189195Y-118457135D01*
X59189195Y-118457135D02*
X59104529Y-118457135D01*
X58300195Y-117906802D02*
X58342529Y-117991469D01*
X58342529Y-117991469D02*
X58427195Y-118033802D01*
X58427195Y-118033802D02*
X59189195Y-118033802D01*
X58300195Y-117568135D02*
X59189195Y-117568135D01*
X58638862Y-117483468D02*
X58300195Y-117229468D01*
X58892862Y-117229468D02*
X58554195Y-117568135D01*
X58892862Y-116933135D02*
X58300195Y-116721468D01*
X58892862Y-116509801D02*
X58300195Y-116721468D01*
X58300195Y-116721468D02*
X58088529Y-116806135D01*
X58088529Y-116806135D02*
X58046195Y-116848468D01*
X58046195Y-116848468D02*
X58003862Y-116933135D01*
D12*
%TO.P,OPa2,1,Pin_1*%
%TO.N,+5V*%
X69494400Y-128447800D03*
D13*
%TO.P,OPa2,2,Pin_2*%
%TO.N,/LOOP_PWR*%
X72034400Y-128447800D03*
%TD*%
D14*
%TO.P,Q2,1,E*%
%TO.N,Net-(Q2-E)*%
X129565400Y-129336800D03*
D15*
%TO.P,Q2,2,B*%
%TO.N,/LOOP_ENGZ*%
X129565400Y-130606800D03*
%TO.P,Q2,3,C*%
%TO.N,Net-(Q1-B)*%
X129565400Y-131876800D03*
%TD*%
D12*
%TO.P,TP5,1,Pin_1*%
%TO.N,/KOB_KEY-*%
X100609400Y-135432800D03*
%TD*%
D16*
%TO.P,J3,0,PAD*%
%TO.N,GND*%
X151157069Y-137762800D03*
X151157069Y-112762800D03*
D17*
%TO.P,J3,1,1*%
%TO.N,/DCD*%
X149737069Y-119722800D03*
D18*
%TO.P,J3,2,2*%
%TO.N,/TXD*%
X149737069Y-122492800D03*
%TO.P,J3,3,3*%
%TO.N,/RXD*%
X149737069Y-125262800D03*
%TO.P,J3,4,4*%
%TO.N,/DTR*%
X149737069Y-128032800D03*
%TO.P,J3,5,5*%
%TO.N,GND*%
X149737069Y-130802800D03*
%TO.P,J3,6,6*%
%TO.N,/DSR*%
X152577069Y-121107800D03*
%TO.P,J3,7,7*%
%TO.N,/RTS*%
X152577069Y-123877800D03*
%TO.P,J3,8,8*%
%TO.N,/CTS*%
X152577069Y-126647800D03*
%TO.P,J3,9,9*%
%TO.N,/RI*%
X152577069Y-129417800D03*
%TD*%
D19*
%TO.P,M_KSI4,1,1*%
%TO.N,GND*%
X61239400Y-167182800D03*
D20*
X61239400Y-167182800D03*
%TD*%
D12*
%TO.P,JP3,1,A*%
%TO.N,/KOB_KEY-*%
X150317200Y-157429200D03*
D13*
%TO.P,JP3,2,B*%
%TO.N,/KEY_PDL-*%
X152857200Y-157429200D03*
%TD*%
D21*
%TO.P,ST1,1,Pin_1*%
%TO.N,/LOOP_PWR*%
X100709400Y-99627800D03*
D22*
%TO.P,ST1,2,Pin_2*%
%TO.N,GND*%
X95709400Y-99627800D03*
%TD*%
D23*
%TO.P,J5,1*%
%TO.N,GND*%
X156733400Y-159155300D03*
%TO.P,J5,2*%
%TO.N,/KEY_PDL-*%
X154333400Y-161155300D03*
%TO.P,J5,3*%
%TO.N,/PDL_DASH-*%
X148833400Y-161155300D03*
%TO.P,J5,4*%
%TO.N,/KOB_KEY-*%
X145133400Y-159155300D03*
%TD*%
D12*
%TO.P,TP1,1,Pin_1*%
%TO.N,/LP2*%
X114579400Y-116382800D03*
%TD*%
%TO.P,OPa1,1,A*%
%TO.N,+5V*%
X128143000Y-115316000D03*
D13*
%TO.P,OPa1,2,C*%
%TO.N,/V33RI*%
X128143000Y-112776000D03*
%TO.P,OPa1,3,B*%
%TO.N,/LOOP_PWR*%
X128143000Y-110236000D03*
%TD*%
D12*
%TO.P,TP2,1,Pin_1*%
%TO.N,/SNDR_EN*%
X85369400Y-135432800D03*
%TD*%
D19*
%TO.P,M_KSI1,1,1*%
%TO.N,GND*%
X61239400Y-98602800D03*
D20*
X61239400Y-98602800D03*
%TD*%
D12*
%TO.P,TP4,1,Pin_1*%
%TO.N,/LOOP_STATE*%
X100609400Y-130352800D03*
%TD*%
D17*
%TO.P,C3,1*%
%TO.N,/LOOP_PWR*%
X69875400Y-120080851D03*
D18*
%TO.P,C3,2*%
%TO.N,GND*%
X69875400Y-115080851D03*
%TD*%
D17*
%TO.P,D4,1,K*%
%TO.N,/LPI-*%
X86537800Y-110794800D03*
D24*
%TO.P,D4,2,A*%
%TO.N,GND*%
X86537800Y-118414800D03*
%TD*%
D25*
%TO.P,SHLD-1,1,1*%
%TO.N,GND*%
X70129400Y-104952800D03*
D26*
X70129400Y-104952800D03*
%TD*%
D25*
%TO.P,SHLD-2,1,1*%
%TO.N,GND*%
X146329400Y-104952800D03*
D26*
X146329400Y-104952800D03*
%TD*%
D13*
%TO.P,SW1,1,A*%
%TO.N,GND*%
X120528400Y-162884800D03*
D12*
X120528400Y-165424800D03*
D13*
%TO.P,SW1,2,B*%
%TO.N,/KEY_PDL_DOT-*%
X115448400Y-162884800D03*
X115448400Y-165424800D03*
%TD*%
D12*
%TO.P,JP2,1,A*%
%TO.N,/KEY_PDL_DOT-*%
X130688400Y-162859800D03*
D13*
%TO.P,JP2,2,B*%
%TO.N,/KEY_PDL-*%
X130688400Y-165399800D03*
%TD*%
D12*
%TO.P,JP1,1,A*%
%TO.N,/V33RO*%
X138573000Y-114403200D03*
D13*
%TO.P,JP1,2,B*%
%TO.N,+3.3V*%
X138573000Y-116943200D03*
%TD*%
D27*
%TO.P,J2,1,In*%
%TO.N,/LPI+*%
X82880200Y-107489100D03*
D28*
%TO.P,J2,2,Ext*%
%TO.N,/LPI-*%
X82880200Y-101489100D03*
%TD*%
D19*
%TO.P,M_KSI2,1,1*%
%TO.N,GND*%
X155219400Y-98602800D03*
D20*
X155219400Y-98602800D03*
%TD*%
D21*
%TO.P,ST2,1,Pin_1*%
%TO.N,GND*%
X107774400Y-99627800D03*
D22*
%TO.P,ST2,2,Pin_2*%
%TO.N,/LP2*%
X112774400Y-99627800D03*
%TD*%
D25*
%TO.P,SHLD-4,1,1*%
%TO.N,GND*%
X70129400Y-145592800D03*
D26*
X70129400Y-145592800D03*
%TD*%
D12*
%TO.P,TP3,1,Pin_1*%
%TO.N,/OFFSET_REF_V*%
X85369400Y-130352800D03*
%TD*%
D29*
%TO.P,Q4,1,E*%
%TO.N,GND*%
X120929400Y-108762800D03*
D30*
%TO.P,Q4,2,B*%
%TO.N,Net-(Q4-B)*%
X119659400Y-108762800D03*
%TO.P,Q4,3,C*%
%TO.N,Net-(LED1-K)*%
X118389400Y-108762800D03*
%TD*%
D17*
%TO.P,D2,1,K*%
%TO.N,/LOOP_PWR*%
X79425800Y-118414800D03*
D24*
%TO.P,D2,2,A*%
%TO.N,/LPI+*%
X79425800Y-110794800D03*
%TD*%
D19*
%TO.P,M_KSI3,1,1*%
%TO.N,GND*%
X155219400Y-167182800D03*
D20*
X155219400Y-167182800D03*
%TD*%
D31*
%TO.P,J1,6,Shield*%
%TO.N,GND*%
X135978000Y-95211800D03*
D32*
X135678000Y-98241800D03*
X130828000Y-98241800D03*
D31*
X130528000Y-95211800D03*
%TD*%
D29*
%TO.P,Q1,1,E*%
%TO.N,+3.3V*%
X130835400Y-136850800D03*
D30*
%TO.P,Q1,2,B*%
%TO.N,Net-(Q1-B)*%
X129565400Y-136850800D03*
%TO.P,Q1,3,C*%
%TO.N,/SNDR_EN*%
X128295400Y-136850800D03*
%TD*%
D25*
%TO.P,SHLD-3,1,1*%
%TO.N,GND*%
X146329400Y-145592800D03*
D26*
X146329400Y-145592800D03*
%TD*%
D12*
%TO.P,J4,1,Pin_1*%
%TO.N,GND*%
X137439400Y-136702800D03*
D13*
%TO.P,J4,2,Pin_2*%
X137439400Y-139242800D03*
%TO.P,J4,3,Pin_3*%
%TO.N,+3.3V*%
X137439400Y-141782800D03*
%TO.P,J4,4,Pin_4*%
%TO.N,+5V*%
X137439400Y-144322800D03*
%TO.P,J4,5,Pin_5*%
%TO.N,/SNDR_EN*%
X137439400Y-146862800D03*
%TO.P,J4,6,Pin_6*%
%TO.N,/KEY_PDL_DOT-*%
X137439400Y-149402800D03*
%TO.P,J4,7,Pin_7*%
%TO.N,/PDL_DASH-*%
X137439400Y-151942800D03*
%TD*%
D33*
%TO.N,/V33RI*%
X133883400Y-108661200D03*
%TO.N,GND*%
X104724200Y-114249200D03*
X110667800Y-129413000D03*
X95580200Y-126794800D03*
X99618800Y-114223800D03*
X74803000Y-159941800D03*
X136321800Y-106093800D03*
X83870800Y-159941800D03*
X138305000Y-96901000D03*
X94538800Y-114223800D03*
X128064800Y-96875600D03*
X79044800Y-124155200D03*
X122021600Y-128066800D03*
X97409000Y-111633000D03*
X133678200Y-113563400D03*
X122555000Y-118541800D03*
X106172000Y-159941800D03*
X109778800Y-114249200D03*
X97028000Y-159941800D03*
X89484200Y-114198400D03*
X116433600Y-121056400D03*
D34*
%TO.N,/LP2*%
X108229400Y-122732800D03*
D35*
%TO.N,/OFFSET_REF_V*%
X111404400Y-125323600D03*
X107518200Y-125171200D03*
%TO.N,/LOOP_STATE*%
X97739200Y-129717800D03*
%TO.N,/RXD*%
X136042400Y-123012200D03*
D33*
%TO.N,+3.3V*%
X119862600Y-139674600D03*
D35*
%TO.N,/SNDR_EN*%
X90627200Y-119253000D03*
X90627200Y-126898400D03*
%TO.N,/PDL_DASH-*%
X136042400Y-129463800D03*
%TO.N,Net-(LED1-K)*%
X118465600Y-97434400D03*
%TO.N,/KEY_PDL_DOT-*%
X137312400Y-120015000D03*
%TD*%
D36*
%TO.N,/V33RI*%
X133883400Y-108661200D02*
X129768600Y-112776000D01*
X129768600Y-112776000D02*
X128143000Y-112776000D01*
%TO.N,+5V*%
X137439400Y-144322800D02*
X134163542Y-141046942D01*
X134163542Y-121336542D02*
X128143000Y-115316000D01*
X134163542Y-141046942D02*
X134163542Y-121336542D01*
D37*
%TO.N,/LP2*%
X108229400Y-122732800D02*
X114579400Y-116382800D01*
X112774400Y-99627800D02*
X114579400Y-101432800D01*
X114579400Y-101432800D02*
X114579400Y-116382800D01*
D38*
%TO.N,/OFFSET_REF_V*%
X107518200Y-125171200D02*
X111252000Y-125171200D01*
X111252000Y-125171200D02*
X111404400Y-125323600D01*
%TO.N,/LOOP_STATE*%
X97739200Y-129717800D02*
X97739200Y-130048000D01*
X97739200Y-130048000D02*
X98044000Y-130352800D01*
X98044000Y-130352800D02*
X100609400Y-130352800D01*
%TO.N,/RXD*%
X138293000Y-125262800D02*
X149737069Y-125262800D01*
X136042400Y-123012200D02*
X138293000Y-125262800D01*
D36*
%TO.N,+3.3V*%
X129136200Y-139700000D02*
X130835400Y-138000800D01*
X119837200Y-139700000D02*
X119862600Y-139674600D01*
X130835400Y-138000800D02*
X130835400Y-136850800D01*
X119837200Y-139700000D02*
X129136200Y-139700000D01*
D38*
%TO.N,/SNDR_EN*%
X137439400Y-146862800D02*
X96799400Y-146862800D01*
X90627200Y-119253000D02*
X90627200Y-126898400D01*
X90627200Y-130175000D02*
X90627200Y-126898400D01*
X85369400Y-135432800D02*
X90627200Y-130175000D01*
X96799400Y-146862800D02*
X85369400Y-135432800D01*
%TO.N,/PDL_DASH-*%
X140030200Y-149352000D02*
X137439400Y-151942800D01*
X136042400Y-129463800D02*
X140030200Y-133451600D01*
X140030200Y-133451600D02*
X140030200Y-149352000D01*
%TO.N,Net-(LED1-K)*%
X118389400Y-97510600D02*
X118389400Y-108762800D01*
X118465600Y-97434400D02*
X118389400Y-97510600D01*
%TO.N,Net-(Q1-B)*%
X129565400Y-136850800D02*
X129565400Y-131876800D01*
%TO.N,/KEY_PDL_DOT-*%
X139166600Y-147675600D02*
X137439400Y-149402800D01*
X135417400Y-121910000D02*
X135417400Y-129880200D01*
X139166600Y-133629400D02*
X139166600Y-147675600D01*
X137312400Y-120015000D02*
X135417400Y-121910000D01*
X135417400Y-129880200D02*
X139166600Y-133629400D01*
%TD*%
%TA.AperFunction,Conductor*%
%TO.N,GND*%
G36*
X120778400Y-164989298D02*
G01*
X120670715Y-164940120D01*
X120564163Y-164924800D01*
X120492637Y-164924800D01*
X120386085Y-164940120D01*
X120278400Y-164989298D01*
X120278400Y-163320301D01*
X120386085Y-163369480D01*
X120492637Y-163384800D01*
X120564163Y-163384800D01*
X120670715Y-163369480D01*
X120778400Y-163320301D01*
X120778400Y-164989298D01*
G37*
%TD.AperFunction*%
%TA.AperFunction,Conductor*%
G36*
X135069245Y-130417080D02*
G01*
X135075708Y-130423098D01*
X136923751Y-132271141D01*
X138504781Y-133852171D01*
X138538266Y-133913494D01*
X138541100Y-133939852D01*
X138541100Y-135236672D01*
X138521415Y-135303711D01*
X138468611Y-135349466D01*
X138403845Y-135359962D01*
X138340514Y-135353153D01*
X138333918Y-135352800D01*
X137689400Y-135352800D01*
X137689400Y-136267298D01*
X137581715Y-136218120D01*
X137475163Y-136202800D01*
X137403637Y-136202800D01*
X137297085Y-136218120D01*
X137189400Y-136267298D01*
X137189400Y-135352800D01*
X136544882Y-135352800D01*
X136538267Y-135353154D01*
X136482028Y-135359200D01*
X136347310Y-135409447D01*
X136232211Y-135495611D01*
X136146047Y-135610710D01*
X136095800Y-135745428D01*
X136089754Y-135801667D01*
X136089400Y-135808281D01*
X136089400Y-136452800D01*
X137005714Y-136452800D01*
X136979907Y-136492956D01*
X136939400Y-136630911D01*
X136939400Y-136774689D01*
X136979907Y-136912644D01*
X137005714Y-136952800D01*
X136089400Y-136952800D01*
X136089400Y-137597318D01*
X136089754Y-137603932D01*
X136095800Y-137660171D01*
X136146047Y-137794889D01*
X136232211Y-137909988D01*
X136347310Y-137996152D01*
X136479387Y-138045414D01*
X136535320Y-138087286D01*
X136559737Y-138152750D01*
X136544885Y-138221023D01*
X136523735Y-138249277D01*
X136401288Y-138371724D01*
X136265800Y-138565221D01*
X136165969Y-138779307D01*
X136108764Y-138992799D01*
X136108764Y-138992800D01*
X137005714Y-138992800D01*
X136979907Y-139032956D01*
X136939400Y-139170911D01*
X136939400Y-139314689D01*
X136979907Y-139452644D01*
X137005714Y-139492800D01*
X136108764Y-139492800D01*
X136165969Y-139706292D01*
X136265799Y-139920376D01*
X136401293Y-140113881D01*
X136568318Y-140280906D01*
X136753995Y-140410919D01*
X136797619Y-140465496D01*
X136804812Y-140534995D01*
X136773290Y-140597349D01*
X136753995Y-140614069D01*
X136567995Y-140744308D01*
X136400905Y-140911398D01*
X136265365Y-141104970D01*
X136165497Y-141319136D01*
X136104336Y-141547392D01*
X136091335Y-141695996D01*
X136065882Y-141761064D01*
X136009292Y-141802043D01*
X135939530Y-141805921D01*
X135880126Y-141772869D01*
X134900361Y-140793104D01*
X134866876Y-140731781D01*
X134864042Y-140705423D01*
X134864042Y-130510793D01*
X134883727Y-130443754D01*
X134936531Y-130397999D01*
X135005689Y-130388055D01*
X135069245Y-130417080D01*
G37*
%TD.AperFunction*%
%TA.AperFunction,Conductor*%
G36*
X137689400Y-138807298D02*
G01*
X137581715Y-138758120D01*
X137475163Y-138742800D01*
X137403637Y-138742800D01*
X137297085Y-138758120D01*
X137189400Y-138807298D01*
X137189400Y-137138301D01*
X137297085Y-137187480D01*
X137403637Y-137202800D01*
X137475163Y-137202800D01*
X137581715Y-137187480D01*
X137689400Y-137138301D01*
X137689400Y-138807298D01*
G37*
%TD.AperFunction*%
%TA.AperFunction,Conductor*%
G36*
X129684077Y-93964006D02*
G01*
X129729832Y-94016810D01*
X129739776Y-94085968D01*
X129710751Y-94149524D01*
X129700577Y-94159958D01*
X129674497Y-94183732D01*
X129546058Y-94353811D01*
X129451062Y-94544591D01*
X129392737Y-94749580D01*
X129378265Y-94905769D01*
X129378000Y-94911502D01*
X129378000Y-94961800D01*
X130178000Y-94961800D01*
X130178000Y-95461800D01*
X129378000Y-95461800D01*
X129378000Y-95512097D01*
X129378265Y-95517830D01*
X129392737Y-95674019D01*
X129451062Y-95879008D01*
X129546058Y-96069788D01*
X129674497Y-96239867D01*
X129832003Y-96383454D01*
X130013206Y-96495649D01*
X130211936Y-96572637D01*
X130278000Y-96584986D01*
X130278000Y-95707381D01*
X130333921Y-95758860D01*
X130440892Y-95805782D01*
X130557302Y-95815428D01*
X130670538Y-95786753D01*
X130768327Y-95722864D01*
X130778000Y-95710435D01*
X130778000Y-96584985D01*
X130844063Y-96572637D01*
X131042793Y-96495649D01*
X131223996Y-96383454D01*
X131381502Y-96239867D01*
X131509941Y-96069788D01*
X131604937Y-95879008D01*
X131663262Y-95674019D01*
X131677734Y-95517830D01*
X131678000Y-95512097D01*
X131678000Y-95461800D01*
X130878000Y-95461800D01*
X130878000Y-94961800D01*
X131678000Y-94961800D01*
X131678000Y-94911502D01*
X131677734Y-94905769D01*
X131663262Y-94749580D01*
X131604937Y-94544591D01*
X131509941Y-94353811D01*
X131381502Y-94183732D01*
X131355423Y-94159958D01*
X131319142Y-94100246D01*
X131320903Y-94030399D01*
X131360147Y-93972591D01*
X131424414Y-93945177D01*
X131438962Y-93944321D01*
X135067038Y-93944321D01*
X135134077Y-93964006D01*
X135179832Y-94016810D01*
X135189776Y-94085968D01*
X135160751Y-94149524D01*
X135150577Y-94159958D01*
X135124497Y-94183732D01*
X134996058Y-94353811D01*
X134901062Y-94544591D01*
X134842737Y-94749580D01*
X134828265Y-94905769D01*
X134828000Y-94911502D01*
X134828000Y-94961800D01*
X135628000Y-94961800D01*
X135628000Y-95461800D01*
X134828000Y-95461800D01*
X134828000Y-95512097D01*
X134828265Y-95517830D01*
X134842737Y-95674019D01*
X134901062Y-95879008D01*
X134996058Y-96069788D01*
X135124497Y-96239867D01*
X135282003Y-96383454D01*
X135463206Y-96495649D01*
X135661936Y-96572637D01*
X135728000Y-96584986D01*
X135728000Y-95707381D01*
X135783921Y-95758860D01*
X135890892Y-95805782D01*
X136007302Y-95815428D01*
X136120538Y-95786753D01*
X136218327Y-95722864D01*
X136228000Y-95710435D01*
X136228000Y-96584985D01*
X136294063Y-96572637D01*
X136492793Y-96495649D01*
X136673996Y-96383454D01*
X136831502Y-96239867D01*
X136959941Y-96069788D01*
X137054937Y-95879008D01*
X137113262Y-95674019D01*
X137127734Y-95517830D01*
X137128000Y-95512097D01*
X137128000Y-95461800D01*
X136328000Y-95461800D01*
X136328000Y-94961800D01*
X137128000Y-94961800D01*
X137128000Y-94911502D01*
X137127734Y-94905769D01*
X137113262Y-94749580D01*
X137054937Y-94544591D01*
X136959941Y-94353811D01*
X136831502Y-94183732D01*
X136805423Y-94159958D01*
X136769142Y-94100246D01*
X136770903Y-94030399D01*
X136810147Y-93972591D01*
X136874414Y-93945177D01*
X136888962Y-93944321D01*
X159629942Y-93944321D01*
X159696981Y-93964006D01*
X159742736Y-94016810D01*
X159753942Y-94068321D01*
X159753942Y-171645921D01*
X159734257Y-171712960D01*
X159681453Y-171758715D01*
X159629942Y-171769921D01*
X56652342Y-171769921D01*
X56585303Y-171750236D01*
X56539548Y-171697432D01*
X56528342Y-171645921D01*
X56528342Y-167186156D01*
X57884662Y-167186156D01*
X57903964Y-167542171D01*
X57904690Y-167548844D01*
X57962374Y-167900704D01*
X57963813Y-167907242D01*
X58059196Y-168250779D01*
X58061347Y-168257163D01*
X58193312Y-168588370D01*
X58196132Y-168594466D01*
X58363139Y-168909474D01*
X58366594Y-168915217D01*
X58566686Y-169210331D01*
X58570747Y-169215673D01*
X58700368Y-169368275D01*
X58700369Y-169368276D01*
X59941665Y-168126979D01*
X60104530Y-168317670D01*
X60295219Y-168480533D01*
X59051289Y-169724463D01*
X59065041Y-169737490D01*
X59070140Y-169741822D01*
X59353993Y-169957601D01*
X59359539Y-169961361D01*
X59665044Y-170145177D01*
X59670983Y-170148325D01*
X59994561Y-170298029D01*
X60000803Y-170300516D01*
X60338680Y-170414360D01*
X60345144Y-170416155D01*
X60693346Y-170492800D01*
X60699980Y-170493887D01*
X61054429Y-170532436D01*
X61061126Y-170532800D01*
X61417674Y-170532800D01*
X61424370Y-170532436D01*
X61778819Y-170493887D01*
X61785453Y-170492800D01*
X62133655Y-170416155D01*
X62140119Y-170414360D01*
X62477996Y-170300516D01*
X62484238Y-170298029D01*
X62807816Y-170148325D01*
X62813755Y-170145177D01*
X63119260Y-169961361D01*
X63124806Y-169957601D01*
X63408652Y-169741827D01*
X63413776Y-169737474D01*
X63427509Y-169724464D01*
X63427509Y-169724463D01*
X62183580Y-168480533D01*
X62374270Y-168317670D01*
X62537133Y-168126980D01*
X63778429Y-169368275D01*
X63778430Y-169368275D01*
X63908052Y-169215673D01*
X63912113Y-169210331D01*
X64112205Y-168915217D01*
X64115660Y-168909474D01*
X64282667Y-168594466D01*
X64285487Y-168588370D01*
X64417452Y-168257163D01*
X64419603Y-168250779D01*
X64514986Y-167907242D01*
X64516425Y-167900704D01*
X64574109Y-167548844D01*
X64574835Y-167542171D01*
X64594138Y-167186156D01*
X151864661Y-167186156D01*
X151883964Y-167542171D01*
X151884690Y-167548844D01*
X151942374Y-167900704D01*
X151943813Y-167907242D01*
X152039196Y-168250779D01*
X152041347Y-168257163D01*
X152173312Y-168588370D01*
X152176132Y-168594466D01*
X152343139Y-168909474D01*
X152346594Y-168915217D01*
X152546686Y-169210331D01*
X152550747Y-169215673D01*
X152680368Y-169368275D01*
X152680369Y-169368276D01*
X153921665Y-168126979D01*
X154084530Y-168317670D01*
X154275219Y-168480533D01*
X153031289Y-169724463D01*
X153045041Y-169737490D01*
X153050140Y-169741822D01*
X153333993Y-169957601D01*
X153339539Y-169961361D01*
X153645044Y-170145177D01*
X153650983Y-170148325D01*
X153974561Y-170298029D01*
X153980803Y-170300516D01*
X154318680Y-170414360D01*
X154325144Y-170416155D01*
X154673346Y-170492800D01*
X154679980Y-170493887D01*
X155034429Y-170532436D01*
X155041126Y-170532800D01*
X155397674Y-170532800D01*
X155404370Y-170532436D01*
X155758819Y-170493887D01*
X155765453Y-170492800D01*
X156113655Y-170416155D01*
X156120119Y-170414360D01*
X156457996Y-170300516D01*
X156464238Y-170298029D01*
X156787816Y-170148325D01*
X156793755Y-170145177D01*
X157099260Y-169961361D01*
X157104806Y-169957601D01*
X157388652Y-169741827D01*
X157393776Y-169737474D01*
X157407509Y-169724464D01*
X157407509Y-169724463D01*
X156163580Y-168480533D01*
X156354270Y-168317670D01*
X156517133Y-168126980D01*
X157758429Y-169368275D01*
X157758430Y-169368275D01*
X157888052Y-169215673D01*
X157892113Y-169210331D01*
X158092205Y-168915217D01*
X158095660Y-168909474D01*
X158262667Y-168594466D01*
X158265487Y-168588370D01*
X158397452Y-168257163D01*
X158399603Y-168250779D01*
X158494986Y-167907242D01*
X158496425Y-167900704D01*
X158554109Y-167548844D01*
X158554835Y-167542171D01*
X158574138Y-167186156D01*
X158574138Y-167179443D01*
X158554835Y-166823428D01*
X158554109Y-166816755D01*
X158496425Y-166464895D01*
X158494986Y-166458357D01*
X158399603Y-166114820D01*
X158397452Y-166108436D01*
X158265487Y-165777229D01*
X158262667Y-165771133D01*
X158095660Y-165456125D01*
X158092205Y-165450382D01*
X157892113Y-165155268D01*
X157888052Y-165149926D01*
X157758430Y-164997323D01*
X157758429Y-164997322D01*
X156517132Y-166238618D01*
X156354270Y-166047930D01*
X156163579Y-165885065D01*
X157407509Y-164641135D01*
X157393758Y-164628109D01*
X157388659Y-164623777D01*
X157104806Y-164407998D01*
X157099260Y-164404238D01*
X156793755Y-164220422D01*
X156787816Y-164217274D01*
X156464238Y-164067570D01*
X156457996Y-164065083D01*
X156120119Y-163951239D01*
X156113655Y-163949444D01*
X155765453Y-163872799D01*
X155758819Y-163871712D01*
X155404370Y-163833163D01*
X155397674Y-163832800D01*
X155041126Y-163832800D01*
X155034429Y-163833163D01*
X154679980Y-163871712D01*
X154673346Y-163872799D01*
X154325144Y-163949444D01*
X154318680Y-163951239D01*
X153980803Y-164065083D01*
X153974561Y-164067570D01*
X153650983Y-164217274D01*
X153645044Y-164220422D01*
X153339539Y-164404238D01*
X153333993Y-164407998D01*
X153050137Y-164623780D01*
X153045029Y-164628118D01*
X153031289Y-164641133D01*
X153031289Y-164641136D01*
X154275219Y-165885066D01*
X154084530Y-166047930D01*
X153921666Y-166238619D01*
X152680369Y-164997322D01*
X152550742Y-165149933D01*
X152546686Y-165155268D01*
X152346594Y-165450382D01*
X152343139Y-165456125D01*
X152176132Y-165771133D01*
X152173312Y-165777229D01*
X152041347Y-166108436D01*
X152039196Y-166114820D01*
X151943813Y-166458357D01*
X151942374Y-166464895D01*
X151884690Y-166816755D01*
X151883964Y-166823428D01*
X151864661Y-167179443D01*
X151864661Y-167186156D01*
X64594138Y-167186156D01*
X64594138Y-167179443D01*
X64574835Y-166823428D01*
X64574109Y-166816755D01*
X64516425Y-166464895D01*
X64514986Y-166458357D01*
X64419603Y-166114820D01*
X64417452Y-166108436D01*
X64285487Y-165777229D01*
X64282667Y-165771133D01*
X64115660Y-165456125D01*
X64112205Y-165450382D01*
X64094859Y-165424799D01*
X114092740Y-165424799D01*
X114113336Y-165660207D01*
X114138896Y-165755598D01*
X114174497Y-165888463D01*
X114274365Y-166102630D01*
X114409905Y-166296201D01*
X114576999Y-166463295D01*
X114770570Y-166598835D01*
X114984737Y-166698703D01*
X115212992Y-166759863D01*
X115448400Y-166780459D01*
X115683808Y-166759863D01*
X115912063Y-166698703D01*
X116126230Y-166598835D01*
X116319801Y-166463295D01*
X116463778Y-166319318D01*
X119178400Y-166319318D01*
X119178754Y-166325932D01*
X119184800Y-166382171D01*
X119235047Y-166516889D01*
X119321211Y-166631988D01*
X119436310Y-166718152D01*
X119571028Y-166768399D01*
X119627267Y-166774445D01*
X119633882Y-166774800D01*
X120278399Y-166774800D01*
X120278399Y-165860301D01*
X120386085Y-165909480D01*
X120492637Y-165924800D01*
X120564163Y-165924800D01*
X120670715Y-165909480D01*
X120778399Y-165860301D01*
X120778399Y-166774800D01*
X121422918Y-166774800D01*
X121429532Y-166774445D01*
X121485771Y-166768399D01*
X121620489Y-166718152D01*
X121735588Y-166631988D01*
X121821752Y-166516889D01*
X121871999Y-166382171D01*
X121878045Y-166325932D01*
X121878400Y-166319318D01*
X121878400Y-165674800D01*
X120962086Y-165674800D01*
X120987893Y-165634644D01*
X121028400Y-165496689D01*
X121028400Y-165399800D01*
X129332740Y-165399800D01*
X129353336Y-165635207D01*
X129391391Y-165777229D01*
X129414497Y-165863463D01*
X129514365Y-166077630D01*
X129649905Y-166271201D01*
X129816999Y-166438295D01*
X130010570Y-166573835D01*
X130224737Y-166673703D01*
X130452992Y-166734863D01*
X130688400Y-166755459D01*
X130923808Y-166734863D01*
X131152063Y-166673703D01*
X131366230Y-166573835D01*
X131559801Y-166438295D01*
X131726895Y-166271201D01*
X131862435Y-166077630D01*
X131962303Y-165863463D01*
X132023463Y-165635208D01*
X132044059Y-165399800D01*
X132023463Y-165164392D01*
X131962303Y-164936137D01*
X131862435Y-164721971D01*
X131726895Y-164528399D01*
X131604968Y-164406473D01*
X131571484Y-164345150D01*
X131576468Y-164275458D01*
X131618340Y-164219525D01*
X131649315Y-164202610D01*
X131780731Y-164153596D01*
X131895946Y-164067346D01*
X131982196Y-163952131D01*
X132032491Y-163817283D01*
X132038900Y-163757673D01*
X132038899Y-162012084D01*
X147532900Y-162012084D01*
X147533135Y-162014779D01*
X147533136Y-162014784D01*
X147547764Y-162181989D01*
X147606661Y-162401797D01*
X147702832Y-162608035D01*
X147833353Y-162794440D01*
X147994259Y-162955346D01*
X148180664Y-163085867D01*
X148180665Y-163085867D01*
X148180666Y-163085868D01*
X148386904Y-163182039D01*
X148606708Y-163240935D01*
X148833400Y-163260768D01*
X149060092Y-163240935D01*
X149279896Y-163182039D01*
X149486134Y-163085868D01*
X149672539Y-162955347D01*
X149833447Y-162794439D01*
X149963968Y-162608034D01*
X150060139Y-162401796D01*
X150119035Y-162181992D01*
X150133900Y-162012084D01*
X153032900Y-162012084D01*
X153033135Y-162014779D01*
X153033136Y-162014784D01*
X153047764Y-162181989D01*
X153106661Y-162401797D01*
X153202832Y-162608035D01*
X153333353Y-162794440D01*
X153494259Y-162955346D01*
X153680664Y-163085867D01*
X153680665Y-163085867D01*
X153680666Y-163085868D01*
X153886904Y-163182039D01*
X154106708Y-163240935D01*
X154333400Y-163260768D01*
X154560092Y-163240935D01*
X154779896Y-163182039D01*
X154986134Y-163085868D01*
X155172539Y-162955347D01*
X155333447Y-162794439D01*
X155463968Y-162608034D01*
X155560139Y-162401796D01*
X155619035Y-162181992D01*
X155633900Y-162012084D01*
X155633900Y-160993640D01*
X155653585Y-160926601D01*
X155706389Y-160880846D01*
X155775547Y-160870902D01*
X155839103Y-160899927D01*
X155845581Y-160905959D01*
X155894580Y-160954958D01*
X156080919Y-161085434D01*
X156287073Y-161181566D01*
X156483399Y-161234171D01*
X156483400Y-161234171D01*
X156483400Y-160088986D01*
X156523556Y-160114793D01*
X156661511Y-160155300D01*
X156805289Y-160155300D01*
X156943244Y-160114793D01*
X156983400Y-160088986D01*
X156983400Y-161234171D01*
X157179726Y-161181566D01*
X157385880Y-161085434D01*
X157572219Y-160954958D01*
X157733058Y-160794119D01*
X157863534Y-160607780D01*
X157959666Y-160401626D01*
X158018541Y-160181902D01*
X158033163Y-160014764D01*
X158033400Y-160009353D01*
X158033400Y-159405300D01*
X157233400Y-159405300D01*
X157233400Y-158905300D01*
X158033400Y-158905300D01*
X158033400Y-158301246D01*
X158033163Y-158295835D01*
X158018541Y-158128697D01*
X157959666Y-157908973D01*
X157863534Y-157702819D01*
X157733058Y-157516480D01*
X157572219Y-157355641D01*
X157385880Y-157225165D01*
X157179726Y-157129033D01*
X156983400Y-157076426D01*
X156983400Y-158221613D01*
X156943244Y-158195807D01*
X156805289Y-158155300D01*
X156661511Y-158155300D01*
X156523556Y-158195807D01*
X156483400Y-158221613D01*
X156483400Y-157076427D01*
X156483399Y-157076426D01*
X156287073Y-157129033D01*
X156080919Y-157225165D01*
X155894580Y-157355641D01*
X155733741Y-157516480D01*
X155603265Y-157702819D01*
X155507133Y-157908973D01*
X155448258Y-158128697D01*
X155433636Y-158295835D01*
X155433400Y-158301246D01*
X155433400Y-158905300D01*
X156233400Y-158905300D01*
X156233400Y-159405300D01*
X155433399Y-159405300D01*
X155415673Y-159423026D01*
X155354350Y-159456510D01*
X155284658Y-159451525D01*
X155240312Y-159423025D01*
X155172540Y-159355253D01*
X154986135Y-159224732D01*
X154779897Y-159128561D01*
X154560089Y-159069664D01*
X154333400Y-159049831D01*
X154106710Y-159069664D01*
X153886902Y-159128561D01*
X153680664Y-159224732D01*
X153494259Y-159355253D01*
X153333353Y-159516159D01*
X153202832Y-159702564D01*
X153106661Y-159908802D01*
X153047764Y-160128610D01*
X153033136Y-160295815D01*
X153032900Y-160298516D01*
X153032900Y-162012084D01*
X150133900Y-162012084D01*
X150133900Y-160298516D01*
X150119035Y-160128608D01*
X150060139Y-159908804D01*
X149963968Y-159702566D01*
X149833447Y-159516161D01*
X149833446Y-159516159D01*
X149672540Y-159355253D01*
X149486135Y-159224732D01*
X149279897Y-159128561D01*
X149060089Y-159069664D01*
X148833400Y-159049831D01*
X148606710Y-159069664D01*
X148386902Y-159128561D01*
X148180664Y-159224732D01*
X147994259Y-159355253D01*
X147833353Y-159516159D01*
X147702832Y-159702564D01*
X147606661Y-159908802D01*
X147547764Y-160128610D01*
X147533136Y-160295815D01*
X147532900Y-160298516D01*
X147532900Y-162012084D01*
X132038899Y-162012084D01*
X132038899Y-161961928D01*
X132032491Y-161902317D01*
X131982196Y-161767469D01*
X131895946Y-161652254D01*
X131780731Y-161566004D01*
X131645883Y-161515709D01*
X131586273Y-161509300D01*
X131582950Y-161509300D01*
X129793839Y-161509300D01*
X129793820Y-161509300D01*
X129790528Y-161509301D01*
X129787248Y-161509653D01*
X129787240Y-161509654D01*
X129730915Y-161515709D01*
X129596069Y-161566004D01*
X129480854Y-161652254D01*
X129394604Y-161767468D01*
X129344310Y-161902315D01*
X129344309Y-161902317D01*
X129337900Y-161961927D01*
X129337900Y-161965248D01*
X129337900Y-161965249D01*
X129337900Y-163754360D01*
X129337900Y-163754378D01*
X129337901Y-163757672D01*
X129344309Y-163817283D01*
X129394604Y-163952131D01*
X129480854Y-164067346D01*
X129596069Y-164153596D01*
X129708307Y-164195458D01*
X129727482Y-164202610D01*
X129783416Y-164244481D01*
X129807833Y-164309946D01*
X129792981Y-164378219D01*
X129771831Y-164406473D01*
X129649903Y-164528401D01*
X129514365Y-164721970D01*
X129414497Y-164936136D01*
X129353336Y-165164392D01*
X129332740Y-165399800D01*
X121028400Y-165399800D01*
X121028400Y-165352911D01*
X120987893Y-165214956D01*
X120962086Y-165174800D01*
X121878400Y-165174800D01*
X121878400Y-164530281D01*
X121878045Y-164523667D01*
X121871999Y-164467428D01*
X121821752Y-164332710D01*
X121735588Y-164217611D01*
X121620488Y-164131447D01*
X121488412Y-164082185D01*
X121432479Y-164040313D01*
X121408062Y-163974849D01*
X121422914Y-163906576D01*
X121444065Y-163878321D01*
X121566509Y-163755877D01*
X121702000Y-163562376D01*
X121801830Y-163348292D01*
X121859036Y-163134800D01*
X120962086Y-163134800D01*
X120987893Y-163094644D01*
X121028400Y-162956689D01*
X121028400Y-162812911D01*
X120987893Y-162674956D01*
X120962086Y-162634800D01*
X121859036Y-162634800D01*
X121859035Y-162634799D01*
X121801830Y-162421307D01*
X121701999Y-162207221D01*
X121566509Y-162013721D01*
X121399481Y-161846693D01*
X121205976Y-161711199D01*
X120991892Y-161611369D01*
X120778399Y-161554164D01*
X120778399Y-162449298D01*
X120670715Y-162400120D01*
X120564163Y-162384800D01*
X120492637Y-162384800D01*
X120386085Y-162400120D01*
X120278400Y-162449298D01*
X120278400Y-161554164D01*
X120278399Y-161554164D01*
X120064907Y-161611369D01*
X119850821Y-161711200D01*
X119657321Y-161846690D01*
X119490290Y-162013721D01*
X119354800Y-162207221D01*
X119254969Y-162421307D01*
X119197764Y-162634799D01*
X119197764Y-162634800D01*
X120094714Y-162634800D01*
X120068907Y-162674956D01*
X120028400Y-162812911D01*
X120028400Y-162956689D01*
X120068907Y-163094644D01*
X120094714Y-163134800D01*
X119197764Y-163134800D01*
X119254969Y-163348292D01*
X119354799Y-163562376D01*
X119490293Y-163755881D01*
X119612734Y-163878322D01*
X119646219Y-163939645D01*
X119641235Y-164009337D01*
X119599363Y-164065270D01*
X119568387Y-164082185D01*
X119436311Y-164131447D01*
X119321211Y-164217611D01*
X119235047Y-164332710D01*
X119184800Y-164467428D01*
X119178754Y-164523667D01*
X119178400Y-164530281D01*
X119178400Y-165174800D01*
X120094714Y-165174800D01*
X120068907Y-165214956D01*
X120028400Y-165352911D01*
X120028400Y-165496689D01*
X120068907Y-165634644D01*
X120094714Y-165674800D01*
X119178400Y-165674800D01*
X119178400Y-166319318D01*
X116463778Y-166319318D01*
X116486895Y-166296201D01*
X116622435Y-166102630D01*
X116722303Y-165888463D01*
X116783463Y-165660208D01*
X116804059Y-165424800D01*
X116783463Y-165189392D01*
X116722303Y-164961137D01*
X116622435Y-164746971D01*
X116486895Y-164553399D01*
X116319801Y-164386305D01*
X116134239Y-164256373D01*
X116090615Y-164201797D01*
X116083423Y-164132298D01*
X116114945Y-164069944D01*
X116134231Y-164053232D01*
X116319801Y-163923295D01*
X116486895Y-163756201D01*
X116622435Y-163562630D01*
X116722303Y-163348463D01*
X116783463Y-163120208D01*
X116804059Y-162884800D01*
X116783463Y-162649392D01*
X116722303Y-162421137D01*
X116622435Y-162206971D01*
X116486895Y-162013399D01*
X116319801Y-161846305D01*
X116126230Y-161710765D01*
X115912063Y-161610897D01*
X115850901Y-161594509D01*
X115683807Y-161549736D01*
X115448399Y-161529140D01*
X115212992Y-161549736D01*
X114984736Y-161610897D01*
X114770570Y-161710765D01*
X114576998Y-161846305D01*
X114409905Y-162013398D01*
X114274365Y-162206970D01*
X114174497Y-162421136D01*
X114113336Y-162649392D01*
X114092740Y-162884799D01*
X114113336Y-163120207D01*
X114129904Y-163182038D01*
X114174497Y-163348463D01*
X114274365Y-163562630D01*
X114409905Y-163756201D01*
X114576999Y-163923295D01*
X114762560Y-164053226D01*
X114806183Y-164107802D01*
X114813376Y-164177301D01*
X114781854Y-164239655D01*
X114762559Y-164256375D01*
X114576995Y-164386308D01*
X114409905Y-164553398D01*
X114274365Y-164746970D01*
X114174497Y-164961136D01*
X114113336Y-165189392D01*
X114092740Y-165424799D01*
X64094859Y-165424799D01*
X63912113Y-165155268D01*
X63908052Y-165149926D01*
X63778430Y-164997323D01*
X63778429Y-164997322D01*
X62537132Y-166238618D01*
X62374270Y-166047930D01*
X62183579Y-165885065D01*
X63427509Y-164641135D01*
X63413758Y-164628109D01*
X63408659Y-164623777D01*
X63124806Y-164407998D01*
X63119260Y-164404238D01*
X62813755Y-164220422D01*
X62807816Y-164217274D01*
X62484238Y-164067570D01*
X62477996Y-164065083D01*
X62140119Y-163951239D01*
X62133655Y-163949444D01*
X61785453Y-163872799D01*
X61778819Y-163871712D01*
X61424370Y-163833163D01*
X61417674Y-163832800D01*
X61061126Y-163832800D01*
X61054429Y-163833163D01*
X60699980Y-163871712D01*
X60693346Y-163872799D01*
X60345144Y-163949444D01*
X60338680Y-163951239D01*
X60000803Y-164065083D01*
X59994561Y-164067570D01*
X59670983Y-164217274D01*
X59665044Y-164220422D01*
X59359539Y-164404238D01*
X59353993Y-164407998D01*
X59070137Y-164623780D01*
X59065029Y-164628118D01*
X59051289Y-164641133D01*
X59051289Y-164641136D01*
X60295219Y-165885066D01*
X60104530Y-166047930D01*
X59941666Y-166238619D01*
X58700369Y-164997322D01*
X58570742Y-165149933D01*
X58566686Y-165155268D01*
X58366594Y-165450382D01*
X58363139Y-165456125D01*
X58196132Y-165771133D01*
X58193312Y-165777229D01*
X58061347Y-166108436D01*
X58059196Y-166114820D01*
X57963813Y-166458357D01*
X57962374Y-166464895D01*
X57904690Y-166816755D01*
X57903964Y-166823428D01*
X57884662Y-167179443D01*
X57884662Y-167186156D01*
X56528342Y-167186156D01*
X56528342Y-160012084D01*
X143832900Y-160012084D01*
X143833135Y-160014779D01*
X143833136Y-160014784D01*
X143847764Y-160181989D01*
X143906661Y-160401797D01*
X144002832Y-160608035D01*
X144133353Y-160794440D01*
X144294259Y-160955346D01*
X144480664Y-161085867D01*
X144480665Y-161085867D01*
X144480666Y-161085868D01*
X144686904Y-161182039D01*
X144906708Y-161240935D01*
X145133400Y-161260768D01*
X145360092Y-161240935D01*
X145579896Y-161182039D01*
X145786134Y-161085868D01*
X145972539Y-160955347D01*
X146133447Y-160794439D01*
X146263968Y-160608034D01*
X146360139Y-160401796D01*
X146419035Y-160181992D01*
X146433900Y-160012084D01*
X146433900Y-158323778D01*
X148966700Y-158323778D01*
X148966701Y-158327072D01*
X148967053Y-158330352D01*
X148967054Y-158330359D01*
X148973109Y-158386684D01*
X148998256Y-158454106D01*
X149023404Y-158521531D01*
X149109654Y-158636746D01*
X149224869Y-158722996D01*
X149359717Y-158773291D01*
X149419327Y-158779700D01*
X151215072Y-158779699D01*
X151274683Y-158773291D01*
X151409531Y-158722996D01*
X151524746Y-158636746D01*
X151610996Y-158521531D01*
X151660010Y-158390116D01*
X151701881Y-158334183D01*
X151767346Y-158309766D01*
X151835619Y-158324618D01*
X151863873Y-158345768D01*
X151985799Y-158467695D01*
X152179370Y-158603235D01*
X152393537Y-158703103D01*
X152621792Y-158764263D01*
X152857200Y-158784859D01*
X153092608Y-158764263D01*
X153320863Y-158703103D01*
X153535030Y-158603235D01*
X153728601Y-158467695D01*
X153895695Y-158300601D01*
X154031235Y-158107030D01*
X154131103Y-157892863D01*
X154192263Y-157664608D01*
X154212859Y-157429200D01*
X154192263Y-157193792D01*
X154131103Y-156965537D01*
X154031235Y-156751371D01*
X153895695Y-156557799D01*
X153728601Y-156390705D01*
X153535030Y-156255165D01*
X153320863Y-156155297D01*
X153259701Y-156138909D01*
X153092607Y-156094136D01*
X152857200Y-156073540D01*
X152621792Y-156094136D01*
X152393536Y-156155297D01*
X152179370Y-156255165D01*
X151985801Y-156390703D01*
X151863873Y-156512631D01*
X151802550Y-156546115D01*
X151732858Y-156541131D01*
X151676925Y-156499259D01*
X151660010Y-156468282D01*
X151652858Y-156449107D01*
X151610996Y-156336869D01*
X151524746Y-156221654D01*
X151409531Y-156135404D01*
X151274683Y-156085109D01*
X151215073Y-156078700D01*
X151211750Y-156078700D01*
X149422639Y-156078700D01*
X149422620Y-156078700D01*
X149419328Y-156078701D01*
X149416048Y-156079053D01*
X149416040Y-156079054D01*
X149359715Y-156085109D01*
X149224869Y-156135404D01*
X149109654Y-156221654D01*
X149023404Y-156336868D01*
X149023403Y-156336869D01*
X149023404Y-156336869D01*
X148973109Y-156471717D01*
X148966700Y-156531327D01*
X148966700Y-156534648D01*
X148966700Y-156534649D01*
X148966700Y-158323760D01*
X148966700Y-158323778D01*
X146433900Y-158323778D01*
X146433900Y-158298516D01*
X146419035Y-158128608D01*
X146360139Y-157908804D01*
X146263968Y-157702566D01*
X146133671Y-157516480D01*
X146133446Y-157516159D01*
X145972540Y-157355253D01*
X145786135Y-157224732D01*
X145579897Y-157128561D01*
X145360089Y-157069664D01*
X145133400Y-157049831D01*
X144906710Y-157069664D01*
X144686902Y-157128561D01*
X144480664Y-157224732D01*
X144294259Y-157355253D01*
X144133353Y-157516159D01*
X144002832Y-157702564D01*
X143906661Y-157908802D01*
X143847764Y-158128610D01*
X143835085Y-158273539D01*
X143832900Y-158298516D01*
X143832900Y-160012084D01*
X56528342Y-160012084D01*
X56528342Y-157172200D01*
X56548027Y-157105161D01*
X56600831Y-157059406D01*
X56652342Y-157048200D01*
X60490742Y-157048200D01*
X60516142Y-157022800D01*
X60516142Y-145595833D01*
X66124725Y-145595833D01*
X66143710Y-145982300D01*
X66144306Y-145988353D01*
X66201081Y-146371094D01*
X66202267Y-146377053D01*
X66296282Y-146752386D01*
X66298049Y-146758209D01*
X66428395Y-147122501D01*
X66430727Y-147128134D01*
X66596158Y-147477908D01*
X66599029Y-147483277D01*
X66797949Y-147815155D01*
X66801317Y-147820196D01*
X67031817Y-148130989D01*
X67035675Y-148135691D01*
X67129468Y-148239176D01*
X67129469Y-148239176D01*
X68442504Y-146926141D01*
X68554431Y-147063718D01*
X68769390Y-147264476D01*
X68793943Y-147281808D01*
X67483022Y-148592729D01*
X67483022Y-148592730D01*
X67586508Y-148686524D01*
X67591210Y-148690382D01*
X67902003Y-148920882D01*
X67907044Y-148924250D01*
X68238922Y-149123170D01*
X68244291Y-149126041D01*
X68594065Y-149291472D01*
X68599698Y-149293804D01*
X68963990Y-149424150D01*
X68969813Y-149425917D01*
X69345146Y-149519932D01*
X69351105Y-149521118D01*
X69733846Y-149577893D01*
X69739899Y-149578489D01*
X70126367Y-149597475D01*
X70132433Y-149597475D01*
X70518900Y-149578489D01*
X70524953Y-149577893D01*
X70907694Y-149521118D01*
X70913653Y-149519932D01*
X71288986Y-149425917D01*
X71294809Y-149424150D01*
X71659101Y-149293804D01*
X71664734Y-149291472D01*
X72014508Y-149126041D01*
X72019877Y-149123170D01*
X72351755Y-148924250D01*
X72356796Y-148920882D01*
X72667589Y-148690382D01*
X72672280Y-148686533D01*
X72775776Y-148592729D01*
X71464855Y-147281808D01*
X71489410Y-147264476D01*
X71704369Y-147063718D01*
X71816295Y-146926142D01*
X73129329Y-148239176D01*
X73223133Y-148135680D01*
X73226982Y-148130989D01*
X73457482Y-147820196D01*
X73460850Y-147815155D01*
X73659770Y-147483277D01*
X73662641Y-147477908D01*
X73828072Y-147128134D01*
X73830404Y-147122501D01*
X73960750Y-146758209D01*
X73962517Y-146752386D01*
X74056532Y-146377053D01*
X74057718Y-146371094D01*
X74114493Y-145988353D01*
X74115089Y-145982300D01*
X74134075Y-145595833D01*
X74134075Y-145589766D01*
X74115089Y-145203299D01*
X74114493Y-145197246D01*
X74057718Y-144814505D01*
X74056532Y-144808546D01*
X73962517Y-144433213D01*
X73960750Y-144427390D01*
X73830404Y-144063098D01*
X73828072Y-144057465D01*
X73662641Y-143707691D01*
X73659770Y-143702322D01*
X73460850Y-143370444D01*
X73457482Y-143365403D01*
X73226982Y-143054610D01*
X73223124Y-143049908D01*
X73129330Y-142946422D01*
X73129329Y-142946422D01*
X71816294Y-144259456D01*
X71704369Y-144121882D01*
X71489410Y-143921124D01*
X71464855Y-143903791D01*
X72775776Y-142592869D01*
X72775776Y-142592868D01*
X72672291Y-142499075D01*
X72667589Y-142495217D01*
X72356796Y-142264717D01*
X72351755Y-142261349D01*
X72019877Y-142062429D01*
X72014508Y-142059558D01*
X71664734Y-141894127D01*
X71659101Y-141891795D01*
X71294809Y-141761449D01*
X71288986Y-141759682D01*
X70913653Y-141665667D01*
X70907694Y-141664481D01*
X70524953Y-141607706D01*
X70518900Y-141607110D01*
X70132433Y-141588125D01*
X70126367Y-141588125D01*
X69739899Y-141607110D01*
X69733846Y-141607706D01*
X69351105Y-141664481D01*
X69345146Y-141665667D01*
X68969813Y-141759682D01*
X68963990Y-141761449D01*
X68599698Y-141891795D01*
X68594065Y-141894127D01*
X68244291Y-142059558D01*
X68238922Y-142062429D01*
X67907044Y-142261349D01*
X67902003Y-142264717D01*
X67591207Y-142495218D01*
X67586505Y-142499077D01*
X67483022Y-142592868D01*
X67483022Y-142592869D01*
X68793944Y-143903791D01*
X68769390Y-143921124D01*
X68554431Y-144121882D01*
X68442504Y-144259457D01*
X67129469Y-142946422D01*
X67129468Y-142946422D01*
X67035677Y-143049905D01*
X67031818Y-143054607D01*
X66801317Y-143365403D01*
X66797949Y-143370444D01*
X66599029Y-143702322D01*
X66596158Y-143707691D01*
X66430727Y-144057465D01*
X66428395Y-144063098D01*
X66298049Y-144427390D01*
X66296282Y-144433213D01*
X66202267Y-144808546D01*
X66201081Y-144814505D01*
X66144306Y-145197246D01*
X66143710Y-145203299D01*
X66124725Y-145589766D01*
X66124725Y-145595833D01*
X60516142Y-145595833D01*
X60516142Y-136327378D01*
X84018900Y-136327378D01*
X84018901Y-136330672D01*
X84025309Y-136390283D01*
X84075604Y-136525131D01*
X84161854Y-136640346D01*
X84277069Y-136726596D01*
X84411917Y-136776891D01*
X84471527Y-136783300D01*
X85783947Y-136783299D01*
X85850986Y-136802984D01*
X85871628Y-136819618D01*
X96298596Y-147246587D01*
X96311496Y-147262688D01*
X96362623Y-147310700D01*
X96365420Y-147313411D01*
X96384929Y-147332920D01*
X96388109Y-147335387D01*
X96396971Y-147342955D01*
X96428818Y-147372862D01*
X96446372Y-147382512D01*
X96462636Y-147393196D01*
X96474372Y-147402299D01*
X96478464Y-147405473D01*
X96503309Y-147416224D01*
X96518552Y-147422821D01*
X96529031Y-147427954D01*
X96567308Y-147448997D01*
X96586706Y-147453977D01*
X96605108Y-147460277D01*
X96623504Y-147468238D01*
X96666661Y-147475073D01*
X96678064Y-147477434D01*
X96720381Y-147488300D01*
X96740416Y-147488300D01*
X96759813Y-147489826D01*
X96779596Y-147492960D01*
X96823074Y-147488850D01*
X96834744Y-147488300D01*
X136164173Y-147488300D01*
X136231212Y-147507985D01*
X136265745Y-147541173D01*
X136400905Y-147734201D01*
X136567999Y-147901295D01*
X136753560Y-148031226D01*
X136797183Y-148085802D01*
X136804376Y-148155301D01*
X136772854Y-148217655D01*
X136753559Y-148234375D01*
X136567995Y-148364308D01*
X136400905Y-148531398D01*
X136265365Y-148724970D01*
X136165497Y-148939136D01*
X136104336Y-149167392D01*
X136083740Y-149402800D01*
X136104336Y-149638207D01*
X136139442Y-149769224D01*
X136165497Y-149866463D01*
X136265365Y-150080630D01*
X136400905Y-150274201D01*
X136567999Y-150441295D01*
X136753560Y-150571226D01*
X136797183Y-150625802D01*
X136804376Y-150695301D01*
X136772854Y-150757655D01*
X136753559Y-150774375D01*
X136567995Y-150904308D01*
X136400905Y-151071398D01*
X136265365Y-151264970D01*
X136165497Y-151479136D01*
X136104336Y-151707392D01*
X136083740Y-151942800D01*
X136104336Y-152178207D01*
X136149109Y-152345301D01*
X136165497Y-152406463D01*
X136265365Y-152620630D01*
X136400905Y-152814201D01*
X136567999Y-152981295D01*
X136761570Y-153116835D01*
X136975737Y-153216703D01*
X137203992Y-153277863D01*
X137439400Y-153298459D01*
X137674808Y-153277863D01*
X137903063Y-153216703D01*
X138117230Y-153116835D01*
X138310801Y-152981295D01*
X138477895Y-152814201D01*
X138613435Y-152620630D01*
X138713303Y-152406463D01*
X138774463Y-152178208D01*
X138795059Y-151942800D01*
X138774463Y-151707392D01*
X138747543Y-151606925D01*
X138749206Y-151537076D01*
X138779635Y-151487153D01*
X140413988Y-149852800D01*
X140430085Y-149839906D01*
X140432073Y-149837787D01*
X140432077Y-149837786D01*
X140478149Y-149788723D01*
X140480734Y-149786055D01*
X140500320Y-149766471D01*
X140502785Y-149763292D01*
X140510367Y-149754416D01*
X140510538Y-149754234D01*
X140540262Y-149722582D01*
X140549917Y-149705018D01*
X140560594Y-149688764D01*
X140572873Y-149672936D01*
X140590218Y-149632852D01*
X140595360Y-149622356D01*
X140609039Y-149597475D01*
X140616397Y-149584092D01*
X140621379Y-149564684D01*
X140627681Y-149546280D01*
X140635637Y-149527896D01*
X140642469Y-149484752D01*
X140644833Y-149473338D01*
X140655700Y-149431019D01*
X140655700Y-149410982D01*
X140657227Y-149391584D01*
X140660360Y-149371804D01*
X140656249Y-149328327D01*
X140655700Y-149316658D01*
X140655700Y-145595833D01*
X142324725Y-145595833D01*
X142343710Y-145982300D01*
X142344306Y-145988353D01*
X142401081Y-146371094D01*
X142402267Y-146377053D01*
X142496282Y-146752386D01*
X142498049Y-146758209D01*
X142628395Y-147122501D01*
X142630727Y-147128134D01*
X142796158Y-147477908D01*
X142799029Y-147483277D01*
X142997949Y-147815155D01*
X143001317Y-147820196D01*
X143231817Y-148130989D01*
X143235675Y-148135691D01*
X143329468Y-148239176D01*
X143329469Y-148239176D01*
X144642504Y-146926141D01*
X144754431Y-147063718D01*
X144969390Y-147264476D01*
X144993943Y-147281808D01*
X143683022Y-148592729D01*
X143683022Y-148592730D01*
X143786508Y-148686524D01*
X143791210Y-148690382D01*
X144102003Y-148920882D01*
X144107044Y-148924250D01*
X144438922Y-149123170D01*
X144444291Y-149126041D01*
X144794065Y-149291472D01*
X144799698Y-149293804D01*
X145163990Y-149424150D01*
X145169813Y-149425917D01*
X145545146Y-149519932D01*
X145551105Y-149521118D01*
X145933846Y-149577893D01*
X145939899Y-149578489D01*
X146326367Y-149597475D01*
X146332433Y-149597475D01*
X146718900Y-149578489D01*
X146724953Y-149577893D01*
X147107694Y-149521118D01*
X147113653Y-149519932D01*
X147488986Y-149425917D01*
X147494809Y-149424150D01*
X147859101Y-149293804D01*
X147864734Y-149291472D01*
X148214508Y-149126041D01*
X148219877Y-149123170D01*
X148551755Y-148924250D01*
X148556796Y-148920882D01*
X148867589Y-148690382D01*
X148872280Y-148686533D01*
X148975776Y-148592729D01*
X147664855Y-147281808D01*
X147689410Y-147264476D01*
X147904369Y-147063718D01*
X148016295Y-146926142D01*
X149329329Y-148239176D01*
X149423133Y-148135680D01*
X149426982Y-148130989D01*
X149657482Y-147820196D01*
X149660850Y-147815155D01*
X149859770Y-147483277D01*
X149862641Y-147477908D01*
X150028072Y-147128134D01*
X150030404Y-147122501D01*
X150160750Y-146758209D01*
X150162517Y-146752386D01*
X150256532Y-146377053D01*
X150257718Y-146371094D01*
X150314493Y-145988353D01*
X150315089Y-145982300D01*
X150334075Y-145595833D01*
X150334075Y-145589766D01*
X150315089Y-145203299D01*
X150314493Y-145197246D01*
X150257718Y-144814505D01*
X150256532Y-144808546D01*
X150162517Y-144433213D01*
X150160750Y-144427390D01*
X150030404Y-144063098D01*
X150028072Y-144057465D01*
X149862641Y-143707691D01*
X149859770Y-143702322D01*
X149660850Y-143370444D01*
X149657482Y-143365403D01*
X149426982Y-143054610D01*
X149423124Y-143049908D01*
X149329330Y-142946422D01*
X149329329Y-142946422D01*
X148016294Y-144259456D01*
X147904369Y-144121882D01*
X147689410Y-143921124D01*
X147664855Y-143903791D01*
X148975776Y-142592869D01*
X148975776Y-142592868D01*
X148872291Y-142499075D01*
X148867589Y-142495217D01*
X148556796Y-142264717D01*
X148551755Y-142261349D01*
X148219877Y-142062429D01*
X148214508Y-142059558D01*
X147864734Y-141894127D01*
X147859101Y-141891795D01*
X147494809Y-141761449D01*
X147488986Y-141759682D01*
X147113653Y-141665667D01*
X147107694Y-141664481D01*
X146724953Y-141607706D01*
X146718900Y-141607110D01*
X146332433Y-141588125D01*
X146326367Y-141588125D01*
X145939899Y-141607110D01*
X145933846Y-141607706D01*
X145551105Y-141664481D01*
X145545146Y-141665667D01*
X145169813Y-141759682D01*
X145163990Y-141761449D01*
X144799698Y-141891795D01*
X144794065Y-141894127D01*
X144444291Y-142059558D01*
X144438922Y-142062429D01*
X144107044Y-142261349D01*
X144102003Y-142264717D01*
X143791207Y-142495218D01*
X143786505Y-142499077D01*
X143683022Y-142592868D01*
X143683022Y-142592869D01*
X144993944Y-143903791D01*
X144969390Y-143921124D01*
X144754431Y-144121882D01*
X144642504Y-144259457D01*
X143329469Y-142946422D01*
X143329468Y-142946422D01*
X143235677Y-143049905D01*
X143231818Y-143054607D01*
X143001317Y-143365403D01*
X142997949Y-143370444D01*
X142799029Y-143702322D01*
X142796158Y-143707691D01*
X142630727Y-144057465D01*
X142628395Y-144063098D01*
X142498049Y-144427390D01*
X142496282Y-144433213D01*
X142402267Y-144808546D01*
X142401081Y-144814505D01*
X142344306Y-145197246D01*
X142343710Y-145203299D01*
X142324725Y-145589766D01*
X142324725Y-145595833D01*
X140655700Y-145595833D01*
X140655700Y-137766694D01*
X148652371Y-137766694D01*
X148671633Y-138072859D01*
X148672607Y-138080579D01*
X148730092Y-138381924D01*
X148732028Y-138389463D01*
X148826828Y-138681226D01*
X148829691Y-138688457D01*
X148960312Y-138966040D01*
X148964056Y-138972851D01*
X149128437Y-139231875D01*
X149133018Y-139238180D01*
X149221355Y-139344960D01*
X149859335Y-138706980D01*
X150022199Y-138897670D01*
X150212887Y-139060532D01*
X149572040Y-139701379D01*
X149572041Y-139701380D01*
X149811689Y-139875494D01*
X149818279Y-139879676D01*
X150087101Y-140027462D01*
X150094140Y-140030775D01*
X150379376Y-140143707D01*
X150386771Y-140146110D01*
X150683906Y-140222402D01*
X150691564Y-140223863D01*
X150995915Y-140262311D01*
X151003677Y-140262800D01*
X151310461Y-140262800D01*
X151318222Y-140262311D01*
X151622573Y-140223863D01*
X151630231Y-140222402D01*
X151927366Y-140146110D01*
X151934761Y-140143707D01*
X152219997Y-140030775D01*
X152227036Y-140027462D01*
X152495867Y-139879672D01*
X152502437Y-139875502D01*
X152742095Y-139701379D01*
X152742096Y-139701379D01*
X152101249Y-139060533D01*
X152291939Y-138897670D01*
X152454802Y-138706981D01*
X153092781Y-139344960D01*
X153181123Y-139238174D01*
X153185699Y-139231876D01*
X153350081Y-138972851D01*
X153353825Y-138966040D01*
X153484446Y-138688457D01*
X153487309Y-138681226D01*
X153582109Y-138389463D01*
X153584045Y-138381924D01*
X153641530Y-138080579D01*
X153642504Y-138072859D01*
X153661767Y-137766694D01*
X153661767Y-137758905D01*
X153642504Y-137452740D01*
X153641530Y-137445020D01*
X153584045Y-137143675D01*
X153582109Y-137136136D01*
X153487309Y-136844373D01*
X153484446Y-136837142D01*
X153353825Y-136559559D01*
X153350081Y-136552748D01*
X153185700Y-136293724D01*
X153181119Y-136287419D01*
X153092781Y-136180638D01*
X152454801Y-136818618D01*
X152291939Y-136627930D01*
X152101249Y-136465066D01*
X152742096Y-135824219D01*
X152742095Y-135824218D01*
X152502448Y-135650105D01*
X152495858Y-135645923D01*
X152227036Y-135498137D01*
X152219997Y-135494824D01*
X151934761Y-135381892D01*
X151927366Y-135379489D01*
X151630231Y-135303197D01*
X151622573Y-135301736D01*
X151318222Y-135263288D01*
X151310461Y-135262800D01*
X151003677Y-135262800D01*
X150995915Y-135263288D01*
X150691564Y-135301736D01*
X150683906Y-135303197D01*
X150386771Y-135379489D01*
X150379376Y-135381892D01*
X150094140Y-135494824D01*
X150087101Y-135498137D01*
X149818279Y-135645923D01*
X149811700Y-135650098D01*
X149572040Y-135824219D01*
X150212888Y-136465066D01*
X150022199Y-136627930D01*
X149859335Y-136818618D01*
X149221355Y-136180638D01*
X149221354Y-136180638D01*
X149133009Y-136287431D01*
X149128442Y-136293717D01*
X148964056Y-136552748D01*
X148960312Y-136559559D01*
X148829691Y-136837142D01*
X148826828Y-136844373D01*
X148732028Y-137136136D01*
X148730092Y-137143675D01*
X148672607Y-137445020D01*
X148671633Y-137452740D01*
X148652371Y-137758905D01*
X148652371Y-137766694D01*
X140655700Y-137766694D01*
X140655700Y-133534343D01*
X140657964Y-133513839D01*
X140655761Y-133443726D01*
X140655700Y-133439831D01*
X140655700Y-133416140D01*
X140655700Y-133412250D01*
X140655198Y-133408277D01*
X140654280Y-133396618D01*
X140652909Y-133352973D01*
X140647320Y-133333740D01*
X140643374Y-133314682D01*
X140640864Y-133294806D01*
X140624788Y-133254204D01*
X140621004Y-133243153D01*
X140615081Y-133222768D01*
X140608818Y-133201210D01*
X140598614Y-133183955D01*
X140590061Y-133166495D01*
X140582686Y-133147869D01*
X140582686Y-133147868D01*
X140557008Y-133112525D01*
X140550601Y-133102771D01*
X140528369Y-133065179D01*
X140514206Y-133051016D01*
X140501567Y-133036217D01*
X140489795Y-133020013D01*
X140456141Y-132992173D01*
X140447499Y-132984309D01*
X136868611Y-129405420D01*
X136835126Y-129344097D01*
X136833072Y-129331621D01*
X136827768Y-129284549D01*
X136827768Y-129284545D01*
X136768189Y-129114278D01*
X136672216Y-128961538D01*
X136672215Y-128961537D01*
X136672214Y-128961535D01*
X136544664Y-128833985D01*
X136438438Y-128767239D01*
X136391922Y-128738011D01*
X136221655Y-128678432D01*
X136221653Y-128678431D01*
X136221651Y-128678431D01*
X136153016Y-128670698D01*
X136088602Y-128643631D01*
X136049047Y-128586037D01*
X136042900Y-128547478D01*
X136042900Y-124196652D01*
X136062585Y-124129613D01*
X136115389Y-124083858D01*
X136184547Y-124073914D01*
X136248103Y-124102939D01*
X136254579Y-124108969D01*
X137023455Y-124877846D01*
X137792196Y-125646587D01*
X137805096Y-125662688D01*
X137856223Y-125710700D01*
X137859020Y-125713411D01*
X137878529Y-125732920D01*
X137881709Y-125735387D01*
X137890571Y-125742955D01*
X137922418Y-125772862D01*
X137939972Y-125782512D01*
X137956236Y-125793196D01*
X137966318Y-125801016D01*
X137972064Y-125805473D01*
X137995711Y-125815706D01*
X138012152Y-125822821D01*
X138022631Y-125827954D01*
X138060908Y-125848997D01*
X138080306Y-125853977D01*
X138098708Y-125860277D01*
X138117104Y-125868238D01*
X138160261Y-125875073D01*
X138171664Y-125877434D01*
X138213981Y-125888300D01*
X138234016Y-125888300D01*
X138253413Y-125889826D01*
X138273196Y-125892960D01*
X138316674Y-125888850D01*
X138328344Y-125888300D01*
X148522881Y-125888300D01*
X148589920Y-125907985D01*
X148624456Y-125941177D01*
X148737022Y-126101940D01*
X148897928Y-126262846D01*
X149084333Y-126393367D01*
X149084334Y-126393367D01*
X149084335Y-126393368D01*
X149290573Y-126489539D01*
X149404611Y-126520095D01*
X149434205Y-126528025D01*
X149493865Y-126564390D01*
X149524394Y-126627237D01*
X149516099Y-126696613D01*
X149471614Y-126750491D01*
X149434205Y-126767575D01*
X149290571Y-126806061D01*
X149084333Y-126902232D01*
X148897928Y-127032753D01*
X148737022Y-127193659D01*
X148606501Y-127380064D01*
X148510330Y-127586302D01*
X148451433Y-127806110D01*
X148431600Y-128032800D01*
X148451433Y-128259489D01*
X148510330Y-128479297D01*
X148606501Y-128685535D01*
X148737022Y-128871940D01*
X148897928Y-129032846D01*
X149084333Y-129163367D01*
X149084334Y-129163367D01*
X149084335Y-129163368D01*
X149290573Y-129259539D01*
X149435169Y-129298283D01*
X149494830Y-129334648D01*
X149525359Y-129397495D01*
X149517064Y-129466870D01*
X149472579Y-129520748D01*
X149435171Y-129537833D01*
X149290740Y-129576534D01*
X149084585Y-129672665D01*
X149011596Y-129723773D01*
X149011595Y-129723773D01*
X149604536Y-130316713D01*
X149594754Y-130318120D01*
X149463969Y-130377848D01*
X149355308Y-130472002D01*
X149277576Y-130592956D01*
X149253992Y-130673275D01*
X148658042Y-130077327D01*
X148606934Y-130150316D01*
X148510802Y-130356472D01*
X148451927Y-130576197D01*
X148432102Y-130802799D01*
X148451927Y-131029402D01*
X148510802Y-131249126D01*
X148606935Y-131455284D01*
X148658041Y-131528271D01*
X148658042Y-131528272D01*
X149253991Y-130932323D01*
X149277576Y-131012644D01*
X149355308Y-131133598D01*
X149463969Y-131227752D01*
X149594754Y-131287480D01*
X149604535Y-131288886D01*
X149011595Y-131881825D01*
X149011595Y-131881826D01*
X149084584Y-131932933D01*
X149290742Y-132029066D01*
X149510466Y-132087941D01*
X149737069Y-132107766D01*
X149963671Y-132087941D01*
X150183395Y-132029066D01*
X150389549Y-131932934D01*
X150462541Y-131881825D01*
X149869603Y-131288886D01*
X149879384Y-131287480D01*
X150010169Y-131227752D01*
X150118830Y-131133598D01*
X150196562Y-131012644D01*
X150220145Y-130932323D01*
X150816094Y-131528272D01*
X150867203Y-131455280D01*
X150963335Y-131249126D01*
X151022210Y-131029402D01*
X151042035Y-130802800D01*
X151022210Y-130576197D01*
X150963335Y-130356473D01*
X150867202Y-130150315D01*
X150816094Y-130077326D01*
X150220145Y-130673275D01*
X150196562Y-130592956D01*
X150118830Y-130472002D01*
X150010169Y-130377848D01*
X149879384Y-130318120D01*
X149869602Y-130316713D01*
X150462541Y-129723774D01*
X150462540Y-129723772D01*
X150389553Y-129672666D01*
X150183395Y-129576533D01*
X150038967Y-129537833D01*
X149979306Y-129501467D01*
X149948778Y-129438620D01*
X149951268Y-129417799D01*
X151271600Y-129417799D01*
X151291433Y-129644489D01*
X151350330Y-129864297D01*
X151446501Y-130070535D01*
X151577022Y-130256940D01*
X151737928Y-130417846D01*
X151924333Y-130548367D01*
X151924334Y-130548367D01*
X151924335Y-130548368D01*
X152130573Y-130644539D01*
X152350377Y-130703435D01*
X152577069Y-130723268D01*
X152803761Y-130703435D01*
X153023565Y-130644539D01*
X153229803Y-130548368D01*
X153416208Y-130417847D01*
X153577116Y-130256939D01*
X153707637Y-130070534D01*
X153803808Y-129864296D01*
X153862704Y-129644492D01*
X153882537Y-129417800D01*
X153862704Y-129191108D01*
X153803808Y-128971304D01*
X153707637Y-128765066D01*
X153706841Y-128763928D01*
X153577115Y-128578659D01*
X153416209Y-128417753D01*
X153229804Y-128287232D01*
X153023565Y-128191061D01*
X152879933Y-128152575D01*
X152820272Y-128116210D01*
X152789743Y-128053363D01*
X152798038Y-127983988D01*
X152842523Y-127930110D01*
X152879933Y-127913025D01*
X152895371Y-127908888D01*
X153023565Y-127874539D01*
X153229803Y-127778368D01*
X153416208Y-127647847D01*
X153577116Y-127486939D01*
X153707637Y-127300534D01*
X153803808Y-127094296D01*
X153862704Y-126874492D01*
X153882537Y-126647800D01*
X153862704Y-126421108D01*
X153803808Y-126201304D01*
X153707637Y-125995066D01*
X153678473Y-125953414D01*
X153577115Y-125808659D01*
X153416209Y-125647753D01*
X153229804Y-125517232D01*
X153023565Y-125421061D01*
X152879933Y-125382575D01*
X152820272Y-125346210D01*
X152789743Y-125283363D01*
X152798038Y-125213988D01*
X152842523Y-125160110D01*
X152879933Y-125143025D01*
X152895371Y-125138888D01*
X153023565Y-125104539D01*
X153229803Y-125008368D01*
X153416208Y-124877847D01*
X153577116Y-124716939D01*
X153707637Y-124530534D01*
X153803808Y-124324296D01*
X153862704Y-124104492D01*
X153882537Y-123877800D01*
X153862704Y-123651108D01*
X153803808Y-123431304D01*
X153707637Y-123225066D01*
X153651950Y-123145535D01*
X153577115Y-123038659D01*
X153416209Y-122877753D01*
X153229804Y-122747232D01*
X153023565Y-122651061D01*
X152879933Y-122612575D01*
X152820272Y-122576210D01*
X152789743Y-122513363D01*
X152798038Y-122443988D01*
X152842523Y-122390110D01*
X152879933Y-122373025D01*
X152895371Y-122368888D01*
X153023565Y-122334539D01*
X153229803Y-122238368D01*
X153416208Y-122107847D01*
X153577116Y-121946939D01*
X153707637Y-121760534D01*
X153803808Y-121554296D01*
X153862704Y-121334492D01*
X153882537Y-121107800D01*
X153862704Y-120881108D01*
X153803808Y-120661304D01*
X153707637Y-120455066D01*
X153577116Y-120268661D01*
X153577115Y-120268659D01*
X153416209Y-120107753D01*
X153229804Y-119977232D01*
X153023566Y-119881061D01*
X152803758Y-119822164D01*
X152577068Y-119802331D01*
X152350379Y-119822164D01*
X152130571Y-119881061D01*
X151924333Y-119977232D01*
X151737928Y-120107753D01*
X151577022Y-120268659D01*
X151446501Y-120455064D01*
X151350330Y-120661302D01*
X151291433Y-120881110D01*
X151271600Y-121107799D01*
X151291433Y-121334489D01*
X151350330Y-121554297D01*
X151446501Y-121760535D01*
X151577022Y-121946940D01*
X151737928Y-122107846D01*
X151924333Y-122238367D01*
X151924334Y-122238367D01*
X151924335Y-122238368D01*
X152130573Y-122334539D01*
X152244611Y-122365095D01*
X152274205Y-122373025D01*
X152333865Y-122409390D01*
X152364394Y-122472237D01*
X152356099Y-122541613D01*
X152311614Y-122595491D01*
X152274205Y-122612575D01*
X152130571Y-122651061D01*
X151924333Y-122747232D01*
X151737928Y-122877753D01*
X151577022Y-123038659D01*
X151446501Y-123225064D01*
X151350330Y-123431302D01*
X151291433Y-123651110D01*
X151271600Y-123877800D01*
X151291433Y-124104489D01*
X151350330Y-124324297D01*
X151446501Y-124530535D01*
X151577022Y-124716940D01*
X151737928Y-124877846D01*
X151924333Y-125008367D01*
X151924334Y-125008367D01*
X151924335Y-125008368D01*
X152130573Y-125104539D01*
X152244611Y-125135095D01*
X152274205Y-125143025D01*
X152333865Y-125179390D01*
X152364394Y-125242237D01*
X152356099Y-125311613D01*
X152311614Y-125365491D01*
X152274205Y-125382575D01*
X152130571Y-125421061D01*
X151924333Y-125517232D01*
X151737928Y-125647753D01*
X151577022Y-125808659D01*
X151446501Y-125995064D01*
X151350330Y-126201302D01*
X151291433Y-126421110D01*
X151271600Y-126647800D01*
X151291433Y-126874489D01*
X151350330Y-127094297D01*
X151446501Y-127300535D01*
X151577022Y-127486940D01*
X151737928Y-127647846D01*
X151924333Y-127778367D01*
X151924334Y-127778367D01*
X151924335Y-127778368D01*
X152130573Y-127874539D01*
X152244611Y-127905095D01*
X152274205Y-127913025D01*
X152333865Y-127949390D01*
X152364394Y-128012237D01*
X152356099Y-128081613D01*
X152311614Y-128135491D01*
X152274205Y-128152575D01*
X152130571Y-128191061D01*
X151924333Y-128287232D01*
X151737928Y-128417753D01*
X151577022Y-128578659D01*
X151446501Y-128765064D01*
X151350330Y-128971302D01*
X151291433Y-129191110D01*
X151271600Y-129417799D01*
X149951268Y-129417799D01*
X149957073Y-129369245D01*
X150001559Y-129315367D01*
X150038965Y-129298284D01*
X150183565Y-129259539D01*
X150389803Y-129163368D01*
X150576208Y-129032847D01*
X150737116Y-128871939D01*
X150867637Y-128685534D01*
X150963808Y-128479296D01*
X151022704Y-128259492D01*
X151042537Y-128032800D01*
X151022704Y-127806108D01*
X150963808Y-127586304D01*
X150867637Y-127380066D01*
X150865689Y-127377283D01*
X150737115Y-127193659D01*
X150576209Y-127032753D01*
X150389804Y-126902232D01*
X150183565Y-126806061D01*
X150039933Y-126767575D01*
X149980272Y-126731210D01*
X149949743Y-126668363D01*
X149958038Y-126598988D01*
X150002523Y-126545110D01*
X150039933Y-126528025D01*
X150055371Y-126523888D01*
X150183565Y-126489539D01*
X150389803Y-126393368D01*
X150576208Y-126262847D01*
X150737116Y-126101939D01*
X150867637Y-125915534D01*
X150963808Y-125709296D01*
X151022704Y-125489492D01*
X151042537Y-125262800D01*
X151038266Y-125213988D01*
X151032174Y-125144348D01*
X151022704Y-125036108D01*
X150963808Y-124816304D01*
X150867637Y-124610066D01*
X150819547Y-124541385D01*
X150737115Y-124423659D01*
X150576209Y-124262753D01*
X150389804Y-124132232D01*
X150183565Y-124036061D01*
X150039933Y-123997575D01*
X149980272Y-123961210D01*
X149949743Y-123898363D01*
X149958038Y-123828988D01*
X150002523Y-123775110D01*
X150039933Y-123758025D01*
X150055371Y-123753888D01*
X150183565Y-123719539D01*
X150389803Y-123623368D01*
X150576208Y-123492847D01*
X150737116Y-123331939D01*
X150867637Y-123145534D01*
X150963808Y-122939296D01*
X151022704Y-122719492D01*
X151042537Y-122492800D01*
X151022704Y-122266108D01*
X150963808Y-122046304D01*
X150867637Y-121840066D01*
X150811950Y-121760535D01*
X150737115Y-121653659D01*
X150576209Y-121492753D01*
X150389804Y-121362232D01*
X150173733Y-121261476D01*
X150174713Y-121259374D01*
X150127685Y-121230709D01*
X150097156Y-121167862D01*
X150105451Y-121098486D01*
X150149936Y-121044608D01*
X150216488Y-121023334D01*
X150219420Y-121023299D01*
X150584941Y-121023299D01*
X150644552Y-121016891D01*
X150779400Y-120966596D01*
X150894615Y-120880346D01*
X150980865Y-120765131D01*
X151031160Y-120630283D01*
X151037569Y-120570673D01*
X151037568Y-118874928D01*
X151031160Y-118815317D01*
X150980865Y-118680469D01*
X150894615Y-118565254D01*
X150779400Y-118479004D01*
X150644552Y-118428709D01*
X150584942Y-118422300D01*
X150581619Y-118422300D01*
X148892508Y-118422300D01*
X148892489Y-118422300D01*
X148889197Y-118422301D01*
X148885917Y-118422653D01*
X148885909Y-118422654D01*
X148829584Y-118428709D01*
X148694738Y-118479004D01*
X148579523Y-118565254D01*
X148493273Y-118680468D01*
X148442979Y-118815315D01*
X148442978Y-118815317D01*
X148436569Y-118874927D01*
X148436569Y-118878248D01*
X148436569Y-118878249D01*
X148436569Y-120567360D01*
X148436569Y-120567378D01*
X148436570Y-120570672D01*
X148436922Y-120573952D01*
X148436923Y-120573959D01*
X148442978Y-120630284D01*
X148448398Y-120644816D01*
X148493273Y-120765131D01*
X148579523Y-120880346D01*
X148694738Y-120966596D01*
X148829586Y-121016891D01*
X148889196Y-121023300D01*
X149254698Y-121023299D01*
X149321735Y-121042983D01*
X149367490Y-121095787D01*
X149377434Y-121164946D01*
X149348409Y-121228501D01*
X149299642Y-121259841D01*
X149300405Y-121261476D01*
X149084333Y-121362232D01*
X148897928Y-121492753D01*
X148737022Y-121653659D01*
X148606501Y-121840064D01*
X148510330Y-122046302D01*
X148451433Y-122266110D01*
X148431600Y-122492800D01*
X148451433Y-122719489D01*
X148510330Y-122939297D01*
X148606501Y-123145535D01*
X148737022Y-123331940D01*
X148897928Y-123492846D01*
X149084333Y-123623367D01*
X149084334Y-123623367D01*
X149084335Y-123623368D01*
X149290573Y-123719539D01*
X149404611Y-123750095D01*
X149434205Y-123758025D01*
X149493865Y-123794390D01*
X149524394Y-123857237D01*
X149516099Y-123926613D01*
X149471614Y-123980491D01*
X149434205Y-123997575D01*
X149290571Y-124036061D01*
X149084333Y-124132232D01*
X148897928Y-124262753D01*
X148737022Y-124423659D01*
X148624456Y-124584423D01*
X148569880Y-124628048D01*
X148522881Y-124637300D01*
X138603452Y-124637300D01*
X138536413Y-124617615D01*
X138515771Y-124600981D01*
X137693225Y-123778435D01*
X136868611Y-122953820D01*
X136835126Y-122892497D01*
X136833072Y-122880021D01*
X136827768Y-122832949D01*
X136827768Y-122832945D01*
X136768189Y-122662678D01*
X136672216Y-122509938D01*
X136672215Y-122509937D01*
X136672214Y-122509935D01*
X136544664Y-122382385D01*
X136391919Y-122286409D01*
X136232730Y-122230706D01*
X136175954Y-122189984D01*
X136150207Y-122125032D01*
X136163664Y-122056470D01*
X136186001Y-122025987D01*
X137370779Y-120841209D01*
X137432100Y-120807726D01*
X137444553Y-120805674D01*
X137491655Y-120800368D01*
X137661922Y-120740789D01*
X137814662Y-120644816D01*
X137942216Y-120517262D01*
X138038189Y-120364522D01*
X138097768Y-120194255D01*
X138117965Y-120015000D01*
X138097768Y-119835745D01*
X138038189Y-119665478D01*
X137942216Y-119512738D01*
X137942215Y-119512737D01*
X137942214Y-119512735D01*
X137814664Y-119385185D01*
X137714557Y-119322284D01*
X137661922Y-119289211D01*
X137491655Y-119229632D01*
X137491653Y-119229631D01*
X137491651Y-119229631D01*
X137312400Y-119209434D01*
X137133148Y-119229631D01*
X137133145Y-119229631D01*
X137133145Y-119229632D01*
X136962878Y-119289211D01*
X136962876Y-119289211D01*
X136962876Y-119289212D01*
X136810135Y-119385185D01*
X136682585Y-119512735D01*
X136626168Y-119602523D01*
X136586611Y-119665478D01*
X136531785Y-119822164D01*
X136527031Y-119835749D01*
X136521727Y-119882823D01*
X136494660Y-119947237D01*
X136486188Y-119956620D01*
X135078477Y-121364330D01*
X135017154Y-121397815D01*
X134947462Y-121392831D01*
X134891529Y-121350959D01*
X134868827Y-121299002D01*
X134867899Y-121293936D01*
X134857051Y-121234743D01*
X134855934Y-121227398D01*
X134848682Y-121167670D01*
X134845088Y-121158194D01*
X134839062Y-121136578D01*
X134837236Y-121126610D01*
X134812539Y-121071737D01*
X134809697Y-121064876D01*
X134788360Y-121008612D01*
X134782600Y-121000268D01*
X134771581Y-120980732D01*
X134767420Y-120971485D01*
X134763589Y-120966595D01*
X134730327Y-120924138D01*
X134725896Y-120918119D01*
X134691725Y-120868613D01*
X134646695Y-120828720D01*
X134641257Y-120823600D01*
X130760857Y-116943200D01*
X137217340Y-116943200D01*
X137237936Y-117178607D01*
X137281257Y-117340283D01*
X137299097Y-117406863D01*
X137398965Y-117621030D01*
X137534505Y-117814601D01*
X137701599Y-117981695D01*
X137895170Y-118117235D01*
X138109337Y-118217103D01*
X138337592Y-118278263D01*
X138573000Y-118298859D01*
X138808408Y-118278263D01*
X139036663Y-118217103D01*
X139250830Y-118117235D01*
X139444401Y-117981695D01*
X139611495Y-117814601D01*
X139747035Y-117621030D01*
X139846903Y-117406863D01*
X139908063Y-117178608D01*
X139928659Y-116943200D01*
X139908063Y-116707792D01*
X139846903Y-116479537D01*
X139747035Y-116265371D01*
X139611495Y-116071799D01*
X139489569Y-115949872D01*
X139456084Y-115888550D01*
X139461068Y-115818858D01*
X139502940Y-115762925D01*
X139533915Y-115746010D01*
X139665331Y-115696996D01*
X139780546Y-115610746D01*
X139866796Y-115495531D01*
X139917091Y-115360683D01*
X139923500Y-115301073D01*
X139923499Y-113505328D01*
X139917091Y-113445717D01*
X139866796Y-113310869D01*
X139780546Y-113195654D01*
X139665331Y-113109404D01*
X139530483Y-113059109D01*
X139470873Y-113052700D01*
X139467550Y-113052700D01*
X137678439Y-113052700D01*
X137678420Y-113052700D01*
X137675128Y-113052701D01*
X137671848Y-113053053D01*
X137671840Y-113053054D01*
X137615515Y-113059109D01*
X137480669Y-113109404D01*
X137365454Y-113195654D01*
X137279204Y-113310868D01*
X137228909Y-113445716D01*
X137224605Y-113485752D01*
X137222500Y-113505327D01*
X137222500Y-113508648D01*
X137222500Y-113508649D01*
X137222500Y-115297760D01*
X137222500Y-115297778D01*
X137222501Y-115301072D01*
X137222853Y-115304352D01*
X137222854Y-115304359D01*
X137228909Y-115360684D01*
X137253015Y-115425315D01*
X137279204Y-115495531D01*
X137365454Y-115610746D01*
X137480669Y-115696996D01*
X137578099Y-115733335D01*
X137612082Y-115746010D01*
X137668016Y-115787881D01*
X137692433Y-115853346D01*
X137677581Y-115921619D01*
X137656431Y-115949873D01*
X137534503Y-116071801D01*
X137398965Y-116265370D01*
X137299097Y-116479536D01*
X137237936Y-116707792D01*
X137217340Y-116943200D01*
X130760857Y-116943200D01*
X129529818Y-115712161D01*
X129496333Y-115650838D01*
X129493499Y-115624480D01*
X129493499Y-114421439D01*
X129493499Y-114418128D01*
X129487091Y-114358517D01*
X129436796Y-114223669D01*
X129350546Y-114108454D01*
X129235331Y-114022204D01*
X129173898Y-113999291D01*
X129103916Y-113973189D01*
X129047983Y-113931317D01*
X129023566Y-113865853D01*
X129038418Y-113797580D01*
X129059563Y-113769332D01*
X129181495Y-113647401D01*
X129264136Y-113529376D01*
X129318713Y-113485752D01*
X129365711Y-113476500D01*
X129743679Y-113476500D01*
X129751166Y-113476726D01*
X129754306Y-113476915D01*
X129811206Y-113480358D01*
X129870382Y-113469513D01*
X129877781Y-113468387D01*
X129937472Y-113461140D01*
X129946935Y-113457550D01*
X129968558Y-113451522D01*
X129978532Y-113449695D01*
X130033408Y-113424996D01*
X130040273Y-113422152D01*
X130096530Y-113400818D01*
X130104870Y-113395060D01*
X130124419Y-113384035D01*
X130133657Y-113379878D01*
X130181013Y-113342775D01*
X130187020Y-113338355D01*
X130236529Y-113304183D01*
X130276423Y-113259150D01*
X130281524Y-113253731D01*
X130768561Y-112766694D01*
X148652371Y-112766694D01*
X148671633Y-113072859D01*
X148672607Y-113080579D01*
X148730092Y-113381924D01*
X148732028Y-113389463D01*
X148826828Y-113681226D01*
X148829691Y-113688457D01*
X148960312Y-113966040D01*
X148964056Y-113972851D01*
X149128437Y-114231875D01*
X149133018Y-114238180D01*
X149221355Y-114344960D01*
X149859335Y-113706980D01*
X150022199Y-113897670D01*
X150212887Y-114060532D01*
X149572040Y-114701379D01*
X149572041Y-114701380D01*
X149811689Y-114875494D01*
X149818279Y-114879676D01*
X150087101Y-115027462D01*
X150094140Y-115030775D01*
X150379376Y-115143707D01*
X150386771Y-115146110D01*
X150683906Y-115222402D01*
X150691564Y-115223863D01*
X150995915Y-115262311D01*
X151003677Y-115262800D01*
X151310461Y-115262800D01*
X151318222Y-115262311D01*
X151622573Y-115223863D01*
X151630231Y-115222402D01*
X151927366Y-115146110D01*
X151934761Y-115143707D01*
X152219997Y-115030775D01*
X152227036Y-115027462D01*
X152495867Y-114879672D01*
X152502437Y-114875502D01*
X152742095Y-114701379D01*
X152742096Y-114701379D01*
X152101249Y-114060533D01*
X152291939Y-113897670D01*
X152454802Y-113706981D01*
X153092781Y-114344960D01*
X153181123Y-114238174D01*
X153185699Y-114231876D01*
X153350081Y-113972851D01*
X153353825Y-113966040D01*
X153484446Y-113688457D01*
X153487309Y-113681226D01*
X153582109Y-113389463D01*
X153584045Y-113381924D01*
X153641530Y-113080579D01*
X153642504Y-113072859D01*
X153661767Y-112766694D01*
X153661767Y-112758905D01*
X153642504Y-112452740D01*
X153641530Y-112445020D01*
X153584045Y-112143675D01*
X153582109Y-112136136D01*
X153487309Y-111844373D01*
X153484446Y-111837142D01*
X153353825Y-111559559D01*
X153350081Y-111552748D01*
X153185700Y-111293724D01*
X153181119Y-111287419D01*
X153092781Y-111180638D01*
X152454801Y-111818618D01*
X152291939Y-111627930D01*
X152101248Y-111465065D01*
X152742096Y-110824219D01*
X152742095Y-110824218D01*
X152502448Y-110650105D01*
X152495858Y-110645923D01*
X152227036Y-110498137D01*
X152219997Y-110494824D01*
X151934761Y-110381892D01*
X151927366Y-110379489D01*
X151630231Y-110303197D01*
X151622573Y-110301736D01*
X151318222Y-110263288D01*
X151310461Y-110262800D01*
X151003677Y-110262800D01*
X150995915Y-110263288D01*
X150691564Y-110301736D01*
X150683906Y-110303197D01*
X150386771Y-110379489D01*
X150379376Y-110381892D01*
X150094140Y-110494824D01*
X150087101Y-110498137D01*
X149818279Y-110645923D01*
X149811700Y-110650098D01*
X149572040Y-110824219D01*
X150212888Y-111465066D01*
X150022199Y-111627930D01*
X149859336Y-111818618D01*
X149221355Y-111180638D01*
X149221354Y-111180638D01*
X149133009Y-111287431D01*
X149128442Y-111293717D01*
X148964056Y-111552748D01*
X148960312Y-111559559D01*
X148829691Y-111837142D01*
X148826828Y-111844373D01*
X148732028Y-112136136D01*
X148730092Y-112143675D01*
X148672607Y-112445020D01*
X148671633Y-112452740D01*
X148652371Y-112758905D01*
X148652371Y-112766694D01*
X130768561Y-112766694D01*
X133946374Y-109588882D01*
X134007695Y-109555399D01*
X134008218Y-109555286D01*
X134163203Y-109522344D01*
X134336130Y-109445351D01*
X134423129Y-109382143D01*
X134489270Y-109334089D01*
X134615933Y-109193416D01*
X134710579Y-109029484D01*
X134740339Y-108937893D01*
X134769074Y-108849456D01*
X134788860Y-108661200D01*
X134769074Y-108472944D01*
X134734586Y-108366801D01*
X134710579Y-108292915D01*
X134615933Y-108128983D01*
X134489270Y-107988310D01*
X134336130Y-107877048D01*
X134163202Y-107800055D01*
X133978048Y-107760700D01*
X133978046Y-107760700D01*
X133788754Y-107760700D01*
X133788752Y-107760700D01*
X133603597Y-107800055D01*
X133430669Y-107877048D01*
X133277529Y-107988310D01*
X133150866Y-108128983D01*
X133056220Y-108292915D01*
X132997725Y-108472946D01*
X132992534Y-108522329D01*
X132965949Y-108586943D01*
X132956895Y-108597046D01*
X129514762Y-112039181D01*
X129453439Y-112072666D01*
X129427081Y-112075500D01*
X129365711Y-112075500D01*
X129298672Y-112055815D01*
X129264136Y-112022623D01*
X129214927Y-111952345D01*
X129181495Y-111904599D01*
X129014401Y-111737505D01*
X128828839Y-111607573D01*
X128785215Y-111552997D01*
X128778023Y-111483498D01*
X128809545Y-111421144D01*
X128828831Y-111404432D01*
X129014401Y-111274495D01*
X129181495Y-111107401D01*
X129317035Y-110913830D01*
X129416903Y-110699663D01*
X129478063Y-110471408D01*
X129498659Y-110236000D01*
X129490440Y-110142064D01*
X129478063Y-110000592D01*
X129461780Y-109939823D01*
X129416903Y-109772337D01*
X129317035Y-109558171D01*
X129181495Y-109364599D01*
X129014401Y-109197505D01*
X128820830Y-109061965D01*
X128606663Y-108962097D01*
X128518556Y-108938489D01*
X128378407Y-108900936D01*
X128142999Y-108880340D01*
X127907592Y-108900936D01*
X127679336Y-108962097D01*
X127465170Y-109061965D01*
X127271598Y-109197505D01*
X127104505Y-109364598D01*
X126968965Y-109558170D01*
X126869097Y-109772336D01*
X126807936Y-110000592D01*
X126787340Y-110236000D01*
X126807936Y-110471407D01*
X126833847Y-110568108D01*
X126869097Y-110699663D01*
X126968965Y-110913830D01*
X127104505Y-111107401D01*
X127271599Y-111274495D01*
X127457160Y-111404426D01*
X127500783Y-111459002D01*
X127507976Y-111528501D01*
X127476454Y-111590855D01*
X127457160Y-111607574D01*
X127321902Y-111702283D01*
X127271595Y-111737508D01*
X127104505Y-111904598D01*
X126968965Y-112098170D01*
X126869097Y-112312336D01*
X126807936Y-112540592D01*
X126787340Y-112776000D01*
X126807936Y-113011407D01*
X126852709Y-113178501D01*
X126869097Y-113239663D01*
X126968965Y-113453830D01*
X127104505Y-113647401D01*
X127104508Y-113647404D01*
X127226430Y-113769326D01*
X127259915Y-113830649D01*
X127254931Y-113900341D01*
X127213059Y-113956274D01*
X127182083Y-113973189D01*
X127050669Y-114022204D01*
X126935454Y-114108454D01*
X126849204Y-114223668D01*
X126798909Y-114358516D01*
X126798449Y-114362800D01*
X126792500Y-114418127D01*
X126792500Y-114421448D01*
X126792500Y-114421449D01*
X126792500Y-116210560D01*
X126792500Y-116210578D01*
X126792501Y-116213872D01*
X126792853Y-116217152D01*
X126792854Y-116217159D01*
X126798909Y-116273484D01*
X126824056Y-116340906D01*
X126849204Y-116408331D01*
X126935454Y-116523546D01*
X127050669Y-116609796D01*
X127185517Y-116660091D01*
X127245127Y-116666500D01*
X128451480Y-116666499D01*
X128518519Y-116686184D01*
X128539161Y-116702818D01*
X133426723Y-121590380D01*
X133460208Y-121651703D01*
X133463042Y-121678061D01*
X133463041Y-141022021D01*
X133462815Y-141029507D01*
X133459183Y-141089548D01*
X133470025Y-141148713D01*
X133471152Y-141156114D01*
X133478402Y-141215815D01*
X133481992Y-141225281D01*
X133488017Y-141246894D01*
X133489845Y-141256871D01*
X133514533Y-141311725D01*
X133517398Y-141318643D01*
X133538722Y-141374868D01*
X133538724Y-141374872D01*
X133544483Y-141383215D01*
X133555503Y-141402755D01*
X133559662Y-141411996D01*
X133596758Y-141459347D01*
X133601193Y-141465374D01*
X133635359Y-141514871D01*
X133680389Y-141554764D01*
X133685825Y-141559882D01*
X136076747Y-143950804D01*
X136110232Y-144012127D01*
X136108842Y-144070574D01*
X136104336Y-144087390D01*
X136083740Y-144322800D01*
X136104336Y-144558207D01*
X136115896Y-144601349D01*
X136165497Y-144786463D01*
X136265365Y-145000630D01*
X136400905Y-145194201D01*
X136567999Y-145361295D01*
X136753560Y-145491226D01*
X136797183Y-145545802D01*
X136804376Y-145615301D01*
X136772854Y-145677655D01*
X136753559Y-145694375D01*
X136567995Y-145824308D01*
X136400905Y-145991398D01*
X136265749Y-146184423D01*
X136211172Y-146228048D01*
X136164174Y-146237300D01*
X97109852Y-146237300D01*
X97042813Y-146217615D01*
X97022171Y-146200981D01*
X90495790Y-139674599D01*
X118957140Y-139674599D01*
X118976926Y-139862857D01*
X119035420Y-140042884D01*
X119130066Y-140206816D01*
X119256729Y-140347489D01*
X119409869Y-140458751D01*
X119582797Y-140535744D01*
X119767952Y-140575100D01*
X119767954Y-140575100D01*
X119957248Y-140575100D01*
X120080683Y-140548862D01*
X120142403Y-140535744D01*
X120211793Y-140504848D01*
X120315327Y-140458753D01*
X120315330Y-140458751D01*
X120362910Y-140424181D01*
X120428716Y-140400702D01*
X120435796Y-140400500D01*
X129111279Y-140400500D01*
X129118766Y-140400726D01*
X129121906Y-140400915D01*
X129178806Y-140404358D01*
X129237982Y-140393513D01*
X129245381Y-140392387D01*
X129305072Y-140385140D01*
X129314535Y-140381550D01*
X129336158Y-140375522D01*
X129346132Y-140373695D01*
X129401008Y-140348996D01*
X129407873Y-140346152D01*
X129464130Y-140324818D01*
X129472470Y-140319060D01*
X129492019Y-140308035D01*
X129501257Y-140303878D01*
X129548613Y-140266775D01*
X129554620Y-140262355D01*
X129604129Y-140228183D01*
X129644023Y-140183150D01*
X129649124Y-140177731D01*
X131313131Y-138513724D01*
X131318550Y-138508623D01*
X131363583Y-138468729D01*
X131397777Y-138419189D01*
X131402170Y-138413219D01*
X131439278Y-138365856D01*
X131443435Y-138356618D01*
X131454461Y-138337068D01*
X131460218Y-138328730D01*
X131481552Y-138272474D01*
X131484394Y-138265611D01*
X131509095Y-138210731D01*
X131510922Y-138200756D01*
X131516949Y-138179139D01*
X131520540Y-138169672D01*
X131523456Y-138145649D01*
X131551076Y-138081473D01*
X131598343Y-138047879D01*
X131602726Y-138044597D01*
X131602731Y-138044596D01*
X131717946Y-137958346D01*
X131804196Y-137843131D01*
X131854491Y-137708283D01*
X131860900Y-137648673D01*
X131860899Y-136052928D01*
X131854491Y-135993317D01*
X131804196Y-135858469D01*
X131717946Y-135743254D01*
X131602731Y-135657004D01*
X131467883Y-135606709D01*
X131408273Y-135600300D01*
X131404951Y-135600300D01*
X130314900Y-135600300D01*
X130247861Y-135580615D01*
X130202106Y-135527811D01*
X130190900Y-135476300D01*
X130190900Y-132899852D01*
X130210585Y-132832813D01*
X130256445Y-132790495D01*
X130362894Y-132733598D01*
X130519047Y-132605447D01*
X130647198Y-132449294D01*
X130742423Y-132271141D01*
X130801062Y-132077833D01*
X130820862Y-131876800D01*
X130801062Y-131675767D01*
X130742423Y-131482459D01*
X130647198Y-131304306D01*
X130647196Y-131304303D01*
X130645031Y-131300253D01*
X130630789Y-131231851D01*
X130645031Y-131183347D01*
X130647196Y-131179296D01*
X130647198Y-131179294D01*
X130742423Y-131001141D01*
X130801062Y-130807833D01*
X130820862Y-130606800D01*
X130801062Y-130405767D01*
X130742423Y-130212459D01*
X130742419Y-130212452D01*
X130742093Y-130211376D01*
X130741470Y-130141509D01*
X130756821Y-130110496D01*
X130759194Y-130104133D01*
X130759196Y-130104131D01*
X130809491Y-129969283D01*
X130815900Y-129909673D01*
X130815899Y-128763928D01*
X130809491Y-128704317D01*
X130759196Y-128569469D01*
X130672946Y-128454254D01*
X130557731Y-128368004D01*
X130422883Y-128317709D01*
X130363273Y-128311300D01*
X130359950Y-128311300D01*
X128770839Y-128311300D01*
X128770820Y-128311300D01*
X128767528Y-128311301D01*
X128764248Y-128311653D01*
X128764240Y-128311654D01*
X128707915Y-128317709D01*
X128573069Y-128368004D01*
X128457854Y-128454254D01*
X128371604Y-128569468D01*
X128321310Y-128704315D01*
X128321309Y-128704317D01*
X128314900Y-128763927D01*
X128314900Y-128767248D01*
X128314900Y-128767249D01*
X128314900Y-129906360D01*
X128314900Y-129906378D01*
X128314901Y-129909672D01*
X128315253Y-129912952D01*
X128315254Y-129912959D01*
X128321309Y-129969284D01*
X128347105Y-130038446D01*
X128361606Y-130077326D01*
X128377835Y-130120836D01*
X128376825Y-130121212D01*
X128393729Y-130166531D01*
X128388706Y-130211374D01*
X128329737Y-130405768D01*
X128309938Y-130606800D01*
X128329737Y-130807831D01*
X128337360Y-130832961D01*
X128381448Y-130978300D01*
X128388378Y-131001143D01*
X128485768Y-131183347D01*
X128500010Y-131251750D01*
X128485768Y-131300253D01*
X128388378Y-131482456D01*
X128329737Y-131675768D01*
X128309938Y-131876800D01*
X128329737Y-132077831D01*
X128329738Y-132077833D01*
X128388377Y-132271141D01*
X128483602Y-132449294D01*
X128533675Y-132510308D01*
X128611752Y-132605447D01*
X128706073Y-132682853D01*
X128767906Y-132733598D01*
X128874354Y-132790495D01*
X128924196Y-132839456D01*
X128939899Y-132899852D01*
X128939899Y-135600608D01*
X128920214Y-135667647D01*
X128867410Y-135713402D01*
X128798252Y-135723346D01*
X128757446Y-135709966D01*
X128689743Y-135673778D01*
X128689742Y-135673777D01*
X128689741Y-135673777D01*
X128593086Y-135644457D01*
X128496431Y-135615137D01*
X128295400Y-135595338D01*
X128094368Y-135615137D01*
X127901056Y-135673778D01*
X127722907Y-135769001D01*
X127566752Y-135897152D01*
X127438601Y-136053307D01*
X127343378Y-136231456D01*
X127284737Y-136424768D01*
X127270198Y-136572385D01*
X127270197Y-136572403D01*
X127269900Y-136575420D01*
X127269900Y-137126180D01*
X127270197Y-137129197D01*
X127270198Y-137129214D01*
X127284737Y-137276831D01*
X127284738Y-137276833D01*
X127343377Y-137470141D01*
X127438602Y-137648294D01*
X127487834Y-137708283D01*
X127566752Y-137804447D01*
X127644829Y-137868522D01*
X127722906Y-137932598D01*
X127901059Y-138027823D01*
X128094367Y-138086462D01*
X128295400Y-138106262D01*
X128496433Y-138086462D01*
X128689741Y-138027823D01*
X128867894Y-137932598D01*
X128867899Y-137932593D01*
X128871945Y-137930431D01*
X128940348Y-137916189D01*
X128988852Y-137930431D01*
X128992905Y-137932597D01*
X128992906Y-137932598D01*
X129171059Y-138027823D01*
X129364367Y-138086462D01*
X129462777Y-138096154D01*
X129527563Y-138122315D01*
X129567922Y-138179349D01*
X129571039Y-138249149D01*
X129538303Y-138307238D01*
X128882362Y-138963181D01*
X128821039Y-138996666D01*
X128794681Y-138999500D01*
X120505716Y-138999500D01*
X120438677Y-138979815D01*
X120432830Y-138975818D01*
X120428746Y-138972851D01*
X120315330Y-138890449D01*
X120315329Y-138890448D01*
X120315327Y-138890447D01*
X120142402Y-138813455D01*
X119957248Y-138774100D01*
X119957246Y-138774100D01*
X119767954Y-138774100D01*
X119767952Y-138774100D01*
X119582797Y-138813455D01*
X119409869Y-138890448D01*
X119256729Y-139001710D01*
X119130066Y-139142383D01*
X119035420Y-139306315D01*
X118976926Y-139486342D01*
X118957140Y-139674599D01*
X90495790Y-139674599D01*
X87148569Y-136327378D01*
X99258900Y-136327378D01*
X99258901Y-136330672D01*
X99265309Y-136390283D01*
X99315604Y-136525131D01*
X99401854Y-136640346D01*
X99517069Y-136726596D01*
X99651917Y-136776891D01*
X99711527Y-136783300D01*
X101507272Y-136783299D01*
X101566883Y-136776891D01*
X101701731Y-136726596D01*
X101816946Y-136640346D01*
X101903196Y-136525131D01*
X101953491Y-136390283D01*
X101959900Y-136330673D01*
X101959899Y-134534928D01*
X101953491Y-134475317D01*
X101903196Y-134340469D01*
X101816946Y-134225254D01*
X101701731Y-134139004D01*
X101566883Y-134088709D01*
X101507273Y-134082300D01*
X101503950Y-134082300D01*
X99714839Y-134082300D01*
X99714820Y-134082300D01*
X99711528Y-134082301D01*
X99708248Y-134082653D01*
X99708240Y-134082654D01*
X99651915Y-134088709D01*
X99517069Y-134139004D01*
X99401854Y-134225254D01*
X99315604Y-134340468D01*
X99265310Y-134475315D01*
X99265309Y-134475317D01*
X99258900Y-134534927D01*
X99258900Y-134538248D01*
X99258900Y-134538249D01*
X99258900Y-136327360D01*
X99258900Y-136327378D01*
X87148569Y-136327378D01*
X86756218Y-135935027D01*
X86722733Y-135873704D01*
X86719899Y-135847346D01*
X86719899Y-135018252D01*
X86739584Y-134951213D01*
X86756218Y-134930571D01*
X88861259Y-132825530D01*
X91010989Y-130675800D01*
X91027085Y-130662906D01*
X91029073Y-130660787D01*
X91029077Y-130660786D01*
X91075149Y-130611723D01*
X91077734Y-130609055D01*
X91097320Y-130589471D01*
X91099785Y-130586292D01*
X91107367Y-130577416D01*
X91108512Y-130576197D01*
X91137262Y-130545582D01*
X91146912Y-130528027D01*
X91157600Y-130511757D01*
X91158348Y-130510793D01*
X91169873Y-130495936D01*
X91187226Y-130455832D01*
X91192357Y-130445362D01*
X91193241Y-130443754D01*
X91213397Y-130407092D01*
X91218375Y-130387699D01*
X91224681Y-130369282D01*
X91230224Y-130356473D01*
X91232638Y-130350896D01*
X91239472Y-130307745D01*
X91241835Y-130296331D01*
X91252700Y-130254019D01*
X91252700Y-130233983D01*
X91254227Y-130214584D01*
X91257360Y-130194804D01*
X91253250Y-130151324D01*
X91252700Y-130139655D01*
X91252700Y-129717800D01*
X96933634Y-129717800D01*
X96953831Y-129897051D01*
X96953831Y-129897053D01*
X96953832Y-129897055D01*
X97013411Y-130067322D01*
X97015430Y-130070535D01*
X97109382Y-130220060D01*
X97109383Y-130220061D01*
X97109384Y-130220062D01*
X97126959Y-130237637D01*
X97158354Y-130290721D01*
X97160582Y-130298390D01*
X97170780Y-130315635D01*
X97179336Y-130333100D01*
X97186714Y-130351732D01*
X97186715Y-130351733D01*
X97212380Y-130387059D01*
X97218793Y-130396822D01*
X97241026Y-130434416D01*
X97241029Y-130434419D01*
X97241030Y-130434420D01*
X97255195Y-130448585D01*
X97267827Y-130463375D01*
X97279606Y-130479587D01*
X97313257Y-130507425D01*
X97321898Y-130515288D01*
X97543198Y-130736589D01*
X97556096Y-130752688D01*
X97607225Y-130800702D01*
X97610021Y-130803412D01*
X97629529Y-130822920D01*
X97632709Y-130825387D01*
X97641571Y-130832955D01*
X97673418Y-130862862D01*
X97690970Y-130872511D01*
X97707238Y-130883197D01*
X97723064Y-130895473D01*
X97763146Y-130912817D01*
X97773633Y-130917955D01*
X97811907Y-130938997D01*
X97820410Y-130941179D01*
X97831308Y-130943978D01*
X97849713Y-130950278D01*
X97868104Y-130958237D01*
X97911250Y-130965070D01*
X97922668Y-130967435D01*
X97964981Y-130978300D01*
X97985016Y-130978300D01*
X98004415Y-130979827D01*
X98024196Y-130982960D01*
X98067674Y-130978850D01*
X98079344Y-130978300D01*
X99134901Y-130978300D01*
X99201940Y-130997985D01*
X99247695Y-131050789D01*
X99258900Y-131102300D01*
X99258901Y-131250672D01*
X99259253Y-131253952D01*
X99259254Y-131253959D01*
X99264666Y-131304306D01*
X99265309Y-131310283D01*
X99315604Y-131445131D01*
X99401854Y-131560346D01*
X99517069Y-131646596D01*
X99651917Y-131696891D01*
X99711527Y-131703300D01*
X101507272Y-131703299D01*
X101566883Y-131696891D01*
X101701731Y-131646596D01*
X101816946Y-131560346D01*
X101903196Y-131445131D01*
X101953491Y-131310283D01*
X101959900Y-131250673D01*
X101959899Y-129454928D01*
X101953491Y-129395317D01*
X101903196Y-129260469D01*
X101816946Y-129145254D01*
X101701731Y-129059004D01*
X101566883Y-129008709D01*
X101507273Y-129002300D01*
X101503950Y-129002300D01*
X99714839Y-129002300D01*
X99714820Y-129002300D01*
X99711528Y-129002301D01*
X99708248Y-129002653D01*
X99708240Y-129002654D01*
X99651915Y-129008709D01*
X99517069Y-129059004D01*
X99401854Y-129145254D01*
X99315604Y-129260468D01*
X99265309Y-129395316D01*
X99264238Y-129405283D01*
X99258900Y-129454927D01*
X99258900Y-129458249D01*
X99258900Y-129603300D01*
X99239215Y-129670339D01*
X99186411Y-129716094D01*
X99134900Y-129727300D01*
X98656648Y-129727300D01*
X98589609Y-129707615D01*
X98543854Y-129654811D01*
X98533428Y-129617183D01*
X98528848Y-129576533D01*
X98524568Y-129538545D01*
X98464989Y-129368278D01*
X98369016Y-129215538D01*
X98369015Y-129215537D01*
X98369014Y-129215535D01*
X98241464Y-129087985D01*
X98153710Y-129032846D01*
X98088722Y-128992011D01*
X97918455Y-128932432D01*
X97918453Y-128932431D01*
X97918451Y-128932431D01*
X97739200Y-128912234D01*
X97559948Y-128932431D01*
X97559945Y-128932431D01*
X97559945Y-128932432D01*
X97389678Y-128992011D01*
X97389676Y-128992011D01*
X97389676Y-128992012D01*
X97236935Y-129087985D01*
X97109385Y-129215535D01*
X97025550Y-129348959D01*
X97013411Y-129368278D01*
X96954081Y-129537833D01*
X96953831Y-129538548D01*
X96933634Y-129717800D01*
X91252700Y-129717800D01*
X91252700Y-127443255D01*
X91271706Y-127377283D01*
X91271708Y-127377280D01*
X91352989Y-127247922D01*
X91412568Y-127077655D01*
X91432765Y-126898400D01*
X91412568Y-126719145D01*
X91352989Y-126548878D01*
X91308479Y-126478041D01*
X91271706Y-126419516D01*
X91252700Y-126353544D01*
X91252700Y-125171200D01*
X106712634Y-125171200D01*
X106732831Y-125350451D01*
X106732831Y-125350453D01*
X106732832Y-125350455D01*
X106792411Y-125520722D01*
X106792412Y-125520723D01*
X106888385Y-125673464D01*
X107015935Y-125801014D01*
X107015937Y-125801015D01*
X107015938Y-125801016D01*
X107168678Y-125896989D01*
X107338945Y-125956568D01*
X107518200Y-125976765D01*
X107697455Y-125956568D01*
X107867722Y-125896989D01*
X107997083Y-125815705D01*
X108063055Y-125796700D01*
X110694060Y-125796700D01*
X110761099Y-125816385D01*
X110781736Y-125833014D01*
X110902138Y-125953416D01*
X111054878Y-126049389D01*
X111225145Y-126108968D01*
X111404400Y-126129165D01*
X111583655Y-126108968D01*
X111753922Y-126049389D01*
X111906662Y-125953416D01*
X112034216Y-125825862D01*
X112130189Y-125673122D01*
X112189768Y-125502855D01*
X112209965Y-125323600D01*
X112189768Y-125144345D01*
X112130189Y-124974078D01*
X112034216Y-124821338D01*
X112034215Y-124821337D01*
X112034214Y-124821335D01*
X111906664Y-124693785D01*
X111802044Y-124628048D01*
X111753922Y-124597811D01*
X111583655Y-124538232D01*
X111583653Y-124538231D01*
X111583651Y-124538231D01*
X111404400Y-124518034D01*
X111225146Y-124538231D01*
X111224053Y-124538613D01*
X111223689Y-124538741D01*
X111182735Y-124545700D01*
X108063055Y-124545700D01*
X107997083Y-124526694D01*
X107983301Y-124518034D01*
X107867722Y-124445411D01*
X107697455Y-124385832D01*
X107697453Y-124385831D01*
X107697451Y-124385831D01*
X107518200Y-124365634D01*
X107338948Y-124385831D01*
X107338945Y-124385831D01*
X107338945Y-124385832D01*
X107168678Y-124445411D01*
X107168676Y-124445411D01*
X107168676Y-124445412D01*
X107015935Y-124541385D01*
X106888385Y-124668935D01*
X106792412Y-124821676D01*
X106732831Y-124991948D01*
X106712634Y-125171200D01*
X91252700Y-125171200D01*
X91252700Y-122732800D01*
X107224059Y-122732800D01*
X107243376Y-122928933D01*
X107300585Y-123117526D01*
X107358066Y-123225064D01*
X107393490Y-123291338D01*
X107518517Y-123443683D01*
X107670862Y-123568710D01*
X107844673Y-123661614D01*
X108033268Y-123718824D01*
X108229400Y-123738141D01*
X108425532Y-123718824D01*
X108614127Y-123661614D01*
X108787938Y-123568710D01*
X108940283Y-123443683D01*
X109065310Y-123291338D01*
X109158214Y-123117527D01*
X109166633Y-123089770D01*
X109197611Y-123038086D01*
X114466080Y-117769617D01*
X114527403Y-117736133D01*
X114553761Y-117733299D01*
X115473961Y-117733299D01*
X115477272Y-117733299D01*
X115536883Y-117726891D01*
X115671731Y-117676596D01*
X115786946Y-117590346D01*
X115873196Y-117475131D01*
X115923491Y-117340283D01*
X115929900Y-117280673D01*
X115929899Y-115484928D01*
X115923491Y-115425317D01*
X115873196Y-115290469D01*
X115786946Y-115175254D01*
X115671731Y-115089004D01*
X115560565Y-115047542D01*
X115504633Y-115005672D01*
X115480216Y-114940208D01*
X115479900Y-114931361D01*
X115479900Y-109038180D01*
X117363900Y-109038180D01*
X117364197Y-109041197D01*
X117364198Y-109041214D01*
X117378737Y-109188831D01*
X117389679Y-109224902D01*
X117437377Y-109382141D01*
X117532602Y-109560294D01*
X117556065Y-109588884D01*
X117660752Y-109716447D01*
X117728854Y-109772336D01*
X117816906Y-109844598D01*
X117995059Y-109939823D01*
X118188367Y-109998462D01*
X118389400Y-110018262D01*
X118590433Y-109998462D01*
X118783741Y-109939823D01*
X118961894Y-109844598D01*
X118961896Y-109844596D01*
X118965947Y-109842431D01*
X119034349Y-109828189D01*
X119082853Y-109842431D01*
X119086903Y-109844596D01*
X119086906Y-109844598D01*
X119265059Y-109939823D01*
X119458367Y-109998462D01*
X119659400Y-110018262D01*
X119860433Y-109998462D01*
X120053741Y-109939823D01*
X120053743Y-109939821D01*
X120055417Y-109939314D01*
X120125284Y-109938690D01*
X120155214Y-109953505D01*
X120297028Y-110006399D01*
X120353267Y-110012445D01*
X120359882Y-110012800D01*
X120679400Y-110012800D01*
X120679400Y-109100114D01*
X120679997Y-109087960D01*
X120684029Y-109047020D01*
X120748452Y-109097163D01*
X120866824Y-109137800D01*
X120960473Y-109137800D01*
X121052846Y-109122386D01*
X121162914Y-109062819D01*
X121179400Y-109044910D01*
X121179400Y-110012800D01*
X121498918Y-110012800D01*
X121505532Y-110012445D01*
X121561771Y-110006399D01*
X121696489Y-109956152D01*
X121811588Y-109869988D01*
X121897752Y-109754889D01*
X121947999Y-109620171D01*
X121954045Y-109563932D01*
X121954400Y-109557318D01*
X121954400Y-109012800D01*
X121208960Y-109012800D01*
X121247678Y-108970741D01*
X121297951Y-108856130D01*
X121308286Y-108731405D01*
X121277563Y-108610081D01*
X121214006Y-108512800D01*
X121954400Y-108512800D01*
X121954400Y-107968281D01*
X121954045Y-107961667D01*
X121947999Y-107905428D01*
X121897752Y-107770710D01*
X121811588Y-107655611D01*
X121696489Y-107569447D01*
X121561771Y-107519200D01*
X121505532Y-107513154D01*
X121498918Y-107512800D01*
X121179400Y-107512800D01*
X121179400Y-108482182D01*
X121110348Y-108428437D01*
X120991976Y-108387800D01*
X120898327Y-108387800D01*
X120805954Y-108403214D01*
X120695886Y-108462781D01*
X120683769Y-108475942D01*
X120679997Y-108437638D01*
X120679400Y-108425484D01*
X120679400Y-107512800D01*
X120359882Y-107512800D01*
X120353267Y-107513154D01*
X120297026Y-107519200D01*
X120145607Y-107575677D01*
X120145187Y-107574551D01*
X120100249Y-107591309D01*
X120055418Y-107586285D01*
X119860432Y-107527137D01*
X119679198Y-107509288D01*
X119659400Y-107507338D01*
X119659399Y-107507338D01*
X119458368Y-107527137D01*
X119366841Y-107554902D01*
X119265059Y-107585777D01*
X119220116Y-107609799D01*
X119197352Y-107621967D01*
X119128949Y-107636208D01*
X119063706Y-107611207D01*
X119022336Y-107554902D01*
X119014900Y-107512608D01*
X119014900Y-104955833D01*
X142324725Y-104955833D01*
X142343710Y-105342300D01*
X142344306Y-105348353D01*
X142401081Y-105731094D01*
X142402267Y-105737053D01*
X142496282Y-106112386D01*
X142498049Y-106118209D01*
X142628395Y-106482501D01*
X142630727Y-106488134D01*
X142796158Y-106837908D01*
X142799029Y-106843277D01*
X142997949Y-107175155D01*
X143001317Y-107180196D01*
X143231817Y-107490989D01*
X143235675Y-107495691D01*
X143329468Y-107599176D01*
X143329469Y-107599176D01*
X144642504Y-106286141D01*
X144754431Y-106423718D01*
X144969390Y-106624476D01*
X144993943Y-106641808D01*
X143683022Y-107952729D01*
X143683022Y-107952730D01*
X143786508Y-108046524D01*
X143791210Y-108050382D01*
X144102003Y-108280882D01*
X144107044Y-108284250D01*
X144438922Y-108483170D01*
X144444291Y-108486041D01*
X144794065Y-108651472D01*
X144799698Y-108653804D01*
X145163990Y-108784150D01*
X145169813Y-108785917D01*
X145545146Y-108879932D01*
X145551105Y-108881118D01*
X145933846Y-108937893D01*
X145939899Y-108938489D01*
X146326367Y-108957475D01*
X146332433Y-108957475D01*
X146718900Y-108938489D01*
X146724953Y-108937893D01*
X147107694Y-108881118D01*
X147113653Y-108879932D01*
X147488986Y-108785917D01*
X147494809Y-108784150D01*
X147859101Y-108653804D01*
X147864734Y-108651472D01*
X148214508Y-108486041D01*
X148219877Y-108483170D01*
X148551755Y-108284250D01*
X148556796Y-108280882D01*
X148867589Y-108050382D01*
X148872280Y-108046533D01*
X148975776Y-107952729D01*
X147664855Y-106641808D01*
X147689410Y-106624476D01*
X147904369Y-106423718D01*
X148016295Y-106286142D01*
X149329329Y-107599176D01*
X149423133Y-107495680D01*
X149426982Y-107490989D01*
X149657482Y-107180196D01*
X149660850Y-107175155D01*
X149859770Y-106843277D01*
X149862641Y-106837908D01*
X150028072Y-106488134D01*
X150030404Y-106482501D01*
X150160750Y-106118209D01*
X150162517Y-106112386D01*
X150256532Y-105737053D01*
X150257718Y-105731094D01*
X150314493Y-105348353D01*
X150315089Y-105342300D01*
X150334075Y-104955833D01*
X150334075Y-104949766D01*
X150315089Y-104563299D01*
X150314493Y-104557246D01*
X150257718Y-104174505D01*
X150256532Y-104168546D01*
X150162517Y-103793213D01*
X150160750Y-103787390D01*
X150030404Y-103423098D01*
X150028072Y-103417465D01*
X149862641Y-103067691D01*
X149859770Y-103062322D01*
X149660850Y-102730444D01*
X149657482Y-102725403D01*
X149426982Y-102414610D01*
X149423124Y-102409908D01*
X149329330Y-102306422D01*
X149329329Y-102306422D01*
X148016294Y-103619456D01*
X147904369Y-103481882D01*
X147689410Y-103281124D01*
X147664855Y-103263791D01*
X148975776Y-101952869D01*
X148975776Y-101952868D01*
X148872291Y-101859075D01*
X148867589Y-101855217D01*
X148556796Y-101624717D01*
X148551755Y-101621349D01*
X148219877Y-101422429D01*
X148214508Y-101419558D01*
X147864734Y-101254127D01*
X147859101Y-101251795D01*
X147494809Y-101121449D01*
X147488986Y-101119682D01*
X147113653Y-101025667D01*
X147107694Y-101024481D01*
X146724953Y-100967706D01*
X146718900Y-100967110D01*
X146332433Y-100948125D01*
X146326367Y-100948125D01*
X145939899Y-100967110D01*
X145933846Y-100967706D01*
X145551105Y-101024481D01*
X145545146Y-101025667D01*
X145169813Y-101119682D01*
X145163990Y-101121449D01*
X144799698Y-101251795D01*
X144794065Y-101254127D01*
X144444291Y-101419558D01*
X144438922Y-101422429D01*
X144107044Y-101621349D01*
X144102003Y-101624717D01*
X143791207Y-101855218D01*
X143786505Y-101859077D01*
X143683022Y-101952868D01*
X143683022Y-101952869D01*
X144993944Y-103263791D01*
X144969390Y-103281124D01*
X144754431Y-103481882D01*
X144642504Y-103619457D01*
X143329469Y-102306422D01*
X143329468Y-102306422D01*
X143235677Y-102409905D01*
X143231818Y-102414607D01*
X143001317Y-102725403D01*
X142997949Y-102730444D01*
X142799029Y-103062322D01*
X142796158Y-103067691D01*
X142630727Y-103417465D01*
X142628395Y-103423098D01*
X142498049Y-103787390D01*
X142496282Y-103793213D01*
X142402267Y-104168546D01*
X142401081Y-104174505D01*
X142344306Y-104557246D01*
X142343710Y-104563299D01*
X142324725Y-104949766D01*
X142324725Y-104955833D01*
X119014900Y-104955833D01*
X119014900Y-98491800D01*
X129803132Y-98491800D01*
X129803298Y-98495195D01*
X129817829Y-98642732D01*
X129876442Y-98835951D01*
X129971620Y-99014015D01*
X130099707Y-99170092D01*
X130255784Y-99298179D01*
X130433849Y-99393358D01*
X130578000Y-99437085D01*
X130578000Y-98656282D01*
X130662993Y-98727601D01*
X130770694Y-98766800D01*
X130885306Y-98766800D01*
X130993007Y-98727601D01*
X131078000Y-98656282D01*
X131078000Y-99437085D01*
X131222150Y-99393358D01*
X131400215Y-99298179D01*
X131556292Y-99170092D01*
X131684379Y-99014015D01*
X131779557Y-98835951D01*
X131838170Y-98642732D01*
X131852701Y-98495195D01*
X131852868Y-98491800D01*
X134653132Y-98491800D01*
X134653298Y-98495195D01*
X134667829Y-98642732D01*
X134726442Y-98835951D01*
X134821620Y-99014015D01*
X134949707Y-99170092D01*
X135105784Y-99298179D01*
X135283849Y-99393358D01*
X135428000Y-99437085D01*
X135428000Y-98656282D01*
X135512993Y-98727601D01*
X135620694Y-98766800D01*
X135735306Y-98766800D01*
X135843007Y-98727601D01*
X135928000Y-98656282D01*
X135928000Y-99437085D01*
X136072150Y-99393358D01*
X136250215Y-99298179D01*
X136406292Y-99170092D01*
X136534379Y-99014015D01*
X136629557Y-98835951D01*
X136688170Y-98642732D01*
X136691772Y-98606156D01*
X151864661Y-98606156D01*
X151883964Y-98962171D01*
X151884690Y-98968844D01*
X151942374Y-99320704D01*
X151943813Y-99327242D01*
X152039196Y-99670779D01*
X152041347Y-99677163D01*
X152173312Y-100008370D01*
X152176132Y-100014466D01*
X152343139Y-100329474D01*
X152346594Y-100335217D01*
X152546686Y-100630331D01*
X152550747Y-100635673D01*
X152680368Y-100788275D01*
X152680369Y-100788276D01*
X153921665Y-99546979D01*
X154084530Y-99737670D01*
X154275219Y-99900533D01*
X153031289Y-101144463D01*
X153045041Y-101157490D01*
X153050140Y-101161822D01*
X153333993Y-101377601D01*
X153339539Y-101381361D01*
X153645044Y-101565177D01*
X153650983Y-101568325D01*
X153974561Y-101718029D01*
X153980803Y-101720516D01*
X154318680Y-101834360D01*
X154325144Y-101836155D01*
X154673346Y-101912800D01*
X154679980Y-101913887D01*
X155034429Y-101952436D01*
X155041126Y-101952800D01*
X155397674Y-101952800D01*
X155404370Y-101952436D01*
X155758819Y-101913887D01*
X155765453Y-101912800D01*
X156113655Y-101836155D01*
X156120119Y-101834360D01*
X156457996Y-101720516D01*
X156464238Y-101718029D01*
X156787816Y-101568325D01*
X156793755Y-101565177D01*
X157099260Y-101381361D01*
X157104806Y-101377601D01*
X157388652Y-101161827D01*
X157393776Y-101157474D01*
X157407509Y-101144464D01*
X157407509Y-101144463D01*
X156163580Y-99900533D01*
X156354270Y-99737670D01*
X156517133Y-99546979D01*
X157758429Y-100788275D01*
X157758430Y-100788275D01*
X157888052Y-100635673D01*
X157892113Y-100630331D01*
X158092205Y-100335217D01*
X158095660Y-100329474D01*
X158262667Y-100014466D01*
X158265487Y-100008370D01*
X158397452Y-99677163D01*
X158399603Y-99670779D01*
X158494986Y-99327242D01*
X158496425Y-99320704D01*
X158554109Y-98968844D01*
X158554835Y-98962171D01*
X158574138Y-98606156D01*
X158574138Y-98599443D01*
X158554835Y-98243428D01*
X158554109Y-98236755D01*
X158496425Y-97884895D01*
X158494986Y-97878357D01*
X158399603Y-97534820D01*
X158397452Y-97528436D01*
X158265487Y-97197229D01*
X158262667Y-97191133D01*
X158095660Y-96876125D01*
X158092205Y-96870382D01*
X157892113Y-96575268D01*
X157888052Y-96569926D01*
X157758430Y-96417323D01*
X157758429Y-96417322D01*
X156517132Y-97658618D01*
X156354270Y-97467930D01*
X156163579Y-97305065D01*
X157407509Y-96061135D01*
X157393758Y-96048109D01*
X157388659Y-96043777D01*
X157104806Y-95827998D01*
X157099260Y-95824238D01*
X156793755Y-95640422D01*
X156787816Y-95637274D01*
X156464238Y-95487570D01*
X156457996Y-95485083D01*
X156120119Y-95371239D01*
X156113655Y-95369444D01*
X155765453Y-95292799D01*
X155758819Y-95291712D01*
X155404370Y-95253163D01*
X155397674Y-95252800D01*
X155041126Y-95252800D01*
X155034429Y-95253163D01*
X154679980Y-95291712D01*
X154673346Y-95292799D01*
X154325144Y-95369444D01*
X154318680Y-95371239D01*
X153980803Y-95485083D01*
X153974561Y-95487570D01*
X153650983Y-95637274D01*
X153645044Y-95640422D01*
X153339539Y-95824238D01*
X153333993Y-95827998D01*
X153050137Y-96043780D01*
X153045029Y-96048118D01*
X153031289Y-96061133D01*
X153031289Y-96061136D01*
X154275219Y-97305066D01*
X154084530Y-97467930D01*
X153921666Y-97658619D01*
X152680369Y-96417322D01*
X152550742Y-96569933D01*
X152546686Y-96575268D01*
X152346594Y-96870382D01*
X152343139Y-96876125D01*
X152176132Y-97191133D01*
X152173312Y-97197229D01*
X152041347Y-97528436D01*
X152039196Y-97534820D01*
X151943813Y-97878357D01*
X151942374Y-97884895D01*
X151884690Y-98236755D01*
X151883964Y-98243428D01*
X151864661Y-98599443D01*
X151864661Y-98606156D01*
X136691772Y-98606156D01*
X136702701Y-98495195D01*
X136702868Y-98491800D01*
X135999198Y-98491800D01*
X136003000Y-98470236D01*
X136003000Y-98013364D01*
X135999198Y-97991800D01*
X136702868Y-97991800D01*
X136702701Y-97988404D01*
X136688170Y-97840867D01*
X136629557Y-97647648D01*
X136534379Y-97469584D01*
X136406292Y-97313507D01*
X136250215Y-97185420D01*
X136072146Y-97090240D01*
X135928000Y-97046512D01*
X135928000Y-97827317D01*
X135843007Y-97755999D01*
X135735306Y-97716800D01*
X135620694Y-97716800D01*
X135512993Y-97755999D01*
X135428000Y-97827317D01*
X135428000Y-97046512D01*
X135283853Y-97090240D01*
X135105784Y-97185420D01*
X134949707Y-97313507D01*
X134821620Y-97469584D01*
X134726442Y-97647648D01*
X134667829Y-97840867D01*
X134653298Y-97988404D01*
X134653132Y-97991800D01*
X135356802Y-97991800D01*
X135353000Y-98013364D01*
X135353000Y-98470236D01*
X135356802Y-98491800D01*
X134653132Y-98491800D01*
X131852868Y-98491800D01*
X131149198Y-98491800D01*
X131153000Y-98470236D01*
X131153000Y-98013364D01*
X131149198Y-97991800D01*
X131852868Y-97991800D01*
X131852701Y-97988404D01*
X131838170Y-97840867D01*
X131779557Y-97647648D01*
X131684379Y-97469584D01*
X131556292Y-97313507D01*
X131400215Y-97185420D01*
X131222146Y-97090240D01*
X131078000Y-97046512D01*
X131078000Y-97827317D01*
X130993007Y-97755999D01*
X130885306Y-97716800D01*
X130770694Y-97716800D01*
X130662993Y-97755999D01*
X130577999Y-97827318D01*
X130577999Y-97046512D01*
X130433853Y-97090240D01*
X130255784Y-97185420D01*
X130099707Y-97313507D01*
X129971620Y-97469584D01*
X129876442Y-97647648D01*
X129817829Y-97840867D01*
X129803298Y-97988404D01*
X129803132Y-97991800D01*
X130506802Y-97991800D01*
X130503000Y-98013364D01*
X130503000Y-98470236D01*
X130506802Y-98491800D01*
X129803132Y-98491800D01*
X119014900Y-98491800D01*
X119014900Y-98068540D01*
X119034585Y-98001501D01*
X119051220Y-97980858D01*
X119095415Y-97936663D01*
X119101076Y-97927654D01*
X119191389Y-97783922D01*
X119250968Y-97613655D01*
X119271165Y-97434400D01*
X119250968Y-97255145D01*
X119191389Y-97084878D01*
X119095416Y-96932138D01*
X119095415Y-96932137D01*
X119095414Y-96932135D01*
X118967864Y-96804585D01*
X118905467Y-96765379D01*
X118815122Y-96708611D01*
X118644855Y-96649032D01*
X118644853Y-96649031D01*
X118644851Y-96649031D01*
X118465600Y-96628834D01*
X118286348Y-96649031D01*
X118286345Y-96649031D01*
X118286345Y-96649032D01*
X118116078Y-96708611D01*
X118116076Y-96708611D01*
X118116076Y-96708612D01*
X117963335Y-96804585D01*
X117835785Y-96932135D01*
X117739812Y-97084876D01*
X117739811Y-97084878D01*
X117704630Y-97185420D01*
X117680231Y-97255148D01*
X117660034Y-97434400D01*
X117680231Y-97613651D01*
X117680231Y-97613653D01*
X117680232Y-97613655D01*
X117739811Y-97783922D01*
X117744892Y-97792009D01*
X117763900Y-97857982D01*
X117763900Y-107665854D01*
X117744215Y-107732893D01*
X117718566Y-107761707D01*
X117660750Y-107809155D01*
X117532601Y-107965306D01*
X117437378Y-108143456D01*
X117378737Y-108336768D01*
X117364198Y-108484385D01*
X117364197Y-108484403D01*
X117363900Y-108487420D01*
X117363900Y-109038180D01*
X115479900Y-109038180D01*
X115479900Y-101513426D01*
X115481427Y-101494027D01*
X115482207Y-101489100D01*
X115483619Y-101480188D01*
X115480070Y-101412468D01*
X115479900Y-101405979D01*
X115479900Y-101388849D01*
X115479900Y-101385608D01*
X115477770Y-101365342D01*
X115477261Y-101358886D01*
X115473712Y-101291154D01*
X115470085Y-101277618D01*
X115466539Y-101258484D01*
X115465074Y-101244542D01*
X115444116Y-101180044D01*
X115442271Y-101173815D01*
X115424721Y-101108314D01*
X115418358Y-101095827D01*
X115410908Y-101077841D01*
X115408403Y-101070131D01*
X115406579Y-101064516D01*
X115372649Y-101005749D01*
X115369578Y-101000092D01*
X115343101Y-100948125D01*
X115338783Y-100939650D01*
X115329962Y-100928758D01*
X115318937Y-100912716D01*
X115311935Y-100900587D01*
X115311934Y-100900586D01*
X115311933Y-100900584D01*
X115266527Y-100850155D01*
X115262332Y-100845242D01*
X115251561Y-100831942D01*
X115249519Y-100829420D01*
X115235124Y-100815025D01*
X115230655Y-100810316D01*
X115185271Y-100759911D01*
X115173931Y-100751673D01*
X115159134Y-100739035D01*
X114479615Y-100059516D01*
X114446130Y-99998193D01*
X114446404Y-99944243D01*
X114460622Y-99881957D01*
X114479668Y-99627800D01*
X114460622Y-99373643D01*
X114403908Y-99125163D01*
X114310793Y-98887912D01*
X114291138Y-98853869D01*
X114218238Y-98727601D01*
X114183359Y-98667188D01*
X114024450Y-98467923D01*
X113837617Y-98294568D01*
X113627034Y-98150995D01*
X113397404Y-98040411D01*
X113153858Y-97965287D01*
X112901835Y-97927300D01*
X112646965Y-97927300D01*
X112394942Y-97965287D01*
X112151396Y-98040411D01*
X111921766Y-98150995D01*
X111816474Y-98222781D01*
X111711181Y-98294569D01*
X111524349Y-98467923D01*
X111524350Y-98467923D01*
X111407215Y-98614806D01*
X111365438Y-98667192D01*
X111238008Y-98887908D01*
X111144892Y-99125162D01*
X111088177Y-99373645D01*
X111069131Y-99627800D01*
X111088177Y-99881954D01*
X111144892Y-100130437D01*
X111238008Y-100367691D01*
X111332122Y-100530701D01*
X111365441Y-100588412D01*
X111524350Y-100787677D01*
X111711183Y-100961032D01*
X111921766Y-101104605D01*
X112151396Y-101215189D01*
X112394942Y-101290313D01*
X112646965Y-101328300D01*
X112901835Y-101328300D01*
X113100263Y-101298391D01*
X113169488Y-101307864D01*
X113206426Y-101333325D01*
X113642580Y-101769479D01*
X113676065Y-101830802D01*
X113678899Y-101857160D01*
X113678900Y-114931360D01*
X113659215Y-114998399D01*
X113606411Y-115044154D01*
X113598234Y-115047542D01*
X113487069Y-115089004D01*
X113371854Y-115175254D01*
X113285604Y-115290468D01*
X113235310Y-115425315D01*
X113235309Y-115425317D01*
X113228900Y-115484927D01*
X113228900Y-115488249D01*
X113228900Y-116408438D01*
X113209215Y-116475477D01*
X113192581Y-116496119D01*
X107924112Y-121764587D01*
X107872428Y-121795566D01*
X107844672Y-121803986D01*
X107670863Y-121896889D01*
X107518517Y-122021917D01*
X107393489Y-122174263D01*
X107300585Y-122348073D01*
X107243376Y-122536666D01*
X107224059Y-122732800D01*
X91252700Y-122732800D01*
X91252700Y-119797855D01*
X91271706Y-119731883D01*
X91295716Y-119693671D01*
X91352989Y-119602522D01*
X91412568Y-119432255D01*
X91432765Y-119253000D01*
X91412568Y-119073745D01*
X91352989Y-118903478D01*
X91257016Y-118750738D01*
X91257015Y-118750737D01*
X91257014Y-118750735D01*
X91129464Y-118623185D01*
X91037267Y-118565254D01*
X90976722Y-118527211D01*
X90806455Y-118467632D01*
X90806453Y-118467631D01*
X90806451Y-118467631D01*
X90627200Y-118447434D01*
X90447948Y-118467631D01*
X90447945Y-118467631D01*
X90447945Y-118467632D01*
X90277678Y-118527211D01*
X90277676Y-118527211D01*
X90277676Y-118527212D01*
X90124935Y-118623185D01*
X89997385Y-118750735D01*
X89917263Y-118878249D01*
X89901411Y-118903478D01*
X89854158Y-119038519D01*
X89841831Y-119073748D01*
X89821634Y-119253000D01*
X89841831Y-119432251D01*
X89841831Y-119432253D01*
X89841832Y-119432255D01*
X89901411Y-119602522D01*
X89901412Y-119602523D01*
X89982694Y-119731883D01*
X90001700Y-119797855D01*
X90001700Y-126353545D01*
X89982694Y-126419517D01*
X89903779Y-126545110D01*
X89901411Y-126548878D01*
X89849716Y-126696613D01*
X89841831Y-126719148D01*
X89821634Y-126898400D01*
X89841831Y-127077651D01*
X89841831Y-127077653D01*
X89841832Y-127077655D01*
X89901411Y-127247922D01*
X89982693Y-127377282D01*
X90001699Y-127443252D01*
X90001699Y-129864547D01*
X89982014Y-129931586D01*
X89965380Y-129952228D01*
X85871626Y-134045981D01*
X85810303Y-134079466D01*
X85783945Y-134082300D01*
X84474839Y-134082300D01*
X84474820Y-134082300D01*
X84471528Y-134082301D01*
X84468248Y-134082653D01*
X84468240Y-134082654D01*
X84411915Y-134088709D01*
X84277069Y-134139004D01*
X84161854Y-134225254D01*
X84075604Y-134340468D01*
X84025310Y-134475315D01*
X84025309Y-134475317D01*
X84018900Y-134534927D01*
X84018900Y-134538248D01*
X84018900Y-134538249D01*
X84018900Y-136327360D01*
X84018900Y-136327378D01*
X60516142Y-136327378D01*
X60516142Y-131247378D01*
X84018900Y-131247378D01*
X84018901Y-131250672D01*
X84019253Y-131253952D01*
X84019254Y-131253959D01*
X84024666Y-131304306D01*
X84025309Y-131310283D01*
X84075604Y-131445131D01*
X84161854Y-131560346D01*
X84277069Y-131646596D01*
X84411917Y-131696891D01*
X84471527Y-131703300D01*
X86267272Y-131703299D01*
X86326883Y-131696891D01*
X86461731Y-131646596D01*
X86576946Y-131560346D01*
X86663196Y-131445131D01*
X86713491Y-131310283D01*
X86719900Y-131250673D01*
X86719899Y-129454928D01*
X86713491Y-129395317D01*
X86663196Y-129260469D01*
X86576946Y-129145254D01*
X86461731Y-129059004D01*
X86326883Y-129008709D01*
X86267273Y-129002300D01*
X86263950Y-129002300D01*
X84474839Y-129002300D01*
X84474820Y-129002300D01*
X84471528Y-129002301D01*
X84468248Y-129002653D01*
X84468240Y-129002654D01*
X84411915Y-129008709D01*
X84277069Y-129059004D01*
X84161854Y-129145254D01*
X84075604Y-129260468D01*
X84025309Y-129395316D01*
X84024238Y-129405283D01*
X84018900Y-129454927D01*
X84018900Y-129458248D01*
X84018900Y-129458249D01*
X84018900Y-131247360D01*
X84018900Y-131247378D01*
X60516142Y-131247378D01*
X60516142Y-129342378D01*
X68143900Y-129342378D01*
X68143901Y-129345672D01*
X68144253Y-129348952D01*
X68144254Y-129348959D01*
X68150309Y-129405284D01*
X68162743Y-129438620D01*
X68200604Y-129540131D01*
X68286854Y-129655346D01*
X68402069Y-129741596D01*
X68536917Y-129791891D01*
X68596527Y-129798300D01*
X70392272Y-129798299D01*
X70451883Y-129791891D01*
X70586731Y-129741596D01*
X70701946Y-129655346D01*
X70788196Y-129540131D01*
X70837210Y-129408716D01*
X70879081Y-129352783D01*
X70944546Y-129328366D01*
X71012819Y-129343218D01*
X71041073Y-129364369D01*
X71162999Y-129486295D01*
X71356570Y-129621835D01*
X71570737Y-129721703D01*
X71798991Y-129782862D01*
X71798992Y-129782863D01*
X72034399Y-129803459D01*
X72034399Y-129803458D01*
X72034400Y-129803459D01*
X72269808Y-129782863D01*
X72498063Y-129721703D01*
X72712230Y-129621835D01*
X72905801Y-129486295D01*
X73072895Y-129319201D01*
X73208435Y-129125630D01*
X73308303Y-128911463D01*
X73369463Y-128683208D01*
X73390059Y-128447800D01*
X73369463Y-128212392D01*
X73308303Y-127984137D01*
X73208435Y-127769971D01*
X73072895Y-127576399D01*
X72905801Y-127409305D01*
X72712230Y-127273765D01*
X72498063Y-127173897D01*
X72436901Y-127157509D01*
X72269807Y-127112736D01*
X72034400Y-127092140D01*
X71798992Y-127112736D01*
X71570736Y-127173897D01*
X71356570Y-127273765D01*
X71163001Y-127409303D01*
X71041073Y-127531231D01*
X70979750Y-127564715D01*
X70910058Y-127559731D01*
X70854125Y-127517859D01*
X70837210Y-127486882D01*
X70820937Y-127443252D01*
X70788196Y-127355469D01*
X70701946Y-127240254D01*
X70586731Y-127154004D01*
X70451883Y-127103709D01*
X70392273Y-127097300D01*
X70388950Y-127097300D01*
X68599839Y-127097300D01*
X68599820Y-127097300D01*
X68596528Y-127097301D01*
X68593248Y-127097653D01*
X68593240Y-127097654D01*
X68536915Y-127103709D01*
X68402069Y-127154004D01*
X68286854Y-127240254D01*
X68200604Y-127355468D01*
X68151569Y-127486940D01*
X68150309Y-127490317D01*
X68143900Y-127549927D01*
X68143900Y-127553248D01*
X68143900Y-127553249D01*
X68143900Y-129342360D01*
X68143900Y-129342378D01*
X60516142Y-129342378D01*
X60516142Y-120925429D01*
X68574900Y-120925429D01*
X68574901Y-120928723D01*
X68575253Y-120932003D01*
X68575254Y-120932010D01*
X68581309Y-120988335D01*
X68591960Y-121016891D01*
X68631604Y-121123182D01*
X68717854Y-121238397D01*
X68833069Y-121324647D01*
X68967917Y-121374942D01*
X69027527Y-121381351D01*
X70723272Y-121381350D01*
X70782883Y-121374942D01*
X70917731Y-121324647D01*
X71032946Y-121238397D01*
X71119196Y-121123182D01*
X71169491Y-120988334D01*
X71175900Y-120928724D01*
X71175899Y-119259378D01*
X78125300Y-119259378D01*
X78125301Y-119262672D01*
X78131709Y-119322283D01*
X78182004Y-119457131D01*
X78268254Y-119572346D01*
X78383469Y-119658596D01*
X78518317Y-119708891D01*
X78577927Y-119715300D01*
X80273672Y-119715299D01*
X80333283Y-119708891D01*
X80468131Y-119658596D01*
X80583346Y-119572346D01*
X80669596Y-119457131D01*
X80719891Y-119322283D01*
X80726300Y-119262673D01*
X80726300Y-118664800D01*
X85258928Y-118664800D01*
X85311533Y-118861126D01*
X85407665Y-119067280D01*
X85538141Y-119253619D01*
X85698980Y-119414458D01*
X85885319Y-119544934D01*
X86091473Y-119641066D01*
X86287799Y-119693671D01*
X86287800Y-119693671D01*
X86287800Y-118730486D01*
X86299755Y-118742441D01*
X86412652Y-118799965D01*
X86506319Y-118814800D01*
X86569281Y-118814800D01*
X86662948Y-118799965D01*
X86775845Y-118742441D01*
X86787800Y-118730486D01*
X86787800Y-119693671D01*
X86984126Y-119641066D01*
X87190280Y-119544934D01*
X87376619Y-119414458D01*
X87537458Y-119253619D01*
X87667934Y-119067280D01*
X87764066Y-118861126D01*
X87816672Y-118664800D01*
X86853486Y-118664800D01*
X86865441Y-118652845D01*
X86922965Y-118539948D01*
X86942786Y-118414800D01*
X86922965Y-118289652D01*
X86865441Y-118176755D01*
X86853486Y-118164800D01*
X87816672Y-118164800D01*
X87816671Y-118164799D01*
X87764066Y-117968473D01*
X87667934Y-117762319D01*
X87537458Y-117575980D01*
X87376619Y-117415141D01*
X87190280Y-117284665D01*
X86984126Y-117188533D01*
X86787800Y-117135926D01*
X86787800Y-118099114D01*
X86775845Y-118087159D01*
X86662948Y-118029635D01*
X86569281Y-118014800D01*
X86506319Y-118014800D01*
X86412652Y-118029635D01*
X86299755Y-118087159D01*
X86287800Y-118099114D01*
X86287800Y-117135927D01*
X86287799Y-117135926D01*
X86091473Y-117188533D01*
X85885319Y-117284665D01*
X85698980Y-117415141D01*
X85538141Y-117575980D01*
X85407665Y-117762319D01*
X85311533Y-117968473D01*
X85258928Y-118164799D01*
X85258928Y-118164800D01*
X86222114Y-118164800D01*
X86210159Y-118176755D01*
X86152635Y-118289652D01*
X86132814Y-118414800D01*
X86152635Y-118539948D01*
X86210159Y-118652845D01*
X86222114Y-118664800D01*
X85258928Y-118664800D01*
X80726300Y-118664800D01*
X80726299Y-117566928D01*
X80719891Y-117507317D01*
X80669596Y-117372469D01*
X80583346Y-117257254D01*
X80468131Y-117171004D01*
X80333283Y-117120709D01*
X80273673Y-117114300D01*
X80270350Y-117114300D01*
X78581239Y-117114300D01*
X78581220Y-117114300D01*
X78577928Y-117114301D01*
X78574648Y-117114653D01*
X78574640Y-117114654D01*
X78518315Y-117120709D01*
X78383469Y-117171004D01*
X78268254Y-117257254D01*
X78182004Y-117372468D01*
X78131710Y-117507315D01*
X78131709Y-117507317D01*
X78125300Y-117566927D01*
X78125300Y-117570248D01*
X78125300Y-117570249D01*
X78125300Y-119259360D01*
X78125300Y-119259378D01*
X71175899Y-119259378D01*
X71175899Y-119232979D01*
X71169491Y-119173368D01*
X71119196Y-119038520D01*
X71032946Y-118923305D01*
X70917731Y-118837055D01*
X70782883Y-118786760D01*
X70723273Y-118780351D01*
X70719950Y-118780351D01*
X69030839Y-118780351D01*
X69030820Y-118780351D01*
X69027528Y-118780352D01*
X69024248Y-118780704D01*
X69024240Y-118780705D01*
X68967915Y-118786760D01*
X68833069Y-118837055D01*
X68717854Y-118923305D01*
X68631604Y-119038519D01*
X68581310Y-119173366D01*
X68581309Y-119173368D01*
X68574900Y-119232978D01*
X68574900Y-119236299D01*
X68574900Y-119236300D01*
X68574900Y-120925411D01*
X68574900Y-120925429D01*
X60516142Y-120925429D01*
X60516142Y-115153321D01*
X60490742Y-115127921D01*
X56728542Y-115127921D01*
X56661503Y-115108236D01*
X56637773Y-115080850D01*
X68570433Y-115080850D01*
X68590258Y-115307453D01*
X68649133Y-115527177D01*
X68745266Y-115733335D01*
X68796372Y-115806322D01*
X68796374Y-115806323D01*
X69477446Y-115125250D01*
X69490235Y-115205999D01*
X69547759Y-115318896D01*
X69637355Y-115408492D01*
X69750252Y-115466016D01*
X69830999Y-115478804D01*
X69149926Y-116159876D01*
X69149926Y-116159877D01*
X69222915Y-116210984D01*
X69429073Y-116307117D01*
X69648797Y-116365992D01*
X69875399Y-116385817D01*
X70102002Y-116365992D01*
X70321726Y-116307117D01*
X70527880Y-116210985D01*
X70600872Y-116159876D01*
X69919801Y-115478804D01*
X70000548Y-115466016D01*
X70113445Y-115408492D01*
X70203041Y-115318896D01*
X70260565Y-115205999D01*
X70273353Y-115125251D01*
X70954425Y-115806323D01*
X71005534Y-115733331D01*
X71101666Y-115527177D01*
X71160541Y-115307453D01*
X71180366Y-115080850D01*
X71160541Y-114854248D01*
X71101666Y-114634524D01*
X71005533Y-114428366D01*
X70954425Y-114355377D01*
X70273353Y-115036449D01*
X70260565Y-114955703D01*
X70203041Y-114842806D01*
X70113445Y-114753210D01*
X70000548Y-114695686D01*
X69919800Y-114682897D01*
X70600872Y-114001825D01*
X70600871Y-114001823D01*
X70527884Y-113950717D01*
X70321726Y-113854584D01*
X70102002Y-113795709D01*
X69875399Y-113775884D01*
X69648797Y-113795709D01*
X69429072Y-113854584D01*
X69222916Y-113950716D01*
X69149927Y-114001824D01*
X69149926Y-114001824D01*
X69831000Y-114682897D01*
X69750252Y-114695686D01*
X69637355Y-114753210D01*
X69547759Y-114842806D01*
X69490235Y-114955703D01*
X69477446Y-115036450D01*
X68796373Y-114355377D01*
X68796373Y-114355378D01*
X68745265Y-114428367D01*
X68649133Y-114634523D01*
X68590258Y-114854248D01*
X68570433Y-115080850D01*
X56637773Y-115080850D01*
X56615748Y-115055432D01*
X56604542Y-115003921D01*
X56604542Y-110794800D01*
X78120331Y-110794800D01*
X78140164Y-111021489D01*
X78199061Y-111241297D01*
X78295232Y-111447535D01*
X78425753Y-111633940D01*
X78586659Y-111794846D01*
X78773064Y-111925367D01*
X78773065Y-111925367D01*
X78773066Y-111925368D01*
X78979304Y-112021539D01*
X79199108Y-112080435D01*
X79425800Y-112100268D01*
X79652492Y-112080435D01*
X79872296Y-112021539D01*
X80078534Y-111925368D01*
X80264939Y-111794847D01*
X80420408Y-111639378D01*
X85237300Y-111639378D01*
X85237301Y-111642672D01*
X85243709Y-111702283D01*
X85294004Y-111837131D01*
X85380254Y-111952346D01*
X85495469Y-112038596D01*
X85630317Y-112088891D01*
X85689927Y-112095300D01*
X87385672Y-112095299D01*
X87445283Y-112088891D01*
X87580131Y-112038596D01*
X87695346Y-111952346D01*
X87781596Y-111837131D01*
X87831891Y-111702283D01*
X87838300Y-111642673D01*
X87838299Y-109946928D01*
X87831891Y-109887317D01*
X87781596Y-109752469D01*
X87695346Y-109637254D01*
X87580131Y-109551004D01*
X87445283Y-109500709D01*
X87385673Y-109494300D01*
X87382350Y-109494300D01*
X85693239Y-109494300D01*
X85693220Y-109494300D01*
X85689928Y-109494301D01*
X85686648Y-109494653D01*
X85686640Y-109494654D01*
X85630315Y-109500709D01*
X85495469Y-109551004D01*
X85380254Y-109637254D01*
X85294004Y-109752468D01*
X85243709Y-109887316D01*
X85238119Y-109939314D01*
X85237300Y-109946927D01*
X85237300Y-109950248D01*
X85237300Y-109950249D01*
X85237300Y-111639360D01*
X85237300Y-111639378D01*
X80420408Y-111639378D01*
X80425847Y-111633939D01*
X80556368Y-111447534D01*
X80652539Y-111241296D01*
X80711435Y-111021492D01*
X80731268Y-110794800D01*
X80711435Y-110568108D01*
X80652539Y-110348304D01*
X80556368Y-110142066D01*
X80469681Y-110018262D01*
X80425846Y-109955659D01*
X80264940Y-109794753D01*
X80078535Y-109664232D01*
X79872297Y-109568061D01*
X79652489Y-109509164D01*
X79425800Y-109489331D01*
X79199110Y-109509164D01*
X78979302Y-109568061D01*
X78773064Y-109664232D01*
X78586659Y-109794753D01*
X78425753Y-109955659D01*
X78295232Y-110142064D01*
X78199061Y-110348302D01*
X78140164Y-110568110D01*
X78120331Y-110794800D01*
X56604542Y-110794800D01*
X56604542Y-104955833D01*
X66124725Y-104955833D01*
X66143710Y-105342300D01*
X66144306Y-105348353D01*
X66201081Y-105731094D01*
X66202267Y-105737053D01*
X66296282Y-106112386D01*
X66298049Y-106118209D01*
X66428395Y-106482501D01*
X66430727Y-106488134D01*
X66596158Y-106837908D01*
X66599029Y-106843277D01*
X66797949Y-107175155D01*
X66801317Y-107180196D01*
X67031817Y-107490989D01*
X67035675Y-107495691D01*
X67129468Y-107599176D01*
X67129469Y-107599176D01*
X68442503Y-106286141D01*
X68554431Y-106423718D01*
X68769390Y-106624476D01*
X68793943Y-106641808D01*
X67483022Y-107952729D01*
X67483022Y-107952730D01*
X67586508Y-108046524D01*
X67591210Y-108050382D01*
X67902003Y-108280882D01*
X67907044Y-108284250D01*
X68238922Y-108483170D01*
X68244291Y-108486041D01*
X68594065Y-108651472D01*
X68599698Y-108653804D01*
X68963990Y-108784150D01*
X68969813Y-108785917D01*
X69345146Y-108879932D01*
X69351105Y-108881118D01*
X69733846Y-108937893D01*
X69739899Y-108938489D01*
X70126367Y-108957475D01*
X70132433Y-108957475D01*
X70518900Y-108938489D01*
X70524953Y-108937893D01*
X70907694Y-108881118D01*
X70913653Y-108879932D01*
X71288986Y-108785917D01*
X71294809Y-108784150D01*
X71659101Y-108653804D01*
X71664734Y-108651472D01*
X72014508Y-108486041D01*
X72019877Y-108483170D01*
X72351755Y-108284250D01*
X72356796Y-108280882D01*
X72667589Y-108050382D01*
X72672280Y-108046533D01*
X72775776Y-107952729D01*
X72443329Y-107620282D01*
X79879700Y-107620282D01*
X79918804Y-107879715D01*
X79996137Y-108130423D01*
X80109972Y-108366804D01*
X80238186Y-108554859D01*
X80257771Y-108583585D01*
X80394929Y-108731405D01*
X80436219Y-108775905D01*
X80641343Y-108939486D01*
X80868557Y-109070668D01*
X81112784Y-109166520D01*
X81368570Y-109224902D01*
X81564706Y-109239600D01*
X81567023Y-109239600D01*
X84193377Y-109239600D01*
X84195694Y-109239600D01*
X84391830Y-109224902D01*
X84647616Y-109166520D01*
X84891843Y-109070668D01*
X85119057Y-108939486D01*
X85324181Y-108775905D01*
X85478043Y-108610081D01*
X85502628Y-108583585D01*
X85502629Y-108583582D01*
X85502633Y-108583579D01*
X85650428Y-108366804D01*
X85764263Y-108130423D01*
X85841596Y-107879715D01*
X85880700Y-107620282D01*
X85880700Y-107357918D01*
X85841596Y-107098485D01*
X85764263Y-106847777D01*
X85650428Y-106611396D01*
X85502633Y-106394621D01*
X85502632Y-106394620D01*
X85502628Y-106394614D01*
X85324184Y-106202298D01*
X85324183Y-106202297D01*
X85324181Y-106202295D01*
X85119057Y-106038714D01*
X85119056Y-106038713D01*
X84891841Y-105907531D01*
X84647618Y-105811680D01*
X84391827Y-105753297D01*
X84198008Y-105738773D01*
X84197997Y-105738772D01*
X84195694Y-105738600D01*
X81564706Y-105738600D01*
X81562403Y-105738772D01*
X81562391Y-105738773D01*
X81368572Y-105753297D01*
X81112781Y-105811680D01*
X80868558Y-105907531D01*
X80641343Y-106038713D01*
X80436215Y-106202298D01*
X80257771Y-106394614D01*
X80197851Y-106482501D01*
X80109972Y-106611396D01*
X79996137Y-106847777D01*
X79918804Y-107098485D01*
X79879700Y-107357918D01*
X79879700Y-107620282D01*
X72443329Y-107620282D01*
X71464855Y-106641808D01*
X71489410Y-106624476D01*
X71704369Y-106423718D01*
X71816295Y-106286142D01*
X73129329Y-107599176D01*
X73223133Y-107495680D01*
X73226982Y-107490989D01*
X73457482Y-107180196D01*
X73460850Y-107175155D01*
X73659770Y-106843277D01*
X73662641Y-106837908D01*
X73828072Y-106488134D01*
X73830404Y-106482501D01*
X73960750Y-106118209D01*
X73962517Y-106112386D01*
X74056532Y-105737053D01*
X74057718Y-105731094D01*
X74114493Y-105348353D01*
X74115089Y-105342300D01*
X74134075Y-104955833D01*
X74134075Y-104949766D01*
X74115089Y-104563299D01*
X74114493Y-104557246D01*
X74057718Y-104174505D01*
X74056532Y-104168546D01*
X73962517Y-103793213D01*
X73960750Y-103787390D01*
X73830404Y-103423098D01*
X73828072Y-103417465D01*
X73662641Y-103067691D01*
X73659770Y-103062322D01*
X73460850Y-102730444D01*
X73457482Y-102725403D01*
X73226982Y-102414610D01*
X73223124Y-102409908D01*
X73129330Y-102306422D01*
X73129329Y-102306422D01*
X71816294Y-103619456D01*
X71704369Y-103481882D01*
X71489410Y-103281124D01*
X71464854Y-103263790D01*
X72775776Y-101952869D01*
X72775776Y-101952868D01*
X72672291Y-101859075D01*
X72667589Y-101855217D01*
X72356796Y-101624717D01*
X72351755Y-101621349D01*
X72131111Y-101489100D01*
X80124674Y-101489100D01*
X80130661Y-101565177D01*
X80144748Y-101744171D01*
X80204477Y-101992960D01*
X80266222Y-102142024D01*
X80302391Y-102229343D01*
X80436077Y-102447499D01*
X80602244Y-102642056D01*
X80796801Y-102808223D01*
X81014957Y-102941909D01*
X81189594Y-103014246D01*
X81251339Y-103039822D01*
X81329939Y-103058692D01*
X81500130Y-103099552D01*
X81691337Y-103114600D01*
X81693782Y-103114600D01*
X84066618Y-103114600D01*
X84069063Y-103114600D01*
X84260270Y-103099552D01*
X84509060Y-103039822D01*
X84745443Y-102941909D01*
X84963599Y-102808223D01*
X85158156Y-102642056D01*
X85324323Y-102447499D01*
X85458009Y-102229343D01*
X85555922Y-101992960D01*
X85615652Y-101744170D01*
X85635726Y-101489100D01*
X85615652Y-101234030D01*
X85565343Y-101024481D01*
X85555922Y-100985239D01*
X85525882Y-100912716D01*
X85458009Y-100748857D01*
X85324323Y-100530701D01*
X85158156Y-100336144D01*
X84963599Y-100169977D01*
X84745443Y-100036291D01*
X84653466Y-99998193D01*
X84509060Y-99938377D01*
X84260271Y-99878648D01*
X84071497Y-99863791D01*
X84071482Y-99863790D01*
X84069063Y-99863600D01*
X81691337Y-99863600D01*
X81688918Y-99863790D01*
X81688902Y-99863791D01*
X81500128Y-99878648D01*
X81251339Y-99938377D01*
X81014955Y-100036292D01*
X80796802Y-100169976D01*
X80602244Y-100336144D01*
X80436076Y-100530702D01*
X80302392Y-100748855D01*
X80204477Y-100985239D01*
X80144748Y-101234028D01*
X80134414Y-101365342D01*
X80124674Y-101489100D01*
X72131111Y-101489100D01*
X72019877Y-101422429D01*
X72014508Y-101419558D01*
X71664734Y-101254127D01*
X71659101Y-101251795D01*
X71294809Y-101121449D01*
X71288986Y-101119682D01*
X70913653Y-101025667D01*
X70907694Y-101024481D01*
X70524953Y-100967706D01*
X70518900Y-100967110D01*
X70132433Y-100948125D01*
X70126367Y-100948125D01*
X69739899Y-100967110D01*
X69733846Y-100967706D01*
X69351105Y-101024481D01*
X69345146Y-101025667D01*
X68969813Y-101119682D01*
X68963990Y-101121449D01*
X68599698Y-101251795D01*
X68594065Y-101254127D01*
X68244291Y-101419558D01*
X68238922Y-101422429D01*
X67907044Y-101621349D01*
X67902003Y-101624717D01*
X67591207Y-101855218D01*
X67586505Y-101859077D01*
X67483022Y-101952868D01*
X67483022Y-101952869D01*
X68793943Y-103263791D01*
X68769390Y-103281124D01*
X68554431Y-103481882D01*
X68442505Y-103619457D01*
X67129469Y-102306422D01*
X67129468Y-102306422D01*
X67035677Y-102409905D01*
X67031818Y-102414607D01*
X66801317Y-102725403D01*
X66797949Y-102730444D01*
X66599029Y-103062322D01*
X66596158Y-103067691D01*
X66430727Y-103417465D01*
X66428395Y-103423098D01*
X66298049Y-103787390D01*
X66296282Y-103793213D01*
X66202267Y-104168546D01*
X66201081Y-104174505D01*
X66144306Y-104557246D01*
X66143710Y-104563299D01*
X66124725Y-104949766D01*
X66124725Y-104955833D01*
X56604542Y-104955833D01*
X56604542Y-98606156D01*
X57884662Y-98606156D01*
X57903964Y-98962171D01*
X57904690Y-98968844D01*
X57962374Y-99320704D01*
X57963813Y-99327242D01*
X58059196Y-99670779D01*
X58061347Y-99677163D01*
X58193312Y-100008370D01*
X58196132Y-100014466D01*
X58363139Y-100329474D01*
X58366594Y-100335217D01*
X58566686Y-100630331D01*
X58570747Y-100635673D01*
X58700368Y-100788275D01*
X58700369Y-100788276D01*
X59941665Y-99546979D01*
X60104530Y-99737670D01*
X60295219Y-99900533D01*
X59051289Y-101144463D01*
X59065041Y-101157490D01*
X59070140Y-101161822D01*
X59353993Y-101377601D01*
X59359539Y-101381361D01*
X59665044Y-101565177D01*
X59670983Y-101568325D01*
X59994561Y-101718029D01*
X60000803Y-101720516D01*
X60338680Y-101834360D01*
X60345144Y-101836155D01*
X60693346Y-101912800D01*
X60699980Y-101913887D01*
X61054429Y-101952436D01*
X61061126Y-101952800D01*
X61417674Y-101952800D01*
X61424370Y-101952436D01*
X61778819Y-101913887D01*
X61785453Y-101912800D01*
X62133655Y-101836155D01*
X62140119Y-101834360D01*
X62477996Y-101720516D01*
X62484238Y-101718029D01*
X62807816Y-101568325D01*
X62813755Y-101565177D01*
X63119260Y-101381361D01*
X63124806Y-101377601D01*
X63408652Y-101161827D01*
X63413776Y-101157474D01*
X63427509Y-101144464D01*
X63427509Y-101144463D01*
X62183580Y-99900533D01*
X62374270Y-99737670D01*
X62537133Y-99546980D01*
X63778429Y-100788275D01*
X63778430Y-100788275D01*
X63908052Y-100635673D01*
X63912113Y-100630331D01*
X64112205Y-100335217D01*
X64115660Y-100329474D01*
X64282667Y-100014466D01*
X64285487Y-100008370D01*
X64417452Y-99677163D01*
X64419603Y-99670779D01*
X64431536Y-99627800D01*
X94004632Y-99627800D01*
X94023673Y-99881880D01*
X94080371Y-100130291D01*
X94173457Y-100367468D01*
X94300856Y-100588131D01*
X94342852Y-100640793D01*
X94342853Y-100640793D01*
X95146626Y-99837019D01*
X95185301Y-99930388D01*
X95281475Y-100055725D01*
X95406812Y-100151899D01*
X95500179Y-100190572D01*
X94696213Y-100994537D01*
X94857019Y-101104172D01*
X95086579Y-101214722D01*
X95330054Y-101289825D01*
X95582003Y-101327800D01*
X95836797Y-101327800D01*
X96088745Y-101289825D01*
X96332223Y-101214721D01*
X96561783Y-101104172D01*
X96722585Y-100994537D01*
X96600426Y-100872378D01*
X99008900Y-100872378D01*
X99008901Y-100875672D01*
X99009253Y-100878952D01*
X99009254Y-100878959D01*
X99015309Y-100935284D01*
X99027402Y-100967706D01*
X99065604Y-101070131D01*
X99151854Y-101185346D01*
X99267069Y-101271596D01*
X99401917Y-101321891D01*
X99461527Y-101328300D01*
X101957272Y-101328299D01*
X102016883Y-101321891D01*
X102151731Y-101271596D01*
X102266946Y-101185346D01*
X102353196Y-101070131D01*
X102403491Y-100935283D01*
X102409900Y-100875673D01*
X102409900Y-100872318D01*
X106074400Y-100872318D01*
X106074754Y-100878932D01*
X106080800Y-100935171D01*
X106131047Y-101069889D01*
X106217211Y-101184988D01*
X106332310Y-101271152D01*
X106467028Y-101321399D01*
X106523267Y-101327445D01*
X106529882Y-101327800D01*
X107524400Y-101327800D01*
X107524400Y-100173681D01*
X107617769Y-100212356D01*
X107735077Y-100227800D01*
X107813723Y-100227800D01*
X107931031Y-100212356D01*
X108024399Y-100173681D01*
X108024399Y-101327799D01*
X108024400Y-101327800D01*
X109018918Y-101327800D01*
X109025532Y-101327445D01*
X109081771Y-101321399D01*
X109216489Y-101271152D01*
X109331588Y-101184988D01*
X109417752Y-101069889D01*
X109467999Y-100935171D01*
X109474045Y-100878932D01*
X109474400Y-100872318D01*
X109474400Y-99877800D01*
X108320282Y-99877800D01*
X108358956Y-99784431D01*
X108379577Y-99627800D01*
X108358956Y-99471169D01*
X108320282Y-99377800D01*
X109474400Y-99377800D01*
X109474400Y-98383281D01*
X109474045Y-98376667D01*
X109467999Y-98320428D01*
X109417752Y-98185710D01*
X109331588Y-98070611D01*
X109216489Y-97984447D01*
X109081771Y-97934200D01*
X109025532Y-97928154D01*
X109018918Y-97927800D01*
X108024400Y-97927800D01*
X108024399Y-99081918D01*
X107931031Y-99043244D01*
X107813723Y-99027800D01*
X107735077Y-99027800D01*
X107617769Y-99043244D01*
X107524400Y-99081918D01*
X107524400Y-97927800D01*
X106529882Y-97927800D01*
X106523267Y-97928154D01*
X106467028Y-97934200D01*
X106332310Y-97984447D01*
X106217211Y-98070611D01*
X106131047Y-98185710D01*
X106080800Y-98320428D01*
X106074754Y-98376667D01*
X106074400Y-98383281D01*
X106074400Y-99377800D01*
X107228518Y-99377800D01*
X107189844Y-99471169D01*
X107169223Y-99627800D01*
X107189844Y-99784431D01*
X107228518Y-99877800D01*
X106074400Y-99877800D01*
X106074400Y-100872318D01*
X102409900Y-100872318D01*
X102409899Y-98379928D01*
X102403491Y-98320317D01*
X102353196Y-98185469D01*
X102266946Y-98070254D01*
X102151731Y-97984004D01*
X102016883Y-97933709D01*
X102016883Y-97933708D01*
X101960566Y-97927654D01*
X101960565Y-97927653D01*
X101957273Y-97927300D01*
X101953950Y-97927300D01*
X99464839Y-97927300D01*
X99464820Y-97927300D01*
X99461528Y-97927301D01*
X99458248Y-97927653D01*
X99458240Y-97927654D01*
X99401915Y-97933709D01*
X99267069Y-97984004D01*
X99151854Y-98070254D01*
X99065604Y-98185468D01*
X99015309Y-98320316D01*
X99011932Y-98351731D01*
X99008900Y-98379927D01*
X99008900Y-98383248D01*
X99008900Y-98383249D01*
X99008900Y-100872360D01*
X99008900Y-100872378D01*
X96600426Y-100872378D01*
X95918620Y-100190572D01*
X96011988Y-100151899D01*
X96137325Y-100055725D01*
X96233499Y-99930389D01*
X96272173Y-99837020D01*
X97075945Y-100640793D01*
X97075946Y-100640792D01*
X97117945Y-100588128D01*
X97245342Y-100367469D01*
X97338428Y-100130291D01*
X97395126Y-99881880D01*
X97414167Y-99627799D01*
X97395126Y-99373719D01*
X97338428Y-99125308D01*
X97245342Y-98888130D01*
X97117945Y-98667471D01*
X97075946Y-98614805D01*
X96272172Y-99418579D01*
X96233499Y-99325212D01*
X96137325Y-99199875D01*
X96011988Y-99103701D01*
X95918620Y-99065027D01*
X96722585Y-98261061D01*
X96561779Y-98151425D01*
X96332223Y-98040878D01*
X96088745Y-97965774D01*
X95836797Y-97927800D01*
X95582003Y-97927800D01*
X95330054Y-97965774D01*
X95086579Y-98040877D01*
X94857015Y-98151428D01*
X94696213Y-98261061D01*
X95500179Y-99065027D01*
X95406812Y-99103701D01*
X95281475Y-99199875D01*
X95185301Y-99325211D01*
X95146626Y-99418579D01*
X94342853Y-98614806D01*
X94300853Y-98667473D01*
X94173457Y-98888131D01*
X94080371Y-99125308D01*
X94023673Y-99373719D01*
X94004632Y-99627800D01*
X64431536Y-99627800D01*
X64514986Y-99327242D01*
X64516425Y-99320704D01*
X64574109Y-98968844D01*
X64574835Y-98962171D01*
X64594138Y-98606156D01*
X64594138Y-98599443D01*
X64574835Y-98243428D01*
X64574109Y-98236755D01*
X64516425Y-97884895D01*
X64514986Y-97878357D01*
X64419603Y-97534820D01*
X64417452Y-97528436D01*
X64285487Y-97197229D01*
X64282667Y-97191133D01*
X64115660Y-96876125D01*
X64112205Y-96870382D01*
X63912113Y-96575268D01*
X63908052Y-96569926D01*
X63778430Y-96417323D01*
X63778429Y-96417322D01*
X62537132Y-97658618D01*
X62374270Y-97467930D01*
X62183579Y-97305065D01*
X63427509Y-96061135D01*
X63413758Y-96048109D01*
X63408659Y-96043777D01*
X63124806Y-95827998D01*
X63119260Y-95824238D01*
X62813755Y-95640422D01*
X62807816Y-95637274D01*
X62484238Y-95487570D01*
X62477996Y-95485083D01*
X62140119Y-95371239D01*
X62133655Y-95369444D01*
X61785453Y-95292799D01*
X61778819Y-95291712D01*
X61424370Y-95253163D01*
X61417674Y-95252800D01*
X61061126Y-95252800D01*
X61054429Y-95253163D01*
X60699980Y-95291712D01*
X60693346Y-95292799D01*
X60345144Y-95369444D01*
X60338680Y-95371239D01*
X60000803Y-95485083D01*
X59994561Y-95487570D01*
X59670983Y-95637274D01*
X59665044Y-95640422D01*
X59359539Y-95824238D01*
X59353993Y-95827998D01*
X59070137Y-96043780D01*
X59065029Y-96048118D01*
X59051289Y-96061133D01*
X59051289Y-96061136D01*
X60295219Y-97305066D01*
X60104530Y-97467930D01*
X59941666Y-97658619D01*
X58700369Y-96417322D01*
X58570742Y-96569933D01*
X58566686Y-96575268D01*
X58366594Y-96870382D01*
X58363139Y-96876125D01*
X58196132Y-97191133D01*
X58193312Y-97197229D01*
X58061347Y-97528436D01*
X58059196Y-97534820D01*
X57963813Y-97878357D01*
X57962374Y-97884895D01*
X57904690Y-98236755D01*
X57903964Y-98243428D01*
X57884662Y-98599443D01*
X57884662Y-98606156D01*
X56604542Y-98606156D01*
X56604542Y-94068321D01*
X56624227Y-94001282D01*
X56677031Y-93955527D01*
X56728542Y-93944321D01*
X129617038Y-93944321D01*
X129684077Y-93964006D01*
G37*
%TD.AperFunction*%
%TD*%
M02*
