%TF.GenerationSoftware,KiCad,Pcbnew,7.0.2*%
%TF.CreationDate,2024-06-24T19:42:10-07:00*%
%TF.ProjectId,MK-KS-MkIV.kicad_pro,4d4b2d4b-532d-44d6-9b49-562e6b696361,1.0*%
%TF.SameCoordinates,PX3a67068PY9f701d0*%
%TF.FileFunction,Soldermask,Bot*%
%TF.FilePolarity,Negative*%
%FSLAX46Y46*%
G04 Gerber Fmt 4.6, Leading zero omitted, Abs format (unit mm)*
G04 Created by KiCad (PCBNEW 7.0.2) date 2024-06-24 19:42:10*
%MOMM*%
%LPD*%
G01*
G04 APERTURE LIST*
%ADD10R,1.700000X1.700000*%
%ADD11O,1.700000X1.700000*%
%ADD12C,3.000000*%
%ADD13O,3.220000X1.712000*%
%ADD14C,3.600000*%
%ADD15C,5.700000*%
%ADD16O,1.804000X3.404000*%
%ADD17R,2.400000X2.400000*%
%ADD18C,2.400000*%
%ADD19R,1.600000X1.600000*%
%ADD20O,1.600000X1.600000*%
%ADD21R,1.778000X1.778000*%
%ADD22C,1.778000*%
%ADD23C,4.700000*%
%ADD24C,7.000000*%
%ADD25C,1.600000*%
%ADD26O,5.000000X2.500000*%
%ADD27O,4.500000X2.250000*%
G04 APERTURE END LIST*
D10*
%TO.C,J6*%
X48130600Y9626800D03*
D11*
X45590600Y9626800D03*
X43050600Y9626800D03*
X40510600Y9626800D03*
%TD*%
D10*
%TO.C,J1*%
X76174600Y30486800D03*
D11*
X76174600Y27946800D03*
X76174600Y25406800D03*
X76174600Y22866800D03*
X76174600Y20326800D03*
X76174600Y17786800D03*
X76174600Y15246800D03*
%TD*%
D12*
%TO.C,RLY1*%
X52609000Y49924000D03*
X58609000Y35724000D03*
X46609000Y35724000D03*
X46609000Y47924000D03*
X58609000Y47924000D03*
%TD*%
D10*
%TO.C,TP5*%
X33649200Y25830800D03*
%TD*%
D13*
%TO.C,J3*%
X90482000Y3185000D03*
X75582000Y5685000D03*
X75582000Y685000D03*
X82782000Y5685000D03*
%TD*%
D14*
%TO.C,M_KSI4*%
X0Y0D03*
D15*
X0Y0D03*
%TD*%
D16*
%TO.C,J7*%
X97610000Y8375000D03*
X95210000Y6375000D03*
X89710000Y6375000D03*
X86010000Y8375000D03*
%TD*%
D10*
%TO.C,JP3*%
X64280600Y112800D03*
D11*
X64280600Y2652800D03*
%TD*%
D10*
%TO.C,JP7*%
X89151600Y29171800D03*
D11*
X89151600Y31711800D03*
%TD*%
D17*
%TO.C,ST1*%
X34672000Y67785000D03*
D18*
X39672000Y67785000D03*
%TD*%
D10*
%TO.C,TP6*%
X12465000Y33387000D03*
%TD*%
D19*
%TO.C,SW4*%
X66056000Y72318000D03*
D20*
X63516000Y72318000D03*
X63516000Y64698000D03*
X66056000Y64698000D03*
%TD*%
D21*
%TO.C,U1*%
X72004600Y52028800D03*
X72050600Y39328800D03*
D22*
X74544600Y52028800D03*
X74590600Y39328800D03*
X77084600Y52028800D03*
X77130600Y39328800D03*
X79624600Y52028800D03*
X79670600Y39328800D03*
X82164600Y52028800D03*
X82210600Y39328800D03*
X84704600Y52028800D03*
X84750600Y39328800D03*
X87244600Y52028800D03*
X87290600Y39328800D03*
X94910600Y39328800D03*
X92370600Y39328800D03*
X89830600Y39328800D03*
%TD*%
D10*
%TO.C,TP1*%
X41923600Y25830800D03*
%TD*%
%TO.C,OPa1*%
X96577600Y58585800D03*
D11*
X96577600Y61125800D03*
%TD*%
D10*
%TO.C,TP2*%
X17811200Y25830800D03*
%TD*%
D14*
%TO.C,M_KSI1*%
X0Y68580000D03*
D15*
X0Y68580000D03*
%TD*%
D10*
%TO.C,OP1*%
X64288600Y7199800D03*
D11*
X66828600Y7199800D03*
X69368600Y7199800D03*
%TD*%
D10*
%TO.C,TP4*%
X29548600Y25830800D03*
%TD*%
%TO.C,JP6*%
X86611600Y29171800D03*
D11*
X86611600Y31711800D03*
%TD*%
D23*
%TO.C,SHLD-1*%
X8890000Y62230000D03*
D24*
X8890000Y62230000D03*
%TD*%
D23*
%TO.C,SHLD-2*%
X85090000Y62230000D03*
D24*
X85090000Y62230000D03*
%TD*%
D11*
%TO.C,SW1*%
X59222600Y2413800D03*
D10*
X59222600Y-126200D03*
D11*
X54142600Y2413800D03*
X54142600Y-126200D03*
%TD*%
D19*
%TO.C,C1*%
X9214000Y52878651D03*
D25*
X9214000Y47878651D03*
%TD*%
D10*
%TO.C,JP2*%
X69350600Y112800D03*
D11*
X69350600Y2652800D03*
%TD*%
D10*
%TO.C,JP1*%
X85488600Y1620800D03*
D11*
X82948600Y1620800D03*
%TD*%
D26*
%TO.C,J2*%
X26617000Y59490000D03*
D27*
X26617000Y65490000D03*
%TD*%
D10*
%TO.C,J4*%
X65555600Y46990000D03*
D11*
X65555600Y44450000D03*
X65555600Y41910000D03*
X65555600Y39370000D03*
X65555600Y36830000D03*
X68095600Y46990000D03*
X68095600Y44450000D03*
X68095600Y41910000D03*
X68095600Y39370000D03*
X68095600Y36830000D03*
%TD*%
D14*
%TO.C,M_KSI2*%
X93980000Y68580000D03*
D15*
X93980000Y68580000D03*
%TD*%
D17*
%TO.C,ST2*%
X50740000Y67740000D03*
D18*
X45740000Y67740000D03*
%TD*%
D23*
%TO.C,SHLD-4*%
X8890000Y21590000D03*
D24*
X8890000Y21590000D03*
%TD*%
D10*
%TO.C,JP8*%
X79261600Y59553800D03*
D11*
X79261600Y62093800D03*
%TD*%
D10*
%TO.C,TP3*%
X37855600Y25830800D03*
%TD*%
%TO.C,JP10*%
X-2387000Y59961000D03*
D11*
X-2387000Y62501000D03*
%TD*%
D14*
%TO.C,M_KSI3*%
X93980000Y0D03*
D15*
X93980000Y0D03*
%TD*%
D10*
%TO.C,JP9*%
X89125000Y72011000D03*
D11*
X86585000Y72011000D03*
%TD*%
D10*
%TO.C,JP5*%
X84071600Y29171800D03*
D11*
X84071600Y31711800D03*
%TD*%
D10*
%TO.C,JP4*%
X81531600Y29171800D03*
D11*
X81531600Y31711800D03*
%TD*%
D23*
%TO.C,SHLD-3*%
X85090000Y21590000D03*
D24*
X85090000Y21590000D03*
%TD*%
D10*
%TO.C,J5*%
X68561600Y17874800D03*
D11*
X68561600Y15334800D03*
X66021600Y17874800D03*
X66021600Y15334800D03*
X63481600Y17874800D03*
X63481600Y15334800D03*
X60941600Y17874800D03*
X60941600Y15334800D03*
X58401600Y17874800D03*
X58401600Y15334800D03*
X55861600Y17874800D03*
X55861600Y15334800D03*
X53321600Y17874800D03*
X53321600Y15334800D03*
X50781600Y17874800D03*
X50781600Y15334800D03*
X48241600Y17874800D03*
X48241600Y15334800D03*
X45701600Y17874800D03*
X45701600Y15334800D03*
X43161600Y17874800D03*
X43161600Y15334800D03*
X40621600Y17874800D03*
X40621600Y15334800D03*
X38081600Y17874800D03*
X38081600Y15334800D03*
X35541600Y17874800D03*
X35541600Y15334800D03*
X33001600Y17874800D03*
X33001600Y15334800D03*
X30461600Y17874800D03*
X30461600Y15334800D03*
X27921600Y17874800D03*
X27921600Y15334800D03*
X25381600Y17874800D03*
X25381600Y15334800D03*
X22841600Y17874800D03*
X22841600Y15334800D03*
X20301600Y17874800D03*
X20301600Y15334800D03*
%TD*%
M02*
