<?xml version="1.0" encoding="UTF-8" standalone="no"?>
<svg
   viewBox="0 0 1500 1000"
   width="1500"
   height="1000"
   version="1.1"
   id="svg262"
   sodipodi:docname="MK-IF-MkV-Insulator.svg"
   inkscape:version="1.2.2 (732a01da63, 2022-12-09)"
   inkscape:export-filename="MK-IF-MkV-Insulator_CC.svg"
   inkscape:export-xdpi="96"
   inkscape:export-ydpi="96"
   xml:space="preserve"
   xmlns:inkscape="http://www.inkscape.org/namespaces/inkscape"
   xmlns:sodipodi="http://sodipodi.sourceforge.net/DTD/sodipodi-0.dtd"
   xmlns="http://www.w3.org/2000/svg"
   xmlns:svg="http://www.w3.org/2000/svg"><sodipodi:namedview
     id="namedview264"
     pagecolor="#ffffff"
     bordercolor="#000000"
     borderopacity="0.25"
     inkscape:showpageshadow="2"
     inkscape:pageopacity="0.0"
     inkscape:pagecheckerboard="0"
     inkscape:deskcolor="#d1d1d1"
     showgrid="false"
     inkscape:zoom="0.22716736"
     inkscape:cx="1318.4113"
     inkscape:cy="622.88879"
     inkscape:window-width="1536"
     inkscape:window-height="890"
     inkscape:window-x="-6"
     inkscape:window-y="-6"
     inkscape:window-maximized="1"
     inkscape:current-layer="g260" /><desc
     id="desc234">MK-IF-MkV-Insulator.dxf - scale = 25.400000, origin = (0.000000, 0.000000), method = file</desc><defs
     id="defs248"><marker
       id="DistanceX"
       orient="auto"
       refX="0"
       refY="0"
       style="overflow:visible"><path
         d="M 3,-3 -3,3 M 0,-5 V 5"
         style="stroke:#000000;stroke-width:0.5"
         id="path905" /></marker><pattern
       id="Hatch"
       patternUnits="userSpaceOnUse"
       width="8"
       height="8"
       x="0"
       y="0"><path
         d="M8 4 l-4,4"
         stroke="#000000"
         stroke-width="0.25"
         linecap="square"
         id="path908" /><path
         d="M6 2 l-4,4"
         stroke="#000000"
         stroke-width="0.25"
         linecap="square"
         id="path910" /><path
         d="M4 0 l-4,4"
         stroke="#000000"
         stroke-width="0.25"
         linecap="square"
         id="path912" /></pattern><symbol
       id="*MODEL_SPACE" /><symbol
       id="*PAPER_SPACE" /></defs><g
     inkscape:groupmode="layer"
     inkscape:label="0"
     id="g260"
     transform="translate(-179.49718,-1378.0063)"><g
       inkscape:label="0"
       id="g929"
       transform="translate(259.80986,346.6186)"
       style="vector-effect:non-scaling-stroke;stroke-width:1;stroke-dasharray:none;-inkscape-stroke:hairline"><path
         d="m 201.44084,1949.2364 h 941.48786 a 174.65386,174.65386 0 0 0 174.6539,-174.6538 V 1335.2692 A 174.65386,174.65386 0 0 0 1142.9287,1160.6153 H 201.44084 A 174.65386,174.65386 0 0 0 26.786982,1335.2692 v 439.3134 a 174.65386,174.65386 0 0 0 174.653858,174.6538 z"
         style="vector-effect:non-scaling-stroke;fill:#000000;fill-opacity:1;stroke:#010101;stroke-width:1;stroke-dasharray:none;stroke-opacity:1;-inkscape-stroke:hairline"
         id="path919" /><path
         d="m 172.06798,1822.3638 a 45.002835,45.002835 0 0 0 -90.005668,0 45.002835,45.002835 0 0 0 90.005668,0 z"
         style="vector-effect:non-scaling-stroke;fill:none;stroke:#000000;stroke-width:1;stroke-dasharray:none;-inkscape-stroke:hairline"
         id="path921" /><path
         d="m 1260.708,1822.3638 a 45.00285,45.00285 0 0 0 -90.0057,0 45.00285,45.00285 0 0 0 90.0057,0 z"
         style="vector-effect:non-scaling-stroke;fill:none;stroke:#000000;stroke-width:1;stroke-dasharray:none;-inkscape-stroke:hairline"
         id="path923" /><path
         d="m 1260.708,1241.7558 a 45.00285,45.00285 0 0 0 -90.0057,0 45.00285,45.00285 0 0 0 90.0057,0 z"
         style="vector-effect:non-scaling-stroke;fill:none;stroke:#000000;stroke-width:1;stroke-dasharray:none;-inkscape-stroke:hairline"
         id="path925" /><path
         d="m 172.06798,1241.7558 a 45.002835,45.002835 0 0 0 -90.005668,0 45.002835,45.002835 0 0 0 90.005668,0 z"
         style="vector-effect:non-scaling-stroke;fill:none;stroke:#000000;stroke-width:1;stroke-dasharray:none;-inkscape-stroke:hairline"
         id="path927" /></g><path
       style="vector-effect:non-scaling-stroke;fill:#ffffff;fill-opacity:1;stroke:#010101;stroke-width:1.69174;stroke-dasharray:none;stroke-opacity:1;-inkscape-stroke:hairline"
       d="m 1462.0256,1629.1896 c -30.4896,-11.7476 -39.2748,-47.8015 -17.1827,-70.5168 25.7213,-26.4469 69.6419,-10.6412 73.4689,26.4392 2.99,28.9701 -29.4874,54.4031 -56.2862,44.0776 z"
       id="path1093" /><path
       style="vector-effect:non-scaling-stroke;fill:#ffffff;fill-opacity:1;stroke:#010101;stroke-width:1.69174;stroke-dasharray:none;stroke-opacity:1;-inkscape-stroke:hairline"
       d="m 1455.9849,2206.9743 c -31.2865,-16.3442 -30.9323,-60.3988 0.6163,-76.6587 19.94,-10.2768 46.6623,-1.2665 57.5167,19.3937 4.9574,9.4359 5.2229,27.8532 0.5378,37.296 -11.0581,22.287 -37.2011,31.185 -58.6708,19.969 z"
       id="path1647" /><path
       style="vector-effect:non-scaling-stroke;fill:#ffffff;fill-opacity:1;stroke:#010101;stroke-width:1.69174;stroke-dasharray:none;stroke-opacity:1;-inkscape-stroke:hairline"
       d="m 372.72374,1629.0125 c -27.1788,-10.105 -37.6357,-43.3828 -20.6359,-65.6711 20.0829,-26.3304 58.6792,-23.0422 72.9953,6.2189 9.9893,20.4174 2.6494,44.5663 -17.0554,56.1141 -9.448,5.5369 -25.3467,7.0401 -35.304,3.3381 z"
       id="path1649" /><path
       style="vector-effect:non-scaling-stroke;fill:#ffffff;fill-opacity:1;stroke:#010101;stroke-width:1.69174;stroke-dasharray:none;stroke-opacity:1;-inkscape-stroke:hairline"
       d="m 371.79304,2209.4721 c -3.2495,-1.0347 -9.8452,-5.715 -14.6571,-10.4006 -15.1215,-14.7247 -17.663,-33.051 -7.1391,-51.4777 6.0022,-10.5094 15.5412,-17.7668 26.9496,-20.5036 11.0261,-2.6452 20.6779,-1.0862 31.4837,5.0852 13.8425,7.9058 21.1727,20.7897 21.0948,37.0774 -0.1408,29.4227 -28.8432,49.4185 -57.7319,40.2193 z"
       id="path1651" /><path
       style="vector-effect:non-scaling-stroke;fill:#000000;fill-opacity:1;stroke:#010101;stroke-width:1;stroke-dasharray:none;stroke-opacity:1;-inkscape-stroke:hairline"
       d="m 445.37064,2293.4972 c -23.0223,-2.7914 -41.151,-8.1337 -60.9025,-17.9471 -18.9871,-9.4336 -31.6959,-18.9039 -47.3795,-35.3061 -21.3501,-22.3283 -33.063,-42.4851 -42.6383,-73.3761 l -4.7195,-15.2257 -0.4616,-244.014 c -0.4442,-234.8069 -0.3393,-244.6127 2.7801,-259.8823 6.818,-33.3748 22.2667,-62.0863 46.6743,-86.7447 22.5659,-22.7977 44.0468,-35.6664 76.561,-45.8659 l 14.8604,-4.6615 h 501.6001 501.60006 l 15.2257,4.7194 c 18.1503,5.6261 36.2424,13.9219 49.5179,22.7056 12.8105,8.4761 32.6866,27.4334 43.0818,41.0903 10.3633,13.6151 23.6975,40.6996 28.264,57.4103 6.7805,24.8126 7.1049,38.8401 6.4385,278.3996 -0.7091,254.9251 0.1432,235.8233 -11.9605,268.047 -16.6884,44.4295 -55.0783,82.7294 -99.7384,99.5044 -32.9085,12.3609 16.3922,11.2792 -525.66206,11.5334 -268.4365,0.1258 -490.3501,-0.048 -493.1415,-0.3866 z m -38.91,-82.4535 c 23.4299,-11.0954 33.4075,-39.6053 22.0119,-62.897 -8.1155,-16.5875 -22.1684,-25.088 -41.4668,-25.083 -20.1974,0.01 -34.4407,9.0001 -42.5756,26.8868 -5.0511,11.1062 -5.1503,27.2865 -0.2333,38.0641 10.5617,23.1503 39.4472,33.834 62.2638,23.0291 z m 1083.93796,2.2698 c 16.1768,-4.4927 29.8442,-22.4098 31.285,-41.0125 1.1686,-15.0874 -3.7547,-27.3712 -15.0353,-37.5134 -29.1225,-26.1837 -73.9972,-8.4272 -77.1233,30.517 -1.718,21.403 10.1775,40.4272 29.6158,47.3641 7.6583,2.733 22.6271,3.0417 31.2578,0.6448 z M 402.68204,1632.1518 c 18.1438,-6.1822 30.212,-23.7014 30.212,-43.8581 0,-40.466 -46.4654,-61.3681 -76.8891,-34.5881 -10.6662,9.3888 -15.2776,19.8334 -15.271,34.5881 0.01,13.9266 2.785,21.327 11.7226,31.2198 12.8527,14.2264 31.6689,18.9611 50.2255,12.6383 z m 1094.37846,-2.8694 c 17.3073,-8.9337 26.3972,-25.6663 24.6309,-45.3405 -2.5458,-28.3569 -30.7438,-48.0623 -58.1611,-40.6444 -19.6256,5.3098 -34.4144,24.2374 -34.4144,44.0457 0,27.4824 19.2972,47.005 46.7979,47.3445 8.6159,0.1064 12.2865,-0.8318 21.1467,-5.4053 z"
       id="path1653" /><path
       style="vector-effect:non-scaling-stroke;fill:#000000;fill-opacity:1;stroke:#010101;stroke-width:0.29906;stroke-dasharray:none;stroke-opacity:1;-inkscape-stroke:hairline"
       d="m 909.21314,1508.9552 v -1.3457 h 187.21136 187.2114 v 1.3457 1.3458 H 1096.4245 909.21314 Z"
       id="path1655" /><path
       style="vector-effect:non-scaling-stroke;fill:#000000;fill-opacity:1;stroke:#010101;stroke-width:0.598119;stroke-dasharray:none;stroke-opacity:1;-inkscape-stroke:hairline"
       d="m 1011.088,2294.1367 c 14.9106,-0.089 39.1344,-0.089 53.8308,1e-4 14.6964,0.089 2.4969,0.1619 -27.11,0.1619 -29.6069,0 -41.63126,-0.073 -26.7208,-0.162 z"
       id="path1657" /><path
       style="vector-effect:non-scaling-stroke;fill:#000000;fill-opacity:1;stroke:#010101;stroke-width:0.598119;stroke-dasharray:none;stroke-opacity:1;-inkscape-stroke:hairline"
       d="m 989.95924,2294.5589 c 200.99806,-0.2178 369.55556,-0.61 374.57236,-0.8717 8.2662,-0.4311 9.1213,-0.3832 9.1213,0.5102 0,0.9149 -26.9933,0.9777 -374.57236,0.8717 l -374.5723,-0.1143 z"
       id="path1659" /></g></svg>
