<?xml version="1.0" encoding="UTF-8" standalone="no"?>
<!-- Created with Inkscape (http://www.inkscape.org/) -->

<svg
   width="210mm"
   height="297mm"
   viewBox="0 0 210 297"
   version="1.1"
   id="svg5"
   xml:space="preserve"
   inkscape:version="1.2.2 (732a01da63, 2022-12-09)"
   sodipodi:docname="Key.svg"
   xmlns:inkscape="http://www.inkscape.org/namespaces/inkscape"
   xmlns:sodipodi="http://sodipodi.sourceforge.net/DTD/sodipodi-0.dtd"
   xmlns="http://www.w3.org/2000/svg"
   xmlns:svg="http://www.w3.org/2000/svg"><sodipodi:namedview
     id="namedview7"
     pagecolor="#ffffff"
     bordercolor="#000000"
     borderopacity="0.25"
     inkscape:showpageshadow="2"
     inkscape:pageopacity="0.0"
     inkscape:pagecheckerboard="0"
     inkscape:deskcolor="#d1d1d1"
     inkscape:document-units="mm"
     showgrid="false"
     inkscape:zoom="0.84096521"
     inkscape:cx="453.05085"
     inkscape:cy="326.41065"
     inkscape:window-width="1536"
     inkscape:window-height="890"
     inkscape:window-x="-6"
     inkscape:window-y="-6"
     inkscape:window-maximized="1"
     inkscape:current-layer="layer5" /><defs
     id="defs2" /><g
     inkscape:groupmode="layer"
     id="layer2"
     inkscape:label="Base" /><g
     inkscape:groupmode="layer"
     id="layer4"
     inkscape:label="Upper-Frame" /><g
     inkscape:groupmode="layer"
     id="layer6"
     inkscape:label="Closer" /><g
     inkscape:groupmode="layer"
     id="layer5"
     inkscape:label="Arm"><g
       id="g7266"><rect
         style="fill:#ffe6d5;stroke:#000000;stroke-width:0.495571;stroke-dasharray:none"
         id="rect1091"
         width="118.32659"
         height="78.688286"
         x="61.530563"
         y="57.819042"
         ry="4.4065442" /><g
         id="g5265"><g
           id="g4759"><path
             style="fill:#ac9d93;fill-opacity:1;stroke:#000000;stroke-width:0.634035;stroke-dasharray:none"
             id="path4047"
             sodipodi:type="arc"
             sodipodi:cx="108.00869"
             sodipodi:cy="97.163185"
             sodipodi:rx="38.768402"
             sodipodi:ry="27.422483"
             sodipodi:start="0"
             sodipodi:end="6.2812528"
             sodipodi:open="true"
             sodipodi:arc-type="arc"
             d="M 146.77709,97.163185 A 38.768402,27.422483 0 0 1 108.02742,124.58567 38.768402,27.422483 0 0 1 69.240306,97.189682 38.768402,27.422483 0 0 1 107.9525,69.74073 38.768402,27.422483 0 0 1 146.77702,97.110191" /><path
             style="fill:#ffe6d5;fill-opacity:1;stroke:#000000;stroke-width:0.529167;stroke-dasharray:none"
             id="path4083"
             sodipodi:type="arc"
             sodipodi:cx="109.23226"
             sodipodi:cy="97.163185"
             sodipodi:rx="28.476027"
             sodipodi:ry="18.57616"
             sodipodi:start="0"
             sodipodi:end="6.2812528"
             sodipodi:arc-type="arc"
             d="M 137.70829,97.163185 A 28.476027,18.57616 0 0 1 109.24602,115.73934 28.476027,18.57616 0 0 1 80.756248,97.181134 28.476027,18.57616 0 0 1 109.19099,78.587044 28.476027,18.57616 0 0 1 137.70824,97.127287"
             sodipodi:open="true" /><g
             id="g4081"
             transform="translate(-2.8920967,1.6685483)"><path
               style="fill:#aa8800;stroke:#000000;stroke-width:0.540765;stroke-dasharray:none"
               id="path1301"
               sodipodi:type="arc"
               sodipodi:cx="84.616516"
               sodipodi:cy="81.979469"
               sodipodi:rx="5.5863523"
               sodipodi:ry="5.3477302"
               sodipodi:start="0"
               sodipodi:end="6.2812528"
               sodipodi:open="true"
               sodipodi:arc-type="arc"
               d="m 90.202868,81.979469 a 5.5863523,5.3477302 0 0 1 -5.583653,5.34773 5.5863523,5.3477302 0 0 1 -5.589049,-5.342562 5.5863523,5.3477302 0 0 1 5.578253,-5.352892 5.5863523,5.3477302 0 0 1 5.594439,5.33739" /><path
               style="fill:#aa8800;stroke:#000000;stroke-width:0.540765;stroke-dasharray:none"
               id="path1301-6"
               sodipodi:type="arc"
               sodipodi:cx="84.616516"
               sodipodi:cy="109.0098"
               sodipodi:rx="5.5863523"
               sodipodi:ry="5.3477302"
               sodipodi:start="0"
               sodipodi:end="6.2812528"
               sodipodi:open="true"
               sodipodi:arc-type="arc"
               d="m 90.202868,109.0098 a 5.5863523,5.3477302 0 0 1 -5.583653,5.34773 5.5863523,5.3477302 0 0 1 -5.589049,-5.34256 5.5863523,5.3477302 0 0 1 5.578253,-5.35289 5.5863523,5.3477302 0 0 1 5.594439,5.33739" /></g></g><g
           id="g4439"
           transform="translate(-4.6718485,1.6127601)"><rect
             style="fill:#806600;fill-opacity:1;stroke:#000000;stroke-width:0.529167;stroke-dasharray:none"
             id="rect4361"
             width="13.348139"
             height="4.2269106"
             x="101.05653"
             y="70.745132"
             ry="2.1134553" /><rect
             style="fill:#806600;fill-opacity:1;stroke:#000000;stroke-width:0.529167;stroke-dasharray:none"
             id="rect4361-1"
             width="13.348139"
             height="4.2269106"
             x="101.05653"
             y="116.12881"
             ry="2.1134553" /></g><g
           id="g5212"><path
             style="fill:#d4aa00;fill-opacity:1;stroke:#000000;stroke-width:0.529167;stroke-dasharray:none"
             d="M 84.947034,106.02648 C 108.43391,96.371974 132.95179,88.092148 151.64618,72.047668 l 2.20234,4.71928 C 134.13337,92.290045 109.95873,98.894146 87.149362,108.22881 Z"
             id="path4834"
             sodipodi:nodetypes="ccccc" /><path
             style="fill:#ffcc00;fill-opacity:1;stroke:#000000;stroke-width:0.529167;stroke-dasharray:none"
             d="m 138.11758,90.924786 -5.97775,-8.494701 5.0339,-2.202331 5.34852,7.865464 z"
             id="path4890" /><ellipse
             style="fill:#504416;fill-opacity:1;stroke:#000000;stroke-width:0.529167;stroke-dasharray:none"
             id="path5155"
             cx="151.33157"
             cy="73.463448"
             rx="4.4046607"
             ry="4.2473516" /></g><path
           id="rect4494"
           style="fill:#ac9d93;stroke:#000000;stroke-width:0.529167"
           d="M 103.67067 76.751904 C 102.93119 76.751904 102.33587 77.347221 102.33587 78.086707 L 102.33587 94.271248 L 79.532613 94.271248 C 78.36176 94.271248 77.419047 95.213445 77.419047 96.384298 L 77.419047 97.941825 C 77.419047 99.112679 78.36176 100.05539 79.532613 100.05539 L 102.33587 100.05539 L 102.33587 116.35104 C 102.33587 117.09053 102.93119 117.68584 103.67067 117.68584 C 104.41016 117.68584 105.00548 117.09053 105.00548 116.35104 L 105.00548 100.05539 L 172.9698 100.05539 C 174.14065 100.05539 175.08285 99.112679 175.08285 97.941825 L 175.08285 96.384298 C 175.08285 95.213445 174.14065 94.271248 172.9698 94.271248 L 105.00548 94.271248 L 105.00548 78.086707 C 105.00548 77.347221 104.41016 76.751904 103.67067 76.751904 z " /><circle
           style="fill:#4d4d4d;fill-opacity:1;stroke:#000000;stroke-width:0.529167;stroke-dasharray:none"
           id="path4643"
           cx="169.85506"
           cy="97.218872"
           r="13.459373" /></g></g></g></svg>
