%TF.GenerationSoftware,KiCad,Pcbnew,7.0.2*%
%TF.CreationDate,2024-04-06T10:43:08-07:00*%
%TF.ProjectId,MK-KS-MkIII,4d4b2d4b-532d-44d6-9b49-49492e6b6963,1.0*%
%TF.SameCoordinates,PX3a67068PY9f701d0*%
%TF.FileFunction,Paste,Top*%
%TF.FilePolarity,Positive*%
%FSLAX46Y46*%
G04 Gerber Fmt 4.6, Leading zero omitted, Abs format (unit mm)*
G04 Created by KiCad (PCBNEW 7.0.2) date 2024-04-06 10:43:08*
%MOMM*%
%LPD*%
G01*
G04 APERTURE LIST*
G04 Aperture macros list*
%AMRoundRect*
0 Rectangle with rounded corners*
0 $1 Rounding radius*
0 $2 $3 $4 $5 $6 $7 $8 $9 X,Y pos of 4 corners*
0 Add a 4 corners polygon primitive as box body*
4,1,4,$2,$3,$4,$5,$6,$7,$8,$9,$2,$3,0*
0 Add four circle primitives for the rounded corners*
1,1,$1+$1,$2,$3*
1,1,$1+$1,$4,$5*
1,1,$1+$1,$6,$7*
1,1,$1+$1,$8,$9*
0 Add four rect primitives between the rounded corners*
20,1,$1+$1,$2,$3,$4,$5,0*
20,1,$1+$1,$4,$5,$6,$7,0*
20,1,$1+$1,$6,$7,$8,$9,0*
20,1,$1+$1,$8,$9,$2,$3,0*%
G04 Aperture macros list end*
%ADD10RoundRect,0.250000X0.450000X-0.350000X0.450000X0.350000X-0.450000X0.350000X-0.450000X-0.350000X0*%
%ADD11RoundRect,0.250000X-0.350000X-0.450000X0.350000X-0.450000X0.350000X0.450000X-0.350000X0.450000X0*%
%ADD12RoundRect,0.250000X0.350000X0.450000X-0.350000X0.450000X-0.350000X-0.450000X0.350000X-0.450000X0*%
%ADD13RoundRect,0.150000X-0.150000X0.512500X-0.150000X-0.512500X0.150000X-0.512500X0.150000X0.512500X0*%
%ADD14RoundRect,0.150000X0.150000X-0.512500X0.150000X0.512500X-0.150000X0.512500X-0.150000X-0.512500X0*%
%ADD15RoundRect,0.150000X0.587500X0.150000X-0.587500X0.150000X-0.587500X-0.150000X0.587500X-0.150000X0*%
%ADD16RoundRect,0.225000X0.375000X-0.225000X0.375000X0.225000X-0.375000X0.225000X-0.375000X-0.225000X0*%
%ADD17RoundRect,0.225000X-0.225000X-0.375000X0.225000X-0.375000X0.225000X0.375000X-0.225000X0.375000X0*%
%ADD18RoundRect,0.237500X0.300000X0.237500X-0.300000X0.237500X-0.300000X-0.237500X0.300000X-0.237500X0*%
%ADD19RoundRect,0.237500X0.237500X-0.300000X0.237500X0.300000X-0.237500X0.300000X-0.237500X-0.300000X0*%
%ADD20RoundRect,0.225000X0.225000X0.375000X-0.225000X0.375000X-0.225000X-0.375000X0.225000X-0.375000X0*%
%ADD21R,0.710000X0.900000*%
%ADD22R,0.800000X0.600000*%
%ADD23R,1.600000X1.400000*%
%ADD24RoundRect,0.237500X-0.237500X0.300000X-0.237500X-0.300000X0.237500X-0.300000X0.237500X0.300000X0*%
%ADD25RoundRect,0.150000X0.825000X0.150000X-0.825000X0.150000X-0.825000X-0.150000X0.825000X-0.150000X0*%
%ADD26RoundRect,0.237500X-0.300000X-0.237500X0.300000X-0.237500X0.300000X0.237500X-0.300000X0.237500X0*%
G04 APERTURE END LIST*
D10*
%TO.C,R15*%
X55113600Y6873800D03*
X55113600Y8873800D03*
%TD*%
D11*
%TO.C,R14*%
X38036600Y56170800D03*
X40036600Y56170800D03*
%TD*%
D10*
%TO.C,R13*%
X58265600Y6873800D03*
X58265600Y8873800D03*
%TD*%
D11*
%TO.C,R12*%
X40501600Y39525467D03*
X42501600Y39525467D03*
%TD*%
D12*
%TO.C,R11*%
X42501600Y32250800D03*
X40501600Y32250800D03*
%TD*%
D11*
%TO.C,R10*%
X42501600Y35888134D03*
X40501600Y35888134D03*
%TD*%
D12*
%TO.C,R9*%
X20380600Y29484800D03*
X18380600Y29484800D03*
%TD*%
D11*
%TO.C,R8*%
X16957600Y37105800D03*
X18957600Y37105800D03*
%TD*%
D12*
%TO.C,R7*%
X18957600Y39107800D03*
X16957600Y39107800D03*
%TD*%
D11*
%TO.C,R6*%
X16957600Y41109800D03*
X18957600Y41109800D03*
%TD*%
D12*
%TO.C,R5*%
X17863600Y32965800D03*
X15863600Y32965800D03*
%TD*%
D10*
%TO.C,R4*%
X60638600Y64862800D03*
X60638600Y66862800D03*
%TD*%
D12*
%TO.C,R3*%
X5371600Y46665800D03*
X3371600Y46665800D03*
%TD*%
%TO.C,R2*%
X61638600Y60464800D03*
X59638600Y60464800D03*
%TD*%
D11*
%TO.C,R1*%
X89020600Y55469800D03*
X91020600Y55469800D03*
%TD*%
D13*
%TO.C,Q3*%
X5269600Y43591800D03*
X3369600Y43591800D03*
X4319600Y41316800D03*
%TD*%
D14*
%TO.C,Q2*%
X57234600Y67127300D03*
X58184600Y64852300D03*
X56284600Y64852300D03*
%TD*%
D15*
%TO.C,Q1*%
X35552600Y42457800D03*
X35552600Y44357800D03*
X33677600Y43407800D03*
%TD*%
D16*
%TO.C,D12*%
X75149600Y59617300D03*
X75149600Y62917300D03*
%TD*%
D17*
%TO.C,D11*%
X67267100Y25390800D03*
X70567100Y25390800D03*
%TD*%
%TO.C,D10*%
X67267100Y21841800D03*
X70567100Y21841800D03*
%TD*%
%TO.C,D9*%
X32881200Y39118800D03*
X36181200Y39118800D03*
%TD*%
D16*
%TO.C,D6*%
X13218600Y37876800D03*
X13218600Y41176800D03*
%TD*%
D17*
%TO.C,D4*%
X22980600Y25477800D03*
X26280600Y25477800D03*
%TD*%
D18*
%TO.C,C10*%
X25586500Y32880000D03*
X23861500Y32880000D03*
%TD*%
D19*
%TO.C,C3*%
X27907600Y48591300D03*
X27907600Y50316300D03*
%TD*%
D18*
%TO.C,C2*%
X35861100Y56172800D03*
X34136100Y56172800D03*
%TD*%
D20*
%TO.C,D7*%
X36181200Y32435600D03*
X32881200Y32435600D03*
%TD*%
D19*
%TO.C,C7*%
X36508400Y48591300D03*
X36508400Y50316300D03*
%TD*%
%TO.C,C5*%
X32208000Y48591300D03*
X32208000Y50316300D03*
%TD*%
D17*
%TO.C,D3*%
X28877100Y56169800D03*
X32177100Y56169800D03*
%TD*%
D19*
%TO.C,C4*%
X30057800Y48591300D03*
X30057800Y50316300D03*
%TD*%
D17*
%TO.C,D8*%
X32881200Y36272600D03*
X36181200Y36272600D03*
%TD*%
D21*
%TO.C,LED1*%
X57197000Y72794000D03*
X59897000Y72794000D03*
D22*
X58547000Y72644000D03*
%TD*%
D23*
%TO.C,SW3*%
X35747600Y3413800D03*
X44847600Y3377800D03*
X35747600Y-1086200D03*
X44847600Y-1122200D03*
%TD*%
D19*
%TO.C,C6*%
X34358200Y48591300D03*
X34358200Y50316300D03*
%TD*%
D23*
%TO.C,SW2*%
X13467600Y3413800D03*
X22567600Y3377800D03*
X13467600Y-1086200D03*
X22567600Y-1122200D03*
%TD*%
D24*
%TO.C,C8*%
X38658600Y50316300D03*
X38658600Y48591300D03*
%TD*%
D20*
%TO.C,D5*%
X26235600Y29381800D03*
X22935600Y29381800D03*
%TD*%
D25*
%TO.C,U4*%
X28774600Y34812800D03*
X28774600Y36082800D03*
X28774600Y37352800D03*
X28774600Y38622800D03*
X23824600Y38622800D03*
X23824600Y37352800D03*
X23824600Y36082800D03*
X23824600Y34812800D03*
%TD*%
D26*
%TO.C,C9*%
X40639100Y42942800D03*
X42364100Y42942800D03*
%TD*%
M02*
